%
M48
M72
T01C0.01300
T02C0.04000
T03C0.11811
%
T01
X26416Y121500
X26416Y111900
X36100Y106800
X45016Y96600
X48316Y99900
X52816Y95700
X50116Y92700
X44600Y82800
X48700Y78200
X45400Y77400
X45500Y72900
X47500Y69500
X51200Y66700
X51900Y60700
X50600Y57000
X48100Y53400
X51100Y51900
X59163Y49163
X62116Y49163
X63100Y57000
X59800Y65100
X69600Y71600
X69600Y74500
X62800Y79500
X65500Y81500
X67600Y90900
X75300Y85800
X86200Y91800
X91000Y93600
X100900Y94800
X108100Y94600
X115300Y90300
X110800Y84600
X123100Y91200
X102100Y107400
X87700Y101400
X83200Y101400
X79600Y98400
X67000Y105300
X58300Y110700
X53416Y112200
X63100Y118200
X48916Y122600
X39816Y122800
X22416Y97600
X22416Y94600
X22416Y91600
X22416Y88600
X22416Y85600
X22416Y82600
X22416Y79600
X22416Y76600
X22416Y73600
X22416Y70600
X22416Y67600
X22416Y64600
X25600Y59400
X22416Y50600
X22416Y47600
X22416Y44600
X33100Y47700
X37300Y47700
X37800Y61900
X27000Y68700
X27100Y72300
X27100Y75600
X31300Y78300
X31600Y83700
X27400Y85200
X34900Y87300
X37000Y74700
X51900Y74600
X77500Y60900
X92500Y68400
X92500Y71400
X95200Y69900
X104800Y70200
X107500Y71400
X107500Y68400
X114100Y68400
X114100Y71400
X116800Y69900
X126100Y70200
X128800Y71400
X128800Y68400
X151300Y72900
X156100Y73200
X161200Y73200
X166300Y73200
X163600Y84600
X81616Y114000
T02
X75938Y121583
X85938Y121583
X95938Y121583
X105938Y121583
X115938Y121583
X125938Y121583
X135938Y121583
X145938Y121583
X155938Y121583
X165938Y121583
X175938Y121583
X185938Y121583
X185938Y111583
X175938Y111583
X165938Y111583
X155938Y111583
X145938Y111583
X135938Y111583
X125938Y111583
X115938Y111583
X105938Y111583
X105938Y101583
X115938Y101583
X125938Y101583
X135938Y101583
X145938Y101583
X155938Y101583
X165938Y101583
X175938Y101583
X185938Y101583
X185938Y34969
X175938Y34969
X165938Y34969
X155938Y34969
X145938Y34969
X135938Y34969
X135938Y44969
X145938Y44969
X155938Y44969
X165938Y44969
X175938Y44969
X185938Y44969
X185938Y54969
X175938Y54969
X165938Y54969
X155938Y54969
X145938Y54969
X135938Y54969
X121300Y34969
X111300Y34969
X101300Y34969
X91300Y34969
X81300Y34969
X71300Y34969
X61300Y34969
X51300Y34969
X41300Y34969
X31300Y34969
T03
X17237Y119614
X17237Y36937
X198339Y36937
X198339Y119614
M30
