G75*
%MOIN*%
%OFA0B0*%
%FSLAX25Y25*%
%IPPOS*%
%LPD*%
%AMOC8*
5,1,8,0,0,1.08239X$1,22.5*
%
%ADD10C,0.01600*%
%ADD11C,0.00000*%
%ADD12R,0.02362X0.06299*%
%ADD13R,0.05906X0.05118*%
%ADD14R,0.03543X0.02756*%
%ADD15R,0.02165X0.04724*%
%ADD16R,0.10000X0.10000*%
%ADD17R,0.05118X0.05906*%
%ADD18OC8,0.06000*%
%ADD19R,0.03937X0.03937*%
%ADD20R,0.01181X0.03346*%
%ADD21R,0.03346X0.01181*%
%ADD22R,0.07874X0.07874*%
%ADD23R,0.02756X0.03543*%
%ADD24R,0.03150X0.01120*%
%ADD25R,0.01120X0.03150*%
%ADD26R,0.12402X0.12402*%
%ADD27R,0.04724X0.04331*%
%ADD28R,0.08700X0.02400*%
%ADD29C,0.01181*%
%ADD30R,0.02600X0.08000*%
%ADD31R,0.07874X0.05512*%
%ADD32C,0.06000*%
%ADD33C,0.07400*%
%ADD34C,0.00600*%
%ADD35C,0.02500*%
%ADD36C,0.00800*%
%ADD37C,0.01200*%
%ADD38C,0.02000*%
%ADD39C,0.02400*%
%ADD40C,0.04000*%
D10*
X0017237Y0029063D02*
X0198339Y0029063D01*
X0198529Y0029065D01*
X0198719Y0029072D01*
X0198909Y0029084D01*
X0199099Y0029100D01*
X0199288Y0029120D01*
X0199477Y0029146D01*
X0199665Y0029175D01*
X0199852Y0029210D01*
X0200038Y0029249D01*
X0200223Y0029292D01*
X0200408Y0029340D01*
X0200591Y0029392D01*
X0200772Y0029448D01*
X0200952Y0029509D01*
X0201131Y0029575D01*
X0201308Y0029644D01*
X0201484Y0029718D01*
X0201657Y0029796D01*
X0201829Y0029879D01*
X0201998Y0029965D01*
X0202166Y0030055D01*
X0202331Y0030150D01*
X0202494Y0030248D01*
X0202654Y0030351D01*
X0202812Y0030457D01*
X0202967Y0030567D01*
X0203120Y0030680D01*
X0203270Y0030798D01*
X0203416Y0030919D01*
X0203560Y0031043D01*
X0203701Y0031171D01*
X0203839Y0031302D01*
X0203974Y0031437D01*
X0204105Y0031575D01*
X0204233Y0031716D01*
X0204357Y0031860D01*
X0204478Y0032006D01*
X0204596Y0032156D01*
X0204709Y0032309D01*
X0204819Y0032464D01*
X0204925Y0032622D01*
X0205028Y0032782D01*
X0205126Y0032945D01*
X0205221Y0033110D01*
X0205311Y0033278D01*
X0205397Y0033447D01*
X0205480Y0033619D01*
X0205558Y0033792D01*
X0205632Y0033968D01*
X0205701Y0034145D01*
X0205767Y0034324D01*
X0205828Y0034504D01*
X0205884Y0034685D01*
X0205936Y0034868D01*
X0205984Y0035053D01*
X0206027Y0035238D01*
X0206066Y0035424D01*
X0206101Y0035611D01*
X0206130Y0035799D01*
X0206156Y0035988D01*
X0206176Y0036177D01*
X0206192Y0036367D01*
X0206204Y0036557D01*
X0206211Y0036747D01*
X0206213Y0036937D01*
X0206213Y0119614D01*
X0206211Y0119804D01*
X0206204Y0119994D01*
X0206192Y0120184D01*
X0206176Y0120374D01*
X0206156Y0120563D01*
X0206130Y0120752D01*
X0206101Y0120940D01*
X0206066Y0121127D01*
X0206027Y0121313D01*
X0205984Y0121498D01*
X0205936Y0121683D01*
X0205884Y0121866D01*
X0205828Y0122047D01*
X0205767Y0122227D01*
X0205701Y0122406D01*
X0205632Y0122583D01*
X0205558Y0122759D01*
X0205480Y0122932D01*
X0205397Y0123104D01*
X0205311Y0123273D01*
X0205221Y0123441D01*
X0205126Y0123606D01*
X0205028Y0123769D01*
X0204925Y0123929D01*
X0204819Y0124087D01*
X0204709Y0124242D01*
X0204596Y0124395D01*
X0204478Y0124545D01*
X0204357Y0124691D01*
X0204233Y0124835D01*
X0204105Y0124976D01*
X0203974Y0125114D01*
X0203839Y0125249D01*
X0203701Y0125380D01*
X0203560Y0125508D01*
X0203416Y0125632D01*
X0203270Y0125753D01*
X0203120Y0125871D01*
X0202967Y0125984D01*
X0202812Y0126094D01*
X0202654Y0126200D01*
X0202494Y0126303D01*
X0202331Y0126401D01*
X0202166Y0126496D01*
X0201998Y0126586D01*
X0201829Y0126672D01*
X0201657Y0126755D01*
X0201484Y0126833D01*
X0201308Y0126907D01*
X0201131Y0126976D01*
X0200952Y0127042D01*
X0200772Y0127103D01*
X0200591Y0127159D01*
X0200408Y0127211D01*
X0200223Y0127259D01*
X0200038Y0127302D01*
X0199852Y0127341D01*
X0199665Y0127376D01*
X0199477Y0127405D01*
X0199288Y0127431D01*
X0199099Y0127451D01*
X0198909Y0127467D01*
X0198719Y0127479D01*
X0198529Y0127486D01*
X0198339Y0127488D01*
X0017237Y0127488D01*
X0017047Y0127486D01*
X0016857Y0127479D01*
X0016667Y0127467D01*
X0016477Y0127451D01*
X0016288Y0127431D01*
X0016099Y0127405D01*
X0015911Y0127376D01*
X0015724Y0127341D01*
X0015538Y0127302D01*
X0015353Y0127259D01*
X0015168Y0127211D01*
X0014985Y0127159D01*
X0014804Y0127103D01*
X0014624Y0127042D01*
X0014445Y0126976D01*
X0014268Y0126907D01*
X0014092Y0126833D01*
X0013919Y0126755D01*
X0013747Y0126672D01*
X0013578Y0126586D01*
X0013410Y0126496D01*
X0013245Y0126401D01*
X0013082Y0126303D01*
X0012922Y0126200D01*
X0012764Y0126094D01*
X0012609Y0125984D01*
X0012456Y0125871D01*
X0012306Y0125753D01*
X0012160Y0125632D01*
X0012016Y0125508D01*
X0011875Y0125380D01*
X0011737Y0125249D01*
X0011602Y0125114D01*
X0011471Y0124976D01*
X0011343Y0124835D01*
X0011219Y0124691D01*
X0011098Y0124545D01*
X0010980Y0124395D01*
X0010867Y0124242D01*
X0010757Y0124087D01*
X0010651Y0123929D01*
X0010548Y0123769D01*
X0010450Y0123606D01*
X0010355Y0123441D01*
X0010265Y0123273D01*
X0010179Y0123104D01*
X0010096Y0122932D01*
X0010018Y0122759D01*
X0009944Y0122583D01*
X0009875Y0122406D01*
X0009809Y0122227D01*
X0009748Y0122047D01*
X0009692Y0121866D01*
X0009640Y0121683D01*
X0009592Y0121498D01*
X0009549Y0121313D01*
X0009510Y0121127D01*
X0009475Y0120940D01*
X0009446Y0120752D01*
X0009420Y0120563D01*
X0009400Y0120374D01*
X0009384Y0120184D01*
X0009372Y0119994D01*
X0009365Y0119804D01*
X0009363Y0119614D01*
X0009363Y0036937D01*
X0009365Y0036747D01*
X0009372Y0036557D01*
X0009384Y0036367D01*
X0009400Y0036177D01*
X0009420Y0035988D01*
X0009446Y0035799D01*
X0009475Y0035611D01*
X0009510Y0035424D01*
X0009549Y0035238D01*
X0009592Y0035053D01*
X0009640Y0034868D01*
X0009692Y0034685D01*
X0009748Y0034504D01*
X0009809Y0034324D01*
X0009875Y0034145D01*
X0009944Y0033968D01*
X0010018Y0033792D01*
X0010096Y0033619D01*
X0010179Y0033447D01*
X0010265Y0033278D01*
X0010355Y0033110D01*
X0010450Y0032945D01*
X0010548Y0032782D01*
X0010651Y0032622D01*
X0010757Y0032464D01*
X0010867Y0032309D01*
X0010980Y0032156D01*
X0011098Y0032006D01*
X0011219Y0031860D01*
X0011343Y0031716D01*
X0011471Y0031575D01*
X0011602Y0031437D01*
X0011737Y0031302D01*
X0011875Y0031171D01*
X0012016Y0031043D01*
X0012160Y0030919D01*
X0012306Y0030798D01*
X0012456Y0030680D01*
X0012609Y0030567D01*
X0012764Y0030457D01*
X0012922Y0030351D01*
X0013082Y0030248D01*
X0013245Y0030150D01*
X0013410Y0030055D01*
X0013578Y0029965D01*
X0013747Y0029879D01*
X0013919Y0029796D01*
X0014092Y0029718D01*
X0014268Y0029644D01*
X0014445Y0029575D01*
X0014624Y0029509D01*
X0014804Y0029448D01*
X0014985Y0029392D01*
X0015168Y0029340D01*
X0015353Y0029292D01*
X0015538Y0029249D01*
X0015724Y0029210D01*
X0015911Y0029175D01*
X0016099Y0029146D01*
X0016288Y0029120D01*
X0016477Y0029100D01*
X0016667Y0029084D01*
X0016857Y0029072D01*
X0017047Y0029065D01*
X0017237Y0029063D01*
X0033100Y0047700D02*
X0037600Y0043200D01*
X0049300Y0043200D01*
X0051300Y0041200D01*
X0051300Y0034969D01*
X0061300Y0034969D02*
X0061300Y0040500D01*
X0055900Y0045900D01*
X0039100Y0045900D01*
X0037300Y0047700D01*
X0092500Y0071400D02*
X0092611Y0071511D01*
X0092611Y0076913D01*
X0107611Y0076913D02*
X0107611Y0071511D01*
X0107500Y0071400D01*
X0113871Y0071629D02*
X0114100Y0071400D01*
X0113871Y0071629D02*
X0113871Y0076913D01*
X0128871Y0076913D02*
X0128871Y0071471D01*
X0128800Y0071400D01*
X0175938Y0111583D02*
X0185938Y0111583D01*
X0189302Y0108219D01*
X0195955Y0108219D01*
X0196174Y0108000D01*
X0200200Y0108000D01*
X0201700Y0106500D01*
X0201700Y0055300D01*
X0191369Y0044969D01*
X0185938Y0044969D01*
X0058798Y0115287D02*
X0056414Y0115287D01*
X0053359Y0112232D01*
D11*
X0011331Y0119614D02*
X0011333Y0119767D01*
X0011339Y0119921D01*
X0011349Y0120074D01*
X0011363Y0120226D01*
X0011381Y0120379D01*
X0011403Y0120530D01*
X0011428Y0120681D01*
X0011458Y0120832D01*
X0011492Y0120982D01*
X0011529Y0121130D01*
X0011570Y0121278D01*
X0011615Y0121424D01*
X0011664Y0121570D01*
X0011717Y0121714D01*
X0011773Y0121856D01*
X0011833Y0121997D01*
X0011897Y0122137D01*
X0011964Y0122275D01*
X0012035Y0122411D01*
X0012110Y0122545D01*
X0012187Y0122677D01*
X0012269Y0122807D01*
X0012353Y0122935D01*
X0012441Y0123061D01*
X0012532Y0123184D01*
X0012626Y0123305D01*
X0012724Y0123423D01*
X0012824Y0123539D01*
X0012928Y0123652D01*
X0013034Y0123763D01*
X0013143Y0123871D01*
X0013255Y0123976D01*
X0013369Y0124077D01*
X0013487Y0124176D01*
X0013606Y0124272D01*
X0013728Y0124365D01*
X0013853Y0124454D01*
X0013980Y0124541D01*
X0014109Y0124623D01*
X0014240Y0124703D01*
X0014373Y0124779D01*
X0014508Y0124852D01*
X0014645Y0124921D01*
X0014784Y0124986D01*
X0014924Y0125048D01*
X0015066Y0125106D01*
X0015209Y0125161D01*
X0015354Y0125212D01*
X0015500Y0125259D01*
X0015647Y0125302D01*
X0015795Y0125341D01*
X0015944Y0125377D01*
X0016094Y0125408D01*
X0016245Y0125436D01*
X0016396Y0125460D01*
X0016549Y0125480D01*
X0016701Y0125496D01*
X0016854Y0125508D01*
X0017007Y0125516D01*
X0017160Y0125520D01*
X0017314Y0125520D01*
X0017467Y0125516D01*
X0017620Y0125508D01*
X0017773Y0125496D01*
X0017925Y0125480D01*
X0018078Y0125460D01*
X0018229Y0125436D01*
X0018380Y0125408D01*
X0018530Y0125377D01*
X0018679Y0125341D01*
X0018827Y0125302D01*
X0018974Y0125259D01*
X0019120Y0125212D01*
X0019265Y0125161D01*
X0019408Y0125106D01*
X0019550Y0125048D01*
X0019690Y0124986D01*
X0019829Y0124921D01*
X0019966Y0124852D01*
X0020101Y0124779D01*
X0020234Y0124703D01*
X0020365Y0124623D01*
X0020494Y0124541D01*
X0020621Y0124454D01*
X0020746Y0124365D01*
X0020868Y0124272D01*
X0020987Y0124176D01*
X0021105Y0124077D01*
X0021219Y0123976D01*
X0021331Y0123871D01*
X0021440Y0123763D01*
X0021546Y0123652D01*
X0021650Y0123539D01*
X0021750Y0123423D01*
X0021848Y0123305D01*
X0021942Y0123184D01*
X0022033Y0123061D01*
X0022121Y0122935D01*
X0022205Y0122807D01*
X0022287Y0122677D01*
X0022364Y0122545D01*
X0022439Y0122411D01*
X0022510Y0122275D01*
X0022577Y0122137D01*
X0022641Y0121997D01*
X0022701Y0121856D01*
X0022757Y0121714D01*
X0022810Y0121570D01*
X0022859Y0121424D01*
X0022904Y0121278D01*
X0022945Y0121130D01*
X0022982Y0120982D01*
X0023016Y0120832D01*
X0023046Y0120681D01*
X0023071Y0120530D01*
X0023093Y0120379D01*
X0023111Y0120226D01*
X0023125Y0120074D01*
X0023135Y0119921D01*
X0023141Y0119767D01*
X0023143Y0119614D01*
X0023141Y0119461D01*
X0023135Y0119307D01*
X0023125Y0119154D01*
X0023111Y0119002D01*
X0023093Y0118849D01*
X0023071Y0118698D01*
X0023046Y0118547D01*
X0023016Y0118396D01*
X0022982Y0118246D01*
X0022945Y0118098D01*
X0022904Y0117950D01*
X0022859Y0117804D01*
X0022810Y0117658D01*
X0022757Y0117514D01*
X0022701Y0117372D01*
X0022641Y0117231D01*
X0022577Y0117091D01*
X0022510Y0116953D01*
X0022439Y0116817D01*
X0022364Y0116683D01*
X0022287Y0116551D01*
X0022205Y0116421D01*
X0022121Y0116293D01*
X0022033Y0116167D01*
X0021942Y0116044D01*
X0021848Y0115923D01*
X0021750Y0115805D01*
X0021650Y0115689D01*
X0021546Y0115576D01*
X0021440Y0115465D01*
X0021331Y0115357D01*
X0021219Y0115252D01*
X0021105Y0115151D01*
X0020987Y0115052D01*
X0020868Y0114956D01*
X0020746Y0114863D01*
X0020621Y0114774D01*
X0020494Y0114687D01*
X0020365Y0114605D01*
X0020234Y0114525D01*
X0020101Y0114449D01*
X0019966Y0114376D01*
X0019829Y0114307D01*
X0019690Y0114242D01*
X0019550Y0114180D01*
X0019408Y0114122D01*
X0019265Y0114067D01*
X0019120Y0114016D01*
X0018974Y0113969D01*
X0018827Y0113926D01*
X0018679Y0113887D01*
X0018530Y0113851D01*
X0018380Y0113820D01*
X0018229Y0113792D01*
X0018078Y0113768D01*
X0017925Y0113748D01*
X0017773Y0113732D01*
X0017620Y0113720D01*
X0017467Y0113712D01*
X0017314Y0113708D01*
X0017160Y0113708D01*
X0017007Y0113712D01*
X0016854Y0113720D01*
X0016701Y0113732D01*
X0016549Y0113748D01*
X0016396Y0113768D01*
X0016245Y0113792D01*
X0016094Y0113820D01*
X0015944Y0113851D01*
X0015795Y0113887D01*
X0015647Y0113926D01*
X0015500Y0113969D01*
X0015354Y0114016D01*
X0015209Y0114067D01*
X0015066Y0114122D01*
X0014924Y0114180D01*
X0014784Y0114242D01*
X0014645Y0114307D01*
X0014508Y0114376D01*
X0014373Y0114449D01*
X0014240Y0114525D01*
X0014109Y0114605D01*
X0013980Y0114687D01*
X0013853Y0114774D01*
X0013728Y0114863D01*
X0013606Y0114956D01*
X0013487Y0115052D01*
X0013369Y0115151D01*
X0013255Y0115252D01*
X0013143Y0115357D01*
X0013034Y0115465D01*
X0012928Y0115576D01*
X0012824Y0115689D01*
X0012724Y0115805D01*
X0012626Y0115923D01*
X0012532Y0116044D01*
X0012441Y0116167D01*
X0012353Y0116293D01*
X0012269Y0116421D01*
X0012187Y0116551D01*
X0012110Y0116683D01*
X0012035Y0116817D01*
X0011964Y0116953D01*
X0011897Y0117091D01*
X0011833Y0117231D01*
X0011773Y0117372D01*
X0011717Y0117514D01*
X0011664Y0117658D01*
X0011615Y0117804D01*
X0011570Y0117950D01*
X0011529Y0118098D01*
X0011492Y0118246D01*
X0011458Y0118396D01*
X0011428Y0118547D01*
X0011403Y0118698D01*
X0011381Y0118849D01*
X0011363Y0119002D01*
X0011349Y0119154D01*
X0011339Y0119307D01*
X0011333Y0119461D01*
X0011331Y0119614D01*
X0011331Y0036937D02*
X0011333Y0037090D01*
X0011339Y0037244D01*
X0011349Y0037397D01*
X0011363Y0037549D01*
X0011381Y0037702D01*
X0011403Y0037853D01*
X0011428Y0038004D01*
X0011458Y0038155D01*
X0011492Y0038305D01*
X0011529Y0038453D01*
X0011570Y0038601D01*
X0011615Y0038747D01*
X0011664Y0038893D01*
X0011717Y0039037D01*
X0011773Y0039179D01*
X0011833Y0039320D01*
X0011897Y0039460D01*
X0011964Y0039598D01*
X0012035Y0039734D01*
X0012110Y0039868D01*
X0012187Y0040000D01*
X0012269Y0040130D01*
X0012353Y0040258D01*
X0012441Y0040384D01*
X0012532Y0040507D01*
X0012626Y0040628D01*
X0012724Y0040746D01*
X0012824Y0040862D01*
X0012928Y0040975D01*
X0013034Y0041086D01*
X0013143Y0041194D01*
X0013255Y0041299D01*
X0013369Y0041400D01*
X0013487Y0041499D01*
X0013606Y0041595D01*
X0013728Y0041688D01*
X0013853Y0041777D01*
X0013980Y0041864D01*
X0014109Y0041946D01*
X0014240Y0042026D01*
X0014373Y0042102D01*
X0014508Y0042175D01*
X0014645Y0042244D01*
X0014784Y0042309D01*
X0014924Y0042371D01*
X0015066Y0042429D01*
X0015209Y0042484D01*
X0015354Y0042535D01*
X0015500Y0042582D01*
X0015647Y0042625D01*
X0015795Y0042664D01*
X0015944Y0042700D01*
X0016094Y0042731D01*
X0016245Y0042759D01*
X0016396Y0042783D01*
X0016549Y0042803D01*
X0016701Y0042819D01*
X0016854Y0042831D01*
X0017007Y0042839D01*
X0017160Y0042843D01*
X0017314Y0042843D01*
X0017467Y0042839D01*
X0017620Y0042831D01*
X0017773Y0042819D01*
X0017925Y0042803D01*
X0018078Y0042783D01*
X0018229Y0042759D01*
X0018380Y0042731D01*
X0018530Y0042700D01*
X0018679Y0042664D01*
X0018827Y0042625D01*
X0018974Y0042582D01*
X0019120Y0042535D01*
X0019265Y0042484D01*
X0019408Y0042429D01*
X0019550Y0042371D01*
X0019690Y0042309D01*
X0019829Y0042244D01*
X0019966Y0042175D01*
X0020101Y0042102D01*
X0020234Y0042026D01*
X0020365Y0041946D01*
X0020494Y0041864D01*
X0020621Y0041777D01*
X0020746Y0041688D01*
X0020868Y0041595D01*
X0020987Y0041499D01*
X0021105Y0041400D01*
X0021219Y0041299D01*
X0021331Y0041194D01*
X0021440Y0041086D01*
X0021546Y0040975D01*
X0021650Y0040862D01*
X0021750Y0040746D01*
X0021848Y0040628D01*
X0021942Y0040507D01*
X0022033Y0040384D01*
X0022121Y0040258D01*
X0022205Y0040130D01*
X0022287Y0040000D01*
X0022364Y0039868D01*
X0022439Y0039734D01*
X0022510Y0039598D01*
X0022577Y0039460D01*
X0022641Y0039320D01*
X0022701Y0039179D01*
X0022757Y0039037D01*
X0022810Y0038893D01*
X0022859Y0038747D01*
X0022904Y0038601D01*
X0022945Y0038453D01*
X0022982Y0038305D01*
X0023016Y0038155D01*
X0023046Y0038004D01*
X0023071Y0037853D01*
X0023093Y0037702D01*
X0023111Y0037549D01*
X0023125Y0037397D01*
X0023135Y0037244D01*
X0023141Y0037090D01*
X0023143Y0036937D01*
X0023141Y0036784D01*
X0023135Y0036630D01*
X0023125Y0036477D01*
X0023111Y0036325D01*
X0023093Y0036172D01*
X0023071Y0036021D01*
X0023046Y0035870D01*
X0023016Y0035719D01*
X0022982Y0035569D01*
X0022945Y0035421D01*
X0022904Y0035273D01*
X0022859Y0035127D01*
X0022810Y0034981D01*
X0022757Y0034837D01*
X0022701Y0034695D01*
X0022641Y0034554D01*
X0022577Y0034414D01*
X0022510Y0034276D01*
X0022439Y0034140D01*
X0022364Y0034006D01*
X0022287Y0033874D01*
X0022205Y0033744D01*
X0022121Y0033616D01*
X0022033Y0033490D01*
X0021942Y0033367D01*
X0021848Y0033246D01*
X0021750Y0033128D01*
X0021650Y0033012D01*
X0021546Y0032899D01*
X0021440Y0032788D01*
X0021331Y0032680D01*
X0021219Y0032575D01*
X0021105Y0032474D01*
X0020987Y0032375D01*
X0020868Y0032279D01*
X0020746Y0032186D01*
X0020621Y0032097D01*
X0020494Y0032010D01*
X0020365Y0031928D01*
X0020234Y0031848D01*
X0020101Y0031772D01*
X0019966Y0031699D01*
X0019829Y0031630D01*
X0019690Y0031565D01*
X0019550Y0031503D01*
X0019408Y0031445D01*
X0019265Y0031390D01*
X0019120Y0031339D01*
X0018974Y0031292D01*
X0018827Y0031249D01*
X0018679Y0031210D01*
X0018530Y0031174D01*
X0018380Y0031143D01*
X0018229Y0031115D01*
X0018078Y0031091D01*
X0017925Y0031071D01*
X0017773Y0031055D01*
X0017620Y0031043D01*
X0017467Y0031035D01*
X0017314Y0031031D01*
X0017160Y0031031D01*
X0017007Y0031035D01*
X0016854Y0031043D01*
X0016701Y0031055D01*
X0016549Y0031071D01*
X0016396Y0031091D01*
X0016245Y0031115D01*
X0016094Y0031143D01*
X0015944Y0031174D01*
X0015795Y0031210D01*
X0015647Y0031249D01*
X0015500Y0031292D01*
X0015354Y0031339D01*
X0015209Y0031390D01*
X0015066Y0031445D01*
X0014924Y0031503D01*
X0014784Y0031565D01*
X0014645Y0031630D01*
X0014508Y0031699D01*
X0014373Y0031772D01*
X0014240Y0031848D01*
X0014109Y0031928D01*
X0013980Y0032010D01*
X0013853Y0032097D01*
X0013728Y0032186D01*
X0013606Y0032279D01*
X0013487Y0032375D01*
X0013369Y0032474D01*
X0013255Y0032575D01*
X0013143Y0032680D01*
X0013034Y0032788D01*
X0012928Y0032899D01*
X0012824Y0033012D01*
X0012724Y0033128D01*
X0012626Y0033246D01*
X0012532Y0033367D01*
X0012441Y0033490D01*
X0012353Y0033616D01*
X0012269Y0033744D01*
X0012187Y0033874D01*
X0012110Y0034006D01*
X0012035Y0034140D01*
X0011964Y0034276D01*
X0011897Y0034414D01*
X0011833Y0034554D01*
X0011773Y0034695D01*
X0011717Y0034837D01*
X0011664Y0034981D01*
X0011615Y0035127D01*
X0011570Y0035273D01*
X0011529Y0035421D01*
X0011492Y0035569D01*
X0011458Y0035719D01*
X0011428Y0035870D01*
X0011403Y0036021D01*
X0011381Y0036172D01*
X0011363Y0036325D01*
X0011349Y0036477D01*
X0011339Y0036630D01*
X0011333Y0036784D01*
X0011331Y0036937D01*
X0192433Y0036937D02*
X0192435Y0037090D01*
X0192441Y0037244D01*
X0192451Y0037397D01*
X0192465Y0037549D01*
X0192483Y0037702D01*
X0192505Y0037853D01*
X0192530Y0038004D01*
X0192560Y0038155D01*
X0192594Y0038305D01*
X0192631Y0038453D01*
X0192672Y0038601D01*
X0192717Y0038747D01*
X0192766Y0038893D01*
X0192819Y0039037D01*
X0192875Y0039179D01*
X0192935Y0039320D01*
X0192999Y0039460D01*
X0193066Y0039598D01*
X0193137Y0039734D01*
X0193212Y0039868D01*
X0193289Y0040000D01*
X0193371Y0040130D01*
X0193455Y0040258D01*
X0193543Y0040384D01*
X0193634Y0040507D01*
X0193728Y0040628D01*
X0193826Y0040746D01*
X0193926Y0040862D01*
X0194030Y0040975D01*
X0194136Y0041086D01*
X0194245Y0041194D01*
X0194357Y0041299D01*
X0194471Y0041400D01*
X0194589Y0041499D01*
X0194708Y0041595D01*
X0194830Y0041688D01*
X0194955Y0041777D01*
X0195082Y0041864D01*
X0195211Y0041946D01*
X0195342Y0042026D01*
X0195475Y0042102D01*
X0195610Y0042175D01*
X0195747Y0042244D01*
X0195886Y0042309D01*
X0196026Y0042371D01*
X0196168Y0042429D01*
X0196311Y0042484D01*
X0196456Y0042535D01*
X0196602Y0042582D01*
X0196749Y0042625D01*
X0196897Y0042664D01*
X0197046Y0042700D01*
X0197196Y0042731D01*
X0197347Y0042759D01*
X0197498Y0042783D01*
X0197651Y0042803D01*
X0197803Y0042819D01*
X0197956Y0042831D01*
X0198109Y0042839D01*
X0198262Y0042843D01*
X0198416Y0042843D01*
X0198569Y0042839D01*
X0198722Y0042831D01*
X0198875Y0042819D01*
X0199027Y0042803D01*
X0199180Y0042783D01*
X0199331Y0042759D01*
X0199482Y0042731D01*
X0199632Y0042700D01*
X0199781Y0042664D01*
X0199929Y0042625D01*
X0200076Y0042582D01*
X0200222Y0042535D01*
X0200367Y0042484D01*
X0200510Y0042429D01*
X0200652Y0042371D01*
X0200792Y0042309D01*
X0200931Y0042244D01*
X0201068Y0042175D01*
X0201203Y0042102D01*
X0201336Y0042026D01*
X0201467Y0041946D01*
X0201596Y0041864D01*
X0201723Y0041777D01*
X0201848Y0041688D01*
X0201970Y0041595D01*
X0202089Y0041499D01*
X0202207Y0041400D01*
X0202321Y0041299D01*
X0202433Y0041194D01*
X0202542Y0041086D01*
X0202648Y0040975D01*
X0202752Y0040862D01*
X0202852Y0040746D01*
X0202950Y0040628D01*
X0203044Y0040507D01*
X0203135Y0040384D01*
X0203223Y0040258D01*
X0203307Y0040130D01*
X0203389Y0040000D01*
X0203466Y0039868D01*
X0203541Y0039734D01*
X0203612Y0039598D01*
X0203679Y0039460D01*
X0203743Y0039320D01*
X0203803Y0039179D01*
X0203859Y0039037D01*
X0203912Y0038893D01*
X0203961Y0038747D01*
X0204006Y0038601D01*
X0204047Y0038453D01*
X0204084Y0038305D01*
X0204118Y0038155D01*
X0204148Y0038004D01*
X0204173Y0037853D01*
X0204195Y0037702D01*
X0204213Y0037549D01*
X0204227Y0037397D01*
X0204237Y0037244D01*
X0204243Y0037090D01*
X0204245Y0036937D01*
X0204243Y0036784D01*
X0204237Y0036630D01*
X0204227Y0036477D01*
X0204213Y0036325D01*
X0204195Y0036172D01*
X0204173Y0036021D01*
X0204148Y0035870D01*
X0204118Y0035719D01*
X0204084Y0035569D01*
X0204047Y0035421D01*
X0204006Y0035273D01*
X0203961Y0035127D01*
X0203912Y0034981D01*
X0203859Y0034837D01*
X0203803Y0034695D01*
X0203743Y0034554D01*
X0203679Y0034414D01*
X0203612Y0034276D01*
X0203541Y0034140D01*
X0203466Y0034006D01*
X0203389Y0033874D01*
X0203307Y0033744D01*
X0203223Y0033616D01*
X0203135Y0033490D01*
X0203044Y0033367D01*
X0202950Y0033246D01*
X0202852Y0033128D01*
X0202752Y0033012D01*
X0202648Y0032899D01*
X0202542Y0032788D01*
X0202433Y0032680D01*
X0202321Y0032575D01*
X0202207Y0032474D01*
X0202089Y0032375D01*
X0201970Y0032279D01*
X0201848Y0032186D01*
X0201723Y0032097D01*
X0201596Y0032010D01*
X0201467Y0031928D01*
X0201336Y0031848D01*
X0201203Y0031772D01*
X0201068Y0031699D01*
X0200931Y0031630D01*
X0200792Y0031565D01*
X0200652Y0031503D01*
X0200510Y0031445D01*
X0200367Y0031390D01*
X0200222Y0031339D01*
X0200076Y0031292D01*
X0199929Y0031249D01*
X0199781Y0031210D01*
X0199632Y0031174D01*
X0199482Y0031143D01*
X0199331Y0031115D01*
X0199180Y0031091D01*
X0199027Y0031071D01*
X0198875Y0031055D01*
X0198722Y0031043D01*
X0198569Y0031035D01*
X0198416Y0031031D01*
X0198262Y0031031D01*
X0198109Y0031035D01*
X0197956Y0031043D01*
X0197803Y0031055D01*
X0197651Y0031071D01*
X0197498Y0031091D01*
X0197347Y0031115D01*
X0197196Y0031143D01*
X0197046Y0031174D01*
X0196897Y0031210D01*
X0196749Y0031249D01*
X0196602Y0031292D01*
X0196456Y0031339D01*
X0196311Y0031390D01*
X0196168Y0031445D01*
X0196026Y0031503D01*
X0195886Y0031565D01*
X0195747Y0031630D01*
X0195610Y0031699D01*
X0195475Y0031772D01*
X0195342Y0031848D01*
X0195211Y0031928D01*
X0195082Y0032010D01*
X0194955Y0032097D01*
X0194830Y0032186D01*
X0194708Y0032279D01*
X0194589Y0032375D01*
X0194471Y0032474D01*
X0194357Y0032575D01*
X0194245Y0032680D01*
X0194136Y0032788D01*
X0194030Y0032899D01*
X0193926Y0033012D01*
X0193826Y0033128D01*
X0193728Y0033246D01*
X0193634Y0033367D01*
X0193543Y0033490D01*
X0193455Y0033616D01*
X0193371Y0033744D01*
X0193289Y0033874D01*
X0193212Y0034006D01*
X0193137Y0034140D01*
X0193066Y0034276D01*
X0192999Y0034414D01*
X0192935Y0034554D01*
X0192875Y0034695D01*
X0192819Y0034837D01*
X0192766Y0034981D01*
X0192717Y0035127D01*
X0192672Y0035273D01*
X0192631Y0035421D01*
X0192594Y0035569D01*
X0192560Y0035719D01*
X0192530Y0035870D01*
X0192505Y0036021D01*
X0192483Y0036172D01*
X0192465Y0036325D01*
X0192451Y0036477D01*
X0192441Y0036630D01*
X0192435Y0036784D01*
X0192433Y0036937D01*
X0192433Y0119614D02*
X0192435Y0119767D01*
X0192441Y0119921D01*
X0192451Y0120074D01*
X0192465Y0120226D01*
X0192483Y0120379D01*
X0192505Y0120530D01*
X0192530Y0120681D01*
X0192560Y0120832D01*
X0192594Y0120982D01*
X0192631Y0121130D01*
X0192672Y0121278D01*
X0192717Y0121424D01*
X0192766Y0121570D01*
X0192819Y0121714D01*
X0192875Y0121856D01*
X0192935Y0121997D01*
X0192999Y0122137D01*
X0193066Y0122275D01*
X0193137Y0122411D01*
X0193212Y0122545D01*
X0193289Y0122677D01*
X0193371Y0122807D01*
X0193455Y0122935D01*
X0193543Y0123061D01*
X0193634Y0123184D01*
X0193728Y0123305D01*
X0193826Y0123423D01*
X0193926Y0123539D01*
X0194030Y0123652D01*
X0194136Y0123763D01*
X0194245Y0123871D01*
X0194357Y0123976D01*
X0194471Y0124077D01*
X0194589Y0124176D01*
X0194708Y0124272D01*
X0194830Y0124365D01*
X0194955Y0124454D01*
X0195082Y0124541D01*
X0195211Y0124623D01*
X0195342Y0124703D01*
X0195475Y0124779D01*
X0195610Y0124852D01*
X0195747Y0124921D01*
X0195886Y0124986D01*
X0196026Y0125048D01*
X0196168Y0125106D01*
X0196311Y0125161D01*
X0196456Y0125212D01*
X0196602Y0125259D01*
X0196749Y0125302D01*
X0196897Y0125341D01*
X0197046Y0125377D01*
X0197196Y0125408D01*
X0197347Y0125436D01*
X0197498Y0125460D01*
X0197651Y0125480D01*
X0197803Y0125496D01*
X0197956Y0125508D01*
X0198109Y0125516D01*
X0198262Y0125520D01*
X0198416Y0125520D01*
X0198569Y0125516D01*
X0198722Y0125508D01*
X0198875Y0125496D01*
X0199027Y0125480D01*
X0199180Y0125460D01*
X0199331Y0125436D01*
X0199482Y0125408D01*
X0199632Y0125377D01*
X0199781Y0125341D01*
X0199929Y0125302D01*
X0200076Y0125259D01*
X0200222Y0125212D01*
X0200367Y0125161D01*
X0200510Y0125106D01*
X0200652Y0125048D01*
X0200792Y0124986D01*
X0200931Y0124921D01*
X0201068Y0124852D01*
X0201203Y0124779D01*
X0201336Y0124703D01*
X0201467Y0124623D01*
X0201596Y0124541D01*
X0201723Y0124454D01*
X0201848Y0124365D01*
X0201970Y0124272D01*
X0202089Y0124176D01*
X0202207Y0124077D01*
X0202321Y0123976D01*
X0202433Y0123871D01*
X0202542Y0123763D01*
X0202648Y0123652D01*
X0202752Y0123539D01*
X0202852Y0123423D01*
X0202950Y0123305D01*
X0203044Y0123184D01*
X0203135Y0123061D01*
X0203223Y0122935D01*
X0203307Y0122807D01*
X0203389Y0122677D01*
X0203466Y0122545D01*
X0203541Y0122411D01*
X0203612Y0122275D01*
X0203679Y0122137D01*
X0203743Y0121997D01*
X0203803Y0121856D01*
X0203859Y0121714D01*
X0203912Y0121570D01*
X0203961Y0121424D01*
X0204006Y0121278D01*
X0204047Y0121130D01*
X0204084Y0120982D01*
X0204118Y0120832D01*
X0204148Y0120681D01*
X0204173Y0120530D01*
X0204195Y0120379D01*
X0204213Y0120226D01*
X0204227Y0120074D01*
X0204237Y0119921D01*
X0204243Y0119767D01*
X0204245Y0119614D01*
X0204243Y0119461D01*
X0204237Y0119307D01*
X0204227Y0119154D01*
X0204213Y0119002D01*
X0204195Y0118849D01*
X0204173Y0118698D01*
X0204148Y0118547D01*
X0204118Y0118396D01*
X0204084Y0118246D01*
X0204047Y0118098D01*
X0204006Y0117950D01*
X0203961Y0117804D01*
X0203912Y0117658D01*
X0203859Y0117514D01*
X0203803Y0117372D01*
X0203743Y0117231D01*
X0203679Y0117091D01*
X0203612Y0116953D01*
X0203541Y0116817D01*
X0203466Y0116683D01*
X0203389Y0116551D01*
X0203307Y0116421D01*
X0203223Y0116293D01*
X0203135Y0116167D01*
X0203044Y0116044D01*
X0202950Y0115923D01*
X0202852Y0115805D01*
X0202752Y0115689D01*
X0202648Y0115576D01*
X0202542Y0115465D01*
X0202433Y0115357D01*
X0202321Y0115252D01*
X0202207Y0115151D01*
X0202089Y0115052D01*
X0201970Y0114956D01*
X0201848Y0114863D01*
X0201723Y0114774D01*
X0201596Y0114687D01*
X0201467Y0114605D01*
X0201336Y0114525D01*
X0201203Y0114449D01*
X0201068Y0114376D01*
X0200931Y0114307D01*
X0200792Y0114242D01*
X0200652Y0114180D01*
X0200510Y0114122D01*
X0200367Y0114067D01*
X0200222Y0114016D01*
X0200076Y0113969D01*
X0199929Y0113926D01*
X0199781Y0113887D01*
X0199632Y0113851D01*
X0199482Y0113820D01*
X0199331Y0113792D01*
X0199180Y0113768D01*
X0199027Y0113748D01*
X0198875Y0113732D01*
X0198722Y0113720D01*
X0198569Y0113712D01*
X0198416Y0113708D01*
X0198262Y0113708D01*
X0198109Y0113712D01*
X0197956Y0113720D01*
X0197803Y0113732D01*
X0197651Y0113748D01*
X0197498Y0113768D01*
X0197347Y0113792D01*
X0197196Y0113820D01*
X0197046Y0113851D01*
X0196897Y0113887D01*
X0196749Y0113926D01*
X0196602Y0113969D01*
X0196456Y0114016D01*
X0196311Y0114067D01*
X0196168Y0114122D01*
X0196026Y0114180D01*
X0195886Y0114242D01*
X0195747Y0114307D01*
X0195610Y0114376D01*
X0195475Y0114449D01*
X0195342Y0114525D01*
X0195211Y0114605D01*
X0195082Y0114687D01*
X0194955Y0114774D01*
X0194830Y0114863D01*
X0194708Y0114956D01*
X0194589Y0115052D01*
X0194471Y0115151D01*
X0194357Y0115252D01*
X0194245Y0115357D01*
X0194136Y0115465D01*
X0194030Y0115576D01*
X0193926Y0115689D01*
X0193826Y0115805D01*
X0193728Y0115923D01*
X0193634Y0116044D01*
X0193543Y0116167D01*
X0193455Y0116293D01*
X0193371Y0116421D01*
X0193289Y0116551D01*
X0193212Y0116683D01*
X0193137Y0116817D01*
X0193066Y0116953D01*
X0192999Y0117091D01*
X0192935Y0117231D01*
X0192875Y0117372D01*
X0192819Y0117514D01*
X0192766Y0117658D01*
X0192717Y0117804D01*
X0192672Y0117950D01*
X0192631Y0118098D01*
X0192594Y0118246D01*
X0192560Y0118396D01*
X0192530Y0118547D01*
X0192505Y0118698D01*
X0192483Y0118849D01*
X0192465Y0119002D01*
X0192451Y0119154D01*
X0192441Y0119307D01*
X0192435Y0119461D01*
X0192433Y0119614D01*
D12*
X0128871Y0076913D03*
X0123871Y0076913D03*
X0118871Y0076913D03*
X0113871Y0076913D03*
X0107611Y0076913D03*
X0102611Y0076913D03*
X0097611Y0076913D03*
X0092611Y0076913D03*
X0092611Y0056016D03*
X0097572Y0056016D03*
X0102572Y0056016D03*
X0107572Y0056016D03*
X0113871Y0056016D03*
X0118831Y0056016D03*
X0123831Y0056016D03*
X0128831Y0056016D03*
D13*
X0195955Y0101526D03*
X0195955Y0108219D03*
D14*
X0064207Y0101824D03*
X0064207Y0096706D03*
X0041843Y0079850D03*
X0036922Y0079850D03*
X0036922Y0074732D03*
X0041843Y0074732D03*
X0051762Y0074619D03*
X0056683Y0074619D03*
X0061605Y0074619D03*
X0061605Y0069501D03*
X0056683Y0069501D03*
X0051762Y0069501D03*
D15*
X0066646Y0065630D03*
X0070387Y0065630D03*
X0074127Y0065630D03*
X0074127Y0055393D03*
X0066646Y0055393D03*
D16*
X0083482Y0050992D03*
X0083482Y0069492D03*
D17*
X0075060Y0071677D03*
X0068367Y0071677D03*
X0067040Y0049001D03*
X0073733Y0049001D03*
D18*
X0135938Y0044969D03*
X0145938Y0044969D03*
X0155938Y0044969D03*
X0165938Y0044969D03*
X0175938Y0044969D03*
X0185938Y0044969D03*
X0185938Y0054969D03*
X0175938Y0054969D03*
X0165938Y0054969D03*
X0155938Y0054969D03*
X0145938Y0054969D03*
X0135938Y0054969D03*
X0135938Y0034969D03*
X0145938Y0034969D03*
X0155938Y0034969D03*
X0165938Y0034969D03*
X0175938Y0034969D03*
X0185938Y0034969D03*
X0185938Y0101583D03*
X0175938Y0101583D03*
X0165938Y0101583D03*
X0155938Y0101583D03*
X0145938Y0101583D03*
X0135938Y0101583D03*
X0125938Y0101583D03*
X0115938Y0101583D03*
X0115938Y0111583D03*
X0125938Y0111583D03*
X0135938Y0111583D03*
X0145938Y0111583D03*
X0155938Y0111583D03*
X0165938Y0111583D03*
X0175938Y0111583D03*
X0185938Y0111583D03*
X0185938Y0121583D03*
X0175938Y0121583D03*
X0165938Y0121583D03*
X0155938Y0121583D03*
X0145938Y0121583D03*
X0135938Y0121583D03*
X0125938Y0121583D03*
X0115938Y0121583D03*
X0105938Y0121583D03*
X0095938Y0121583D03*
X0085938Y0121583D03*
X0075938Y0121583D03*
X0105938Y0111583D03*
D19*
X0135612Y0090711D03*
X0141911Y0090711D03*
X0141911Y0074963D03*
X0135612Y0074963D03*
D20*
X0043615Y0069713D03*
X0041646Y0069713D03*
X0039678Y0069713D03*
X0037709Y0069713D03*
X0035741Y0069713D03*
X0033772Y0069713D03*
X0033772Y0054161D03*
X0035741Y0054161D03*
X0037709Y0054161D03*
X0039678Y0054161D03*
X0041646Y0054161D03*
X0043615Y0054161D03*
D21*
X0046469Y0057016D03*
X0046469Y0058984D03*
X0046469Y0060953D03*
X0046469Y0062921D03*
X0046469Y0064890D03*
X0046469Y0066858D03*
X0030918Y0066858D03*
X0030918Y0064890D03*
X0030918Y0062921D03*
X0030918Y0060953D03*
X0030918Y0058984D03*
X0030918Y0057016D03*
D22*
X0038694Y0061937D03*
D23*
X0055258Y0057530D03*
X0060376Y0057530D03*
X0060376Y0052761D03*
X0055258Y0052761D03*
X0031607Y0090087D03*
X0026489Y0090087D03*
X0026489Y0096976D03*
X0031607Y0096976D03*
X0031607Y0101898D03*
X0026489Y0101898D03*
X0026489Y0106819D03*
X0031607Y0106819D03*
X0030426Y0111740D03*
X0035544Y0111740D03*
X0035544Y0116661D03*
X0030426Y0116661D03*
X0030426Y0121583D03*
X0035544Y0121583D03*
X0063573Y0122187D03*
X0068691Y0122187D03*
D24*
X0058576Y0102882D03*
X0058576Y0100913D03*
X0058576Y0098945D03*
X0058576Y0096976D03*
X0058576Y0095008D03*
X0058576Y0093039D03*
X0058576Y0091071D03*
X0058576Y0089102D03*
X0038891Y0089102D03*
X0038891Y0091071D03*
X0038891Y0093039D03*
X0038891Y0095008D03*
X0038891Y0096976D03*
X0038891Y0098945D03*
X0038891Y0100913D03*
X0038891Y0102882D03*
D25*
X0041843Y0105835D03*
X0043812Y0105835D03*
X0045780Y0105835D03*
X0047749Y0105835D03*
X0049717Y0105835D03*
X0051686Y0105835D03*
X0053654Y0105835D03*
X0055623Y0105835D03*
X0055623Y0086150D03*
X0053654Y0086150D03*
X0051686Y0086150D03*
X0049717Y0086150D03*
X0047749Y0086150D03*
X0045780Y0086150D03*
X0043812Y0086150D03*
X0041843Y0086150D03*
D26*
X0048733Y0095992D03*
D27*
X0044107Y0112232D03*
X0044107Y0119122D03*
X0053359Y0119122D03*
X0053359Y0112232D03*
D28*
X0073866Y0113335D03*
X0073866Y0108335D03*
X0073866Y0103335D03*
X0073866Y0098335D03*
X0094466Y0098335D03*
X0094466Y0103335D03*
X0094466Y0108335D03*
X0094466Y0113335D03*
D29*
X0060176Y0116665D02*
X0057420Y0116665D01*
X0060176Y0116665D02*
X0060176Y0113909D01*
X0057420Y0113909D01*
X0057420Y0116665D01*
X0057420Y0115089D02*
X0060176Y0115089D01*
X0060176Y0116269D02*
X0057420Y0116269D01*
X0057420Y0123571D02*
X0060176Y0123571D01*
X0060176Y0120815D01*
X0057420Y0120815D01*
X0057420Y0123571D01*
X0057420Y0121995D02*
X0060176Y0121995D01*
X0060176Y0123175D02*
X0057420Y0123175D01*
D30*
X0151312Y0090376D03*
X0156312Y0090376D03*
X0161312Y0090376D03*
X0166312Y0090376D03*
X0171312Y0090376D03*
X0176312Y0090376D03*
X0181312Y0090376D03*
X0186312Y0090376D03*
X0186312Y0066176D03*
X0181312Y0066176D03*
X0176312Y0066176D03*
X0171312Y0066176D03*
X0166312Y0066176D03*
X0161312Y0066176D03*
X0156312Y0066176D03*
X0151312Y0066176D03*
D31*
X0015269Y0064496D03*
X0015269Y0101898D03*
D32*
X0105938Y0101583D03*
D33*
X0101300Y0034969D03*
X0091300Y0034969D03*
X0081300Y0034969D03*
X0071300Y0034969D03*
X0061300Y0034969D03*
X0051300Y0034969D03*
X0041300Y0034969D03*
X0031300Y0034969D03*
X0111300Y0034969D03*
X0121300Y0034969D03*
D34*
X0135938Y0054969D02*
X0136038Y0057062D01*
X0130700Y0062400D01*
X0124600Y0062400D01*
X0122200Y0064800D01*
X0105100Y0064800D01*
X0097611Y0072289D01*
X0097611Y0076913D01*
X0102611Y0076913D02*
X0102611Y0069089D01*
X0105700Y0066000D01*
X0122800Y0066000D01*
X0125200Y0063600D01*
X0131300Y0063600D01*
X0134900Y0060000D01*
X0139600Y0060000D01*
X0144631Y0054969D01*
X0145938Y0054969D01*
X0142300Y0059100D02*
X0151900Y0059100D01*
X0155938Y0055062D01*
X0155938Y0054969D01*
X0154000Y0059100D02*
X0160900Y0059100D01*
X0165031Y0054969D01*
X0165938Y0054969D01*
X0171312Y0059594D02*
X0175938Y0054969D01*
X0178300Y0059100D02*
X0181806Y0059100D01*
X0185938Y0054969D01*
X0178300Y0059100D02*
X0176312Y0061088D01*
X0176312Y0066176D01*
X0181312Y0066176D02*
X0181312Y0073212D01*
X0183700Y0075600D01*
X0183700Y0095700D01*
X0185938Y0097938D01*
X0185938Y0101583D01*
X0175938Y0101583D02*
X0170720Y0106800D01*
X0163000Y0106800D01*
X0160300Y0104100D01*
X0160300Y0098700D01*
X0156400Y0094800D01*
X0156400Y0090287D01*
X0156312Y0090376D01*
X0161312Y0090376D02*
X0161312Y0085612D01*
X0159100Y0083400D01*
X0114400Y0083400D01*
X0113200Y0084600D01*
X0113200Y0085800D01*
X0111400Y0087600D01*
X0109300Y0087600D01*
X0106300Y0084600D01*
X0086200Y0084600D01*
X0080800Y0079200D01*
X0063100Y0079200D01*
X0062800Y0079500D01*
X0064600Y0078000D02*
X0063695Y0077095D01*
X0061605Y0077095D01*
X0061605Y0074619D01*
X0064600Y0075900D02*
X0065500Y0076800D01*
X0082000Y0076800D01*
X0087400Y0082200D01*
X0163300Y0082200D01*
X0163600Y0082500D01*
X0163600Y0084600D01*
X0163300Y0082200D02*
X0177700Y0082200D01*
X0181300Y0085800D01*
X0181300Y0090364D01*
X0181312Y0090376D01*
X0176312Y0090376D02*
X0171312Y0090376D01*
X0171400Y0090464D01*
X0171400Y0095400D01*
X0170800Y0096000D01*
X0165400Y0096000D01*
X0165938Y0096538D01*
X0165938Y0101583D01*
X0165400Y0096000D02*
X0160000Y0096000D01*
X0158800Y0094800D01*
X0158800Y0085500D01*
X0158500Y0085200D01*
X0149200Y0085200D01*
X0148600Y0085800D01*
X0115000Y0085800D01*
X0112000Y0088800D01*
X0108700Y0088800D01*
X0105700Y0085800D01*
X0085600Y0085800D01*
X0080200Y0080400D01*
X0067600Y0080400D01*
X0066400Y0081600D01*
X0065500Y0081500D01*
X0065200Y0084600D02*
X0073000Y0084600D01*
X0076000Y0081600D01*
X0079600Y0081600D01*
X0085000Y0087000D01*
X0105100Y0087000D01*
X0108100Y0090000D01*
X0111700Y0090000D01*
X0117400Y0095700D01*
X0121900Y0095700D01*
X0123700Y0097500D01*
X0131800Y0097500D01*
X0135883Y0101583D01*
X0135938Y0101583D01*
X0133600Y0097500D02*
X0142000Y0097500D01*
X0145938Y0101438D01*
X0145938Y0101583D01*
X0133600Y0097500D02*
X0132400Y0096300D01*
X0124300Y0096300D01*
X0122500Y0094500D01*
X0118600Y0094500D01*
X0115300Y0091200D01*
X0115300Y0090300D01*
X0111100Y0091200D02*
X0115900Y0096000D01*
X0115900Y0101545D01*
X0115938Y0101583D01*
X0112900Y0106200D02*
X0123400Y0106200D01*
X0125938Y0103662D01*
X0125938Y0101583D01*
X0123100Y0091200D02*
X0135123Y0091200D01*
X0135612Y0090711D01*
X0123871Y0076913D02*
X0123871Y0068529D01*
X0126400Y0066000D01*
X0132500Y0066000D01*
X0136100Y0062400D01*
X0140800Y0062400D01*
X0142900Y0060300D01*
X0152800Y0060300D01*
X0154000Y0059100D01*
X0156312Y0066176D02*
X0156100Y0066387D01*
X0156100Y0073200D01*
X0151300Y0072900D02*
X0151300Y0066187D01*
X0151312Y0066176D01*
X0161200Y0066287D02*
X0161200Y0073200D01*
X0166300Y0073200D02*
X0166300Y0066187D01*
X0166312Y0066176D01*
X0171312Y0066176D02*
X0171312Y0059594D01*
X0161312Y0066176D02*
X0161200Y0066287D01*
X0142300Y0059100D02*
X0140200Y0061200D01*
X0135500Y0061200D01*
X0131900Y0064800D01*
X0125800Y0064800D01*
X0118871Y0071729D01*
X0118871Y0076913D01*
X0110800Y0084600D02*
X0109600Y0083400D01*
X0086800Y0083400D01*
X0081400Y0078000D01*
X0064600Y0078000D01*
X0061605Y0077095D02*
X0060100Y0078600D01*
X0058300Y0078600D01*
X0053654Y0083246D01*
X0053654Y0086150D01*
X0051686Y0086150D02*
X0051686Y0081914D01*
X0056683Y0076917D01*
X0056683Y0074619D01*
X0056683Y0072000D01*
X0063700Y0072000D01*
X0064600Y0071100D01*
X0064600Y0075900D01*
X0064600Y0071100D02*
X0064600Y0067800D01*
X0061900Y0065100D01*
X0059800Y0065100D01*
X0061605Y0069501D02*
X0056683Y0069501D01*
X0056500Y0069317D01*
X0051762Y0069501D02*
X0050662Y0067838D01*
X0051200Y0066700D01*
X0047500Y0069500D02*
X0047087Y0069713D01*
X0043615Y0069713D01*
X0041646Y0069713D02*
X0041646Y0071846D01*
X0042100Y0072300D01*
X0044800Y0072300D01*
X0045500Y0072900D01*
X0051700Y0074681D02*
X0051762Y0074619D01*
X0051881Y0074619D01*
X0051900Y0074600D01*
X0051700Y0074681D02*
X0051700Y0078900D01*
X0049717Y0080883D01*
X0049717Y0086150D01*
X0047749Y0086150D02*
X0047749Y0084051D01*
X0048400Y0083400D01*
X0048400Y0080400D01*
X0049000Y0079800D01*
X0049000Y0078300D01*
X0048700Y0078200D01*
X0045400Y0077400D02*
X0045100Y0077100D01*
X0035200Y0077100D01*
X0034000Y0078300D01*
X0034000Y0081400D01*
X0034800Y0082200D01*
X0040000Y0082200D01*
X0041800Y0084000D01*
X0041800Y0086106D01*
X0041843Y0086150D01*
X0043812Y0086150D02*
X0043812Y0083688D01*
X0044600Y0082800D01*
X0046700Y0083400D02*
X0046800Y0083200D01*
X0046800Y0082300D01*
X0046700Y0083400D02*
X0046600Y0083700D01*
X0046400Y0084100D01*
X0045780Y0084820D01*
X0045780Y0086150D01*
X0045700Y0086230D01*
X0045700Y0088800D01*
X0055600Y0088800D01*
X0055900Y0089100D01*
X0058573Y0089100D01*
X0058576Y0089102D01*
X0055623Y0086150D02*
X0055672Y0086100D01*
X0063700Y0086100D01*
X0065200Y0084600D01*
X0067600Y0090900D02*
X0067129Y0091071D01*
X0058576Y0091071D01*
X0058576Y0093039D02*
X0058676Y0093139D01*
X0082539Y0093139D01*
X0085400Y0096000D01*
X0085400Y0105500D01*
X0088300Y0108300D01*
X0094431Y0108300D01*
X0094466Y0108335D01*
X0099000Y0110700D02*
X0099900Y0109800D01*
X0099900Y0104300D01*
X0098935Y0103335D01*
X0094466Y0103335D01*
X0094466Y0098335D02*
X0088365Y0098335D01*
X0087700Y0099000D01*
X0087700Y0101400D01*
X0083200Y0101400D02*
X0083200Y0095700D01*
X0081900Y0094400D01*
X0061800Y0094400D01*
X0061192Y0095008D01*
X0058576Y0095008D01*
X0058576Y0096976D02*
X0064237Y0096976D01*
X0064207Y0096706D01*
X0067200Y0099100D02*
X0059800Y0099100D01*
X0059645Y0098945D01*
X0058576Y0098945D01*
X0058576Y0100913D02*
X0060213Y0100913D01*
X0061300Y0102000D01*
X0061300Y0104100D01*
X0063400Y0106200D01*
X0063400Y0107400D01*
X0066700Y0110700D01*
X0066700Y0112135D01*
X0067900Y0113335D01*
X0073866Y0113335D01*
X0073858Y0113343D01*
X0070000Y0116400D02*
X0100000Y0116400D01*
X0101800Y0114600D01*
X0101800Y0108000D01*
X0102100Y0107700D01*
X0102100Y0107400D01*
X0099000Y0110700D02*
X0088000Y0110700D01*
X0080800Y0103500D01*
X0080800Y0100700D01*
X0082000Y0099500D01*
X0082000Y0097200D01*
X0080800Y0096000D01*
X0068800Y0096000D01*
X0068200Y0096600D01*
X0068200Y0098100D01*
X0067200Y0099100D01*
X0064600Y0101831D02*
X0064600Y0106800D01*
X0066135Y0108335D01*
X0073866Y0108335D01*
X0073866Y0103335D02*
X0068365Y0103335D01*
X0067000Y0104700D01*
X0067000Y0105300D01*
X0064600Y0101831D02*
X0064207Y0101824D01*
X0058576Y0102882D02*
X0058576Y0105576D01*
X0061900Y0109200D01*
X0063400Y0109200D01*
X0065500Y0111300D01*
X0065500Y0112800D01*
X0067300Y0114600D01*
X0068200Y0114600D01*
X0070000Y0116400D01*
X0069400Y0117600D02*
X0081955Y0117600D01*
X0085938Y0121583D01*
X0075938Y0121583D02*
X0075333Y0122187D01*
X0068691Y0122187D01*
X0068691Y0118691D01*
X0067000Y0117000D01*
X0065800Y0117000D01*
X0063100Y0114300D01*
X0063100Y0112500D01*
X0062200Y0111600D01*
X0059200Y0111600D01*
X0058300Y0110700D01*
X0056500Y0108900D01*
X0054700Y0108900D01*
X0053654Y0107854D01*
X0053654Y0105835D01*
X0051686Y0105835D02*
X0051686Y0107714D01*
X0049600Y0109800D01*
X0049600Y0115363D01*
X0049163Y0115800D01*
X0041200Y0115800D01*
X0039700Y0117300D01*
X0039700Y0119700D01*
X0037817Y0121583D01*
X0035544Y0121583D01*
X0033100Y0123900D02*
X0034300Y0125100D01*
X0065200Y0125100D01*
X0066100Y0124200D01*
X0066100Y0119700D01*
X0064600Y0118200D01*
X0063100Y0118200D01*
X0066400Y0115800D02*
X0064300Y0113700D01*
X0064300Y0111900D01*
X0062800Y0110400D01*
X0061300Y0110400D01*
X0060700Y0109800D01*
X0057035Y0105835D01*
X0055623Y0105835D01*
X0049717Y0105835D02*
X0049717Y0107883D01*
X0048400Y0109200D01*
X0047139Y0109200D01*
X0044107Y0112232D01*
X0041468Y0112232D01*
X0039400Y0114300D01*
X0039400Y0115200D01*
X0037900Y0116700D01*
X0037861Y0116661D01*
X0035544Y0116661D01*
X0035544Y0111740D02*
X0038384Y0108900D01*
X0043000Y0108900D01*
X0043812Y0108088D01*
X0043812Y0105835D01*
X0045700Y0105754D02*
X0045780Y0105835D01*
X0047749Y0105835D01*
X0045700Y0105754D02*
X0045700Y0103200D01*
X0041500Y0103200D01*
X0041500Y0102900D01*
X0041500Y0096900D01*
X0041424Y0096976D01*
X0038891Y0096976D01*
X0037076Y0096976D01*
X0034300Y0094200D01*
X0029116Y0094200D01*
X0029116Y0106800D01*
X0026508Y0106800D01*
X0026489Y0106819D01*
X0031607Y0106819D02*
X0031607Y0108007D01*
X0033100Y0109500D01*
X0033100Y0123900D01*
X0049600Y0115363D02*
X0053359Y0119122D01*
X0058798Y0122193D02*
X0058803Y0122187D01*
X0063573Y0122187D01*
X0069400Y0117600D02*
X0067600Y0115800D01*
X0066400Y0115800D01*
X0075555Y0121200D02*
X0075938Y0121583D01*
X0105938Y0111583D02*
X0110783Y0111583D01*
X0110900Y0111700D01*
X0112900Y0106200D02*
X0110500Y0103800D01*
X0110500Y0093600D01*
X0109300Y0092400D01*
X0106900Y0092400D01*
X0105100Y0090600D01*
X0087100Y0090600D01*
X0086500Y0091200D01*
X0086200Y0090900D01*
X0086200Y0091800D01*
X0083500Y0089400D02*
X0105700Y0089400D01*
X0107500Y0091200D01*
X0111100Y0091200D01*
X0108100Y0094600D02*
X0104600Y0094600D01*
X0102400Y0092400D01*
X0092200Y0092400D01*
X0091000Y0093600D01*
X0083500Y0089400D02*
X0080400Y0086300D01*
X0077200Y0086300D01*
X0076700Y0085800D01*
X0075300Y0085800D01*
X0080777Y0071677D02*
X0081296Y0071677D01*
X0083482Y0069492D01*
X0072400Y0060000D02*
X0074127Y0058273D01*
X0063100Y0057000D02*
X0063030Y0057530D01*
X0060376Y0057530D01*
X0055258Y0057530D02*
X0054700Y0058088D01*
X0054700Y0058388D01*
X0050600Y0057000D02*
X0050584Y0057016D01*
X0046469Y0057016D01*
X0043900Y0057000D02*
X0043900Y0064890D01*
X0046469Y0064890D01*
X0046469Y0066858D01*
X0046469Y0062921D02*
X0048779Y0062921D01*
X0050500Y0061200D01*
X0054700Y0063300D02*
X0055000Y0063300D01*
X0043900Y0057000D02*
X0035741Y0057000D01*
X0035741Y0054161D01*
X0035741Y0057000D02*
X0033700Y0057000D01*
X0033700Y0062921D01*
X0030918Y0062921D01*
X0030918Y0060953D02*
X0027647Y0060953D01*
X0026200Y0062400D01*
X0024700Y0062400D01*
X0023200Y0060900D01*
X0023200Y0053700D01*
X0026800Y0050100D01*
X0040900Y0050100D01*
X0042700Y0048300D01*
X0050797Y0048300D01*
X0055258Y0052761D01*
X0051100Y0051900D02*
X0049300Y0050100D01*
X0043300Y0050100D01*
X0041646Y0051754D01*
X0041646Y0054161D01*
X0043615Y0054161D02*
X0043615Y0051885D01*
X0044200Y0051300D01*
X0046000Y0051300D01*
X0048100Y0053400D01*
X0060376Y0052761D02*
X0062761Y0052761D01*
X0035741Y0069713D02*
X0035741Y0072059D01*
X0035500Y0072300D01*
X0034300Y0072300D01*
X0031000Y0075600D01*
X0027100Y0075600D01*
X0027100Y0072300D02*
X0032500Y0072300D01*
X0033772Y0071028D01*
X0033772Y0069713D01*
X0030918Y0068918D02*
X0030918Y0066858D01*
X0030918Y0058984D02*
X0026316Y0058984D01*
X0025600Y0059400D01*
X0031300Y0078300D02*
X0031300Y0078600D01*
X0027400Y0082500D01*
X0027400Y0085200D01*
X0029116Y0087384D02*
X0030400Y0086100D01*
X0031600Y0086100D01*
X0031600Y0083700D01*
X0029116Y0087384D02*
X0029116Y0092400D01*
X0029716Y0093000D01*
X0037900Y0093000D01*
X0038761Y0093039D01*
X0038891Y0093039D01*
X0038891Y0091071D02*
X0036871Y0091071D01*
X0036100Y0090300D01*
X0031820Y0090300D01*
X0031607Y0090087D01*
X0032591Y0091071D01*
X0034900Y0087300D02*
X0036702Y0089102D01*
X0038891Y0089102D01*
X0041500Y0088800D02*
X0045700Y0088800D01*
X0041500Y0088800D02*
X0041500Y0096900D01*
X0038891Y0096976D02*
X0038891Y0098945D01*
X0038891Y0102882D02*
X0038909Y0102900D01*
X0041500Y0102900D01*
X0041609Y0105600D02*
X0041843Y0105835D01*
X0041178Y0106500D01*
X0036100Y0106500D01*
X0036100Y0106800D01*
X0036081Y0106819D01*
X0031607Y0106819D01*
X0031607Y0101898D02*
X0031607Y0096976D01*
X0029116Y0094200D02*
X0027316Y0094200D01*
X0026416Y0093300D01*
X0026416Y0090160D01*
X0026489Y0090087D01*
X0026489Y0096976D02*
X0023492Y0096976D01*
X0023416Y0096900D01*
X0031607Y0101898D02*
X0032591Y0100913D01*
D35*
X0036100Y0106800D03*
X0026416Y0111900D03*
X0026416Y0121500D03*
X0039816Y0122800D03*
X0048916Y0122600D03*
X0053416Y0112200D03*
X0058300Y0110700D03*
X0063100Y0118200D03*
X0067000Y0105300D03*
X0079600Y0098400D03*
X0083200Y0101400D03*
X0087700Y0101400D03*
X0091000Y0093600D03*
X0086200Y0091800D03*
X0075300Y0085800D03*
X0067600Y0090900D03*
X0065500Y0081500D03*
X0062800Y0079500D03*
X0069600Y0074500D03*
X0069600Y0071600D03*
X0059800Y0065100D03*
X0051200Y0066700D03*
X0047500Y0069500D03*
X0045500Y0072900D03*
X0051900Y0074600D03*
X0048700Y0078200D03*
X0045400Y0077400D03*
X0037000Y0074700D03*
X0031300Y0078300D03*
X0027100Y0075600D03*
X0027100Y0072300D03*
X0027000Y0068700D03*
X0022416Y0067600D03*
X0022416Y0064600D03*
X0025600Y0059400D03*
X0022416Y0050600D03*
X0022416Y0047600D03*
X0022416Y0044600D03*
X0033100Y0047700D03*
X0037300Y0047700D03*
X0048100Y0053400D03*
X0051100Y0051900D03*
X0050600Y0057000D03*
X0051900Y0060700D03*
X0063100Y0057000D03*
X0062116Y0049163D03*
X0059163Y0049163D03*
X0077500Y0060900D03*
X0092500Y0068400D03*
X0092500Y0071400D03*
X0095200Y0069900D03*
X0104800Y0070200D03*
X0107500Y0071400D03*
X0107500Y0068400D03*
X0114100Y0068400D03*
X0114100Y0071400D03*
X0116800Y0069900D03*
X0126100Y0070200D03*
X0128800Y0071400D03*
X0128800Y0068400D03*
X0151300Y0072900D03*
X0156100Y0073200D03*
X0161200Y0073200D03*
X0166300Y0073200D03*
X0163600Y0084600D03*
X0123100Y0091200D03*
X0115300Y0090300D03*
X0110800Y0084600D03*
X0108100Y0094600D03*
X0100900Y0094800D03*
X0102100Y0107400D03*
X0081616Y0114000D03*
X0052816Y0095700D03*
X0050116Y0092700D03*
X0045016Y0096600D03*
X0048316Y0099900D03*
X0034900Y0087300D03*
X0031600Y0083700D03*
X0027400Y0085200D03*
X0022416Y0085600D03*
X0022416Y0082600D03*
X0022416Y0079600D03*
X0022416Y0076600D03*
X0022416Y0073600D03*
X0022416Y0070600D03*
X0037800Y0061900D03*
X0044600Y0082800D03*
X0022416Y0088600D03*
X0022416Y0091600D03*
X0022416Y0094600D03*
X0022416Y0097600D03*
D36*
X0021500Y0097679D02*
X0023711Y0097679D01*
X0023711Y0097265D02*
X0023711Y0098932D01*
X0023806Y0099288D01*
X0023991Y0099608D01*
X0024111Y0099728D01*
X0024111Y0100298D01*
X0021500Y0100298D01*
X0021500Y0043006D01*
X0023430Y0041075D01*
X0024543Y0038390D01*
X0024543Y0035484D01*
X0023430Y0032799D01*
X0021895Y0031263D01*
X0027793Y0031263D01*
X0027410Y0031646D01*
X0026938Y0032296D01*
X0026574Y0033011D01*
X0026326Y0033774D01*
X0026200Y0034567D01*
X0026200Y0034569D01*
X0030900Y0034569D01*
X0030900Y0035368D01*
X0026200Y0035368D01*
X0026200Y0035370D01*
X0026326Y0036163D01*
X0026574Y0036926D01*
X0026938Y0037641D01*
X0027410Y0038291D01*
X0027978Y0038859D01*
X0028627Y0039330D01*
X0029342Y0039695D01*
X0030106Y0039943D01*
X0030899Y0040068D01*
X0030900Y0040068D01*
X0030900Y0035369D01*
X0031700Y0035369D01*
X0031700Y0040068D01*
X0031701Y0040068D01*
X0032494Y0039943D01*
X0033258Y0039695D01*
X0033973Y0039330D01*
X0034622Y0038859D01*
X0035190Y0038291D01*
X0035662Y0037641D01*
X0036026Y0036926D01*
X0036274Y0036163D01*
X0036400Y0035370D01*
X0036400Y0035368D01*
X0031700Y0035368D01*
X0031700Y0034569D01*
X0036400Y0034569D01*
X0036400Y0034567D01*
X0036274Y0033774D01*
X0036026Y0033011D01*
X0035662Y0032296D01*
X0035190Y0031646D01*
X0034807Y0031263D01*
X0038359Y0031263D01*
X0037316Y0032306D01*
X0036600Y0034034D01*
X0036600Y0035903D01*
X0037316Y0037631D01*
X0038638Y0038953D01*
X0040365Y0039668D01*
X0042235Y0039668D01*
X0043962Y0038953D01*
X0045284Y0037631D01*
X0046000Y0035903D01*
X0046000Y0034034D01*
X0045284Y0032306D01*
X0044241Y0031263D01*
X0048359Y0031263D01*
X0047316Y0032306D01*
X0046600Y0034034D01*
X0046600Y0035903D01*
X0047316Y0037631D01*
X0048638Y0038953D01*
X0049500Y0039310D01*
X0049500Y0040454D01*
X0048554Y0041400D01*
X0036854Y0041400D01*
X0035800Y0042454D01*
X0032804Y0045450D01*
X0032168Y0045450D01*
X0030850Y0046768D01*
X0030850Y0048632D01*
X0031018Y0048800D01*
X0026262Y0048800D01*
X0025500Y0049562D01*
X0021900Y0053162D01*
X0021900Y0061438D01*
X0022662Y0062200D01*
X0024162Y0063700D01*
X0025620Y0063700D01*
X0024120Y0065200D01*
X0023300Y0066020D01*
X0023300Y0088180D01*
X0024111Y0088991D01*
X0024111Y0092272D01*
X0024697Y0092858D01*
X0025116Y0092858D01*
X0025116Y0093805D01*
X0024927Y0093805D01*
X0024571Y0093900D01*
X0024251Y0094084D01*
X0023991Y0094345D01*
X0023806Y0094664D01*
X0023711Y0095020D01*
X0023711Y0096687D01*
X0026200Y0096687D01*
X0026200Y0097265D01*
X0023711Y0097265D01*
X0023711Y0096082D02*
X0021500Y0096082D01*
X0021500Y0095284D02*
X0023711Y0095284D01*
X0023910Y0094485D02*
X0021500Y0094485D01*
X0021500Y0093687D02*
X0025116Y0093687D01*
X0025116Y0092888D02*
X0021500Y0092888D01*
X0021500Y0092090D02*
X0024111Y0092090D01*
X0024111Y0091291D02*
X0021500Y0091291D01*
X0021500Y0090493D02*
X0024111Y0090493D01*
X0024111Y0089694D02*
X0021500Y0089694D01*
X0021500Y0088896D02*
X0024016Y0088896D01*
X0023300Y0088097D02*
X0021500Y0088097D01*
X0021500Y0087299D02*
X0023300Y0087299D01*
X0023300Y0086500D02*
X0021500Y0086500D01*
X0021500Y0085702D02*
X0023300Y0085702D01*
X0023300Y0084903D02*
X0021500Y0084903D01*
X0021500Y0084105D02*
X0023300Y0084105D01*
X0023300Y0083306D02*
X0021500Y0083306D01*
X0021500Y0082508D02*
X0023300Y0082508D01*
X0023300Y0081709D02*
X0021500Y0081709D01*
X0021500Y0080911D02*
X0023300Y0080911D01*
X0023300Y0080112D02*
X0021500Y0080112D01*
X0021500Y0079314D02*
X0023300Y0079314D01*
X0023300Y0078515D02*
X0021500Y0078515D01*
X0021500Y0077717D02*
X0023300Y0077717D01*
X0023300Y0076918D02*
X0021500Y0076918D01*
X0021500Y0076120D02*
X0023300Y0076120D01*
X0023300Y0075321D02*
X0021500Y0075321D01*
X0021500Y0074523D02*
X0023300Y0074523D01*
X0023300Y0073724D02*
X0021500Y0073724D01*
X0021500Y0072926D02*
X0023300Y0072926D01*
X0023300Y0072127D02*
X0021500Y0072127D01*
X0021500Y0071329D02*
X0023300Y0071329D01*
X0023300Y0070530D02*
X0021500Y0070530D01*
X0021500Y0069732D02*
X0023300Y0069732D01*
X0023300Y0068933D02*
X0021500Y0068933D01*
X0021500Y0068134D02*
X0023300Y0068134D01*
X0023300Y0067336D02*
X0021500Y0067336D01*
X0021500Y0066537D02*
X0023300Y0066537D01*
X0023581Y0065739D02*
X0021500Y0065739D01*
X0021500Y0064940D02*
X0024380Y0064940D01*
X0025178Y0064142D02*
X0021500Y0064142D01*
X0021500Y0063343D02*
X0023805Y0063343D01*
X0023006Y0062545D02*
X0021500Y0062545D01*
X0021500Y0061746D02*
X0022208Y0061746D01*
X0021900Y0060948D02*
X0021500Y0060948D01*
X0021500Y0060149D02*
X0021900Y0060149D01*
X0021900Y0059351D02*
X0021500Y0059351D01*
X0021500Y0058552D02*
X0021900Y0058552D01*
X0021900Y0057754D02*
X0021500Y0057754D01*
X0021500Y0056955D02*
X0021900Y0056955D01*
X0021900Y0056157D02*
X0021500Y0056157D01*
X0021500Y0055358D02*
X0021900Y0055358D01*
X0021900Y0054560D02*
X0021500Y0054560D01*
X0021500Y0053761D02*
X0021900Y0053761D01*
X0022099Y0052963D02*
X0021500Y0052963D01*
X0021500Y0052164D02*
X0022897Y0052164D01*
X0023696Y0051366D02*
X0021500Y0051366D01*
X0021500Y0050567D02*
X0024494Y0050567D01*
X0025293Y0049769D02*
X0021500Y0049769D01*
X0021500Y0048970D02*
X0026091Y0048970D01*
X0027338Y0051400D02*
X0024500Y0054238D01*
X0024500Y0060362D01*
X0025238Y0061100D01*
X0025662Y0061100D01*
X0027109Y0059653D01*
X0027845Y0059653D01*
X0027845Y0058984D01*
X0027845Y0058209D01*
X0027940Y0057853D01*
X0028125Y0057534D01*
X0028245Y0057414D01*
X0028245Y0056011D01*
X0028831Y0055425D01*
X0032182Y0055425D01*
X0032182Y0052074D01*
X0032768Y0051488D01*
X0040346Y0051488D01*
X0040346Y0051400D01*
X0027338Y0051400D01*
X0026574Y0052164D02*
X0032182Y0052164D01*
X0032182Y0052963D02*
X0025776Y0052963D01*
X0024977Y0053761D02*
X0032182Y0053761D01*
X0032182Y0054560D02*
X0024500Y0054560D01*
X0024500Y0055358D02*
X0032182Y0055358D01*
X0030918Y0058984D02*
X0027845Y0058984D01*
X0030918Y0058984D01*
X0030918Y0058984D01*
X0027845Y0059351D02*
X0024500Y0059351D01*
X0024500Y0060149D02*
X0026612Y0060149D01*
X0025814Y0060948D02*
X0025086Y0060948D01*
X0024500Y0058552D02*
X0027845Y0058552D01*
X0027998Y0057754D02*
X0024500Y0057754D01*
X0024500Y0056955D02*
X0028245Y0056955D01*
X0028245Y0056157D02*
X0024500Y0056157D01*
X0028379Y0062921D02*
X0024700Y0066600D01*
X0024700Y0087600D01*
X0026489Y0089389D01*
X0026489Y0090087D01*
X0026200Y0096881D02*
X0021500Y0096881D01*
X0021500Y0098478D02*
X0023711Y0098478D01*
X0023803Y0099276D02*
X0021500Y0099276D01*
X0021500Y0100075D02*
X0024111Y0100075D01*
X0024111Y0103498D02*
X0021500Y0103498D01*
X0021500Y0108466D01*
X0021266Y0108700D01*
X0011563Y0108700D01*
X0011563Y0114957D01*
X0013099Y0113421D01*
X0015784Y0112309D01*
X0018690Y0112309D01*
X0021375Y0113421D01*
X0023430Y0115476D01*
X0024543Y0118161D01*
X0024543Y0121067D01*
X0023430Y0123752D01*
X0021895Y0125288D01*
X0032650Y0125288D01*
X0032089Y0124727D01*
X0031988Y0124754D01*
X0030715Y0124754D01*
X0030715Y0121872D01*
X0030137Y0121872D01*
X0030137Y0124754D01*
X0028864Y0124754D01*
X0028508Y0124659D01*
X0028188Y0124475D01*
X0027928Y0124214D01*
X0027743Y0123895D01*
X0027648Y0123539D01*
X0027648Y0121872D01*
X0030137Y0121872D01*
X0030137Y0121294D01*
X0027648Y0121294D01*
X0027648Y0119627D01*
X0027743Y0119271D01*
X0027829Y0119122D01*
X0027743Y0118973D01*
X0027648Y0118617D01*
X0027648Y0116950D01*
X0030137Y0116950D01*
X0030137Y0116372D01*
X0030715Y0116372D01*
X0030715Y0112029D01*
X0030137Y0112029D01*
X0030137Y0111451D01*
X0027648Y0111451D01*
X0027648Y0109784D01*
X0027700Y0109591D01*
X0024697Y0109591D01*
X0024111Y0109005D01*
X0024111Y0104633D01*
X0024386Y0104358D01*
X0024111Y0104084D01*
X0024111Y0103498D01*
X0024111Y0104068D02*
X0021500Y0104068D01*
X0021500Y0104866D02*
X0024111Y0104866D01*
X0024111Y0105665D02*
X0021500Y0105665D01*
X0021500Y0106463D02*
X0024111Y0106463D01*
X0024111Y0107262D02*
X0021500Y0107262D01*
X0021500Y0108060D02*
X0024111Y0108060D01*
X0024111Y0108859D02*
X0011563Y0108859D01*
X0011563Y0109657D02*
X0027682Y0109657D01*
X0027648Y0110456D02*
X0011563Y0110456D01*
X0011563Y0111254D02*
X0027648Y0111254D01*
X0027648Y0112029D02*
X0030137Y0112029D01*
X0030137Y0114912D01*
X0030137Y0116372D01*
X0027648Y0116372D01*
X0027648Y0114705D01*
X0027743Y0114349D01*
X0027829Y0114201D01*
X0027743Y0114052D01*
X0027648Y0113696D01*
X0027648Y0112029D01*
X0027648Y0112053D02*
X0011563Y0112053D01*
X0011563Y0112851D02*
X0014474Y0112851D01*
X0012870Y0113650D02*
X0011563Y0113650D01*
X0011563Y0114448D02*
X0012071Y0114448D01*
X0020000Y0112851D02*
X0027648Y0112851D01*
X0027648Y0113650D02*
X0021604Y0113650D01*
X0022403Y0114448D02*
X0027717Y0114448D01*
X0027648Y0115247D02*
X0023201Y0115247D01*
X0023666Y0116045D02*
X0027648Y0116045D01*
X0027648Y0117642D02*
X0024328Y0117642D01*
X0024543Y0118441D02*
X0027648Y0118441D01*
X0027762Y0119239D02*
X0024543Y0119239D01*
X0024543Y0120038D02*
X0027648Y0120038D01*
X0027648Y0120836D02*
X0024543Y0120836D01*
X0024307Y0121635D02*
X0030137Y0121635D01*
X0030137Y0121294D02*
X0030715Y0121294D01*
X0030715Y0116950D01*
X0030137Y0116950D01*
X0030137Y0119833D01*
X0030137Y0121294D01*
X0030137Y0120836D02*
X0030715Y0120836D01*
X0030715Y0120038D02*
X0030137Y0120038D01*
X0030137Y0119239D02*
X0030715Y0119239D01*
X0030715Y0118441D02*
X0030137Y0118441D01*
X0030137Y0117642D02*
X0030715Y0117642D01*
X0030137Y0116844D02*
X0023997Y0116844D01*
X0030137Y0116045D02*
X0030715Y0116045D01*
X0030715Y0115247D02*
X0030137Y0115247D01*
X0030137Y0114448D02*
X0030715Y0114448D01*
X0030715Y0113650D02*
X0030137Y0113650D01*
X0030137Y0112851D02*
X0030715Y0112851D01*
X0030715Y0112053D02*
X0030137Y0112053D01*
X0039604Y0121635D02*
X0040389Y0121635D01*
X0040345Y0121472D02*
X0040345Y0120894D01*
X0040238Y0121000D01*
X0038356Y0122883D01*
X0037922Y0122883D01*
X0037922Y0123769D01*
X0037891Y0123800D01*
X0055829Y0123800D01*
X0055829Y0122287D01*
X0050583Y0122287D01*
X0049997Y0121702D01*
X0049997Y0117598D01*
X0049499Y0117100D01*
X0047869Y0117100D01*
X0047869Y0118722D01*
X0044507Y0118722D01*
X0044507Y0119522D01*
X0043707Y0119522D01*
X0043707Y0122687D01*
X0041561Y0122687D01*
X0041204Y0122592D01*
X0040885Y0122408D01*
X0040625Y0122147D01*
X0040440Y0121828D01*
X0040345Y0121472D01*
X0040930Y0122433D02*
X0038805Y0122433D01*
X0037922Y0123232D02*
X0055829Y0123232D01*
X0055829Y0122433D02*
X0047285Y0122433D01*
X0047329Y0122408D02*
X0047010Y0122592D01*
X0046654Y0122687D01*
X0044507Y0122687D01*
X0044507Y0119522D01*
X0047869Y0119522D01*
X0047869Y0121472D01*
X0047774Y0121828D01*
X0047590Y0122147D01*
X0047329Y0122408D01*
X0047826Y0121635D02*
X0049997Y0121635D01*
X0049997Y0120836D02*
X0047869Y0120836D01*
X0047869Y0120038D02*
X0049997Y0120038D01*
X0049997Y0119239D02*
X0044507Y0119239D01*
X0044507Y0120038D02*
X0043707Y0120038D01*
X0043707Y0120836D02*
X0044507Y0120836D01*
X0044507Y0121635D02*
X0043707Y0121635D01*
X0043707Y0122433D02*
X0044507Y0122433D01*
X0047869Y0118441D02*
X0049997Y0118441D01*
X0049997Y0117642D02*
X0047869Y0117642D01*
X0051873Y0115798D02*
X0052032Y0115957D01*
X0055429Y0115957D01*
X0055429Y0115798D01*
X0053759Y0115798D01*
X0053759Y0112632D01*
X0055882Y0112632D01*
X0056197Y0112317D01*
X0056538Y0112120D01*
X0056250Y0111832D01*
X0053759Y0111832D01*
X0053759Y0109797D01*
X0053116Y0109154D01*
X0052959Y0108998D01*
X0052959Y0111832D01*
X0053759Y0111832D01*
X0053759Y0112632D01*
X0052959Y0112632D01*
X0050900Y0112632D01*
X0050900Y0111832D01*
X0052959Y0111832D01*
X0052959Y0112632D01*
X0052959Y0115798D01*
X0051873Y0115798D01*
X0052959Y0115247D02*
X0053759Y0115247D01*
X0053759Y0114448D02*
X0052959Y0114448D01*
X0052959Y0113650D02*
X0053759Y0113650D01*
X0053759Y0112851D02*
X0052959Y0112851D01*
X0052959Y0112053D02*
X0050900Y0112053D01*
X0052959Y0111254D02*
X0053759Y0111254D01*
X0053759Y0110456D02*
X0052959Y0110456D01*
X0052959Y0109657D02*
X0053619Y0109657D01*
X0053759Y0112053D02*
X0056471Y0112053D01*
X0059198Y0114887D02*
X0059198Y0115687D01*
X0062166Y0115687D01*
X0062166Y0115952D01*
X0062168Y0115950D01*
X0062912Y0115950D01*
X0062562Y0115600D01*
X0061849Y0114887D01*
X0059198Y0114887D01*
X0059198Y0115247D02*
X0062208Y0115247D01*
X0059198Y0115687D02*
X0058398Y0115687D01*
X0058398Y0118656D01*
X0057158Y0118656D01*
X0056721Y0118539D01*
X0056721Y0119264D01*
X0056761Y0119224D01*
X0060834Y0119224D01*
X0061403Y0119793D01*
X0061457Y0119739D01*
X0060850Y0119132D01*
X0060850Y0118545D01*
X0060438Y0118656D01*
X0059198Y0118656D01*
X0059198Y0115687D01*
X0059198Y0116045D02*
X0058398Y0116045D01*
X0058398Y0116844D02*
X0059198Y0116844D01*
X0059198Y0117642D02*
X0058398Y0117642D01*
X0058398Y0118441D02*
X0059198Y0118441D01*
X0060849Y0119239D02*
X0060957Y0119239D01*
X0056746Y0119239D02*
X0056721Y0119239D01*
X0068000Y0111596D02*
X0068438Y0112035D01*
X0068516Y0112035D01*
X0068516Y0111720D01*
X0069102Y0111135D01*
X0078630Y0111135D01*
X0079216Y0111720D01*
X0079216Y0114949D01*
X0079065Y0115100D01*
X0088826Y0115100D01*
X0088812Y0115075D01*
X0088716Y0114719D01*
X0088716Y0113535D01*
X0094266Y0113535D01*
X0094266Y0113135D01*
X0088716Y0113135D01*
X0088716Y0112000D01*
X0087462Y0112000D01*
X0086700Y0111238D01*
X0079500Y0104038D01*
X0079500Y0100650D01*
X0078668Y0100650D01*
X0078553Y0100535D01*
X0069102Y0100535D01*
X0068516Y0099949D01*
X0068516Y0099622D01*
X0067738Y0100400D01*
X0066979Y0100400D01*
X0066979Y0102883D01*
X0067065Y0102796D01*
X0067827Y0102035D01*
X0068516Y0102035D01*
X0068516Y0101720D01*
X0069102Y0101135D01*
X0078630Y0101135D01*
X0079216Y0101720D01*
X0079216Y0104949D01*
X0078630Y0105535D01*
X0069250Y0105535D01*
X0069250Y0106135D01*
X0078630Y0106135D01*
X0079216Y0106720D01*
X0079216Y0109949D01*
X0078630Y0110535D01*
X0069102Y0110535D01*
X0068516Y0109949D01*
X0068516Y0109635D01*
X0067473Y0109635D01*
X0068000Y0110162D01*
X0068000Y0111596D01*
X0068000Y0111254D02*
X0068982Y0111254D01*
X0069023Y0110456D02*
X0068000Y0110456D01*
X0067496Y0109657D02*
X0068516Y0109657D01*
X0069250Y0105665D02*
X0081126Y0105665D01*
X0081925Y0106463D02*
X0078959Y0106463D01*
X0079216Y0107262D02*
X0082723Y0107262D01*
X0083522Y0108060D02*
X0079216Y0108060D01*
X0079216Y0108859D02*
X0084320Y0108859D01*
X0085119Y0109657D02*
X0079216Y0109657D01*
X0078709Y0110456D02*
X0085917Y0110456D01*
X0086716Y0111254D02*
X0078750Y0111254D01*
X0079216Y0112053D02*
X0088716Y0112053D01*
X0088716Y0112851D02*
X0079216Y0112851D01*
X0079216Y0113650D02*
X0088716Y0113650D01*
X0088716Y0114448D02*
X0079216Y0114448D01*
X0079216Y0104866D02*
X0080328Y0104866D01*
X0079529Y0104068D02*
X0079216Y0104068D01*
X0079216Y0103269D02*
X0079500Y0103269D01*
X0079500Y0102470D02*
X0079216Y0102470D01*
X0079168Y0101672D02*
X0079500Y0101672D01*
X0079500Y0100873D02*
X0066979Y0100873D01*
X0066979Y0101672D02*
X0068565Y0101672D01*
X0067391Y0102470D02*
X0066979Y0102470D01*
X0068064Y0100075D02*
X0068642Y0100075D01*
X0073866Y0098335D02*
X0079600Y0098400D01*
X0094666Y0113135D02*
X0094666Y0113535D01*
X0100216Y0113535D01*
X0100216Y0114345D01*
X0100500Y0114062D01*
X0100500Y0111038D01*
X0100438Y0111100D01*
X0100056Y0111482D01*
X0100121Y0111594D01*
X0100216Y0111950D01*
X0100216Y0113135D01*
X0094666Y0113135D01*
X0100216Y0112851D02*
X0100500Y0112851D01*
X0100500Y0112053D02*
X0100216Y0112053D01*
X0100284Y0111254D02*
X0100500Y0111254D01*
X0100500Y0113650D02*
X0100216Y0113650D01*
X0101538Y0120125D02*
X0100863Y0120800D01*
X0099938Y0120800D01*
X0099938Y0123240D01*
X0097889Y0125288D01*
X0103421Y0125288D01*
X0101538Y0123405D01*
X0101538Y0121983D01*
X0105538Y0121983D01*
X0105538Y0121183D01*
X0101538Y0121183D01*
X0101538Y0120125D01*
X0101538Y0120836D02*
X0099938Y0120836D01*
X0099938Y0121635D02*
X0105538Y0121635D01*
X0106338Y0121635D02*
X0115538Y0121635D01*
X0115538Y0121983D02*
X0115538Y0121183D01*
X0111538Y0121183D01*
X0111538Y0119760D01*
X0114115Y0117183D01*
X0115538Y0117183D01*
X0115538Y0121183D01*
X0116338Y0121183D01*
X0116338Y0121983D01*
X0120338Y0121983D01*
X0120338Y0123405D01*
X0118455Y0125288D01*
X0123421Y0125288D01*
X0121538Y0123405D01*
X0121538Y0121983D01*
X0125538Y0121983D01*
X0125538Y0121183D01*
X0121538Y0121183D01*
X0121538Y0119760D01*
X0124115Y0117183D01*
X0125538Y0117183D01*
X0125538Y0121183D01*
X0126338Y0121183D01*
X0126338Y0121983D01*
X0130338Y0121983D01*
X0130338Y0123405D01*
X0128455Y0125288D01*
X0133421Y0125288D01*
X0131538Y0123405D01*
X0131538Y0121983D01*
X0135538Y0121983D01*
X0135538Y0121183D01*
X0131538Y0121183D01*
X0131538Y0119760D01*
X0134115Y0117183D01*
X0135538Y0117183D01*
X0135538Y0121183D01*
X0136338Y0121183D01*
X0136338Y0121983D01*
X0140338Y0121983D01*
X0140338Y0123405D01*
X0138455Y0125288D01*
X0143421Y0125288D01*
X0141538Y0123405D01*
X0141538Y0121983D01*
X0145538Y0121983D01*
X0145538Y0121183D01*
X0141538Y0121183D01*
X0141538Y0119760D01*
X0144115Y0117183D01*
X0145538Y0117183D01*
X0145538Y0121183D01*
X0146338Y0121183D01*
X0146338Y0121983D01*
X0150338Y0121983D01*
X0150338Y0123405D01*
X0148455Y0125288D01*
X0153421Y0125288D01*
X0151538Y0123405D01*
X0151538Y0121983D01*
X0155538Y0121983D01*
X0155538Y0121183D01*
X0151538Y0121183D01*
X0151538Y0119760D01*
X0154115Y0117183D01*
X0155538Y0117183D01*
X0155538Y0121183D01*
X0156338Y0121183D01*
X0156338Y0121983D01*
X0160338Y0121983D01*
X0160338Y0123405D01*
X0158455Y0125288D01*
X0163421Y0125288D01*
X0161538Y0123405D01*
X0161538Y0121983D01*
X0165538Y0121983D01*
X0165538Y0121183D01*
X0161538Y0121183D01*
X0161538Y0119760D01*
X0164115Y0117183D01*
X0165538Y0117183D01*
X0165538Y0121183D01*
X0166338Y0121183D01*
X0166338Y0121983D01*
X0170338Y0121983D01*
X0170338Y0123405D01*
X0168455Y0125288D01*
X0173421Y0125288D01*
X0171538Y0123405D01*
X0171538Y0121983D01*
X0175538Y0121983D01*
X0175538Y0121183D01*
X0171538Y0121183D01*
X0171538Y0119760D01*
X0174115Y0117183D01*
X0175538Y0117183D01*
X0175538Y0121183D01*
X0176338Y0121183D01*
X0176338Y0121983D01*
X0180338Y0121983D01*
X0180338Y0123405D01*
X0178455Y0125288D01*
X0183421Y0125288D01*
X0181538Y0123405D01*
X0181538Y0121983D01*
X0185538Y0121983D01*
X0185538Y0121183D01*
X0181538Y0121183D01*
X0181538Y0119760D01*
X0184115Y0117183D01*
X0185538Y0117183D01*
X0185538Y0121183D01*
X0186338Y0121183D01*
X0186338Y0121983D01*
X0190338Y0121983D01*
X0190338Y0123405D01*
X0188455Y0125288D01*
X0193682Y0125288D01*
X0192146Y0123752D01*
X0191034Y0121067D01*
X0191034Y0118161D01*
X0192146Y0115476D01*
X0194201Y0113421D01*
X0196886Y0112309D01*
X0199793Y0112309D01*
X0202478Y0113421D01*
X0204013Y0114957D01*
X0204013Y0041595D01*
X0202478Y0043130D01*
X0199793Y0044243D01*
X0196886Y0044243D01*
X0194201Y0043130D01*
X0192146Y0041075D01*
X0191034Y0038390D01*
X0191034Y0035484D01*
X0192146Y0032799D01*
X0193682Y0031263D01*
X0188455Y0031263D01*
X0190338Y0033146D01*
X0190338Y0034569D01*
X0186338Y0034569D01*
X0186338Y0035368D01*
X0190338Y0035368D01*
X0190338Y0036791D01*
X0187760Y0039368D01*
X0186338Y0039368D01*
X0186338Y0035369D01*
X0185538Y0035369D01*
X0185538Y0039368D01*
X0184115Y0039368D01*
X0181538Y0036791D01*
X0181538Y0035368D01*
X0185538Y0035368D01*
X0185538Y0034569D01*
X0181538Y0034569D01*
X0181538Y0033146D01*
X0183421Y0031263D01*
X0178455Y0031263D01*
X0180338Y0033146D01*
X0180338Y0034569D01*
X0176338Y0034569D01*
X0176338Y0035368D01*
X0180338Y0035368D01*
X0180338Y0036791D01*
X0177760Y0039368D01*
X0176338Y0039368D01*
X0176338Y0035369D01*
X0175538Y0035369D01*
X0175538Y0039368D01*
X0174115Y0039368D01*
X0171538Y0036791D01*
X0171538Y0035368D01*
X0175538Y0035368D01*
X0175538Y0034569D01*
X0171538Y0034569D01*
X0171538Y0033146D01*
X0173421Y0031263D01*
X0168455Y0031263D01*
X0170338Y0033146D01*
X0170338Y0034569D01*
X0166338Y0034569D01*
X0166338Y0035368D01*
X0170338Y0035368D01*
X0170338Y0036791D01*
X0167760Y0039368D01*
X0166338Y0039368D01*
X0166338Y0035369D01*
X0165538Y0035369D01*
X0165538Y0039368D01*
X0164115Y0039368D01*
X0161538Y0036791D01*
X0161538Y0035368D01*
X0165538Y0035368D01*
X0165538Y0034569D01*
X0161538Y0034569D01*
X0161538Y0033146D01*
X0163421Y0031263D01*
X0158455Y0031263D01*
X0160338Y0033146D01*
X0160338Y0034569D01*
X0156338Y0034569D01*
X0156338Y0035368D01*
X0160338Y0035368D01*
X0160338Y0036791D01*
X0157760Y0039368D01*
X0156338Y0039368D01*
X0156338Y0035369D01*
X0155538Y0035369D01*
X0155538Y0039368D01*
X0154115Y0039368D01*
X0151538Y0036791D01*
X0151538Y0035368D01*
X0155538Y0035368D01*
X0155538Y0034569D01*
X0151538Y0034569D01*
X0151538Y0033146D01*
X0153421Y0031263D01*
X0148455Y0031263D01*
X0150338Y0033146D01*
X0150338Y0034569D01*
X0146338Y0034569D01*
X0146338Y0035368D01*
X0150338Y0035368D01*
X0150338Y0036791D01*
X0147760Y0039368D01*
X0146338Y0039368D01*
X0146338Y0035369D01*
X0145538Y0035369D01*
X0145538Y0039368D01*
X0144115Y0039368D01*
X0141538Y0036791D01*
X0141538Y0035368D01*
X0145538Y0035368D01*
X0145538Y0034569D01*
X0141538Y0034569D01*
X0141538Y0033146D01*
X0143421Y0031263D01*
X0138455Y0031263D01*
X0140338Y0033146D01*
X0140338Y0034569D01*
X0136338Y0034569D01*
X0136338Y0035368D01*
X0140338Y0035368D01*
X0140338Y0036791D01*
X0137760Y0039368D01*
X0136338Y0039368D01*
X0136338Y0035369D01*
X0135538Y0035369D01*
X0135538Y0039368D01*
X0134115Y0039368D01*
X0131538Y0036791D01*
X0131538Y0035368D01*
X0135538Y0035368D01*
X0135538Y0034569D01*
X0131538Y0034569D01*
X0131538Y0033146D01*
X0133421Y0031263D01*
X0124241Y0031263D01*
X0125284Y0032306D01*
X0126000Y0034034D01*
X0126000Y0035903D01*
X0125284Y0037631D01*
X0123962Y0038953D01*
X0123300Y0039227D01*
X0123300Y0042672D01*
X0129900Y0049272D01*
X0129900Y0048744D01*
X0130837Y0047806D01*
X0131978Y0046666D01*
X0131938Y0046625D01*
X0131938Y0043312D01*
X0134281Y0040969D01*
X0137595Y0040969D01*
X0139595Y0042969D01*
X0142281Y0042969D01*
X0144281Y0040969D01*
X0147595Y0040969D01*
X0149595Y0042969D01*
X0152281Y0042969D01*
X0154281Y0040969D01*
X0157595Y0040969D01*
X0159595Y0042969D01*
X0162281Y0042969D01*
X0164281Y0040969D01*
X0167595Y0040969D01*
X0169595Y0042969D01*
X0172281Y0042969D01*
X0174281Y0040969D01*
X0177595Y0040969D01*
X0179595Y0042969D01*
X0182281Y0042969D01*
X0184281Y0040969D01*
X0187595Y0040969D01*
X0189795Y0043169D01*
X0192114Y0043169D01*
X0202446Y0053500D01*
X0203500Y0054554D01*
X0203500Y0107246D01*
X0202000Y0108746D01*
X0200946Y0109800D01*
X0199908Y0109800D01*
X0199908Y0111192D01*
X0199322Y0111778D01*
X0192588Y0111778D01*
X0192002Y0111192D01*
X0192002Y0110019D01*
X0190047Y0110019D01*
X0189938Y0110128D01*
X0189938Y0113240D01*
X0187595Y0115583D01*
X0184281Y0115583D01*
X0182081Y0113383D01*
X0179795Y0113383D01*
X0177595Y0115583D01*
X0174281Y0115583D01*
X0171938Y0113240D01*
X0171938Y0109926D01*
X0174281Y0107583D01*
X0177595Y0107583D01*
X0179795Y0109783D01*
X0182081Y0109783D01*
X0184281Y0107583D01*
X0187392Y0107583D01*
X0188556Y0106419D01*
X0192002Y0106419D01*
X0192002Y0105246D01*
X0192093Y0105155D01*
X0191882Y0104945D01*
X0191698Y0104625D01*
X0191602Y0104269D01*
X0191602Y0101926D01*
X0195555Y0101926D01*
X0195555Y0101126D01*
X0191602Y0101126D01*
X0191602Y0098783D01*
X0191698Y0098427D01*
X0191882Y0098107D01*
X0192143Y0097847D01*
X0192462Y0097662D01*
X0192818Y0097567D01*
X0195555Y0097567D01*
X0195555Y0101126D01*
X0196355Y0101126D01*
X0196355Y0097567D01*
X0199092Y0097567D01*
X0199448Y0097662D01*
X0199767Y0097847D01*
X0199900Y0097979D01*
X0199900Y0056046D01*
X0190623Y0046768D01*
X0189795Y0046768D01*
X0187595Y0048968D01*
X0184281Y0048968D01*
X0182281Y0046968D01*
X0179595Y0046968D01*
X0177595Y0048968D01*
X0174281Y0048968D01*
X0172281Y0046968D01*
X0169595Y0046968D01*
X0167595Y0048968D01*
X0164281Y0048968D01*
X0162281Y0046968D01*
X0159595Y0046968D01*
X0157595Y0048968D01*
X0154281Y0048968D01*
X0152281Y0046968D01*
X0149595Y0046968D01*
X0147595Y0048968D01*
X0144281Y0048968D01*
X0142281Y0046968D01*
X0139595Y0046968D01*
X0137595Y0048968D01*
X0134281Y0048968D01*
X0134241Y0048928D01*
X0133100Y0050069D01*
X0133100Y0052149D01*
X0134281Y0050969D01*
X0137595Y0050969D01*
X0139938Y0053312D01*
X0139938Y0056625D01*
X0137863Y0058700D01*
X0139062Y0058700D01*
X0141938Y0055824D01*
X0141938Y0053312D01*
X0144281Y0050969D01*
X0147595Y0050969D01*
X0149938Y0053312D01*
X0149938Y0056625D01*
X0148763Y0057800D01*
X0151362Y0057800D01*
X0152237Y0056925D01*
X0151938Y0056625D01*
X0151938Y0053312D01*
X0154281Y0050969D01*
X0157595Y0050969D01*
X0159938Y0053312D01*
X0159938Y0056625D01*
X0158763Y0057800D01*
X0160362Y0057800D01*
X0161938Y0056224D01*
X0161938Y0053312D01*
X0164281Y0050969D01*
X0167595Y0050969D01*
X0169938Y0053312D01*
X0169938Y0056625D01*
X0167595Y0058968D01*
X0164281Y0058968D01*
X0163575Y0058263D01*
X0161438Y0060400D01*
X0154538Y0060400D01*
X0153394Y0061544D01*
X0153612Y0061761D01*
X0153612Y0070590D01*
X0153026Y0071176D01*
X0152758Y0071176D01*
X0153550Y0071968D01*
X0153550Y0073832D01*
X0152232Y0075150D01*
X0150368Y0075150D01*
X0149050Y0073832D01*
X0149050Y0071968D01*
X0149842Y0071176D01*
X0149598Y0071176D01*
X0149012Y0070590D01*
X0149012Y0061761D01*
X0149173Y0061600D01*
X0143438Y0061600D01*
X0141338Y0063700D01*
X0136638Y0063700D01*
X0133038Y0067300D01*
X0126938Y0067300D01*
X0125171Y0069068D01*
X0125171Y0072764D01*
X0125466Y0072764D01*
X0126052Y0073350D01*
X0126052Y0080477D01*
X0125629Y0080900D01*
X0126556Y0080900D01*
X0126385Y0080603D01*
X0126290Y0080247D01*
X0126290Y0077104D01*
X0128680Y0077104D01*
X0128680Y0076723D01*
X0126290Y0076723D01*
X0126290Y0073579D01*
X0126385Y0073223D01*
X0126569Y0072904D01*
X0126830Y0072644D01*
X0127149Y0072459D01*
X0127505Y0072364D01*
X0128680Y0072364D01*
X0128680Y0076723D01*
X0129061Y0076723D01*
X0129061Y0072364D01*
X0130236Y0072364D01*
X0130592Y0072459D01*
X0130912Y0072644D01*
X0131172Y0072904D01*
X0131357Y0073223D01*
X0131452Y0073579D01*
X0131452Y0076723D01*
X0129061Y0076723D01*
X0129061Y0077104D01*
X0131452Y0077104D01*
X0131452Y0080247D01*
X0131357Y0080603D01*
X0131185Y0080900D01*
X0178238Y0080900D01*
X0182400Y0085062D01*
X0182400Y0076138D01*
X0180773Y0074512D01*
X0180012Y0073750D01*
X0180012Y0071176D01*
X0179598Y0071176D01*
X0179012Y0070590D01*
X0179012Y0061761D01*
X0179598Y0061176D01*
X0183026Y0061176D01*
X0183612Y0061761D01*
X0183612Y0070590D01*
X0183026Y0071176D01*
X0182612Y0071176D01*
X0182612Y0072673D01*
X0185000Y0075062D01*
X0185000Y0085376D01*
X0188026Y0085376D01*
X0188612Y0085961D01*
X0188612Y0094790D01*
X0188026Y0095376D01*
X0185214Y0095376D01*
X0187238Y0097399D01*
X0187238Y0097583D01*
X0187595Y0097583D01*
X0189938Y0099926D01*
X0189938Y0103240D01*
X0187595Y0105583D01*
X0184281Y0105583D01*
X0181938Y0103240D01*
X0181938Y0099926D01*
X0184013Y0097851D01*
X0183162Y0097000D01*
X0182400Y0096238D01*
X0182400Y0095376D01*
X0179598Y0095376D01*
X0179012Y0094790D01*
X0179012Y0085961D01*
X0179317Y0085656D01*
X0177162Y0083500D01*
X0165682Y0083500D01*
X0165850Y0083668D01*
X0165850Y0084976D01*
X0166062Y0084976D01*
X0166062Y0090126D01*
X0163612Y0090126D01*
X0163612Y0086850D01*
X0163612Y0086850D01*
X0163612Y0094700D01*
X0163649Y0094700D01*
X0163612Y0094560D01*
X0163612Y0090626D01*
X0166062Y0090626D01*
X0166062Y0090126D01*
X0166562Y0090126D01*
X0166562Y0090626D01*
X0169012Y0090626D01*
X0169012Y0094560D01*
X0168974Y0094700D01*
X0169012Y0094700D01*
X0169012Y0085961D01*
X0169598Y0085376D01*
X0173026Y0085376D01*
X0173612Y0085961D01*
X0173612Y0089076D01*
X0174012Y0089076D01*
X0174012Y0085961D01*
X0174598Y0085376D01*
X0178026Y0085376D01*
X0178612Y0085961D01*
X0178612Y0094790D01*
X0178026Y0095376D01*
X0174598Y0095376D01*
X0174012Y0094790D01*
X0174012Y0091676D01*
X0173612Y0091676D01*
X0173612Y0094790D01*
X0173026Y0095376D01*
X0172700Y0095376D01*
X0172700Y0095938D01*
X0171938Y0096700D01*
X0171338Y0097300D01*
X0167238Y0097300D01*
X0167238Y0097583D01*
X0167595Y0097583D01*
X0169938Y0099926D01*
X0169938Y0103240D01*
X0167677Y0105500D01*
X0170182Y0105500D01*
X0172190Y0103492D01*
X0171938Y0103240D01*
X0171938Y0099926D01*
X0174281Y0097583D01*
X0177595Y0097583D01*
X0179938Y0099926D01*
X0179938Y0103240D01*
X0177595Y0105583D01*
X0174281Y0105583D01*
X0174029Y0105330D01*
X0171259Y0108100D01*
X0168112Y0108100D01*
X0169938Y0109926D01*
X0169938Y0113240D01*
X0167595Y0115583D01*
X0164281Y0115583D01*
X0161938Y0113240D01*
X0161938Y0113183D01*
X0159938Y0113183D01*
X0159938Y0113240D01*
X0157595Y0115583D01*
X0154281Y0115583D01*
X0151938Y0113240D01*
X0151938Y0113183D01*
X0149938Y0113183D01*
X0149938Y0113240D01*
X0147595Y0115583D01*
X0144281Y0115583D01*
X0141938Y0113240D01*
X0141938Y0113183D01*
X0139938Y0113183D01*
X0139938Y0113240D01*
X0137595Y0115583D01*
X0134281Y0115583D01*
X0131938Y0113240D01*
X0131938Y0113183D01*
X0129938Y0113183D01*
X0129938Y0113240D01*
X0127595Y0115583D01*
X0124281Y0115583D01*
X0121938Y0113240D01*
X0121938Y0113183D01*
X0119938Y0113183D01*
X0119938Y0113240D01*
X0117595Y0115583D01*
X0114281Y0115583D01*
X0112750Y0114052D01*
X0112750Y0114613D01*
X0109063Y0118300D01*
X0108878Y0118300D01*
X0110338Y0119760D01*
X0110338Y0121183D01*
X0106338Y0121183D01*
X0106338Y0121983D01*
X0110338Y0121983D01*
X0110338Y0123405D01*
X0108455Y0125288D01*
X0113421Y0125288D01*
X0111538Y0123405D01*
X0111538Y0121983D01*
X0115538Y0121983D01*
X0116338Y0121635D02*
X0125538Y0121635D01*
X0125538Y0120836D02*
X0126338Y0120836D01*
X0126338Y0121183D02*
X0126338Y0117183D01*
X0127760Y0117183D01*
X0130338Y0119760D01*
X0130338Y0121183D01*
X0126338Y0121183D01*
X0126338Y0121635D02*
X0135538Y0121635D01*
X0135538Y0120836D02*
X0136338Y0120836D01*
X0136338Y0121183D02*
X0136338Y0117183D01*
X0137760Y0117183D01*
X0140338Y0119760D01*
X0140338Y0121183D01*
X0136338Y0121183D01*
X0136338Y0121635D02*
X0145538Y0121635D01*
X0145538Y0120836D02*
X0146338Y0120836D01*
X0146338Y0121183D02*
X0146338Y0117183D01*
X0147760Y0117183D01*
X0150338Y0119760D01*
X0150338Y0121183D01*
X0146338Y0121183D01*
X0146338Y0121635D02*
X0155538Y0121635D01*
X0155538Y0120836D02*
X0156338Y0120836D01*
X0156338Y0121183D02*
X0156338Y0117183D01*
X0157760Y0117183D01*
X0160338Y0119760D01*
X0160338Y0121183D01*
X0156338Y0121183D01*
X0156338Y0121635D02*
X0165538Y0121635D01*
X0165538Y0120836D02*
X0166338Y0120836D01*
X0166338Y0121183D02*
X0166338Y0117183D01*
X0167760Y0117183D01*
X0170338Y0119760D01*
X0170338Y0121183D01*
X0166338Y0121183D01*
X0166338Y0121635D02*
X0175538Y0121635D01*
X0175538Y0120836D02*
X0176338Y0120836D01*
X0176338Y0121183D02*
X0176338Y0117183D01*
X0177760Y0117183D01*
X0180338Y0119760D01*
X0180338Y0121183D01*
X0176338Y0121183D01*
X0176338Y0121635D02*
X0185538Y0121635D01*
X0185538Y0120836D02*
X0186338Y0120836D01*
X0186338Y0121183D02*
X0186338Y0117183D01*
X0187760Y0117183D01*
X0190338Y0119760D01*
X0190338Y0121183D01*
X0186338Y0121183D01*
X0186338Y0121635D02*
X0191269Y0121635D01*
X0191034Y0120836D02*
X0190338Y0120836D01*
X0190338Y0120038D02*
X0191034Y0120038D01*
X0191034Y0119239D02*
X0189817Y0119239D01*
X0189018Y0118441D02*
X0191034Y0118441D01*
X0191249Y0117642D02*
X0188220Y0117642D01*
X0186338Y0117642D02*
X0185538Y0117642D01*
X0185538Y0118441D02*
X0186338Y0118441D01*
X0186338Y0119239D02*
X0185538Y0119239D01*
X0185538Y0120038D02*
X0186338Y0120038D01*
X0183656Y0117642D02*
X0178220Y0117642D01*
X0179018Y0118441D02*
X0182857Y0118441D01*
X0182059Y0119239D02*
X0179817Y0119239D01*
X0180338Y0120038D02*
X0181538Y0120038D01*
X0181538Y0120836D02*
X0180338Y0120836D01*
X0180338Y0122433D02*
X0181538Y0122433D01*
X0181538Y0123232D02*
X0180338Y0123232D01*
X0179713Y0124030D02*
X0182163Y0124030D01*
X0182961Y0124829D02*
X0178914Y0124829D01*
X0172961Y0124829D02*
X0168914Y0124829D01*
X0169713Y0124030D02*
X0172163Y0124030D01*
X0171538Y0123232D02*
X0170338Y0123232D01*
X0170338Y0122433D02*
X0171538Y0122433D01*
X0171538Y0120836D02*
X0170338Y0120836D01*
X0170338Y0120038D02*
X0171538Y0120038D01*
X0172059Y0119239D02*
X0169817Y0119239D01*
X0169018Y0118441D02*
X0172857Y0118441D01*
X0173656Y0117642D02*
X0168220Y0117642D01*
X0166338Y0117642D02*
X0165538Y0117642D01*
X0165538Y0118441D02*
X0166338Y0118441D01*
X0166338Y0119239D02*
X0165538Y0119239D01*
X0165538Y0120038D02*
X0166338Y0120038D01*
X0163656Y0117642D02*
X0158220Y0117642D01*
X0159018Y0118441D02*
X0162857Y0118441D01*
X0162059Y0119239D02*
X0159817Y0119239D01*
X0160338Y0120038D02*
X0161538Y0120038D01*
X0161538Y0120836D02*
X0160338Y0120836D01*
X0160338Y0122433D02*
X0161538Y0122433D01*
X0161538Y0123232D02*
X0160338Y0123232D01*
X0159713Y0124030D02*
X0162163Y0124030D01*
X0162961Y0124829D02*
X0158914Y0124829D01*
X0152961Y0124829D02*
X0148914Y0124829D01*
X0149713Y0124030D02*
X0152163Y0124030D01*
X0151538Y0123232D02*
X0150338Y0123232D01*
X0150338Y0122433D02*
X0151538Y0122433D01*
X0151538Y0120836D02*
X0150338Y0120836D01*
X0150338Y0120038D02*
X0151538Y0120038D01*
X0152059Y0119239D02*
X0149817Y0119239D01*
X0149018Y0118441D02*
X0152857Y0118441D01*
X0153656Y0117642D02*
X0148220Y0117642D01*
X0146338Y0117642D02*
X0145538Y0117642D01*
X0145538Y0118441D02*
X0146338Y0118441D01*
X0146338Y0119239D02*
X0145538Y0119239D01*
X0145538Y0120038D02*
X0146338Y0120038D01*
X0143656Y0117642D02*
X0138220Y0117642D01*
X0139018Y0118441D02*
X0142857Y0118441D01*
X0142059Y0119239D02*
X0139817Y0119239D01*
X0140338Y0120038D02*
X0141538Y0120038D01*
X0141538Y0120836D02*
X0140338Y0120836D01*
X0140338Y0122433D02*
X0141538Y0122433D01*
X0141538Y0123232D02*
X0140338Y0123232D01*
X0139713Y0124030D02*
X0142163Y0124030D01*
X0142961Y0124829D02*
X0138914Y0124829D01*
X0136338Y0120038D02*
X0135538Y0120038D01*
X0135538Y0119239D02*
X0136338Y0119239D01*
X0136338Y0118441D02*
X0135538Y0118441D01*
X0135538Y0117642D02*
X0136338Y0117642D01*
X0133656Y0117642D02*
X0128220Y0117642D01*
X0129018Y0118441D02*
X0132857Y0118441D01*
X0132059Y0119239D02*
X0129817Y0119239D01*
X0130338Y0120038D02*
X0131538Y0120038D01*
X0131538Y0120836D02*
X0130338Y0120836D01*
X0130338Y0122433D02*
X0131538Y0122433D01*
X0131538Y0123232D02*
X0130338Y0123232D01*
X0129713Y0124030D02*
X0132163Y0124030D01*
X0132961Y0124829D02*
X0128914Y0124829D01*
X0122961Y0124829D02*
X0118914Y0124829D01*
X0119713Y0124030D02*
X0122163Y0124030D01*
X0121538Y0123232D02*
X0120338Y0123232D01*
X0120338Y0122433D02*
X0121538Y0122433D01*
X0121538Y0120836D02*
X0120338Y0120836D01*
X0120338Y0121183D02*
X0116338Y0121183D01*
X0116338Y0117183D01*
X0117760Y0117183D01*
X0120338Y0119760D01*
X0120338Y0121183D01*
X0120338Y0120038D02*
X0121538Y0120038D01*
X0122059Y0119239D02*
X0119817Y0119239D01*
X0119018Y0118441D02*
X0122857Y0118441D01*
X0123656Y0117642D02*
X0118220Y0117642D01*
X0116338Y0117642D02*
X0115538Y0117642D01*
X0115538Y0118441D02*
X0116338Y0118441D01*
X0116338Y0119239D02*
X0115538Y0119239D01*
X0115538Y0120038D02*
X0116338Y0120038D01*
X0116338Y0120836D02*
X0115538Y0120836D01*
X0112059Y0119239D02*
X0109817Y0119239D01*
X0110338Y0120038D02*
X0111538Y0120038D01*
X0111538Y0120836D02*
X0110338Y0120836D01*
X0110338Y0122433D02*
X0111538Y0122433D01*
X0111538Y0123232D02*
X0110338Y0123232D01*
X0109713Y0124030D02*
X0112163Y0124030D01*
X0112961Y0124829D02*
X0108914Y0124829D01*
X0102961Y0124829D02*
X0098348Y0124829D01*
X0099147Y0124030D02*
X0102163Y0124030D01*
X0101538Y0123232D02*
X0099938Y0123232D01*
X0099938Y0122433D02*
X0101538Y0122433D01*
X0109018Y0118441D02*
X0112857Y0118441D01*
X0113656Y0117642D02*
X0109721Y0117642D01*
X0110519Y0116844D02*
X0191580Y0116844D01*
X0191910Y0116045D02*
X0111318Y0116045D01*
X0112116Y0115247D02*
X0113945Y0115247D01*
X0113146Y0114448D02*
X0112750Y0114448D01*
X0117931Y0115247D02*
X0123945Y0115247D01*
X0123146Y0114448D02*
X0118729Y0114448D01*
X0119528Y0113650D02*
X0122348Y0113650D01*
X0125538Y0117642D02*
X0126338Y0117642D01*
X0126338Y0118441D02*
X0125538Y0118441D01*
X0125538Y0119239D02*
X0126338Y0119239D01*
X0126338Y0120038D02*
X0125538Y0120038D01*
X0127931Y0115247D02*
X0133945Y0115247D01*
X0133146Y0114448D02*
X0128729Y0114448D01*
X0129528Y0113650D02*
X0132348Y0113650D01*
X0137931Y0115247D02*
X0143945Y0115247D01*
X0143146Y0114448D02*
X0138729Y0114448D01*
X0139528Y0113650D02*
X0142348Y0113650D01*
X0147931Y0115247D02*
X0153945Y0115247D01*
X0153146Y0114448D02*
X0148729Y0114448D01*
X0149528Y0113650D02*
X0152348Y0113650D01*
X0155538Y0117642D02*
X0156338Y0117642D01*
X0156338Y0118441D02*
X0155538Y0118441D01*
X0155538Y0119239D02*
X0156338Y0119239D01*
X0156338Y0120038D02*
X0155538Y0120038D01*
X0157931Y0115247D02*
X0163945Y0115247D01*
X0163146Y0114448D02*
X0158729Y0114448D01*
X0159528Y0113650D02*
X0162348Y0113650D01*
X0167931Y0115247D02*
X0173945Y0115247D01*
X0173146Y0114448D02*
X0168729Y0114448D01*
X0169528Y0113650D02*
X0172348Y0113650D01*
X0171938Y0112851D02*
X0169938Y0112851D01*
X0169938Y0112053D02*
X0171938Y0112053D01*
X0171938Y0111254D02*
X0169938Y0111254D01*
X0169938Y0110456D02*
X0171938Y0110456D01*
X0172207Y0109657D02*
X0169669Y0109657D01*
X0168871Y0108859D02*
X0173005Y0108859D01*
X0173804Y0108060D02*
X0171299Y0108060D01*
X0172097Y0107262D02*
X0187713Y0107262D01*
X0188512Y0106463D02*
X0172896Y0106463D01*
X0173694Y0105665D02*
X0192002Y0105665D01*
X0191837Y0104866D02*
X0188311Y0104866D01*
X0189110Y0104068D02*
X0191602Y0104068D01*
X0191602Y0103269D02*
X0189908Y0103269D01*
X0189938Y0102470D02*
X0191602Y0102470D01*
X0191602Y0100873D02*
X0189938Y0100873D01*
X0189938Y0100075D02*
X0191602Y0100075D01*
X0191602Y0099276D02*
X0189288Y0099276D01*
X0188490Y0098478D02*
X0191684Y0098478D01*
X0192432Y0097679D02*
X0187691Y0097679D01*
X0186719Y0096881D02*
X0199900Y0096881D01*
X0199900Y0097679D02*
X0199478Y0097679D01*
X0199900Y0096082D02*
X0185921Y0096082D01*
X0188118Y0095284D02*
X0199900Y0095284D01*
X0199900Y0094485D02*
X0188612Y0094485D01*
X0188612Y0093687D02*
X0199900Y0093687D01*
X0199900Y0092888D02*
X0188612Y0092888D01*
X0188612Y0092090D02*
X0199900Y0092090D01*
X0199900Y0091291D02*
X0188612Y0091291D01*
X0188612Y0090493D02*
X0199900Y0090493D01*
X0199900Y0089694D02*
X0188612Y0089694D01*
X0188612Y0088896D02*
X0199900Y0088896D01*
X0199900Y0088097D02*
X0188612Y0088097D01*
X0188612Y0087299D02*
X0199900Y0087299D01*
X0199900Y0086500D02*
X0188612Y0086500D01*
X0188352Y0085702D02*
X0199900Y0085702D01*
X0199900Y0084903D02*
X0185000Y0084903D01*
X0185000Y0084105D02*
X0199900Y0084105D01*
X0199900Y0083306D02*
X0185000Y0083306D01*
X0185000Y0082508D02*
X0199900Y0082508D01*
X0199900Y0081709D02*
X0185000Y0081709D01*
X0185000Y0080911D02*
X0199900Y0080911D01*
X0199900Y0080112D02*
X0185000Y0080112D01*
X0185000Y0079314D02*
X0199900Y0079314D01*
X0199900Y0078515D02*
X0185000Y0078515D01*
X0185000Y0077717D02*
X0199900Y0077717D01*
X0199900Y0076918D02*
X0185000Y0076918D01*
X0185000Y0076120D02*
X0199900Y0076120D01*
X0199900Y0075321D02*
X0185000Y0075321D01*
X0184461Y0074523D02*
X0199900Y0074523D01*
X0199900Y0073724D02*
X0183663Y0073724D01*
X0182864Y0072926D02*
X0199900Y0072926D01*
X0199900Y0072127D02*
X0182612Y0072127D01*
X0182612Y0071329D02*
X0184209Y0071329D01*
X0184152Y0071296D02*
X0183892Y0071035D01*
X0183707Y0070716D01*
X0183612Y0070360D01*
X0183612Y0066426D01*
X0186062Y0066426D01*
X0186062Y0071576D01*
X0184827Y0071576D01*
X0184471Y0071480D01*
X0184152Y0071296D01*
X0183657Y0070530D02*
X0183612Y0070530D01*
X0183612Y0069732D02*
X0183612Y0069732D01*
X0183612Y0068933D02*
X0183612Y0068933D01*
X0183612Y0068134D02*
X0183612Y0068134D01*
X0183612Y0067336D02*
X0183612Y0067336D01*
X0183612Y0066537D02*
X0183612Y0066537D01*
X0183612Y0065926D02*
X0183612Y0061991D01*
X0183707Y0061635D01*
X0183892Y0061316D01*
X0184152Y0061055D01*
X0184471Y0060871D01*
X0184827Y0060776D01*
X0186062Y0060776D01*
X0186062Y0065926D01*
X0183612Y0065926D01*
X0183612Y0065739D02*
X0183612Y0065739D01*
X0183612Y0064940D02*
X0183612Y0064940D01*
X0183612Y0064142D02*
X0183612Y0064142D01*
X0183612Y0063343D02*
X0183612Y0063343D01*
X0183612Y0062545D02*
X0183612Y0062545D01*
X0183597Y0061746D02*
X0183677Y0061746D01*
X0184338Y0060948D02*
X0178291Y0060948D01*
X0178044Y0061194D02*
X0178612Y0061761D01*
X0178612Y0070590D01*
X0178026Y0071176D01*
X0174598Y0071176D01*
X0174012Y0070590D01*
X0174012Y0061761D01*
X0174598Y0061176D01*
X0175012Y0061176D01*
X0175012Y0060550D01*
X0175773Y0059788D01*
X0175773Y0059788D01*
X0176593Y0058968D01*
X0174281Y0058968D01*
X0174029Y0058716D01*
X0172612Y0060133D01*
X0172612Y0061176D01*
X0173026Y0061176D01*
X0173612Y0061761D01*
X0173612Y0070590D01*
X0173026Y0071176D01*
X0169598Y0071176D01*
X0169012Y0070590D01*
X0169012Y0061761D01*
X0169598Y0061176D01*
X0170012Y0061176D01*
X0170012Y0059056D01*
X0172190Y0056878D01*
X0171938Y0056625D01*
X0171938Y0053312D01*
X0174281Y0050969D01*
X0177595Y0050969D01*
X0179938Y0053312D01*
X0179938Y0056625D01*
X0178763Y0057800D01*
X0181268Y0057800D01*
X0182190Y0056878D01*
X0181938Y0056625D01*
X0181938Y0053312D01*
X0184281Y0050969D01*
X0187595Y0050969D01*
X0189938Y0053312D01*
X0189938Y0056625D01*
X0187595Y0058968D01*
X0184281Y0058968D01*
X0184029Y0058716D01*
X0182345Y0060400D01*
X0178838Y0060400D01*
X0178044Y0061194D01*
X0178597Y0061746D02*
X0179027Y0061746D01*
X0179012Y0062545D02*
X0178612Y0062545D01*
X0178612Y0063343D02*
X0179012Y0063343D01*
X0179012Y0064142D02*
X0178612Y0064142D01*
X0178612Y0064940D02*
X0179012Y0064940D01*
X0179012Y0065739D02*
X0178612Y0065739D01*
X0178612Y0066537D02*
X0179012Y0066537D01*
X0179012Y0067336D02*
X0178612Y0067336D01*
X0178612Y0068134D02*
X0179012Y0068134D01*
X0179012Y0068933D02*
X0178612Y0068933D01*
X0178612Y0069732D02*
X0179012Y0069732D01*
X0179012Y0070530D02*
X0178612Y0070530D01*
X0180012Y0071329D02*
X0167611Y0071329D01*
X0167600Y0071318D02*
X0168550Y0072268D01*
X0168550Y0074132D01*
X0167232Y0075450D01*
X0165368Y0075450D01*
X0164050Y0074132D01*
X0164050Y0072268D01*
X0165000Y0071318D01*
X0165000Y0071176D01*
X0164598Y0071176D01*
X0164012Y0070590D01*
X0164012Y0061761D01*
X0164598Y0061176D01*
X0168026Y0061176D01*
X0168612Y0061761D01*
X0168612Y0070590D01*
X0168026Y0071176D01*
X0167600Y0071176D01*
X0167600Y0071318D01*
X0168409Y0072127D02*
X0180012Y0072127D01*
X0180012Y0072926D02*
X0168550Y0072926D01*
X0168550Y0073724D02*
X0180012Y0073724D01*
X0180784Y0074523D02*
X0168159Y0074523D01*
X0167361Y0075321D02*
X0181583Y0075321D01*
X0182381Y0076120D02*
X0145280Y0076120D01*
X0145280Y0075363D02*
X0145280Y0077116D01*
X0145184Y0077472D01*
X0145000Y0077791D01*
X0144739Y0078052D01*
X0144420Y0078236D01*
X0144064Y0078331D01*
X0142311Y0078331D01*
X0142311Y0075363D01*
X0141511Y0075363D01*
X0141511Y0078331D01*
X0139758Y0078331D01*
X0139402Y0078236D01*
X0139083Y0078052D01*
X0138822Y0077791D01*
X0138638Y0077472D01*
X0138580Y0077257D01*
X0138580Y0077346D01*
X0137995Y0077931D01*
X0133229Y0077931D01*
X0132643Y0077346D01*
X0132643Y0072580D01*
X0133229Y0071994D01*
X0137995Y0071994D01*
X0138580Y0072580D01*
X0138580Y0072669D01*
X0138638Y0072454D01*
X0138822Y0072135D01*
X0139083Y0071874D01*
X0139402Y0071690D01*
X0139758Y0071594D01*
X0141511Y0071594D01*
X0141511Y0074563D01*
X0142311Y0074563D01*
X0142311Y0075363D01*
X0145280Y0075363D01*
X0145280Y0074563D02*
X0142311Y0074563D01*
X0142311Y0071594D01*
X0144064Y0071594D01*
X0144420Y0071690D01*
X0144739Y0071874D01*
X0145000Y0072135D01*
X0145184Y0072454D01*
X0145280Y0072810D01*
X0145280Y0074563D01*
X0145280Y0074523D02*
X0149741Y0074523D01*
X0149050Y0073724D02*
X0145280Y0073724D01*
X0145280Y0072926D02*
X0149050Y0072926D01*
X0149050Y0072127D02*
X0144992Y0072127D01*
X0142311Y0072127D02*
X0141511Y0072127D01*
X0141511Y0072926D02*
X0142311Y0072926D01*
X0142311Y0073724D02*
X0141511Y0073724D01*
X0141511Y0074523D02*
X0142311Y0074523D01*
X0142311Y0075321D02*
X0155039Y0075321D01*
X0155168Y0075450D02*
X0153850Y0074132D01*
X0153850Y0072268D01*
X0154800Y0071318D01*
X0154800Y0071176D01*
X0154598Y0071176D01*
X0154012Y0070590D01*
X0154012Y0061761D01*
X0154598Y0061176D01*
X0158026Y0061176D01*
X0158612Y0061761D01*
X0158612Y0070590D01*
X0158026Y0071176D01*
X0157400Y0071176D01*
X0157400Y0071318D01*
X0158350Y0072268D01*
X0158350Y0074132D01*
X0157032Y0075450D01*
X0155168Y0075450D01*
X0154241Y0074523D02*
X0152859Y0074523D01*
X0153550Y0073724D02*
X0153850Y0073724D01*
X0153850Y0072926D02*
X0153550Y0072926D01*
X0153550Y0072127D02*
X0153991Y0072127D01*
X0154789Y0071329D02*
X0152911Y0071329D01*
X0153612Y0070530D02*
X0154012Y0070530D01*
X0154012Y0069732D02*
X0153612Y0069732D01*
X0153612Y0068933D02*
X0154012Y0068933D01*
X0154012Y0068134D02*
X0153612Y0068134D01*
X0153612Y0067336D02*
X0154012Y0067336D01*
X0154012Y0066537D02*
X0153612Y0066537D01*
X0153612Y0065739D02*
X0154012Y0065739D01*
X0154012Y0064940D02*
X0153612Y0064940D01*
X0153612Y0064142D02*
X0154012Y0064142D01*
X0154012Y0063343D02*
X0153612Y0063343D01*
X0153612Y0062545D02*
X0154012Y0062545D01*
X0154027Y0061746D02*
X0153597Y0061746D01*
X0153991Y0060948D02*
X0170012Y0060948D01*
X0170012Y0060149D02*
X0161689Y0060149D01*
X0162488Y0059351D02*
X0170012Y0059351D01*
X0170515Y0058552D02*
X0168011Y0058552D01*
X0168809Y0057754D02*
X0171314Y0057754D01*
X0172112Y0056955D02*
X0169608Y0056955D01*
X0169938Y0056157D02*
X0171938Y0056157D01*
X0171938Y0055358D02*
X0169938Y0055358D01*
X0169938Y0054560D02*
X0171938Y0054560D01*
X0171938Y0053761D02*
X0169938Y0053761D01*
X0169589Y0052963D02*
X0172287Y0052963D01*
X0173085Y0052164D02*
X0168790Y0052164D01*
X0167992Y0051366D02*
X0173884Y0051366D01*
X0173484Y0048172D02*
X0168391Y0048172D01*
X0169190Y0047373D02*
X0172686Y0047373D01*
X0172667Y0042582D02*
X0169208Y0042582D01*
X0168410Y0041784D02*
X0173466Y0041784D01*
X0174264Y0040985D02*
X0167611Y0040985D01*
X0164264Y0040985D02*
X0157611Y0040985D01*
X0158410Y0041784D02*
X0163466Y0041784D01*
X0162667Y0042582D02*
X0159208Y0042582D01*
X0158539Y0038590D02*
X0163336Y0038590D01*
X0162538Y0037791D02*
X0159338Y0037791D01*
X0160136Y0036993D02*
X0161739Y0036993D01*
X0161538Y0036194D02*
X0160338Y0036194D01*
X0160338Y0035396D02*
X0161538Y0035396D01*
X0161538Y0033799D02*
X0160338Y0033799D01*
X0160192Y0033000D02*
X0161684Y0033000D01*
X0162482Y0032201D02*
X0159393Y0032201D01*
X0158595Y0031403D02*
X0163281Y0031403D01*
X0165538Y0034597D02*
X0156338Y0034597D01*
X0156338Y0035396D02*
X0155538Y0035396D01*
X0155538Y0036194D02*
X0156338Y0036194D01*
X0156338Y0036993D02*
X0155538Y0036993D01*
X0155538Y0037791D02*
X0156338Y0037791D01*
X0156338Y0038590D02*
X0155538Y0038590D01*
X0153336Y0038590D02*
X0148539Y0038590D01*
X0149338Y0037791D02*
X0152538Y0037791D01*
X0151739Y0036993D02*
X0150136Y0036993D01*
X0150338Y0036194D02*
X0151538Y0036194D01*
X0151538Y0035396D02*
X0150338Y0035396D01*
X0150338Y0033799D02*
X0151538Y0033799D01*
X0151684Y0033000D02*
X0150192Y0033000D01*
X0149393Y0032201D02*
X0152482Y0032201D01*
X0153281Y0031403D02*
X0148595Y0031403D01*
X0146338Y0034597D02*
X0155538Y0034597D01*
X0154264Y0040985D02*
X0147611Y0040985D01*
X0148410Y0041784D02*
X0153466Y0041784D01*
X0152667Y0042582D02*
X0149208Y0042582D01*
X0144264Y0040985D02*
X0137611Y0040985D01*
X0138410Y0041784D02*
X0143466Y0041784D01*
X0142667Y0042582D02*
X0139208Y0042582D01*
X0134264Y0040985D02*
X0123300Y0040985D01*
X0123300Y0040187D02*
X0191778Y0040187D01*
X0192109Y0040985D02*
X0187611Y0040985D01*
X0188410Y0041784D02*
X0192854Y0041784D01*
X0193653Y0042582D02*
X0189208Y0042582D01*
X0192326Y0043381D02*
X0194805Y0043381D01*
X0193923Y0044978D02*
X0204013Y0044978D01*
X0204013Y0045776D02*
X0194722Y0045776D01*
X0195520Y0046575D02*
X0204013Y0046575D01*
X0204013Y0047373D02*
X0196319Y0047373D01*
X0197117Y0048172D02*
X0204013Y0048172D01*
X0204013Y0048970D02*
X0197916Y0048970D01*
X0198714Y0049769D02*
X0204013Y0049769D01*
X0204013Y0050567D02*
X0199513Y0050567D01*
X0200311Y0051366D02*
X0204013Y0051366D01*
X0204013Y0052164D02*
X0201110Y0052164D01*
X0201908Y0052963D02*
X0204013Y0052963D01*
X0204013Y0053761D02*
X0202707Y0053761D01*
X0203500Y0054560D02*
X0204013Y0054560D01*
X0204013Y0055358D02*
X0203500Y0055358D01*
X0203500Y0056157D02*
X0204013Y0056157D01*
X0204013Y0056955D02*
X0203500Y0056955D01*
X0203500Y0057754D02*
X0204013Y0057754D01*
X0204013Y0058552D02*
X0203500Y0058552D01*
X0203500Y0059351D02*
X0204013Y0059351D01*
X0204013Y0060149D02*
X0203500Y0060149D01*
X0203500Y0060948D02*
X0204013Y0060948D01*
X0204013Y0061746D02*
X0203500Y0061746D01*
X0203500Y0062545D02*
X0204013Y0062545D01*
X0204013Y0063343D02*
X0203500Y0063343D01*
X0203500Y0064142D02*
X0204013Y0064142D01*
X0204013Y0064940D02*
X0203500Y0064940D01*
X0203500Y0065739D02*
X0204013Y0065739D01*
X0204013Y0066537D02*
X0203500Y0066537D01*
X0203500Y0067336D02*
X0204013Y0067336D01*
X0204013Y0068134D02*
X0203500Y0068134D01*
X0203500Y0068933D02*
X0204013Y0068933D01*
X0204013Y0069732D02*
X0203500Y0069732D01*
X0203500Y0070530D02*
X0204013Y0070530D01*
X0204013Y0071329D02*
X0203500Y0071329D01*
X0203500Y0072127D02*
X0204013Y0072127D01*
X0204013Y0072926D02*
X0203500Y0072926D01*
X0203500Y0073724D02*
X0204013Y0073724D01*
X0204013Y0074523D02*
X0203500Y0074523D01*
X0203500Y0075321D02*
X0204013Y0075321D01*
X0204013Y0076120D02*
X0203500Y0076120D01*
X0203500Y0076918D02*
X0204013Y0076918D01*
X0204013Y0077717D02*
X0203500Y0077717D01*
X0203500Y0078515D02*
X0204013Y0078515D01*
X0204013Y0079314D02*
X0203500Y0079314D01*
X0203500Y0080112D02*
X0204013Y0080112D01*
X0204013Y0080911D02*
X0203500Y0080911D01*
X0203500Y0081709D02*
X0204013Y0081709D01*
X0204013Y0082508D02*
X0203500Y0082508D01*
X0203500Y0083306D02*
X0204013Y0083306D01*
X0204013Y0084105D02*
X0203500Y0084105D01*
X0203500Y0084903D02*
X0204013Y0084903D01*
X0204013Y0085702D02*
X0203500Y0085702D01*
X0203500Y0086500D02*
X0204013Y0086500D01*
X0204013Y0087299D02*
X0203500Y0087299D01*
X0203500Y0088097D02*
X0204013Y0088097D01*
X0204013Y0088896D02*
X0203500Y0088896D01*
X0203500Y0089694D02*
X0204013Y0089694D01*
X0204013Y0090493D02*
X0203500Y0090493D01*
X0203500Y0091291D02*
X0204013Y0091291D01*
X0204013Y0092090D02*
X0203500Y0092090D01*
X0203500Y0092888D02*
X0204013Y0092888D01*
X0204013Y0093687D02*
X0203500Y0093687D01*
X0203500Y0094485D02*
X0204013Y0094485D01*
X0204013Y0095284D02*
X0203500Y0095284D01*
X0203500Y0096082D02*
X0204013Y0096082D01*
X0204013Y0096881D02*
X0203500Y0096881D01*
X0203500Y0097679D02*
X0204013Y0097679D01*
X0204013Y0098478D02*
X0203500Y0098478D01*
X0203500Y0099276D02*
X0204013Y0099276D01*
X0204013Y0100075D02*
X0203500Y0100075D01*
X0203500Y0100873D02*
X0204013Y0100873D01*
X0204013Y0101672D02*
X0203500Y0101672D01*
X0203500Y0102470D02*
X0204013Y0102470D01*
X0204013Y0103269D02*
X0203500Y0103269D01*
X0203500Y0104068D02*
X0204013Y0104068D01*
X0204013Y0104866D02*
X0203500Y0104866D01*
X0203500Y0105665D02*
X0204013Y0105665D01*
X0204013Y0106463D02*
X0203500Y0106463D01*
X0203484Y0107262D02*
X0204013Y0107262D01*
X0204013Y0108060D02*
X0202686Y0108060D01*
X0201887Y0108859D02*
X0204013Y0108859D01*
X0204013Y0109657D02*
X0201088Y0109657D01*
X0199908Y0110456D02*
X0204013Y0110456D01*
X0204013Y0111254D02*
X0199846Y0111254D01*
X0201102Y0112851D02*
X0204013Y0112851D01*
X0204013Y0112053D02*
X0189938Y0112053D01*
X0189938Y0112851D02*
X0195577Y0112851D01*
X0193972Y0113650D02*
X0189528Y0113650D01*
X0188729Y0114448D02*
X0193174Y0114448D01*
X0192375Y0115247D02*
X0187931Y0115247D01*
X0183945Y0115247D02*
X0177931Y0115247D01*
X0178729Y0114448D02*
X0183146Y0114448D01*
X0182348Y0113650D02*
X0179528Y0113650D01*
X0176338Y0117642D02*
X0175538Y0117642D01*
X0175538Y0118441D02*
X0176338Y0118441D01*
X0176338Y0119239D02*
X0175538Y0119239D01*
X0175538Y0120038D02*
X0176338Y0120038D01*
X0179669Y0109657D02*
X0182207Y0109657D01*
X0183005Y0108859D02*
X0178871Y0108859D01*
X0178072Y0108060D02*
X0183804Y0108060D01*
X0183564Y0104866D02*
X0178311Y0104866D01*
X0179110Y0104068D02*
X0182766Y0104068D01*
X0181967Y0103269D02*
X0179908Y0103269D01*
X0179938Y0102470D02*
X0181938Y0102470D01*
X0181938Y0101672D02*
X0179938Y0101672D01*
X0179938Y0100873D02*
X0181938Y0100873D01*
X0181938Y0100075D02*
X0179938Y0100075D01*
X0179288Y0099276D02*
X0182587Y0099276D01*
X0183386Y0098478D02*
X0178490Y0098478D01*
X0177691Y0097679D02*
X0183841Y0097679D01*
X0183042Y0096881D02*
X0171758Y0096881D01*
X0172556Y0096082D02*
X0182400Y0096082D01*
X0179506Y0095284D02*
X0178118Y0095284D01*
X0178612Y0094485D02*
X0179012Y0094485D01*
X0179012Y0093687D02*
X0178612Y0093687D01*
X0178612Y0092888D02*
X0179012Y0092888D01*
X0179012Y0092090D02*
X0178612Y0092090D01*
X0178612Y0091291D02*
X0179012Y0091291D01*
X0179012Y0090493D02*
X0178612Y0090493D01*
X0178612Y0089694D02*
X0179012Y0089694D01*
X0179012Y0088896D02*
X0178612Y0088896D01*
X0178612Y0088097D02*
X0179012Y0088097D01*
X0179012Y0087299D02*
X0178612Y0087299D01*
X0178612Y0086500D02*
X0179012Y0086500D01*
X0179271Y0085702D02*
X0178352Y0085702D01*
X0178565Y0084903D02*
X0165850Y0084903D01*
X0166562Y0084976D02*
X0167796Y0084976D01*
X0168152Y0085071D01*
X0168471Y0085255D01*
X0168732Y0085516D01*
X0168916Y0085835D01*
X0169012Y0086191D01*
X0169012Y0090126D01*
X0166562Y0090126D01*
X0166562Y0084976D01*
X0166562Y0085702D02*
X0166062Y0085702D01*
X0166062Y0086500D02*
X0166562Y0086500D01*
X0166562Y0087299D02*
X0166062Y0087299D01*
X0166062Y0088097D02*
X0166562Y0088097D01*
X0166562Y0088896D02*
X0166062Y0088896D01*
X0166062Y0089694D02*
X0166562Y0089694D01*
X0166562Y0090493D02*
X0169012Y0090493D01*
X0169012Y0091291D02*
X0169012Y0091291D01*
X0169012Y0092090D02*
X0169012Y0092090D01*
X0169012Y0092888D02*
X0169012Y0092888D01*
X0169012Y0093687D02*
X0169012Y0093687D01*
X0169012Y0094485D02*
X0169012Y0094485D01*
X0167691Y0097679D02*
X0174184Y0097679D01*
X0173386Y0098478D02*
X0168490Y0098478D01*
X0169288Y0099276D02*
X0172587Y0099276D01*
X0171938Y0100075D02*
X0169938Y0100075D01*
X0169938Y0100873D02*
X0171938Y0100873D01*
X0171938Y0101672D02*
X0169938Y0101672D01*
X0169938Y0102470D02*
X0171938Y0102470D01*
X0171967Y0103269D02*
X0169908Y0103269D01*
X0169110Y0104068D02*
X0171614Y0104068D01*
X0170816Y0104866D02*
X0168311Y0104866D01*
X0173118Y0095284D02*
X0174506Y0095284D01*
X0174012Y0094485D02*
X0173612Y0094485D01*
X0173612Y0093687D02*
X0174012Y0093687D01*
X0174012Y0092888D02*
X0173612Y0092888D01*
X0173612Y0092090D02*
X0174012Y0092090D01*
X0174012Y0088896D02*
X0173612Y0088896D01*
X0173612Y0088097D02*
X0174012Y0088097D01*
X0174012Y0087299D02*
X0173612Y0087299D01*
X0173612Y0086500D02*
X0174012Y0086500D01*
X0174271Y0085702D02*
X0173352Y0085702D01*
X0169271Y0085702D02*
X0168839Y0085702D01*
X0169012Y0086500D02*
X0169012Y0086500D01*
X0169012Y0087299D02*
X0169012Y0087299D01*
X0169012Y0088097D02*
X0169012Y0088097D01*
X0169012Y0088896D02*
X0169012Y0088896D01*
X0169012Y0089694D02*
X0169012Y0089694D01*
X0166062Y0090493D02*
X0163612Y0090493D01*
X0163612Y0091291D02*
X0163612Y0091291D01*
X0163612Y0092090D02*
X0163612Y0092090D01*
X0163612Y0092888D02*
X0163612Y0092888D01*
X0163612Y0093687D02*
X0163612Y0093687D01*
X0163612Y0094485D02*
X0163612Y0094485D01*
X0163612Y0089694D02*
X0163612Y0089694D01*
X0163612Y0088896D02*
X0163612Y0088896D01*
X0163612Y0088097D02*
X0163612Y0088097D01*
X0163612Y0087299D02*
X0163612Y0087299D01*
X0165850Y0084105D02*
X0177766Y0084105D01*
X0179846Y0082508D02*
X0182400Y0082508D01*
X0182400Y0083306D02*
X0180645Y0083306D01*
X0181443Y0084105D02*
X0182400Y0084105D01*
X0182400Y0084903D02*
X0182242Y0084903D01*
X0182400Y0081709D02*
X0179048Y0081709D01*
X0178249Y0080911D02*
X0182400Y0080911D01*
X0182400Y0080112D02*
X0131452Y0080112D01*
X0131452Y0079314D02*
X0182400Y0079314D01*
X0182400Y0078515D02*
X0131452Y0078515D01*
X0131452Y0077717D02*
X0133014Y0077717D01*
X0132643Y0076918D02*
X0129061Y0076918D01*
X0128680Y0076918D02*
X0126052Y0076918D01*
X0126052Y0076120D02*
X0126290Y0076120D01*
X0126290Y0075321D02*
X0126052Y0075321D01*
X0126052Y0074523D02*
X0126290Y0074523D01*
X0126290Y0073724D02*
X0126052Y0073724D01*
X0125628Y0072926D02*
X0126557Y0072926D01*
X0125171Y0072127D02*
X0133097Y0072127D01*
X0132643Y0072926D02*
X0131185Y0072926D01*
X0131452Y0073724D02*
X0132643Y0073724D01*
X0132643Y0074523D02*
X0131452Y0074523D01*
X0131452Y0075321D02*
X0132643Y0075321D01*
X0132643Y0076120D02*
X0131452Y0076120D01*
X0129061Y0076120D02*
X0128680Y0076120D01*
X0128680Y0075321D02*
X0129061Y0075321D01*
X0129061Y0074523D02*
X0128680Y0074523D01*
X0128680Y0073724D02*
X0129061Y0073724D01*
X0129061Y0072926D02*
X0128680Y0072926D01*
X0125171Y0071329D02*
X0149689Y0071329D01*
X0149012Y0070530D02*
X0125171Y0070530D01*
X0125171Y0069732D02*
X0149012Y0069732D01*
X0149012Y0068933D02*
X0125305Y0068933D01*
X0126104Y0068134D02*
X0149012Y0068134D01*
X0149012Y0067336D02*
X0126902Y0067336D01*
X0121462Y0067300D02*
X0106238Y0067300D01*
X0103911Y0069627D01*
X0103911Y0072764D01*
X0104206Y0072764D01*
X0104792Y0073350D01*
X0104792Y0080477D01*
X0104369Y0080900D01*
X0105297Y0080900D01*
X0105125Y0080603D01*
X0105030Y0080247D01*
X0105030Y0077104D01*
X0107420Y0077104D01*
X0107420Y0076723D01*
X0105030Y0076723D01*
X0105030Y0073579D01*
X0105125Y0073223D01*
X0105310Y0072904D01*
X0105570Y0072644D01*
X0105890Y0072459D01*
X0106246Y0072364D01*
X0107420Y0072364D01*
X0107420Y0076723D01*
X0107802Y0076723D01*
X0107802Y0077104D01*
X0110192Y0077104D01*
X0110192Y0080247D01*
X0110097Y0080603D01*
X0109925Y0080900D01*
X0111556Y0080900D01*
X0111385Y0080603D01*
X0111290Y0080247D01*
X0111290Y0077104D01*
X0113680Y0077104D01*
X0113680Y0076723D01*
X0111290Y0076723D01*
X0111290Y0073579D01*
X0111385Y0073223D01*
X0111569Y0072904D01*
X0111830Y0072644D01*
X0112149Y0072459D01*
X0112505Y0072364D01*
X0113680Y0072364D01*
X0113680Y0076723D01*
X0114061Y0076723D01*
X0114061Y0072364D01*
X0115236Y0072364D01*
X0115592Y0072459D01*
X0115912Y0072644D01*
X0116172Y0072904D01*
X0116357Y0073223D01*
X0116452Y0073579D01*
X0116452Y0076723D01*
X0114061Y0076723D01*
X0114061Y0077104D01*
X0116452Y0077104D01*
X0116452Y0080247D01*
X0116357Y0080603D01*
X0116185Y0080900D01*
X0117113Y0080900D01*
X0116690Y0080477D01*
X0116690Y0073350D01*
X0117276Y0072764D01*
X0117571Y0072764D01*
X0117571Y0071191D01*
X0121462Y0067300D01*
X0121426Y0067336D02*
X0106202Y0067336D01*
X0105404Y0068134D02*
X0120627Y0068134D01*
X0119829Y0068933D02*
X0104605Y0068933D01*
X0103911Y0069732D02*
X0119030Y0069732D01*
X0118231Y0070530D02*
X0103911Y0070530D01*
X0103911Y0071329D02*
X0117571Y0071329D01*
X0117571Y0072127D02*
X0103911Y0072127D01*
X0104368Y0072926D02*
X0105297Y0072926D01*
X0105030Y0073724D02*
X0104792Y0073724D01*
X0104792Y0074523D02*
X0105030Y0074523D01*
X0105030Y0075321D02*
X0104792Y0075321D01*
X0104792Y0076120D02*
X0105030Y0076120D01*
X0104792Y0076918D02*
X0107420Y0076918D01*
X0107802Y0076918D02*
X0113680Y0076918D01*
X0114061Y0076918D02*
X0116690Y0076918D01*
X0116690Y0076120D02*
X0116452Y0076120D01*
X0116452Y0075321D02*
X0116690Y0075321D01*
X0116690Y0074523D02*
X0116452Y0074523D01*
X0116452Y0073724D02*
X0116690Y0073724D01*
X0117114Y0072926D02*
X0116185Y0072926D01*
X0114061Y0072926D02*
X0113680Y0072926D01*
X0113680Y0073724D02*
X0114061Y0073724D01*
X0114061Y0074523D02*
X0113680Y0074523D01*
X0113680Y0075321D02*
X0114061Y0075321D01*
X0114061Y0076120D02*
X0113680Y0076120D01*
X0116452Y0077717D02*
X0116690Y0077717D01*
X0116690Y0078515D02*
X0116452Y0078515D01*
X0116452Y0079314D02*
X0116690Y0079314D01*
X0116690Y0080112D02*
X0116452Y0080112D01*
X0111290Y0080112D02*
X0110192Y0080112D01*
X0110192Y0079314D02*
X0111290Y0079314D01*
X0111290Y0078515D02*
X0110192Y0078515D01*
X0110192Y0077717D02*
X0111290Y0077717D01*
X0110192Y0076723D02*
X0107802Y0076723D01*
X0107802Y0072364D01*
X0108976Y0072364D01*
X0109333Y0072459D01*
X0109652Y0072644D01*
X0109912Y0072904D01*
X0110097Y0073223D01*
X0110192Y0073579D01*
X0110192Y0076723D01*
X0110192Y0076120D02*
X0111290Y0076120D01*
X0111290Y0075321D02*
X0110192Y0075321D01*
X0110192Y0074523D02*
X0111290Y0074523D01*
X0111290Y0073724D02*
X0110192Y0073724D01*
X0109925Y0072926D02*
X0111557Y0072926D01*
X0107802Y0072926D02*
X0107420Y0072926D01*
X0107420Y0073724D02*
X0107802Y0073724D01*
X0107802Y0074523D02*
X0107420Y0074523D01*
X0107420Y0075321D02*
X0107802Y0075321D01*
X0107802Y0076120D02*
X0107420Y0076120D01*
X0105030Y0077717D02*
X0104792Y0077717D01*
X0104792Y0078515D02*
X0105030Y0078515D01*
X0105030Y0079314D02*
X0104792Y0079314D01*
X0104792Y0080112D02*
X0105030Y0080112D01*
X0095853Y0080900D02*
X0095430Y0080477D01*
X0095430Y0073350D01*
X0096016Y0072764D01*
X0096311Y0072764D01*
X0096311Y0071750D01*
X0100662Y0067400D01*
X0097828Y0067400D01*
X0089482Y0067400D01*
X0089482Y0074906D01*
X0088896Y0075492D01*
X0078171Y0075492D01*
X0078163Y0075500D01*
X0082538Y0075500D01*
X0087938Y0080900D01*
X0090297Y0080900D01*
X0090125Y0080603D01*
X0090030Y0080247D01*
X0090030Y0077104D01*
X0092420Y0077104D01*
X0092420Y0076723D01*
X0090030Y0076723D01*
X0090030Y0073579D01*
X0090125Y0073223D01*
X0090310Y0072904D01*
X0090570Y0072644D01*
X0090890Y0072459D01*
X0091246Y0072364D01*
X0092420Y0072364D01*
X0092420Y0076723D01*
X0092802Y0076723D01*
X0092802Y0077104D01*
X0095192Y0077104D01*
X0095192Y0080247D01*
X0095097Y0080603D01*
X0094925Y0080900D01*
X0095853Y0080900D01*
X0095430Y0080112D02*
X0095192Y0080112D01*
X0095192Y0079314D02*
X0095430Y0079314D01*
X0095430Y0078515D02*
X0095192Y0078515D01*
X0095192Y0077717D02*
X0095430Y0077717D01*
X0095430Y0076918D02*
X0092802Y0076918D01*
X0092802Y0076723D02*
X0095192Y0076723D01*
X0095192Y0073579D01*
X0095097Y0073223D01*
X0094912Y0072904D01*
X0094652Y0072644D01*
X0094333Y0072459D01*
X0093976Y0072364D01*
X0092802Y0072364D01*
X0092802Y0076723D01*
X0092420Y0076918D02*
X0083957Y0076918D01*
X0084755Y0077717D02*
X0090030Y0077717D01*
X0090030Y0078515D02*
X0085554Y0078515D01*
X0086352Y0079314D02*
X0090030Y0079314D01*
X0090030Y0080112D02*
X0087151Y0080112D01*
X0090030Y0076120D02*
X0083158Y0076120D01*
X0089067Y0075321D02*
X0090030Y0075321D01*
X0090030Y0074523D02*
X0089482Y0074523D01*
X0089482Y0073724D02*
X0090030Y0073724D01*
X0090297Y0072926D02*
X0089482Y0072926D01*
X0089482Y0072127D02*
X0096311Y0072127D01*
X0096733Y0071329D02*
X0089482Y0071329D01*
X0089482Y0070530D02*
X0097531Y0070530D01*
X0098330Y0069732D02*
X0089482Y0069732D01*
X0089482Y0068933D02*
X0099129Y0068933D01*
X0099927Y0068134D02*
X0089482Y0068134D01*
X0088058Y0063400D02*
X0095572Y0063400D01*
X0095572Y0059761D01*
X0095391Y0059580D01*
X0095391Y0052452D01*
X0095976Y0051866D01*
X0099167Y0051866D01*
X0099753Y0052452D01*
X0099753Y0054016D01*
X0100391Y0054016D01*
X0100391Y0052452D01*
X0100976Y0051866D01*
X0104167Y0051866D01*
X0104753Y0052452D01*
X0104753Y0059580D01*
X0104167Y0060165D01*
X0100976Y0060165D01*
X0100391Y0059580D01*
X0100391Y0058016D01*
X0099753Y0058016D01*
X0099753Y0059580D01*
X0099572Y0059761D01*
X0099572Y0063400D01*
X0100672Y0063400D01*
X0103372Y0060700D01*
X0120472Y0060700D01*
X0121650Y0059521D01*
X0121650Y0058016D01*
X0121013Y0058016D01*
X0121013Y0059580D01*
X0120427Y0060165D01*
X0117236Y0060165D01*
X0116650Y0059580D01*
X0116650Y0052452D01*
X0117236Y0051866D01*
X0120427Y0051866D01*
X0121013Y0052452D01*
X0121013Y0054016D01*
X0121650Y0054016D01*
X0121650Y0052452D01*
X0122236Y0051866D01*
X0125427Y0051866D01*
X0126013Y0052452D01*
X0126013Y0059000D01*
X0126650Y0059000D01*
X0126650Y0052452D01*
X0126831Y0052271D01*
X0126831Y0051860D01*
X0120472Y0045500D01*
X0119300Y0044328D01*
X0119300Y0039227D01*
X0118638Y0038953D01*
X0117316Y0037631D01*
X0116600Y0035903D01*
X0116600Y0034034D01*
X0117316Y0032306D01*
X0118359Y0031263D01*
X0114241Y0031263D01*
X0115284Y0032306D01*
X0116000Y0034034D01*
X0116000Y0035903D01*
X0115284Y0037631D01*
X0113962Y0038953D01*
X0113300Y0039227D01*
X0113300Y0046472D01*
X0115871Y0049042D01*
X0115871Y0052271D01*
X0116052Y0052452D01*
X0116052Y0059580D01*
X0115466Y0060165D01*
X0112276Y0060165D01*
X0111690Y0059580D01*
X0111690Y0052452D01*
X0111871Y0052271D01*
X0111871Y0050699D01*
X0110472Y0049300D01*
X0109300Y0048128D01*
X0109300Y0039227D01*
X0108638Y0038953D01*
X0107316Y0037631D01*
X0106600Y0035903D01*
X0106600Y0034034D01*
X0107316Y0032306D01*
X0108359Y0031263D01*
X0104241Y0031263D01*
X0105284Y0032306D01*
X0106000Y0034034D01*
X0106000Y0035903D01*
X0105284Y0037631D01*
X0103962Y0038953D01*
X0103300Y0039227D01*
X0103300Y0046072D01*
X0103528Y0046300D01*
X0106228Y0046300D01*
X0107400Y0047472D01*
X0109572Y0049643D01*
X0109572Y0052271D01*
X0109753Y0052452D01*
X0109753Y0059580D01*
X0109167Y0060165D01*
X0105976Y0060165D01*
X0105391Y0059580D01*
X0105391Y0052452D01*
X0105572Y0052271D01*
X0105572Y0051300D01*
X0104572Y0050300D01*
X0101872Y0050300D01*
X0100472Y0048900D01*
X0099300Y0047728D01*
X0099300Y0039227D01*
X0098638Y0038953D01*
X0097316Y0037631D01*
X0096600Y0035903D01*
X0096600Y0034034D01*
X0097316Y0032306D01*
X0098359Y0031263D01*
X0094241Y0031263D01*
X0095284Y0032306D01*
X0096000Y0034034D01*
X0096000Y0035903D01*
X0095284Y0037631D01*
X0093962Y0038953D01*
X0093300Y0039227D01*
X0093300Y0047172D01*
X0094611Y0048483D01*
X0094611Y0052271D01*
X0094792Y0052452D01*
X0094792Y0059580D01*
X0094206Y0060165D01*
X0091016Y0060165D01*
X0090430Y0059580D01*
X0090430Y0052452D01*
X0090611Y0052271D01*
X0090611Y0050139D01*
X0090472Y0050000D01*
X0089482Y0049010D01*
X0089482Y0056406D01*
X0088896Y0056992D01*
X0078068Y0056992D01*
X0077482Y0056406D01*
X0077482Y0045577D01*
X0078068Y0044992D01*
X0080482Y0044992D01*
X0080482Y0042625D01*
X0078757Y0040899D01*
X0078300Y0039797D01*
X0078300Y0038615D01*
X0077316Y0037631D01*
X0076600Y0035903D01*
X0076600Y0034034D01*
X0077316Y0032306D01*
X0078359Y0031263D01*
X0074807Y0031263D01*
X0075190Y0031646D01*
X0075662Y0032296D01*
X0076026Y0033011D01*
X0076274Y0033774D01*
X0076400Y0034567D01*
X0076400Y0034569D01*
X0071700Y0034569D01*
X0071700Y0035368D01*
X0076400Y0035368D01*
X0076400Y0035370D01*
X0076274Y0036163D01*
X0076026Y0036926D01*
X0075662Y0037641D01*
X0075190Y0038291D01*
X0074622Y0038859D01*
X0073973Y0039330D01*
X0073258Y0039695D01*
X0072494Y0039943D01*
X0071701Y0040068D01*
X0071700Y0040068D01*
X0071700Y0035369D01*
X0070900Y0035369D01*
X0070900Y0040068D01*
X0070899Y0040068D01*
X0070106Y0039943D01*
X0069342Y0039695D01*
X0068627Y0039330D01*
X0067978Y0038859D01*
X0067410Y0038291D01*
X0066938Y0037641D01*
X0066574Y0036926D01*
X0066326Y0036163D01*
X0066200Y0035370D01*
X0066200Y0035368D01*
X0070900Y0035368D01*
X0070900Y0034569D01*
X0066200Y0034569D01*
X0066200Y0034567D01*
X0066326Y0033774D01*
X0066574Y0033011D01*
X0066938Y0032296D01*
X0067410Y0031646D01*
X0067793Y0031263D01*
X0064241Y0031263D01*
X0065284Y0032306D01*
X0066000Y0034034D01*
X0066000Y0035903D01*
X0065284Y0037631D01*
X0063962Y0038953D01*
X0063100Y0039310D01*
X0063100Y0041246D01*
X0062046Y0042300D01*
X0056646Y0047700D01*
X0052035Y0047700D01*
X0054325Y0049990D01*
X0057050Y0049990D01*
X0057636Y0050576D01*
X0057636Y0050664D01*
X0057694Y0050449D01*
X0057878Y0050130D01*
X0058139Y0049869D01*
X0058458Y0049685D01*
X0058814Y0049590D01*
X0060087Y0049590D01*
X0060087Y0052472D01*
X0060665Y0052472D01*
X0060665Y0049590D01*
X0061939Y0049590D01*
X0062295Y0049685D01*
X0062614Y0049869D01*
X0062875Y0050130D01*
X0063059Y0050449D01*
X0063081Y0050532D01*
X0063081Y0049401D01*
X0066640Y0049401D01*
X0066640Y0048601D01*
X0063081Y0048601D01*
X0063081Y0045864D01*
X0063177Y0045508D01*
X0063361Y0045188D01*
X0063621Y0044928D01*
X0063941Y0044743D01*
X0064297Y0044648D01*
X0066640Y0044648D01*
X0066640Y0048601D01*
X0067440Y0048601D01*
X0067440Y0044648D01*
X0069784Y0044648D01*
X0070140Y0044743D01*
X0070459Y0044928D01*
X0070669Y0045138D01*
X0070760Y0045048D01*
X0076706Y0045048D01*
X0077292Y0045634D01*
X0077292Y0052368D01*
X0076706Y0052954D01*
X0076209Y0052954D01*
X0076209Y0058093D01*
X0076766Y0058650D01*
X0078432Y0058650D01*
X0079750Y0059968D01*
X0079750Y0061832D01*
X0078432Y0063150D01*
X0076568Y0063150D01*
X0075800Y0062382D01*
X0075800Y0062444D01*
X0076209Y0062854D01*
X0076209Y0067724D01*
X0077482Y0067724D01*
X0077482Y0064077D01*
X0078068Y0063492D01*
X0086315Y0063492D01*
X0086370Y0063433D01*
X0086414Y0063431D01*
X0086445Y0063400D01*
X0087235Y0063400D01*
X0088025Y0063370D01*
X0088058Y0063400D01*
X0091000Y0060149D02*
X0079750Y0060149D01*
X0079750Y0060948D02*
X0095572Y0060948D01*
X0095572Y0061746D02*
X0079750Y0061746D01*
X0079037Y0062545D02*
X0095572Y0062545D01*
X0095572Y0063343D02*
X0076209Y0063343D01*
X0076209Y0064142D02*
X0077482Y0064142D01*
X0077482Y0064940D02*
X0076209Y0064940D01*
X0076209Y0065739D02*
X0077482Y0065739D01*
X0077482Y0066537D02*
X0076209Y0066537D01*
X0076209Y0067336D02*
X0077482Y0067336D01*
X0075963Y0062545D02*
X0075900Y0062545D01*
X0076669Y0058552D02*
X0090430Y0058552D01*
X0090430Y0057754D02*
X0076209Y0057754D01*
X0076209Y0056955D02*
X0078031Y0056955D01*
X0077482Y0056157D02*
X0076209Y0056157D01*
X0076209Y0055358D02*
X0077482Y0055358D01*
X0077482Y0054560D02*
X0076209Y0054560D01*
X0076209Y0053761D02*
X0077482Y0053761D01*
X0077482Y0052963D02*
X0076209Y0052963D01*
X0077292Y0052164D02*
X0077482Y0052164D01*
X0077482Y0051366D02*
X0077292Y0051366D01*
X0077292Y0050567D02*
X0077482Y0050567D01*
X0077482Y0049769D02*
X0077292Y0049769D01*
X0077292Y0048970D02*
X0077482Y0048970D01*
X0077482Y0048172D02*
X0077292Y0048172D01*
X0077292Y0047373D02*
X0077482Y0047373D01*
X0077482Y0046575D02*
X0077292Y0046575D01*
X0077292Y0045776D02*
X0077482Y0045776D01*
X0080482Y0044978D02*
X0070509Y0044978D01*
X0067440Y0044978D02*
X0066640Y0044978D01*
X0066640Y0045776D02*
X0067440Y0045776D01*
X0067440Y0046575D02*
X0066640Y0046575D01*
X0066640Y0047373D02*
X0067440Y0047373D01*
X0067440Y0048172D02*
X0066640Y0048172D01*
X0066640Y0048970D02*
X0053306Y0048970D01*
X0054104Y0049769D02*
X0058313Y0049769D01*
X0057662Y0050567D02*
X0057628Y0050567D01*
X0060087Y0050567D02*
X0060665Y0050567D01*
X0060665Y0049769D02*
X0060087Y0049769D01*
X0060087Y0051366D02*
X0060665Y0051366D01*
X0060665Y0052164D02*
X0060087Y0052164D01*
X0060665Y0052472D02*
X0060665Y0053050D01*
X0060087Y0053050D01*
X0060087Y0055933D01*
X0060087Y0057241D01*
X0060665Y0057241D01*
X0060665Y0053050D01*
X0063154Y0053050D01*
X0063154Y0054717D01*
X0063059Y0055073D01*
X0063017Y0055146D01*
X0063059Y0055218D01*
X0063154Y0055574D01*
X0063154Y0057241D01*
X0060665Y0057241D01*
X0060665Y0057819D01*
X0060087Y0057819D01*
X0060087Y0060702D01*
X0059100Y0060702D01*
X0059100Y0060800D01*
X0061237Y0060800D01*
X0061336Y0060702D01*
X0060665Y0060702D01*
X0060665Y0057819D01*
X0063154Y0057819D01*
X0063154Y0058883D01*
X0063637Y0058400D01*
X0064794Y0058400D01*
X0064564Y0058170D01*
X0064564Y0053354D01*
X0064297Y0053354D01*
X0063941Y0053258D01*
X0063621Y0053074D01*
X0063361Y0052813D01*
X0063177Y0052494D01*
X0063154Y0052411D01*
X0063154Y0052472D01*
X0060665Y0052472D01*
X0060665Y0052963D02*
X0063510Y0052963D01*
X0063154Y0053761D02*
X0064564Y0053761D01*
X0064564Y0054560D02*
X0063154Y0054560D01*
X0063097Y0055358D02*
X0064564Y0055358D01*
X0064564Y0056157D02*
X0063154Y0056157D01*
X0063154Y0056955D02*
X0064564Y0056955D01*
X0064564Y0057754D02*
X0060665Y0057754D01*
X0060665Y0058552D02*
X0060087Y0058552D01*
X0060087Y0059351D02*
X0060665Y0059351D01*
X0060665Y0060149D02*
X0060087Y0060149D01*
X0057700Y0060000D02*
X0057700Y0063300D01*
X0056500Y0063300D01*
X0056500Y0064200D01*
X0056500Y0069317D01*
X0055100Y0067123D02*
X0054514Y0067123D01*
X0054393Y0067003D01*
X0054074Y0066818D01*
X0053718Y0066723D01*
X0052051Y0066723D01*
X0052051Y0069212D01*
X0051473Y0069212D01*
X0051473Y0066723D01*
X0049806Y0066723D01*
X0049450Y0066818D01*
X0049143Y0066996D01*
X0049143Y0066290D01*
X0049790Y0066290D01*
X0050610Y0065470D01*
X0051380Y0064700D01*
X0054900Y0064700D01*
X0054900Y0064863D01*
X0055100Y0065063D01*
X0055100Y0067123D01*
X0055100Y0066537D02*
X0049143Y0066537D01*
X0050341Y0065739D02*
X0055100Y0065739D01*
X0054978Y0064940D02*
X0051139Y0064940D01*
X0050800Y0063300D02*
X0049210Y0064890D01*
X0046469Y0064890D01*
X0046469Y0062921D02*
X0049199Y0062921D01*
X0046469Y0062921D01*
X0046469Y0062921D01*
X0049199Y0062921D02*
X0049199Y0062921D01*
X0049543Y0062578D02*
X0050220Y0061900D01*
X0056300Y0061900D01*
X0056300Y0060580D01*
X0056022Y0060302D01*
X0053466Y0060302D01*
X0052880Y0059716D01*
X0052880Y0058548D01*
X0052700Y0058368D01*
X0052700Y0058082D01*
X0051532Y0059250D01*
X0049668Y0059250D01*
X0049143Y0058724D01*
X0049143Y0061351D01*
X0049263Y0061471D01*
X0049447Y0061790D01*
X0049543Y0062146D01*
X0049543Y0062578D01*
X0049543Y0062545D02*
X0049575Y0062545D01*
X0049422Y0061746D02*
X0056300Y0061746D01*
X0056300Y0060948D02*
X0049143Y0060948D01*
X0049143Y0060149D02*
X0053314Y0060149D01*
X0052880Y0059351D02*
X0049143Y0059351D01*
X0052230Y0058552D02*
X0052880Y0058552D01*
X0054100Y0057788D02*
X0054700Y0058388D01*
X0056088Y0058388D01*
X0057700Y0060000D01*
X0060087Y0056955D02*
X0060665Y0056955D01*
X0060665Y0056157D02*
X0060087Y0056157D01*
X0060087Y0055358D02*
X0060665Y0055358D01*
X0060665Y0054560D02*
X0060087Y0054560D01*
X0060087Y0053761D02*
X0060665Y0053761D01*
X0062439Y0049769D02*
X0063081Y0049769D01*
X0063081Y0048172D02*
X0052507Y0048172D01*
X0056972Y0047373D02*
X0063081Y0047373D01*
X0063081Y0046575D02*
X0057771Y0046575D01*
X0058569Y0045776D02*
X0063105Y0045776D01*
X0063572Y0044978D02*
X0059368Y0044978D01*
X0060166Y0044179D02*
X0080482Y0044179D01*
X0080482Y0043381D02*
X0060965Y0043381D01*
X0061763Y0042582D02*
X0080439Y0042582D01*
X0079641Y0041784D02*
X0062562Y0041784D01*
X0063100Y0040985D02*
X0078842Y0040985D01*
X0078461Y0040187D02*
X0063100Y0040187D01*
X0063100Y0039388D02*
X0068740Y0039388D01*
X0067709Y0038590D02*
X0064326Y0038590D01*
X0065124Y0037791D02*
X0067047Y0037791D01*
X0066607Y0036993D02*
X0065549Y0036993D01*
X0065880Y0036194D02*
X0066336Y0036194D01*
X0066204Y0035396D02*
X0066000Y0035396D01*
X0066000Y0034597D02*
X0070900Y0034597D01*
X0070900Y0035396D02*
X0071700Y0035396D01*
X0071700Y0036194D02*
X0070900Y0036194D01*
X0070900Y0036993D02*
X0071700Y0036993D01*
X0071700Y0037791D02*
X0070900Y0037791D01*
X0070900Y0038590D02*
X0071700Y0038590D01*
X0071700Y0039388D02*
X0070900Y0039388D01*
X0073860Y0039388D02*
X0078300Y0039388D01*
X0078274Y0038590D02*
X0074891Y0038590D01*
X0075553Y0037791D02*
X0077476Y0037791D01*
X0077051Y0036993D02*
X0075993Y0036993D01*
X0076264Y0036194D02*
X0076720Y0036194D01*
X0076600Y0035396D02*
X0076396Y0035396D01*
X0076600Y0034597D02*
X0071700Y0034597D01*
X0074947Y0031403D02*
X0078219Y0031403D01*
X0077420Y0032201D02*
X0075594Y0032201D01*
X0076021Y0033000D02*
X0077028Y0033000D01*
X0076697Y0033799D02*
X0076278Y0033799D01*
X0067653Y0031403D02*
X0064381Y0031403D01*
X0065180Y0032201D02*
X0067006Y0032201D01*
X0066579Y0033000D02*
X0065572Y0033000D01*
X0065903Y0033799D02*
X0066322Y0033799D01*
X0049500Y0039388D02*
X0042912Y0039388D01*
X0044326Y0038590D02*
X0048274Y0038590D01*
X0047476Y0037791D02*
X0045124Y0037791D01*
X0045549Y0036993D02*
X0047051Y0036993D01*
X0046720Y0036194D02*
X0045880Y0036194D01*
X0046000Y0035396D02*
X0046600Y0035396D01*
X0046600Y0034597D02*
X0046000Y0034597D01*
X0045903Y0033799D02*
X0046697Y0033799D01*
X0047028Y0033000D02*
X0045572Y0033000D01*
X0045180Y0032201D02*
X0047420Y0032201D01*
X0048219Y0031403D02*
X0044381Y0031403D01*
X0038219Y0031403D02*
X0034947Y0031403D01*
X0035594Y0032201D02*
X0037420Y0032201D01*
X0037028Y0033000D02*
X0036021Y0033000D01*
X0036278Y0033799D02*
X0036697Y0033799D01*
X0036600Y0034597D02*
X0031700Y0034597D01*
X0031700Y0035396D02*
X0030900Y0035396D01*
X0030900Y0036194D02*
X0031700Y0036194D01*
X0031700Y0036993D02*
X0030900Y0036993D01*
X0030900Y0037791D02*
X0031700Y0037791D01*
X0031700Y0038590D02*
X0030900Y0038590D01*
X0030900Y0039388D02*
X0031700Y0039388D01*
X0033860Y0039388D02*
X0039688Y0039388D01*
X0038274Y0038590D02*
X0034891Y0038590D01*
X0035553Y0037791D02*
X0037476Y0037791D01*
X0037051Y0036993D02*
X0035993Y0036993D01*
X0036264Y0036194D02*
X0036720Y0036194D01*
X0036600Y0035396D02*
X0036396Y0035396D01*
X0030900Y0034597D02*
X0024175Y0034597D01*
X0023844Y0033799D02*
X0026322Y0033799D01*
X0026579Y0033000D02*
X0023514Y0033000D01*
X0022833Y0032201D02*
X0027006Y0032201D01*
X0027653Y0031403D02*
X0022035Y0031403D01*
X0024506Y0035396D02*
X0026204Y0035396D01*
X0026336Y0036194D02*
X0024543Y0036194D01*
X0024543Y0036993D02*
X0026607Y0036993D01*
X0027047Y0037791D02*
X0024543Y0037791D01*
X0024460Y0038590D02*
X0027709Y0038590D01*
X0028740Y0039388D02*
X0024129Y0039388D01*
X0023798Y0040187D02*
X0049500Y0040187D01*
X0048969Y0040985D02*
X0023468Y0040985D01*
X0022722Y0041784D02*
X0036471Y0041784D01*
X0035672Y0042582D02*
X0021923Y0042582D01*
X0021500Y0043381D02*
X0034874Y0043381D01*
X0034075Y0044179D02*
X0021500Y0044179D01*
X0021500Y0044978D02*
X0033277Y0044978D01*
X0031842Y0045776D02*
X0021500Y0045776D01*
X0021500Y0046575D02*
X0031043Y0046575D01*
X0030850Y0047373D02*
X0021500Y0047373D01*
X0021500Y0048172D02*
X0030850Y0048172D01*
X0035000Y0061537D02*
X0035000Y0062337D01*
X0038294Y0062337D01*
X0038294Y0061537D01*
X0035000Y0061537D01*
X0035000Y0061746D02*
X0038294Y0061746D01*
X0030918Y0062921D02*
X0028379Y0062921D01*
X0028245Y0065035D02*
X0026100Y0067180D01*
X0026100Y0070118D01*
X0026168Y0070050D01*
X0028032Y0070050D01*
X0028982Y0071000D01*
X0031962Y0071000D01*
X0032182Y0070780D01*
X0032182Y0068849D01*
X0030918Y0068849D01*
X0029061Y0068849D01*
X0028704Y0068753D01*
X0028385Y0068569D01*
X0028125Y0068308D01*
X0027940Y0067989D01*
X0027845Y0067633D01*
X0027845Y0066858D01*
X0027845Y0066083D01*
X0027940Y0065727D01*
X0028125Y0065408D01*
X0028245Y0065288D01*
X0028245Y0065035D01*
X0027937Y0065739D02*
X0027541Y0065739D01*
X0027845Y0066537D02*
X0026742Y0066537D01*
X0026100Y0067336D02*
X0027845Y0067336D01*
X0027845Y0066858D02*
X0030918Y0066858D01*
X0027845Y0066858D01*
X0028024Y0068134D02*
X0026100Y0068134D01*
X0026100Y0068933D02*
X0032182Y0068933D01*
X0032182Y0069732D02*
X0026100Y0069732D01*
X0028512Y0070530D02*
X0032182Y0070530D01*
X0030918Y0068849D02*
X0030918Y0066858D01*
X0030918Y0066858D01*
X0030918Y0068849D01*
X0030918Y0068134D02*
X0030918Y0068134D01*
X0030918Y0067336D02*
X0030918Y0067336D01*
X0030918Y0066858D02*
X0030918Y0066858D01*
X0037041Y0072386D02*
X0037041Y0072598D01*
X0036800Y0072838D01*
X0036633Y0073005D01*
X0036633Y0074443D01*
X0037211Y0074443D01*
X0037211Y0072386D01*
X0037041Y0072386D01*
X0037211Y0072926D02*
X0036713Y0072926D01*
X0036633Y0073724D02*
X0037211Y0073724D01*
X0037211Y0074443D02*
X0037211Y0075021D01*
X0040094Y0075021D01*
X0041554Y0075021D01*
X0041554Y0074443D01*
X0037211Y0074443D01*
X0037211Y0074523D02*
X0041554Y0074523D01*
X0036633Y0074523D02*
X0033916Y0074523D01*
X0033995Y0074443D02*
X0032310Y0076128D01*
X0033322Y0077140D01*
X0033838Y0076623D01*
X0033750Y0076295D01*
X0033750Y0075021D01*
X0036633Y0075021D01*
X0036633Y0074443D01*
X0033995Y0074443D01*
X0033750Y0075321D02*
X0033117Y0075321D01*
X0033750Y0076120D02*
X0032319Y0076120D01*
X0033100Y0076918D02*
X0033543Y0076918D01*
X0036872Y0079800D02*
X0036922Y0079850D01*
X0041843Y0079850D01*
X0046150Y0079850D01*
X0046800Y0080500D01*
X0046800Y0082300D01*
X0043650Y0079850D02*
X0041843Y0079850D01*
X0048333Y0090100D02*
X0048333Y0095592D01*
X0049133Y0095592D01*
X0049133Y0090100D01*
X0048333Y0090100D01*
X0048333Y0090493D02*
X0049133Y0090493D01*
X0049133Y0091291D02*
X0048333Y0091291D01*
X0048333Y0092090D02*
X0049133Y0092090D01*
X0049133Y0092888D02*
X0048333Y0092888D01*
X0048333Y0093687D02*
X0049133Y0093687D01*
X0049133Y0094485D02*
X0048333Y0094485D01*
X0048333Y0095284D02*
X0049133Y0095284D01*
X0049133Y0095592D02*
X0049133Y0096392D01*
X0056001Y0096392D01*
X0056001Y0096002D01*
X0056011Y0095992D01*
X0056001Y0095982D01*
X0056001Y0095592D01*
X0049133Y0095592D01*
X0049133Y0096082D02*
X0056001Y0096082D01*
X0067967Y0075500D02*
X0068767Y0075500D01*
X0068767Y0072077D01*
X0071501Y0072077D01*
X0071501Y0071277D01*
X0068767Y0071277D01*
X0068767Y0072077D01*
X0067967Y0072077D01*
X0067967Y0075500D01*
X0067967Y0075321D02*
X0068767Y0075321D01*
X0068767Y0074523D02*
X0067967Y0074523D01*
X0067967Y0073724D02*
X0068767Y0073724D01*
X0068767Y0072926D02*
X0067967Y0072926D01*
X0067967Y0072127D02*
X0068767Y0072127D01*
X0068767Y0071329D02*
X0071501Y0071329D01*
X0079133Y0059351D02*
X0090430Y0059351D01*
X0090430Y0056955D02*
X0088932Y0056955D01*
X0089482Y0056157D02*
X0090430Y0056157D01*
X0090430Y0055358D02*
X0089482Y0055358D01*
X0089482Y0054560D02*
X0090430Y0054560D01*
X0090430Y0053761D02*
X0089482Y0053761D01*
X0089482Y0052963D02*
X0090430Y0052963D01*
X0090611Y0052164D02*
X0089482Y0052164D01*
X0089482Y0051366D02*
X0090611Y0051366D01*
X0090611Y0050567D02*
X0089482Y0050567D01*
X0089482Y0049769D02*
X0090240Y0049769D01*
X0093502Y0047373D02*
X0099300Y0047373D01*
X0099300Y0046575D02*
X0093300Y0046575D01*
X0093300Y0045776D02*
X0099300Y0045776D01*
X0099300Y0044978D02*
X0093300Y0044978D01*
X0093300Y0044179D02*
X0099300Y0044179D01*
X0099300Y0043381D02*
X0093300Y0043381D01*
X0093300Y0042582D02*
X0099300Y0042582D01*
X0099300Y0041784D02*
X0093300Y0041784D01*
X0093300Y0040985D02*
X0099300Y0040985D01*
X0099300Y0040187D02*
X0093300Y0040187D01*
X0093300Y0039388D02*
X0099300Y0039388D01*
X0098274Y0038590D02*
X0094326Y0038590D01*
X0095124Y0037791D02*
X0097476Y0037791D01*
X0097051Y0036993D02*
X0095549Y0036993D01*
X0095880Y0036194D02*
X0096720Y0036194D01*
X0096600Y0035396D02*
X0096000Y0035396D01*
X0096000Y0034597D02*
X0096600Y0034597D01*
X0096697Y0033799D02*
X0095903Y0033799D01*
X0095572Y0033000D02*
X0097028Y0033000D01*
X0097420Y0032201D02*
X0095180Y0032201D01*
X0094381Y0031403D02*
X0098219Y0031403D01*
X0104381Y0031403D02*
X0108219Y0031403D01*
X0107420Y0032201D02*
X0105180Y0032201D01*
X0105572Y0033000D02*
X0107028Y0033000D01*
X0106697Y0033799D02*
X0105903Y0033799D01*
X0106000Y0034597D02*
X0106600Y0034597D01*
X0106600Y0035396D02*
X0106000Y0035396D01*
X0105880Y0036194D02*
X0106720Y0036194D01*
X0107051Y0036993D02*
X0105549Y0036993D01*
X0105124Y0037791D02*
X0107476Y0037791D01*
X0108274Y0038590D02*
X0104326Y0038590D01*
X0103300Y0039388D02*
X0109300Y0039388D01*
X0109300Y0040187D02*
X0103300Y0040187D01*
X0103300Y0040985D02*
X0109300Y0040985D01*
X0109300Y0041784D02*
X0103300Y0041784D01*
X0103300Y0042582D02*
X0109300Y0042582D01*
X0109300Y0043381D02*
X0103300Y0043381D01*
X0103300Y0044179D02*
X0109300Y0044179D01*
X0109300Y0044978D02*
X0103300Y0044978D01*
X0103300Y0045776D02*
X0109300Y0045776D01*
X0109300Y0046575D02*
X0106503Y0046575D01*
X0107302Y0047373D02*
X0109300Y0047373D01*
X0109343Y0048172D02*
X0108100Y0048172D01*
X0108899Y0048970D02*
X0110142Y0048970D01*
X0109572Y0049769D02*
X0110940Y0049769D01*
X0111739Y0050567D02*
X0109572Y0050567D01*
X0109572Y0051366D02*
X0111871Y0051366D01*
X0111871Y0052164D02*
X0109572Y0052164D01*
X0109753Y0052963D02*
X0111690Y0052963D01*
X0111690Y0053761D02*
X0109753Y0053761D01*
X0109753Y0054560D02*
X0111690Y0054560D01*
X0111690Y0055358D02*
X0109753Y0055358D01*
X0109753Y0056157D02*
X0111690Y0056157D01*
X0111690Y0056955D02*
X0109753Y0056955D01*
X0109753Y0057754D02*
X0111690Y0057754D01*
X0111690Y0058552D02*
X0109753Y0058552D01*
X0109753Y0059351D02*
X0111690Y0059351D01*
X0112260Y0060149D02*
X0109183Y0060149D01*
X0105960Y0060149D02*
X0104183Y0060149D01*
X0104753Y0059351D02*
X0105391Y0059351D01*
X0105391Y0058552D02*
X0104753Y0058552D01*
X0104753Y0057754D02*
X0105391Y0057754D01*
X0105391Y0056955D02*
X0104753Y0056955D01*
X0104753Y0056157D02*
X0105391Y0056157D01*
X0105391Y0055358D02*
X0104753Y0055358D01*
X0104753Y0054560D02*
X0105391Y0054560D01*
X0105391Y0053761D02*
X0104753Y0053761D01*
X0104753Y0052963D02*
X0105391Y0052963D01*
X0105572Y0052164D02*
X0104465Y0052164D01*
X0105572Y0051366D02*
X0094611Y0051366D01*
X0094611Y0052164D02*
X0095678Y0052164D01*
X0095391Y0052963D02*
X0094792Y0052963D01*
X0094792Y0053761D02*
X0095391Y0053761D01*
X0095391Y0054560D02*
X0094792Y0054560D01*
X0094792Y0055358D02*
X0095391Y0055358D01*
X0095391Y0056157D02*
X0094792Y0056157D01*
X0094792Y0056955D02*
X0095391Y0056955D01*
X0095391Y0057754D02*
X0094792Y0057754D01*
X0094792Y0058552D02*
X0095391Y0058552D01*
X0095391Y0059351D02*
X0094792Y0059351D01*
X0094222Y0060149D02*
X0095572Y0060149D01*
X0099572Y0060149D02*
X0100960Y0060149D01*
X0100391Y0059351D02*
X0099753Y0059351D01*
X0099753Y0058552D02*
X0100391Y0058552D01*
X0099572Y0060948D02*
X0103124Y0060948D01*
X0102325Y0061746D02*
X0099572Y0061746D01*
X0099572Y0062545D02*
X0101527Y0062545D01*
X0100728Y0063343D02*
X0099572Y0063343D01*
X0095854Y0072926D02*
X0094925Y0072926D01*
X0095192Y0073724D02*
X0095430Y0073724D01*
X0095430Y0074523D02*
X0095192Y0074523D01*
X0095192Y0075321D02*
X0095430Y0075321D01*
X0095430Y0076120D02*
X0095192Y0076120D01*
X0092802Y0076120D02*
X0092420Y0076120D01*
X0092420Y0075321D02*
X0092802Y0075321D01*
X0092802Y0074523D02*
X0092420Y0074523D01*
X0092420Y0073724D02*
X0092802Y0073724D01*
X0092802Y0072926D02*
X0092420Y0072926D01*
X0115482Y0060149D02*
X0117220Y0060149D01*
X0116650Y0059351D02*
X0116052Y0059351D01*
X0116052Y0058552D02*
X0116650Y0058552D01*
X0116650Y0057754D02*
X0116052Y0057754D01*
X0116052Y0056955D02*
X0116650Y0056955D01*
X0116650Y0056157D02*
X0116052Y0056157D01*
X0116052Y0055358D02*
X0116650Y0055358D01*
X0116650Y0054560D02*
X0116052Y0054560D01*
X0116052Y0053761D02*
X0116650Y0053761D01*
X0116650Y0052963D02*
X0116052Y0052963D01*
X0115871Y0052164D02*
X0116938Y0052164D01*
X0115871Y0051366D02*
X0126337Y0051366D01*
X0126831Y0052164D02*
X0125725Y0052164D01*
X0126013Y0052963D02*
X0126650Y0052963D01*
X0126650Y0053761D02*
X0126013Y0053761D01*
X0126013Y0054560D02*
X0126650Y0054560D01*
X0126650Y0055358D02*
X0126013Y0055358D01*
X0126013Y0056157D02*
X0126650Y0056157D01*
X0126650Y0056955D02*
X0126013Y0056955D01*
X0126013Y0057754D02*
X0126650Y0057754D01*
X0126650Y0058552D02*
X0126013Y0058552D01*
X0121650Y0058552D02*
X0121013Y0058552D01*
X0121013Y0059351D02*
X0121650Y0059351D01*
X0121022Y0060149D02*
X0120443Y0060149D01*
X0121013Y0053761D02*
X0121650Y0053761D01*
X0121650Y0052963D02*
X0121013Y0052963D01*
X0120725Y0052164D02*
X0121938Y0052164D01*
X0124740Y0049769D02*
X0115871Y0049769D01*
X0115871Y0050567D02*
X0125539Y0050567D01*
X0123942Y0048970D02*
X0115799Y0048970D01*
X0115000Y0048172D02*
X0123143Y0048172D01*
X0122345Y0047373D02*
X0114202Y0047373D01*
X0113403Y0046575D02*
X0121546Y0046575D01*
X0120748Y0045776D02*
X0113300Y0045776D01*
X0113300Y0044978D02*
X0119949Y0044978D01*
X0119300Y0044179D02*
X0113300Y0044179D01*
X0113300Y0043381D02*
X0119300Y0043381D01*
X0119300Y0042582D02*
X0113300Y0042582D01*
X0113300Y0041784D02*
X0119300Y0041784D01*
X0119300Y0040985D02*
X0113300Y0040985D01*
X0113300Y0040187D02*
X0119300Y0040187D01*
X0119300Y0039388D02*
X0113300Y0039388D01*
X0114326Y0038590D02*
X0118274Y0038590D01*
X0117476Y0037791D02*
X0115124Y0037791D01*
X0115549Y0036993D02*
X0117051Y0036993D01*
X0116720Y0036194D02*
X0115880Y0036194D01*
X0116000Y0035396D02*
X0116600Y0035396D01*
X0116600Y0034597D02*
X0116000Y0034597D01*
X0115903Y0033799D02*
X0116697Y0033799D01*
X0117028Y0033000D02*
X0115572Y0033000D01*
X0115180Y0032201D02*
X0117420Y0032201D01*
X0118219Y0031403D02*
X0114381Y0031403D01*
X0124381Y0031403D02*
X0133281Y0031403D01*
X0132482Y0032201D02*
X0125180Y0032201D01*
X0125572Y0033000D02*
X0131684Y0033000D01*
X0131538Y0033799D02*
X0125903Y0033799D01*
X0126000Y0034597D02*
X0135538Y0034597D01*
X0135538Y0035396D02*
X0136338Y0035396D01*
X0136338Y0036194D02*
X0135538Y0036194D01*
X0135538Y0036993D02*
X0136338Y0036993D01*
X0136338Y0037791D02*
X0135538Y0037791D01*
X0135538Y0038590D02*
X0136338Y0038590D01*
X0138539Y0038590D02*
X0143336Y0038590D01*
X0142538Y0037791D02*
X0139338Y0037791D01*
X0140136Y0036993D02*
X0141739Y0036993D01*
X0141538Y0036194D02*
X0140338Y0036194D01*
X0140338Y0035396D02*
X0141538Y0035396D01*
X0141538Y0033799D02*
X0140338Y0033799D01*
X0140192Y0033000D02*
X0141684Y0033000D01*
X0142482Y0032201D02*
X0139393Y0032201D01*
X0138595Y0031403D02*
X0143281Y0031403D01*
X0145538Y0034597D02*
X0136338Y0034597D01*
X0131538Y0035396D02*
X0126000Y0035396D01*
X0125880Y0036194D02*
X0131538Y0036194D01*
X0131739Y0036993D02*
X0125549Y0036993D01*
X0125124Y0037791D02*
X0132538Y0037791D01*
X0133336Y0038590D02*
X0124326Y0038590D01*
X0123300Y0039388D02*
X0191447Y0039388D01*
X0191116Y0038590D02*
X0188539Y0038590D01*
X0189338Y0037791D02*
X0191034Y0037791D01*
X0191034Y0036993D02*
X0190136Y0036993D01*
X0190338Y0036194D02*
X0191034Y0036194D01*
X0191070Y0035396D02*
X0190338Y0035396D01*
X0191401Y0034597D02*
X0186338Y0034597D01*
X0186338Y0035396D02*
X0185538Y0035396D01*
X0185538Y0036194D02*
X0186338Y0036194D01*
X0186338Y0036993D02*
X0185538Y0036993D01*
X0185538Y0037791D02*
X0186338Y0037791D01*
X0186338Y0038590D02*
X0185538Y0038590D01*
X0183336Y0038590D02*
X0178539Y0038590D01*
X0179338Y0037791D02*
X0182538Y0037791D01*
X0181739Y0036993D02*
X0180136Y0036993D01*
X0180338Y0036194D02*
X0181538Y0036194D01*
X0181538Y0035396D02*
X0180338Y0035396D01*
X0180338Y0033799D02*
X0181538Y0033799D01*
X0181684Y0033000D02*
X0180192Y0033000D01*
X0179393Y0032201D02*
X0182482Y0032201D01*
X0183281Y0031403D02*
X0178595Y0031403D01*
X0176338Y0034597D02*
X0185538Y0034597D01*
X0188595Y0031403D02*
X0193542Y0031403D01*
X0192743Y0032201D02*
X0189393Y0032201D01*
X0190192Y0033000D02*
X0192063Y0033000D01*
X0191732Y0033799D02*
X0190338Y0033799D01*
X0184264Y0040985D02*
X0177611Y0040985D01*
X0178410Y0041784D02*
X0183466Y0041784D01*
X0182667Y0042582D02*
X0179208Y0042582D01*
X0179190Y0047373D02*
X0182686Y0047373D01*
X0183484Y0048172D02*
X0178391Y0048172D01*
X0177992Y0051366D02*
X0183884Y0051366D01*
X0183085Y0052164D02*
X0178790Y0052164D01*
X0179589Y0052963D02*
X0182287Y0052963D01*
X0181938Y0053761D02*
X0179938Y0053761D01*
X0179938Y0054560D02*
X0181938Y0054560D01*
X0181938Y0055358D02*
X0179938Y0055358D01*
X0179938Y0056157D02*
X0181938Y0056157D01*
X0182112Y0056955D02*
X0179608Y0056955D01*
X0178809Y0057754D02*
X0181314Y0057754D01*
X0183394Y0059351D02*
X0199900Y0059351D01*
X0199900Y0060149D02*
X0182595Y0060149D01*
X0186062Y0060948D02*
X0186562Y0060948D01*
X0186562Y0060776D02*
X0187796Y0060776D01*
X0188152Y0060871D01*
X0188471Y0061055D01*
X0188732Y0061316D01*
X0188916Y0061635D01*
X0189012Y0061991D01*
X0189012Y0065926D01*
X0186562Y0065926D01*
X0186562Y0066426D01*
X0186062Y0066426D01*
X0186062Y0065926D01*
X0186562Y0065926D01*
X0186562Y0060776D01*
X0186562Y0061746D02*
X0186062Y0061746D01*
X0186062Y0062545D02*
X0186562Y0062545D01*
X0186562Y0063343D02*
X0186062Y0063343D01*
X0186062Y0064142D02*
X0186562Y0064142D01*
X0186562Y0064940D02*
X0186062Y0064940D01*
X0186062Y0065739D02*
X0186562Y0065739D01*
X0186562Y0066426D02*
X0189012Y0066426D01*
X0189012Y0070360D01*
X0188916Y0070716D01*
X0188732Y0071035D01*
X0188471Y0071296D01*
X0188152Y0071480D01*
X0187796Y0071576D01*
X0186562Y0071576D01*
X0186562Y0066426D01*
X0186562Y0066537D02*
X0186062Y0066537D01*
X0186062Y0067336D02*
X0186562Y0067336D01*
X0186562Y0068134D02*
X0186062Y0068134D01*
X0186062Y0068933D02*
X0186562Y0068933D01*
X0186562Y0069732D02*
X0186062Y0069732D01*
X0186062Y0070530D02*
X0186562Y0070530D01*
X0186562Y0071329D02*
X0186062Y0071329D01*
X0188415Y0071329D02*
X0199900Y0071329D01*
X0199900Y0070530D02*
X0188966Y0070530D01*
X0189012Y0069732D02*
X0199900Y0069732D01*
X0199900Y0068933D02*
X0189012Y0068933D01*
X0189012Y0068134D02*
X0199900Y0068134D01*
X0199900Y0067336D02*
X0189012Y0067336D01*
X0189012Y0066537D02*
X0199900Y0066537D01*
X0199900Y0065739D02*
X0189012Y0065739D01*
X0189012Y0064940D02*
X0199900Y0064940D01*
X0199900Y0064142D02*
X0189012Y0064142D01*
X0189012Y0063343D02*
X0199900Y0063343D01*
X0199900Y0062545D02*
X0189012Y0062545D01*
X0188946Y0061746D02*
X0199900Y0061746D01*
X0199900Y0060948D02*
X0188285Y0060948D01*
X0188011Y0058552D02*
X0199900Y0058552D01*
X0199900Y0057754D02*
X0188809Y0057754D01*
X0189608Y0056955D02*
X0199900Y0056955D01*
X0199900Y0056157D02*
X0189938Y0056157D01*
X0189938Y0055358D02*
X0199213Y0055358D01*
X0198414Y0054560D02*
X0189938Y0054560D01*
X0189938Y0053761D02*
X0197616Y0053761D01*
X0196817Y0052963D02*
X0189589Y0052963D01*
X0188790Y0052164D02*
X0196019Y0052164D01*
X0195220Y0051366D02*
X0187992Y0051366D01*
X0188391Y0048172D02*
X0192026Y0048172D01*
X0192825Y0048970D02*
X0134199Y0048970D01*
X0133400Y0049769D02*
X0193623Y0049769D01*
X0194422Y0050567D02*
X0133100Y0050567D01*
X0133100Y0051366D02*
X0133884Y0051366D01*
X0129900Y0048970D02*
X0129599Y0048970D01*
X0128800Y0048172D02*
X0130472Y0048172D01*
X0131270Y0047373D02*
X0128002Y0047373D01*
X0127203Y0046575D02*
X0131938Y0046575D01*
X0131938Y0045776D02*
X0126405Y0045776D01*
X0125606Y0044978D02*
X0131938Y0044978D01*
X0131938Y0044179D02*
X0124808Y0044179D01*
X0124009Y0043381D02*
X0131938Y0043381D01*
X0132667Y0042582D02*
X0123300Y0042582D01*
X0123300Y0041784D02*
X0133466Y0041784D01*
X0139190Y0047373D02*
X0142686Y0047373D01*
X0143484Y0048172D02*
X0138391Y0048172D01*
X0137992Y0051366D02*
X0143884Y0051366D01*
X0143085Y0052164D02*
X0138790Y0052164D01*
X0139589Y0052963D02*
X0142287Y0052963D01*
X0141938Y0053761D02*
X0139938Y0053761D01*
X0139938Y0054560D02*
X0141938Y0054560D01*
X0141938Y0055358D02*
X0139938Y0055358D01*
X0139938Y0056157D02*
X0141605Y0056157D01*
X0140806Y0056955D02*
X0139608Y0056955D01*
X0140008Y0057754D02*
X0138809Y0057754D01*
X0139209Y0058552D02*
X0138011Y0058552D01*
X0142494Y0062545D02*
X0149012Y0062545D01*
X0149012Y0063343D02*
X0141695Y0063343D01*
X0143292Y0061746D02*
X0149027Y0061746D01*
X0149012Y0064142D02*
X0136197Y0064142D01*
X0135398Y0064940D02*
X0149012Y0064940D01*
X0149012Y0065739D02*
X0134599Y0065739D01*
X0133801Y0066537D02*
X0149012Y0066537D01*
X0158612Y0066537D02*
X0159012Y0066537D01*
X0159012Y0065739D02*
X0158612Y0065739D01*
X0158612Y0064940D02*
X0159012Y0064940D01*
X0159012Y0064142D02*
X0158612Y0064142D01*
X0158612Y0063343D02*
X0159012Y0063343D01*
X0159012Y0062545D02*
X0158612Y0062545D01*
X0158597Y0061746D02*
X0159027Y0061746D01*
X0159012Y0061761D02*
X0159598Y0061176D01*
X0163026Y0061176D01*
X0163612Y0061761D01*
X0163612Y0070590D01*
X0163026Y0071176D01*
X0162500Y0071176D01*
X0162500Y0071318D01*
X0163450Y0072268D01*
X0163450Y0074132D01*
X0162132Y0075450D01*
X0160268Y0075450D01*
X0158950Y0074132D01*
X0158950Y0072268D01*
X0159900Y0071318D01*
X0159900Y0071176D01*
X0159598Y0071176D01*
X0159012Y0070590D01*
X0159012Y0061761D01*
X0163597Y0061746D02*
X0164027Y0061746D01*
X0164012Y0062545D02*
X0163612Y0062545D01*
X0163612Y0063343D02*
X0164012Y0063343D01*
X0164012Y0064142D02*
X0163612Y0064142D01*
X0163612Y0064940D02*
X0164012Y0064940D01*
X0164012Y0065739D02*
X0163612Y0065739D01*
X0163612Y0066537D02*
X0164012Y0066537D01*
X0164012Y0067336D02*
X0163612Y0067336D01*
X0163612Y0068134D02*
X0164012Y0068134D01*
X0164012Y0068933D02*
X0163612Y0068933D01*
X0163612Y0069732D02*
X0164012Y0069732D01*
X0164012Y0070530D02*
X0163612Y0070530D01*
X0162511Y0071329D02*
X0164989Y0071329D01*
X0164191Y0072127D02*
X0163309Y0072127D01*
X0163450Y0072926D02*
X0164050Y0072926D01*
X0164050Y0073724D02*
X0163450Y0073724D01*
X0163059Y0074523D02*
X0164441Y0074523D01*
X0165239Y0075321D02*
X0162261Y0075321D01*
X0160139Y0075321D02*
X0157161Y0075321D01*
X0157959Y0074523D02*
X0159341Y0074523D01*
X0158950Y0073724D02*
X0158350Y0073724D01*
X0158350Y0072926D02*
X0158950Y0072926D01*
X0159091Y0072127D02*
X0158209Y0072127D01*
X0157411Y0071329D02*
X0159889Y0071329D01*
X0159012Y0070530D02*
X0158612Y0070530D01*
X0158612Y0069732D02*
X0159012Y0069732D01*
X0159012Y0068933D02*
X0158612Y0068933D01*
X0158612Y0068134D02*
X0159012Y0068134D01*
X0159012Y0067336D02*
X0158612Y0067336D01*
X0163286Y0058552D02*
X0163865Y0058552D01*
X0161938Y0056157D02*
X0159938Y0056157D01*
X0159938Y0055358D02*
X0161938Y0055358D01*
X0161938Y0054560D02*
X0159938Y0054560D01*
X0159938Y0053761D02*
X0161938Y0053761D01*
X0162287Y0052963D02*
X0159589Y0052963D01*
X0158790Y0052164D02*
X0163085Y0052164D01*
X0163884Y0051366D02*
X0157992Y0051366D01*
X0158391Y0048172D02*
X0163484Y0048172D01*
X0162686Y0047373D02*
X0159190Y0047373D01*
X0153484Y0048172D02*
X0148391Y0048172D01*
X0149190Y0047373D02*
X0152686Y0047373D01*
X0153884Y0051366D02*
X0147992Y0051366D01*
X0148790Y0052164D02*
X0153085Y0052164D01*
X0152287Y0052963D02*
X0149589Y0052963D01*
X0149938Y0053761D02*
X0151938Y0053761D01*
X0151938Y0054560D02*
X0149938Y0054560D01*
X0149938Y0055358D02*
X0151938Y0055358D01*
X0151938Y0056157D02*
X0149938Y0056157D01*
X0149608Y0056955D02*
X0152206Y0056955D01*
X0151408Y0057754D02*
X0148809Y0057754D01*
X0158809Y0057754D02*
X0160408Y0057754D01*
X0161206Y0056955D02*
X0159608Y0056955D01*
X0168597Y0061746D02*
X0169027Y0061746D01*
X0169012Y0062545D02*
X0168612Y0062545D01*
X0168612Y0063343D02*
X0169012Y0063343D01*
X0169012Y0064142D02*
X0168612Y0064142D01*
X0168612Y0064940D02*
X0169012Y0064940D01*
X0169012Y0065739D02*
X0168612Y0065739D01*
X0168612Y0066537D02*
X0169012Y0066537D01*
X0169012Y0067336D02*
X0168612Y0067336D01*
X0168612Y0068134D02*
X0169012Y0068134D01*
X0169012Y0068933D02*
X0168612Y0068933D01*
X0168612Y0069732D02*
X0169012Y0069732D01*
X0169012Y0070530D02*
X0168612Y0070530D01*
X0173612Y0070530D02*
X0174012Y0070530D01*
X0174012Y0069732D02*
X0173612Y0069732D01*
X0173612Y0068933D02*
X0174012Y0068933D01*
X0174012Y0068134D02*
X0173612Y0068134D01*
X0173612Y0067336D02*
X0174012Y0067336D01*
X0174012Y0066537D02*
X0173612Y0066537D01*
X0173612Y0065739D02*
X0174012Y0065739D01*
X0174012Y0064940D02*
X0173612Y0064940D01*
X0173612Y0064142D02*
X0174012Y0064142D01*
X0174012Y0063343D02*
X0173612Y0063343D01*
X0173612Y0062545D02*
X0174012Y0062545D01*
X0174027Y0061746D02*
X0173597Y0061746D01*
X0172612Y0060948D02*
X0175012Y0060948D01*
X0175412Y0060149D02*
X0172612Y0060149D01*
X0173394Y0059351D02*
X0176211Y0059351D01*
X0189190Y0047373D02*
X0191228Y0047373D01*
X0193125Y0044179D02*
X0196733Y0044179D01*
X0199945Y0044179D02*
X0204013Y0044179D01*
X0204013Y0043381D02*
X0201873Y0043381D01*
X0203026Y0042582D02*
X0204013Y0042582D01*
X0204013Y0041784D02*
X0203824Y0041784D01*
X0176338Y0038590D02*
X0175538Y0038590D01*
X0175538Y0037791D02*
X0176338Y0037791D01*
X0176338Y0036993D02*
X0175538Y0036993D01*
X0175538Y0036194D02*
X0176338Y0036194D01*
X0176338Y0035396D02*
X0175538Y0035396D01*
X0175538Y0034597D02*
X0166338Y0034597D01*
X0166338Y0035396D02*
X0165538Y0035396D01*
X0165538Y0036194D02*
X0166338Y0036194D01*
X0166338Y0036993D02*
X0165538Y0036993D01*
X0165538Y0037791D02*
X0166338Y0037791D01*
X0166338Y0038590D02*
X0165538Y0038590D01*
X0168539Y0038590D02*
X0173336Y0038590D01*
X0172538Y0037791D02*
X0169338Y0037791D01*
X0170136Y0036993D02*
X0171739Y0036993D01*
X0171538Y0036194D02*
X0170338Y0036194D01*
X0170338Y0035396D02*
X0171538Y0035396D01*
X0171538Y0033799D02*
X0170338Y0033799D01*
X0170192Y0033000D02*
X0171684Y0033000D01*
X0172482Y0032201D02*
X0169393Y0032201D01*
X0168595Y0031403D02*
X0173281Y0031403D01*
X0146338Y0035396D02*
X0145538Y0035396D01*
X0145538Y0036194D02*
X0146338Y0036194D01*
X0146338Y0036993D02*
X0145538Y0036993D01*
X0145538Y0037791D02*
X0146338Y0037791D01*
X0146338Y0038590D02*
X0145538Y0038590D01*
X0104839Y0050567D02*
X0094611Y0050567D01*
X0094611Y0049769D02*
X0101340Y0049769D01*
X0100542Y0048970D02*
X0094611Y0048970D01*
X0094300Y0048172D02*
X0099743Y0048172D01*
X0099465Y0052164D02*
X0100678Y0052164D01*
X0100391Y0052963D02*
X0099753Y0052963D01*
X0099753Y0053761D02*
X0100391Y0053761D01*
X0126052Y0077717D02*
X0126290Y0077717D01*
X0126290Y0078515D02*
X0126052Y0078515D01*
X0126052Y0079314D02*
X0126290Y0079314D01*
X0126290Y0080112D02*
X0126052Y0080112D01*
X0124032Y0088950D02*
X0122168Y0088950D01*
X0120850Y0090268D01*
X0120850Y0092132D01*
X0121918Y0093200D01*
X0119138Y0093200D01*
X0117360Y0091422D01*
X0117550Y0091232D01*
X0117550Y0089368D01*
X0116232Y0088050D01*
X0114588Y0088050D01*
X0115538Y0087100D01*
X0149012Y0087100D01*
X0149012Y0094790D01*
X0149598Y0095376D01*
X0149712Y0095376D01*
X0149712Y0096225D01*
X0149700Y0096237D01*
X0149700Y0099688D01*
X0147595Y0097583D01*
X0144281Y0097583D01*
X0144101Y0097763D01*
X0142538Y0096200D01*
X0134138Y0096200D01*
X0132938Y0095000D01*
X0124838Y0095000D01*
X0123288Y0093450D01*
X0124032Y0093450D01*
X0124982Y0092500D01*
X0132643Y0092500D01*
X0132643Y0093094D01*
X0133229Y0093680D01*
X0137995Y0093680D01*
X0138580Y0093094D01*
X0138580Y0093005D01*
X0138638Y0093220D01*
X0138822Y0093539D01*
X0139083Y0093800D01*
X0139402Y0093984D01*
X0139758Y0094080D01*
X0141511Y0094080D01*
X0141511Y0091111D01*
X0142311Y0091111D01*
X0142311Y0094080D01*
X0144064Y0094080D01*
X0144420Y0093984D01*
X0144739Y0093800D01*
X0145000Y0093539D01*
X0145184Y0093220D01*
X0145280Y0092864D01*
X0145280Y0091111D01*
X0142311Y0091111D01*
X0142311Y0090311D01*
X0142311Y0087343D01*
X0144064Y0087343D01*
X0144420Y0087438D01*
X0144739Y0087622D01*
X0145000Y0087883D01*
X0145184Y0088202D01*
X0145280Y0088558D01*
X0145280Y0090311D01*
X0142311Y0090311D01*
X0141511Y0090311D01*
X0141511Y0087343D01*
X0139758Y0087343D01*
X0139402Y0087438D01*
X0139083Y0087622D01*
X0138822Y0087883D01*
X0138638Y0088202D01*
X0138580Y0088417D01*
X0138580Y0088328D01*
X0137995Y0087743D01*
X0133229Y0087743D01*
X0132643Y0088328D01*
X0132643Y0089900D01*
X0124982Y0089900D01*
X0124032Y0088950D01*
X0124776Y0089694D02*
X0132643Y0089694D01*
X0132643Y0088896D02*
X0117078Y0088896D01*
X0117550Y0089694D02*
X0121424Y0089694D01*
X0120850Y0090493D02*
X0117550Y0090493D01*
X0117491Y0091291D02*
X0120850Y0091291D01*
X0120850Y0092090D02*
X0118028Y0092090D01*
X0118827Y0092888D02*
X0121606Y0092888D01*
X0123525Y0093687D02*
X0138970Y0093687D01*
X0141511Y0093687D02*
X0142311Y0093687D01*
X0142311Y0092888D02*
X0141511Y0092888D01*
X0141511Y0092090D02*
X0142311Y0092090D01*
X0142311Y0091291D02*
X0141511Y0091291D01*
X0142311Y0090493D02*
X0149012Y0090493D01*
X0149012Y0091291D02*
X0145280Y0091291D01*
X0145280Y0092090D02*
X0149012Y0092090D01*
X0149012Y0092888D02*
X0145273Y0092888D01*
X0144852Y0093687D02*
X0149012Y0093687D01*
X0149012Y0094485D02*
X0124324Y0094485D01*
X0124594Y0092888D02*
X0132643Y0092888D01*
X0133222Y0095284D02*
X0149506Y0095284D01*
X0149712Y0096082D02*
X0134021Y0096082D01*
X0141511Y0089694D02*
X0142311Y0089694D01*
X0142311Y0088896D02*
X0141511Y0088896D01*
X0141511Y0088097D02*
X0142311Y0088097D01*
X0145124Y0088097D02*
X0149012Y0088097D01*
X0149012Y0087299D02*
X0115340Y0087299D01*
X0116279Y0088097D02*
X0132874Y0088097D01*
X0138349Y0088097D02*
X0138698Y0088097D01*
X0145280Y0088896D02*
X0149012Y0088896D01*
X0149012Y0089694D02*
X0145280Y0089694D01*
X0143219Y0096881D02*
X0149700Y0096881D01*
X0149700Y0097679D02*
X0147691Y0097679D01*
X0148490Y0098478D02*
X0149700Y0098478D01*
X0149700Y0099276D02*
X0149288Y0099276D01*
X0144184Y0097679D02*
X0144018Y0097679D01*
X0145043Y0077717D02*
X0182400Y0077717D01*
X0182400Y0076918D02*
X0145280Y0076918D01*
X0142311Y0076918D02*
X0141511Y0076918D01*
X0141511Y0076120D02*
X0142311Y0076120D01*
X0142311Y0077717D02*
X0141511Y0077717D01*
X0138779Y0077717D02*
X0138209Y0077717D01*
X0138127Y0072127D02*
X0138830Y0072127D01*
X0189938Y0101672D02*
X0195555Y0101672D01*
X0195555Y0100873D02*
X0196355Y0100873D01*
X0196355Y0100075D02*
X0195555Y0100075D01*
X0195555Y0099276D02*
X0196355Y0099276D01*
X0196355Y0098478D02*
X0195555Y0098478D01*
X0195555Y0097679D02*
X0196355Y0097679D01*
X0192002Y0110456D02*
X0189938Y0110456D01*
X0189938Y0111254D02*
X0192064Y0111254D01*
X0202706Y0113650D02*
X0204013Y0113650D01*
X0204013Y0114448D02*
X0203505Y0114448D01*
X0191600Y0122433D02*
X0190338Y0122433D01*
X0190338Y0123232D02*
X0191930Y0123232D01*
X0192424Y0124030D02*
X0189713Y0124030D01*
X0188914Y0124829D02*
X0193222Y0124829D01*
X0063485Y0058552D02*
X0063154Y0058552D01*
X0056500Y0063300D02*
X0054700Y0063300D01*
X0050800Y0063300D01*
X0051473Y0067336D02*
X0052051Y0067336D01*
X0052051Y0068134D02*
X0051473Y0068134D01*
X0051473Y0068933D02*
X0052051Y0068933D01*
X0030715Y0122433D02*
X0030137Y0122433D01*
X0030137Y0123232D02*
X0030715Y0123232D01*
X0030715Y0124030D02*
X0030137Y0124030D01*
X0032190Y0124829D02*
X0022354Y0124829D01*
X0023152Y0124030D02*
X0027822Y0124030D01*
X0027648Y0123232D02*
X0023646Y0123232D01*
X0023977Y0122433D02*
X0027648Y0122433D01*
D37*
X0026489Y0101898D02*
X0015269Y0101898D01*
X0031607Y0101898D02*
X0031709Y0102000D01*
X0034600Y0102000D01*
X0035687Y0100913D01*
X0038891Y0100913D01*
X0068367Y0071677D02*
X0070387Y0069657D01*
X0070387Y0065630D01*
X0066646Y0065630D02*
X0066646Y0063354D01*
X0068200Y0061800D01*
X0073000Y0061800D01*
X0074200Y0063000D01*
X0074200Y0065557D01*
X0074127Y0065630D01*
X0074127Y0070744D01*
X0075060Y0071677D01*
X0080777Y0071677D01*
X0080800Y0071700D01*
X0077500Y0060900D02*
X0076754Y0060900D01*
X0074127Y0058273D01*
X0074127Y0055393D01*
X0072400Y0060000D02*
X0064300Y0060000D01*
X0061900Y0062400D01*
X0058300Y0062400D01*
X0056500Y0064200D01*
X0100900Y0094500D02*
X0100900Y0094800D01*
X0101500Y0095100D01*
X0101500Y0103200D01*
X0104500Y0106200D01*
X0109000Y0106200D01*
X0110900Y0108100D01*
X0110900Y0111300D01*
X0115655Y0111300D01*
X0115938Y0111583D01*
X0125938Y0111583D01*
X0135938Y0111583D01*
X0145938Y0111583D01*
X0155938Y0111583D01*
X0155938Y0108738D01*
X0151300Y0104100D01*
X0151300Y0096900D01*
X0151312Y0096888D01*
X0151312Y0090376D01*
X0155938Y0111583D02*
X0165938Y0111583D01*
X0111150Y0113950D02*
X0108400Y0116700D01*
X0102700Y0116700D01*
X0100200Y0119200D01*
X0098320Y0119200D01*
X0095938Y0121583D01*
X0110900Y0113700D02*
X0110900Y0111700D01*
X0110900Y0111300D01*
X0110900Y0113700D02*
X0111150Y0113950D01*
X0124263Y0060600D02*
X0123831Y0060169D01*
X0124263Y0060600D02*
X0130300Y0060600D01*
X0131500Y0059400D01*
X0131500Y0049406D01*
X0135938Y0044969D01*
D38*
X0145938Y0044969D01*
X0155938Y0044969D01*
X0165938Y0044969D01*
X0175938Y0044969D01*
X0185938Y0044969D01*
X0128831Y0051031D02*
X0121300Y0043500D01*
X0121300Y0034969D01*
X0111300Y0034969D02*
X0111300Y0047300D01*
X0113871Y0049871D01*
X0113871Y0056016D01*
X0118831Y0056016D02*
X0123831Y0056016D01*
X0123831Y0060169D01*
X0121300Y0062700D01*
X0104200Y0062700D01*
X0101500Y0065400D01*
X0097000Y0065400D01*
X0097572Y0064828D01*
X0097572Y0056016D01*
X0102572Y0056016D01*
X0107572Y0056016D02*
X0107572Y0050472D01*
X0105400Y0048300D01*
X0102700Y0048300D01*
X0101300Y0046900D01*
X0101300Y0034969D01*
X0091300Y0034969D02*
X0091300Y0048000D01*
X0092611Y0049311D01*
X0092611Y0056016D01*
X0083482Y0050992D02*
X0081292Y0049102D01*
X0073733Y0049001D02*
X0074127Y0052094D01*
X0074127Y0055393D01*
X0087273Y0065400D02*
X0097000Y0065400D01*
X0087273Y0065400D02*
X0083482Y0069492D01*
X0128831Y0056016D02*
X0128831Y0051031D01*
D39*
X0066646Y0065154D02*
X0066646Y0065630D01*
D40*
X0083482Y0050992D02*
X0083482Y0041382D01*
X0081300Y0039200D01*
X0081300Y0034969D01*
M02*
