G75*
%MOIN*%
%OFA0B0*%
%FSLAX25Y25*%
%IPPOS*%
%LPD*%
%AMOC8*
5,1,8,0,0,1.08239X$1,22.5*
%
%ADD10C,0.01600*%
%ADD11C,0.00000*%
%ADD12OC8,0.06000*%
%ADD13C,0.06000*%
%ADD14C,0.07400*%
%ADD15C,0.02500*%
%ADD16C,0.00600*%
%ADD17C,0.01200*%
D10*
X0017237Y0029063D02*
X0198339Y0029063D01*
X0198529Y0029065D01*
X0198719Y0029072D01*
X0198909Y0029084D01*
X0199099Y0029100D01*
X0199288Y0029120D01*
X0199477Y0029146D01*
X0199665Y0029175D01*
X0199852Y0029210D01*
X0200038Y0029249D01*
X0200223Y0029292D01*
X0200408Y0029340D01*
X0200591Y0029392D01*
X0200772Y0029448D01*
X0200952Y0029509D01*
X0201131Y0029575D01*
X0201308Y0029644D01*
X0201484Y0029718D01*
X0201657Y0029796D01*
X0201829Y0029879D01*
X0201998Y0029965D01*
X0202166Y0030055D01*
X0202331Y0030150D01*
X0202494Y0030248D01*
X0202654Y0030351D01*
X0202812Y0030457D01*
X0202967Y0030567D01*
X0203120Y0030680D01*
X0203270Y0030798D01*
X0203416Y0030919D01*
X0203560Y0031043D01*
X0203701Y0031171D01*
X0203839Y0031302D01*
X0203974Y0031437D01*
X0204105Y0031575D01*
X0204233Y0031716D01*
X0204357Y0031860D01*
X0204478Y0032006D01*
X0204596Y0032156D01*
X0204709Y0032309D01*
X0204819Y0032464D01*
X0204925Y0032622D01*
X0205028Y0032782D01*
X0205126Y0032945D01*
X0205221Y0033110D01*
X0205311Y0033278D01*
X0205397Y0033447D01*
X0205480Y0033619D01*
X0205558Y0033792D01*
X0205632Y0033968D01*
X0205701Y0034145D01*
X0205767Y0034324D01*
X0205828Y0034504D01*
X0205884Y0034685D01*
X0205936Y0034868D01*
X0205984Y0035053D01*
X0206027Y0035238D01*
X0206066Y0035424D01*
X0206101Y0035611D01*
X0206130Y0035799D01*
X0206156Y0035988D01*
X0206176Y0036177D01*
X0206192Y0036367D01*
X0206204Y0036557D01*
X0206211Y0036747D01*
X0206213Y0036937D01*
X0206213Y0119614D01*
X0206211Y0119804D01*
X0206204Y0119994D01*
X0206192Y0120184D01*
X0206176Y0120374D01*
X0206156Y0120563D01*
X0206130Y0120752D01*
X0206101Y0120940D01*
X0206066Y0121127D01*
X0206027Y0121313D01*
X0205984Y0121498D01*
X0205936Y0121683D01*
X0205884Y0121866D01*
X0205828Y0122047D01*
X0205767Y0122227D01*
X0205701Y0122406D01*
X0205632Y0122583D01*
X0205558Y0122759D01*
X0205480Y0122932D01*
X0205397Y0123104D01*
X0205311Y0123273D01*
X0205221Y0123441D01*
X0205126Y0123606D01*
X0205028Y0123769D01*
X0204925Y0123929D01*
X0204819Y0124087D01*
X0204709Y0124242D01*
X0204596Y0124395D01*
X0204478Y0124545D01*
X0204357Y0124691D01*
X0204233Y0124835D01*
X0204105Y0124976D01*
X0203974Y0125114D01*
X0203839Y0125249D01*
X0203701Y0125380D01*
X0203560Y0125508D01*
X0203416Y0125632D01*
X0203270Y0125753D01*
X0203120Y0125871D01*
X0202967Y0125984D01*
X0202812Y0126094D01*
X0202654Y0126200D01*
X0202494Y0126303D01*
X0202331Y0126401D01*
X0202166Y0126496D01*
X0201998Y0126586D01*
X0201829Y0126672D01*
X0201657Y0126755D01*
X0201484Y0126833D01*
X0201308Y0126907D01*
X0201131Y0126976D01*
X0200952Y0127042D01*
X0200772Y0127103D01*
X0200591Y0127159D01*
X0200408Y0127211D01*
X0200223Y0127259D01*
X0200038Y0127302D01*
X0199852Y0127341D01*
X0199665Y0127376D01*
X0199477Y0127405D01*
X0199288Y0127431D01*
X0199099Y0127451D01*
X0198909Y0127467D01*
X0198719Y0127479D01*
X0198529Y0127486D01*
X0198339Y0127488D01*
X0017237Y0127488D01*
X0017047Y0127486D01*
X0016857Y0127479D01*
X0016667Y0127467D01*
X0016477Y0127451D01*
X0016288Y0127431D01*
X0016099Y0127405D01*
X0015911Y0127376D01*
X0015724Y0127341D01*
X0015538Y0127302D01*
X0015353Y0127259D01*
X0015168Y0127211D01*
X0014985Y0127159D01*
X0014804Y0127103D01*
X0014624Y0127042D01*
X0014445Y0126976D01*
X0014268Y0126907D01*
X0014092Y0126833D01*
X0013919Y0126755D01*
X0013747Y0126672D01*
X0013578Y0126586D01*
X0013410Y0126496D01*
X0013245Y0126401D01*
X0013082Y0126303D01*
X0012922Y0126200D01*
X0012764Y0126094D01*
X0012609Y0125984D01*
X0012456Y0125871D01*
X0012306Y0125753D01*
X0012160Y0125632D01*
X0012016Y0125508D01*
X0011875Y0125380D01*
X0011737Y0125249D01*
X0011602Y0125114D01*
X0011471Y0124976D01*
X0011343Y0124835D01*
X0011219Y0124691D01*
X0011098Y0124545D01*
X0010980Y0124395D01*
X0010867Y0124242D01*
X0010757Y0124087D01*
X0010651Y0123929D01*
X0010548Y0123769D01*
X0010450Y0123606D01*
X0010355Y0123441D01*
X0010265Y0123273D01*
X0010179Y0123104D01*
X0010096Y0122932D01*
X0010018Y0122759D01*
X0009944Y0122583D01*
X0009875Y0122406D01*
X0009809Y0122227D01*
X0009748Y0122047D01*
X0009692Y0121866D01*
X0009640Y0121683D01*
X0009592Y0121498D01*
X0009549Y0121313D01*
X0009510Y0121127D01*
X0009475Y0120940D01*
X0009446Y0120752D01*
X0009420Y0120563D01*
X0009400Y0120374D01*
X0009384Y0120184D01*
X0009372Y0119994D01*
X0009365Y0119804D01*
X0009363Y0119614D01*
X0009363Y0036937D01*
X0009365Y0036747D01*
X0009372Y0036557D01*
X0009384Y0036367D01*
X0009400Y0036177D01*
X0009420Y0035988D01*
X0009446Y0035799D01*
X0009475Y0035611D01*
X0009510Y0035424D01*
X0009549Y0035238D01*
X0009592Y0035053D01*
X0009640Y0034868D01*
X0009692Y0034685D01*
X0009748Y0034504D01*
X0009809Y0034324D01*
X0009875Y0034145D01*
X0009944Y0033968D01*
X0010018Y0033792D01*
X0010096Y0033619D01*
X0010179Y0033447D01*
X0010265Y0033278D01*
X0010355Y0033110D01*
X0010450Y0032945D01*
X0010548Y0032782D01*
X0010651Y0032622D01*
X0010757Y0032464D01*
X0010867Y0032309D01*
X0010980Y0032156D01*
X0011098Y0032006D01*
X0011219Y0031860D01*
X0011343Y0031716D01*
X0011471Y0031575D01*
X0011602Y0031437D01*
X0011737Y0031302D01*
X0011875Y0031171D01*
X0012016Y0031043D01*
X0012160Y0030919D01*
X0012306Y0030798D01*
X0012456Y0030680D01*
X0012609Y0030567D01*
X0012764Y0030457D01*
X0012922Y0030351D01*
X0013082Y0030248D01*
X0013245Y0030150D01*
X0013410Y0030055D01*
X0013578Y0029965D01*
X0013747Y0029879D01*
X0013919Y0029796D01*
X0014092Y0029718D01*
X0014268Y0029644D01*
X0014445Y0029575D01*
X0014624Y0029509D01*
X0014804Y0029448D01*
X0014985Y0029392D01*
X0015168Y0029340D01*
X0015353Y0029292D01*
X0015538Y0029249D01*
X0015724Y0029210D01*
X0015911Y0029175D01*
X0016099Y0029146D01*
X0016288Y0029120D01*
X0016477Y0029100D01*
X0016667Y0029084D01*
X0016857Y0029072D01*
X0017047Y0029065D01*
X0017237Y0029063D01*
X0092500Y0071400D02*
X0092800Y0071700D01*
X0107500Y0071400D02*
X0107500Y0071100D01*
X0114100Y0071100D02*
X0114100Y0071400D01*
X0128500Y0071400D02*
X0128800Y0071400D01*
D11*
X0192433Y0036937D02*
X0192435Y0037090D01*
X0192441Y0037244D01*
X0192451Y0037397D01*
X0192465Y0037549D01*
X0192483Y0037702D01*
X0192505Y0037853D01*
X0192530Y0038004D01*
X0192560Y0038155D01*
X0192594Y0038305D01*
X0192631Y0038453D01*
X0192672Y0038601D01*
X0192717Y0038747D01*
X0192766Y0038893D01*
X0192819Y0039037D01*
X0192875Y0039179D01*
X0192935Y0039320D01*
X0192999Y0039460D01*
X0193066Y0039598D01*
X0193137Y0039734D01*
X0193212Y0039868D01*
X0193289Y0040000D01*
X0193371Y0040130D01*
X0193455Y0040258D01*
X0193543Y0040384D01*
X0193634Y0040507D01*
X0193728Y0040628D01*
X0193826Y0040746D01*
X0193926Y0040862D01*
X0194030Y0040975D01*
X0194136Y0041086D01*
X0194245Y0041194D01*
X0194357Y0041299D01*
X0194471Y0041400D01*
X0194589Y0041499D01*
X0194708Y0041595D01*
X0194830Y0041688D01*
X0194955Y0041777D01*
X0195082Y0041864D01*
X0195211Y0041946D01*
X0195342Y0042026D01*
X0195475Y0042102D01*
X0195610Y0042175D01*
X0195747Y0042244D01*
X0195886Y0042309D01*
X0196026Y0042371D01*
X0196168Y0042429D01*
X0196311Y0042484D01*
X0196456Y0042535D01*
X0196602Y0042582D01*
X0196749Y0042625D01*
X0196897Y0042664D01*
X0197046Y0042700D01*
X0197196Y0042731D01*
X0197347Y0042759D01*
X0197498Y0042783D01*
X0197651Y0042803D01*
X0197803Y0042819D01*
X0197956Y0042831D01*
X0198109Y0042839D01*
X0198262Y0042843D01*
X0198416Y0042843D01*
X0198569Y0042839D01*
X0198722Y0042831D01*
X0198875Y0042819D01*
X0199027Y0042803D01*
X0199180Y0042783D01*
X0199331Y0042759D01*
X0199482Y0042731D01*
X0199632Y0042700D01*
X0199781Y0042664D01*
X0199929Y0042625D01*
X0200076Y0042582D01*
X0200222Y0042535D01*
X0200367Y0042484D01*
X0200510Y0042429D01*
X0200652Y0042371D01*
X0200792Y0042309D01*
X0200931Y0042244D01*
X0201068Y0042175D01*
X0201203Y0042102D01*
X0201336Y0042026D01*
X0201467Y0041946D01*
X0201596Y0041864D01*
X0201723Y0041777D01*
X0201848Y0041688D01*
X0201970Y0041595D01*
X0202089Y0041499D01*
X0202207Y0041400D01*
X0202321Y0041299D01*
X0202433Y0041194D01*
X0202542Y0041086D01*
X0202648Y0040975D01*
X0202752Y0040862D01*
X0202852Y0040746D01*
X0202950Y0040628D01*
X0203044Y0040507D01*
X0203135Y0040384D01*
X0203223Y0040258D01*
X0203307Y0040130D01*
X0203389Y0040000D01*
X0203466Y0039868D01*
X0203541Y0039734D01*
X0203612Y0039598D01*
X0203679Y0039460D01*
X0203743Y0039320D01*
X0203803Y0039179D01*
X0203859Y0039037D01*
X0203912Y0038893D01*
X0203961Y0038747D01*
X0204006Y0038601D01*
X0204047Y0038453D01*
X0204084Y0038305D01*
X0204118Y0038155D01*
X0204148Y0038004D01*
X0204173Y0037853D01*
X0204195Y0037702D01*
X0204213Y0037549D01*
X0204227Y0037397D01*
X0204237Y0037244D01*
X0204243Y0037090D01*
X0204245Y0036937D01*
X0204243Y0036784D01*
X0204237Y0036630D01*
X0204227Y0036477D01*
X0204213Y0036325D01*
X0204195Y0036172D01*
X0204173Y0036021D01*
X0204148Y0035870D01*
X0204118Y0035719D01*
X0204084Y0035569D01*
X0204047Y0035421D01*
X0204006Y0035273D01*
X0203961Y0035127D01*
X0203912Y0034981D01*
X0203859Y0034837D01*
X0203803Y0034695D01*
X0203743Y0034554D01*
X0203679Y0034414D01*
X0203612Y0034276D01*
X0203541Y0034140D01*
X0203466Y0034006D01*
X0203389Y0033874D01*
X0203307Y0033744D01*
X0203223Y0033616D01*
X0203135Y0033490D01*
X0203044Y0033367D01*
X0202950Y0033246D01*
X0202852Y0033128D01*
X0202752Y0033012D01*
X0202648Y0032899D01*
X0202542Y0032788D01*
X0202433Y0032680D01*
X0202321Y0032575D01*
X0202207Y0032474D01*
X0202089Y0032375D01*
X0201970Y0032279D01*
X0201848Y0032186D01*
X0201723Y0032097D01*
X0201596Y0032010D01*
X0201467Y0031928D01*
X0201336Y0031848D01*
X0201203Y0031772D01*
X0201068Y0031699D01*
X0200931Y0031630D01*
X0200792Y0031565D01*
X0200652Y0031503D01*
X0200510Y0031445D01*
X0200367Y0031390D01*
X0200222Y0031339D01*
X0200076Y0031292D01*
X0199929Y0031249D01*
X0199781Y0031210D01*
X0199632Y0031174D01*
X0199482Y0031143D01*
X0199331Y0031115D01*
X0199180Y0031091D01*
X0199027Y0031071D01*
X0198875Y0031055D01*
X0198722Y0031043D01*
X0198569Y0031035D01*
X0198416Y0031031D01*
X0198262Y0031031D01*
X0198109Y0031035D01*
X0197956Y0031043D01*
X0197803Y0031055D01*
X0197651Y0031071D01*
X0197498Y0031091D01*
X0197347Y0031115D01*
X0197196Y0031143D01*
X0197046Y0031174D01*
X0196897Y0031210D01*
X0196749Y0031249D01*
X0196602Y0031292D01*
X0196456Y0031339D01*
X0196311Y0031390D01*
X0196168Y0031445D01*
X0196026Y0031503D01*
X0195886Y0031565D01*
X0195747Y0031630D01*
X0195610Y0031699D01*
X0195475Y0031772D01*
X0195342Y0031848D01*
X0195211Y0031928D01*
X0195082Y0032010D01*
X0194955Y0032097D01*
X0194830Y0032186D01*
X0194708Y0032279D01*
X0194589Y0032375D01*
X0194471Y0032474D01*
X0194357Y0032575D01*
X0194245Y0032680D01*
X0194136Y0032788D01*
X0194030Y0032899D01*
X0193926Y0033012D01*
X0193826Y0033128D01*
X0193728Y0033246D01*
X0193634Y0033367D01*
X0193543Y0033490D01*
X0193455Y0033616D01*
X0193371Y0033744D01*
X0193289Y0033874D01*
X0193212Y0034006D01*
X0193137Y0034140D01*
X0193066Y0034276D01*
X0192999Y0034414D01*
X0192935Y0034554D01*
X0192875Y0034695D01*
X0192819Y0034837D01*
X0192766Y0034981D01*
X0192717Y0035127D01*
X0192672Y0035273D01*
X0192631Y0035421D01*
X0192594Y0035569D01*
X0192560Y0035719D01*
X0192530Y0035870D01*
X0192505Y0036021D01*
X0192483Y0036172D01*
X0192465Y0036325D01*
X0192451Y0036477D01*
X0192441Y0036630D01*
X0192435Y0036784D01*
X0192433Y0036937D01*
X0192433Y0119614D02*
X0192435Y0119767D01*
X0192441Y0119921D01*
X0192451Y0120074D01*
X0192465Y0120226D01*
X0192483Y0120379D01*
X0192505Y0120530D01*
X0192530Y0120681D01*
X0192560Y0120832D01*
X0192594Y0120982D01*
X0192631Y0121130D01*
X0192672Y0121278D01*
X0192717Y0121424D01*
X0192766Y0121570D01*
X0192819Y0121714D01*
X0192875Y0121856D01*
X0192935Y0121997D01*
X0192999Y0122137D01*
X0193066Y0122275D01*
X0193137Y0122411D01*
X0193212Y0122545D01*
X0193289Y0122677D01*
X0193371Y0122807D01*
X0193455Y0122935D01*
X0193543Y0123061D01*
X0193634Y0123184D01*
X0193728Y0123305D01*
X0193826Y0123423D01*
X0193926Y0123539D01*
X0194030Y0123652D01*
X0194136Y0123763D01*
X0194245Y0123871D01*
X0194357Y0123976D01*
X0194471Y0124077D01*
X0194589Y0124176D01*
X0194708Y0124272D01*
X0194830Y0124365D01*
X0194955Y0124454D01*
X0195082Y0124541D01*
X0195211Y0124623D01*
X0195342Y0124703D01*
X0195475Y0124779D01*
X0195610Y0124852D01*
X0195747Y0124921D01*
X0195886Y0124986D01*
X0196026Y0125048D01*
X0196168Y0125106D01*
X0196311Y0125161D01*
X0196456Y0125212D01*
X0196602Y0125259D01*
X0196749Y0125302D01*
X0196897Y0125341D01*
X0197046Y0125377D01*
X0197196Y0125408D01*
X0197347Y0125436D01*
X0197498Y0125460D01*
X0197651Y0125480D01*
X0197803Y0125496D01*
X0197956Y0125508D01*
X0198109Y0125516D01*
X0198262Y0125520D01*
X0198416Y0125520D01*
X0198569Y0125516D01*
X0198722Y0125508D01*
X0198875Y0125496D01*
X0199027Y0125480D01*
X0199180Y0125460D01*
X0199331Y0125436D01*
X0199482Y0125408D01*
X0199632Y0125377D01*
X0199781Y0125341D01*
X0199929Y0125302D01*
X0200076Y0125259D01*
X0200222Y0125212D01*
X0200367Y0125161D01*
X0200510Y0125106D01*
X0200652Y0125048D01*
X0200792Y0124986D01*
X0200931Y0124921D01*
X0201068Y0124852D01*
X0201203Y0124779D01*
X0201336Y0124703D01*
X0201467Y0124623D01*
X0201596Y0124541D01*
X0201723Y0124454D01*
X0201848Y0124365D01*
X0201970Y0124272D01*
X0202089Y0124176D01*
X0202207Y0124077D01*
X0202321Y0123976D01*
X0202433Y0123871D01*
X0202542Y0123763D01*
X0202648Y0123652D01*
X0202752Y0123539D01*
X0202852Y0123423D01*
X0202950Y0123305D01*
X0203044Y0123184D01*
X0203135Y0123061D01*
X0203223Y0122935D01*
X0203307Y0122807D01*
X0203389Y0122677D01*
X0203466Y0122545D01*
X0203541Y0122411D01*
X0203612Y0122275D01*
X0203679Y0122137D01*
X0203743Y0121997D01*
X0203803Y0121856D01*
X0203859Y0121714D01*
X0203912Y0121570D01*
X0203961Y0121424D01*
X0204006Y0121278D01*
X0204047Y0121130D01*
X0204084Y0120982D01*
X0204118Y0120832D01*
X0204148Y0120681D01*
X0204173Y0120530D01*
X0204195Y0120379D01*
X0204213Y0120226D01*
X0204227Y0120074D01*
X0204237Y0119921D01*
X0204243Y0119767D01*
X0204245Y0119614D01*
X0204243Y0119461D01*
X0204237Y0119307D01*
X0204227Y0119154D01*
X0204213Y0119002D01*
X0204195Y0118849D01*
X0204173Y0118698D01*
X0204148Y0118547D01*
X0204118Y0118396D01*
X0204084Y0118246D01*
X0204047Y0118098D01*
X0204006Y0117950D01*
X0203961Y0117804D01*
X0203912Y0117658D01*
X0203859Y0117514D01*
X0203803Y0117372D01*
X0203743Y0117231D01*
X0203679Y0117091D01*
X0203612Y0116953D01*
X0203541Y0116817D01*
X0203466Y0116683D01*
X0203389Y0116551D01*
X0203307Y0116421D01*
X0203223Y0116293D01*
X0203135Y0116167D01*
X0203044Y0116044D01*
X0202950Y0115923D01*
X0202852Y0115805D01*
X0202752Y0115689D01*
X0202648Y0115576D01*
X0202542Y0115465D01*
X0202433Y0115357D01*
X0202321Y0115252D01*
X0202207Y0115151D01*
X0202089Y0115052D01*
X0201970Y0114956D01*
X0201848Y0114863D01*
X0201723Y0114774D01*
X0201596Y0114687D01*
X0201467Y0114605D01*
X0201336Y0114525D01*
X0201203Y0114449D01*
X0201068Y0114376D01*
X0200931Y0114307D01*
X0200792Y0114242D01*
X0200652Y0114180D01*
X0200510Y0114122D01*
X0200367Y0114067D01*
X0200222Y0114016D01*
X0200076Y0113969D01*
X0199929Y0113926D01*
X0199781Y0113887D01*
X0199632Y0113851D01*
X0199482Y0113820D01*
X0199331Y0113792D01*
X0199180Y0113768D01*
X0199027Y0113748D01*
X0198875Y0113732D01*
X0198722Y0113720D01*
X0198569Y0113712D01*
X0198416Y0113708D01*
X0198262Y0113708D01*
X0198109Y0113712D01*
X0197956Y0113720D01*
X0197803Y0113732D01*
X0197651Y0113748D01*
X0197498Y0113768D01*
X0197347Y0113792D01*
X0197196Y0113820D01*
X0197046Y0113851D01*
X0196897Y0113887D01*
X0196749Y0113926D01*
X0196602Y0113969D01*
X0196456Y0114016D01*
X0196311Y0114067D01*
X0196168Y0114122D01*
X0196026Y0114180D01*
X0195886Y0114242D01*
X0195747Y0114307D01*
X0195610Y0114376D01*
X0195475Y0114449D01*
X0195342Y0114525D01*
X0195211Y0114605D01*
X0195082Y0114687D01*
X0194955Y0114774D01*
X0194830Y0114863D01*
X0194708Y0114956D01*
X0194589Y0115052D01*
X0194471Y0115151D01*
X0194357Y0115252D01*
X0194245Y0115357D01*
X0194136Y0115465D01*
X0194030Y0115576D01*
X0193926Y0115689D01*
X0193826Y0115805D01*
X0193728Y0115923D01*
X0193634Y0116044D01*
X0193543Y0116167D01*
X0193455Y0116293D01*
X0193371Y0116421D01*
X0193289Y0116551D01*
X0193212Y0116683D01*
X0193137Y0116817D01*
X0193066Y0116953D01*
X0192999Y0117091D01*
X0192935Y0117231D01*
X0192875Y0117372D01*
X0192819Y0117514D01*
X0192766Y0117658D01*
X0192717Y0117804D01*
X0192672Y0117950D01*
X0192631Y0118098D01*
X0192594Y0118246D01*
X0192560Y0118396D01*
X0192530Y0118547D01*
X0192505Y0118698D01*
X0192483Y0118849D01*
X0192465Y0119002D01*
X0192451Y0119154D01*
X0192441Y0119307D01*
X0192435Y0119461D01*
X0192433Y0119614D01*
X0011331Y0119614D02*
X0011333Y0119767D01*
X0011339Y0119921D01*
X0011349Y0120074D01*
X0011363Y0120226D01*
X0011381Y0120379D01*
X0011403Y0120530D01*
X0011428Y0120681D01*
X0011458Y0120832D01*
X0011492Y0120982D01*
X0011529Y0121130D01*
X0011570Y0121278D01*
X0011615Y0121424D01*
X0011664Y0121570D01*
X0011717Y0121714D01*
X0011773Y0121856D01*
X0011833Y0121997D01*
X0011897Y0122137D01*
X0011964Y0122275D01*
X0012035Y0122411D01*
X0012110Y0122545D01*
X0012187Y0122677D01*
X0012269Y0122807D01*
X0012353Y0122935D01*
X0012441Y0123061D01*
X0012532Y0123184D01*
X0012626Y0123305D01*
X0012724Y0123423D01*
X0012824Y0123539D01*
X0012928Y0123652D01*
X0013034Y0123763D01*
X0013143Y0123871D01*
X0013255Y0123976D01*
X0013369Y0124077D01*
X0013487Y0124176D01*
X0013606Y0124272D01*
X0013728Y0124365D01*
X0013853Y0124454D01*
X0013980Y0124541D01*
X0014109Y0124623D01*
X0014240Y0124703D01*
X0014373Y0124779D01*
X0014508Y0124852D01*
X0014645Y0124921D01*
X0014784Y0124986D01*
X0014924Y0125048D01*
X0015066Y0125106D01*
X0015209Y0125161D01*
X0015354Y0125212D01*
X0015500Y0125259D01*
X0015647Y0125302D01*
X0015795Y0125341D01*
X0015944Y0125377D01*
X0016094Y0125408D01*
X0016245Y0125436D01*
X0016396Y0125460D01*
X0016549Y0125480D01*
X0016701Y0125496D01*
X0016854Y0125508D01*
X0017007Y0125516D01*
X0017160Y0125520D01*
X0017314Y0125520D01*
X0017467Y0125516D01*
X0017620Y0125508D01*
X0017773Y0125496D01*
X0017925Y0125480D01*
X0018078Y0125460D01*
X0018229Y0125436D01*
X0018380Y0125408D01*
X0018530Y0125377D01*
X0018679Y0125341D01*
X0018827Y0125302D01*
X0018974Y0125259D01*
X0019120Y0125212D01*
X0019265Y0125161D01*
X0019408Y0125106D01*
X0019550Y0125048D01*
X0019690Y0124986D01*
X0019829Y0124921D01*
X0019966Y0124852D01*
X0020101Y0124779D01*
X0020234Y0124703D01*
X0020365Y0124623D01*
X0020494Y0124541D01*
X0020621Y0124454D01*
X0020746Y0124365D01*
X0020868Y0124272D01*
X0020987Y0124176D01*
X0021105Y0124077D01*
X0021219Y0123976D01*
X0021331Y0123871D01*
X0021440Y0123763D01*
X0021546Y0123652D01*
X0021650Y0123539D01*
X0021750Y0123423D01*
X0021848Y0123305D01*
X0021942Y0123184D01*
X0022033Y0123061D01*
X0022121Y0122935D01*
X0022205Y0122807D01*
X0022287Y0122677D01*
X0022364Y0122545D01*
X0022439Y0122411D01*
X0022510Y0122275D01*
X0022577Y0122137D01*
X0022641Y0121997D01*
X0022701Y0121856D01*
X0022757Y0121714D01*
X0022810Y0121570D01*
X0022859Y0121424D01*
X0022904Y0121278D01*
X0022945Y0121130D01*
X0022982Y0120982D01*
X0023016Y0120832D01*
X0023046Y0120681D01*
X0023071Y0120530D01*
X0023093Y0120379D01*
X0023111Y0120226D01*
X0023125Y0120074D01*
X0023135Y0119921D01*
X0023141Y0119767D01*
X0023143Y0119614D01*
X0023141Y0119461D01*
X0023135Y0119307D01*
X0023125Y0119154D01*
X0023111Y0119002D01*
X0023093Y0118849D01*
X0023071Y0118698D01*
X0023046Y0118547D01*
X0023016Y0118396D01*
X0022982Y0118246D01*
X0022945Y0118098D01*
X0022904Y0117950D01*
X0022859Y0117804D01*
X0022810Y0117658D01*
X0022757Y0117514D01*
X0022701Y0117372D01*
X0022641Y0117231D01*
X0022577Y0117091D01*
X0022510Y0116953D01*
X0022439Y0116817D01*
X0022364Y0116683D01*
X0022287Y0116551D01*
X0022205Y0116421D01*
X0022121Y0116293D01*
X0022033Y0116167D01*
X0021942Y0116044D01*
X0021848Y0115923D01*
X0021750Y0115805D01*
X0021650Y0115689D01*
X0021546Y0115576D01*
X0021440Y0115465D01*
X0021331Y0115357D01*
X0021219Y0115252D01*
X0021105Y0115151D01*
X0020987Y0115052D01*
X0020868Y0114956D01*
X0020746Y0114863D01*
X0020621Y0114774D01*
X0020494Y0114687D01*
X0020365Y0114605D01*
X0020234Y0114525D01*
X0020101Y0114449D01*
X0019966Y0114376D01*
X0019829Y0114307D01*
X0019690Y0114242D01*
X0019550Y0114180D01*
X0019408Y0114122D01*
X0019265Y0114067D01*
X0019120Y0114016D01*
X0018974Y0113969D01*
X0018827Y0113926D01*
X0018679Y0113887D01*
X0018530Y0113851D01*
X0018380Y0113820D01*
X0018229Y0113792D01*
X0018078Y0113768D01*
X0017925Y0113748D01*
X0017773Y0113732D01*
X0017620Y0113720D01*
X0017467Y0113712D01*
X0017314Y0113708D01*
X0017160Y0113708D01*
X0017007Y0113712D01*
X0016854Y0113720D01*
X0016701Y0113732D01*
X0016549Y0113748D01*
X0016396Y0113768D01*
X0016245Y0113792D01*
X0016094Y0113820D01*
X0015944Y0113851D01*
X0015795Y0113887D01*
X0015647Y0113926D01*
X0015500Y0113969D01*
X0015354Y0114016D01*
X0015209Y0114067D01*
X0015066Y0114122D01*
X0014924Y0114180D01*
X0014784Y0114242D01*
X0014645Y0114307D01*
X0014508Y0114376D01*
X0014373Y0114449D01*
X0014240Y0114525D01*
X0014109Y0114605D01*
X0013980Y0114687D01*
X0013853Y0114774D01*
X0013728Y0114863D01*
X0013606Y0114956D01*
X0013487Y0115052D01*
X0013369Y0115151D01*
X0013255Y0115252D01*
X0013143Y0115357D01*
X0013034Y0115465D01*
X0012928Y0115576D01*
X0012824Y0115689D01*
X0012724Y0115805D01*
X0012626Y0115923D01*
X0012532Y0116044D01*
X0012441Y0116167D01*
X0012353Y0116293D01*
X0012269Y0116421D01*
X0012187Y0116551D01*
X0012110Y0116683D01*
X0012035Y0116817D01*
X0011964Y0116953D01*
X0011897Y0117091D01*
X0011833Y0117231D01*
X0011773Y0117372D01*
X0011717Y0117514D01*
X0011664Y0117658D01*
X0011615Y0117804D01*
X0011570Y0117950D01*
X0011529Y0118098D01*
X0011492Y0118246D01*
X0011458Y0118396D01*
X0011428Y0118547D01*
X0011403Y0118698D01*
X0011381Y0118849D01*
X0011363Y0119002D01*
X0011349Y0119154D01*
X0011339Y0119307D01*
X0011333Y0119461D01*
X0011331Y0119614D01*
X0011331Y0036937D02*
X0011333Y0037090D01*
X0011339Y0037244D01*
X0011349Y0037397D01*
X0011363Y0037549D01*
X0011381Y0037702D01*
X0011403Y0037853D01*
X0011428Y0038004D01*
X0011458Y0038155D01*
X0011492Y0038305D01*
X0011529Y0038453D01*
X0011570Y0038601D01*
X0011615Y0038747D01*
X0011664Y0038893D01*
X0011717Y0039037D01*
X0011773Y0039179D01*
X0011833Y0039320D01*
X0011897Y0039460D01*
X0011964Y0039598D01*
X0012035Y0039734D01*
X0012110Y0039868D01*
X0012187Y0040000D01*
X0012269Y0040130D01*
X0012353Y0040258D01*
X0012441Y0040384D01*
X0012532Y0040507D01*
X0012626Y0040628D01*
X0012724Y0040746D01*
X0012824Y0040862D01*
X0012928Y0040975D01*
X0013034Y0041086D01*
X0013143Y0041194D01*
X0013255Y0041299D01*
X0013369Y0041400D01*
X0013487Y0041499D01*
X0013606Y0041595D01*
X0013728Y0041688D01*
X0013853Y0041777D01*
X0013980Y0041864D01*
X0014109Y0041946D01*
X0014240Y0042026D01*
X0014373Y0042102D01*
X0014508Y0042175D01*
X0014645Y0042244D01*
X0014784Y0042309D01*
X0014924Y0042371D01*
X0015066Y0042429D01*
X0015209Y0042484D01*
X0015354Y0042535D01*
X0015500Y0042582D01*
X0015647Y0042625D01*
X0015795Y0042664D01*
X0015944Y0042700D01*
X0016094Y0042731D01*
X0016245Y0042759D01*
X0016396Y0042783D01*
X0016549Y0042803D01*
X0016701Y0042819D01*
X0016854Y0042831D01*
X0017007Y0042839D01*
X0017160Y0042843D01*
X0017314Y0042843D01*
X0017467Y0042839D01*
X0017620Y0042831D01*
X0017773Y0042819D01*
X0017925Y0042803D01*
X0018078Y0042783D01*
X0018229Y0042759D01*
X0018380Y0042731D01*
X0018530Y0042700D01*
X0018679Y0042664D01*
X0018827Y0042625D01*
X0018974Y0042582D01*
X0019120Y0042535D01*
X0019265Y0042484D01*
X0019408Y0042429D01*
X0019550Y0042371D01*
X0019690Y0042309D01*
X0019829Y0042244D01*
X0019966Y0042175D01*
X0020101Y0042102D01*
X0020234Y0042026D01*
X0020365Y0041946D01*
X0020494Y0041864D01*
X0020621Y0041777D01*
X0020746Y0041688D01*
X0020868Y0041595D01*
X0020987Y0041499D01*
X0021105Y0041400D01*
X0021219Y0041299D01*
X0021331Y0041194D01*
X0021440Y0041086D01*
X0021546Y0040975D01*
X0021650Y0040862D01*
X0021750Y0040746D01*
X0021848Y0040628D01*
X0021942Y0040507D01*
X0022033Y0040384D01*
X0022121Y0040258D01*
X0022205Y0040130D01*
X0022287Y0040000D01*
X0022364Y0039868D01*
X0022439Y0039734D01*
X0022510Y0039598D01*
X0022577Y0039460D01*
X0022641Y0039320D01*
X0022701Y0039179D01*
X0022757Y0039037D01*
X0022810Y0038893D01*
X0022859Y0038747D01*
X0022904Y0038601D01*
X0022945Y0038453D01*
X0022982Y0038305D01*
X0023016Y0038155D01*
X0023046Y0038004D01*
X0023071Y0037853D01*
X0023093Y0037702D01*
X0023111Y0037549D01*
X0023125Y0037397D01*
X0023135Y0037244D01*
X0023141Y0037090D01*
X0023143Y0036937D01*
X0023141Y0036784D01*
X0023135Y0036630D01*
X0023125Y0036477D01*
X0023111Y0036325D01*
X0023093Y0036172D01*
X0023071Y0036021D01*
X0023046Y0035870D01*
X0023016Y0035719D01*
X0022982Y0035569D01*
X0022945Y0035421D01*
X0022904Y0035273D01*
X0022859Y0035127D01*
X0022810Y0034981D01*
X0022757Y0034837D01*
X0022701Y0034695D01*
X0022641Y0034554D01*
X0022577Y0034414D01*
X0022510Y0034276D01*
X0022439Y0034140D01*
X0022364Y0034006D01*
X0022287Y0033874D01*
X0022205Y0033744D01*
X0022121Y0033616D01*
X0022033Y0033490D01*
X0021942Y0033367D01*
X0021848Y0033246D01*
X0021750Y0033128D01*
X0021650Y0033012D01*
X0021546Y0032899D01*
X0021440Y0032788D01*
X0021331Y0032680D01*
X0021219Y0032575D01*
X0021105Y0032474D01*
X0020987Y0032375D01*
X0020868Y0032279D01*
X0020746Y0032186D01*
X0020621Y0032097D01*
X0020494Y0032010D01*
X0020365Y0031928D01*
X0020234Y0031848D01*
X0020101Y0031772D01*
X0019966Y0031699D01*
X0019829Y0031630D01*
X0019690Y0031565D01*
X0019550Y0031503D01*
X0019408Y0031445D01*
X0019265Y0031390D01*
X0019120Y0031339D01*
X0018974Y0031292D01*
X0018827Y0031249D01*
X0018679Y0031210D01*
X0018530Y0031174D01*
X0018380Y0031143D01*
X0018229Y0031115D01*
X0018078Y0031091D01*
X0017925Y0031071D01*
X0017773Y0031055D01*
X0017620Y0031043D01*
X0017467Y0031035D01*
X0017314Y0031031D01*
X0017160Y0031031D01*
X0017007Y0031035D01*
X0016854Y0031043D01*
X0016701Y0031055D01*
X0016549Y0031071D01*
X0016396Y0031091D01*
X0016245Y0031115D01*
X0016094Y0031143D01*
X0015944Y0031174D01*
X0015795Y0031210D01*
X0015647Y0031249D01*
X0015500Y0031292D01*
X0015354Y0031339D01*
X0015209Y0031390D01*
X0015066Y0031445D01*
X0014924Y0031503D01*
X0014784Y0031565D01*
X0014645Y0031630D01*
X0014508Y0031699D01*
X0014373Y0031772D01*
X0014240Y0031848D01*
X0014109Y0031928D01*
X0013980Y0032010D01*
X0013853Y0032097D01*
X0013728Y0032186D01*
X0013606Y0032279D01*
X0013487Y0032375D01*
X0013369Y0032474D01*
X0013255Y0032575D01*
X0013143Y0032680D01*
X0013034Y0032788D01*
X0012928Y0032899D01*
X0012824Y0033012D01*
X0012724Y0033128D01*
X0012626Y0033246D01*
X0012532Y0033367D01*
X0012441Y0033490D01*
X0012353Y0033616D01*
X0012269Y0033744D01*
X0012187Y0033874D01*
X0012110Y0034006D01*
X0012035Y0034140D01*
X0011964Y0034276D01*
X0011897Y0034414D01*
X0011833Y0034554D01*
X0011773Y0034695D01*
X0011717Y0034837D01*
X0011664Y0034981D01*
X0011615Y0035127D01*
X0011570Y0035273D01*
X0011529Y0035421D01*
X0011492Y0035569D01*
X0011458Y0035719D01*
X0011428Y0035870D01*
X0011403Y0036021D01*
X0011381Y0036172D01*
X0011363Y0036325D01*
X0011349Y0036477D01*
X0011339Y0036630D01*
X0011333Y0036784D01*
X0011331Y0036937D01*
D12*
X0105938Y0111583D03*
X0115938Y0111583D03*
X0125938Y0111583D03*
X0135938Y0111583D03*
X0145938Y0111583D03*
X0155938Y0111583D03*
X0165938Y0111583D03*
X0175938Y0111583D03*
X0185938Y0111583D03*
X0185938Y0121583D03*
X0175938Y0121583D03*
X0165938Y0121583D03*
X0155938Y0121583D03*
X0145938Y0121583D03*
X0135938Y0121583D03*
X0125938Y0121583D03*
X0115938Y0121583D03*
X0105938Y0121583D03*
X0095938Y0121583D03*
X0085938Y0121583D03*
X0075938Y0121583D03*
X0115938Y0101583D03*
X0125938Y0101583D03*
X0135938Y0101583D03*
X0145938Y0101583D03*
X0155938Y0101583D03*
X0165938Y0101583D03*
X0175938Y0101583D03*
X0185938Y0101583D03*
X0185938Y0054969D03*
X0175938Y0054969D03*
X0165938Y0054969D03*
X0155938Y0054969D03*
X0145938Y0054969D03*
X0135938Y0054969D03*
X0135938Y0044969D03*
X0145938Y0044969D03*
X0155938Y0044969D03*
X0165938Y0044969D03*
X0175938Y0044969D03*
X0185938Y0044969D03*
X0185938Y0034969D03*
X0175938Y0034969D03*
X0165938Y0034969D03*
X0155938Y0034969D03*
X0145938Y0034969D03*
X0135938Y0034969D03*
D13*
X0105938Y0101583D03*
D14*
X0101300Y0034969D03*
X0091300Y0034969D03*
X0081300Y0034969D03*
X0071300Y0034969D03*
X0061300Y0034969D03*
X0051300Y0034969D03*
X0041300Y0034969D03*
X0031300Y0034969D03*
X0111300Y0034969D03*
X0121300Y0034969D03*
D15*
X0077500Y0060900D03*
X0092500Y0068400D03*
X0092500Y0071400D03*
X0095200Y0069900D03*
X0104800Y0070200D03*
X0107500Y0071400D03*
X0107500Y0068400D03*
X0114100Y0068400D03*
X0114100Y0071400D03*
X0116800Y0069900D03*
X0126100Y0070200D03*
X0128800Y0071400D03*
X0128800Y0068400D03*
X0151300Y0072900D03*
X0156100Y0073200D03*
X0161200Y0073200D03*
X0166300Y0073200D03*
X0163600Y0084600D03*
X0123100Y0091200D03*
X0115300Y0090300D03*
X0110800Y0084600D03*
X0108100Y0094600D03*
X0100900Y0094800D03*
X0091000Y0093600D03*
X0086200Y0091800D03*
X0079600Y0098400D03*
X0083200Y0101400D03*
X0087700Y0101400D03*
X0102100Y0107400D03*
X0081616Y0114000D03*
X0067000Y0105300D03*
X0058300Y0110700D03*
X0053416Y0112200D03*
X0063100Y0118200D03*
X0048916Y0122600D03*
X0039816Y0122800D03*
X0026416Y0121500D03*
X0026416Y0111900D03*
X0036100Y0106800D03*
X0045016Y0096600D03*
X0048316Y0099900D03*
X0052816Y0095700D03*
X0050116Y0092700D03*
X0044600Y0082800D03*
X0048700Y0078200D03*
X0045400Y0077400D03*
X0045500Y0072900D03*
X0047500Y0069500D03*
X0051200Y0066700D03*
X0051900Y0060700D03*
X0050600Y0057000D03*
X0048100Y0053400D03*
X0051100Y0051900D03*
X0059163Y0049163D03*
X0062116Y0049163D03*
X0063100Y0057000D03*
X0059800Y0065100D03*
X0069600Y0071600D03*
X0069600Y0074500D03*
X0062800Y0079500D03*
X0065500Y0081500D03*
X0067600Y0090900D03*
X0075300Y0085800D03*
X0051900Y0074600D03*
X0037000Y0074700D03*
X0031300Y0078300D03*
X0027100Y0075600D03*
X0027100Y0072300D03*
X0027000Y0068700D03*
X0022416Y0067600D03*
X0022416Y0064600D03*
X0025600Y0059400D03*
X0022416Y0050600D03*
X0022416Y0047600D03*
X0022416Y0044600D03*
X0033100Y0047700D03*
X0037300Y0047700D03*
X0037800Y0061900D03*
X0022416Y0070600D03*
X0022416Y0073600D03*
X0022416Y0076600D03*
X0022416Y0079600D03*
X0022416Y0082600D03*
X0022416Y0085600D03*
X0022416Y0088600D03*
X0022416Y0091600D03*
X0022416Y0094600D03*
X0022416Y0097600D03*
X0034900Y0087300D03*
X0031600Y0083700D03*
X0027400Y0085200D03*
D16*
X0029800Y0085200D01*
X0030700Y0086100D01*
X0032800Y0086100D01*
X0034000Y0084900D01*
X0036100Y0084900D01*
X0045100Y0093900D01*
X0046900Y0093900D01*
X0058300Y0105300D01*
X0058300Y0110700D01*
X0060450Y0110806D02*
X0068796Y0110806D01*
X0068198Y0111405D02*
X0060450Y0111405D01*
X0060450Y0111591D02*
X0059191Y0112850D01*
X0057409Y0112850D01*
X0056150Y0111591D01*
X0056150Y0109809D01*
X0057100Y0108859D01*
X0057100Y0105797D01*
X0046403Y0095100D01*
X0044603Y0095100D01*
X0037050Y0087547D01*
X0037050Y0088191D01*
X0036100Y0089141D01*
X0036100Y0104650D01*
X0036991Y0104650D01*
X0038250Y0105909D01*
X0038250Y0107691D01*
X0036991Y0108950D01*
X0035209Y0108950D01*
X0033950Y0107691D01*
X0033950Y0106347D01*
X0033700Y0106097D01*
X0033700Y0089141D01*
X0032750Y0088191D01*
X0032750Y0087300D01*
X0030203Y0087300D01*
X0029500Y0086597D01*
X0029303Y0086400D01*
X0029241Y0086400D01*
X0028291Y0087350D01*
X0026509Y0087350D01*
X0025250Y0086091D01*
X0025250Y0084309D01*
X0026509Y0083050D01*
X0028291Y0083050D01*
X0029241Y0084000D01*
X0029450Y0084000D01*
X0029450Y0082809D01*
X0030709Y0081550D01*
X0032491Y0081550D01*
X0033441Y0082500D01*
X0037197Y0082500D01*
X0041697Y0087000D01*
X0073197Y0087000D01*
X0074397Y0088200D01*
X0076703Y0088200D01*
X0078400Y0086503D01*
X0079103Y0085800D01*
X0085197Y0085800D01*
X0086697Y0087300D01*
X0087400Y0088003D01*
X0087400Y0089959D01*
X0088350Y0090909D01*
X0088350Y0092691D01*
X0087091Y0093950D01*
X0085309Y0093950D01*
X0084050Y0092691D01*
X0084050Y0090909D01*
X0085000Y0089959D01*
X0085000Y0088997D01*
X0084203Y0088200D01*
X0080097Y0088200D01*
X0077697Y0090600D01*
X0073403Y0090600D01*
X0072700Y0089897D01*
X0072203Y0089400D01*
X0069141Y0089400D01*
X0069750Y0090009D01*
X0069750Y0091791D01*
X0068800Y0092741D01*
X0068800Y0104059D01*
X0069150Y0104409D01*
X0069150Y0106191D01*
X0067891Y0107450D01*
X0066109Y0107450D01*
X0064850Y0106191D01*
X0064850Y0104409D01*
X0066109Y0103150D01*
X0066400Y0103150D01*
X0066400Y0092741D01*
X0065450Y0091791D01*
X0065450Y0090009D01*
X0066059Y0089400D01*
X0042297Y0089400D01*
X0045597Y0092700D01*
X0047397Y0092700D01*
X0048100Y0093403D01*
X0058797Y0104100D01*
X0059500Y0104803D01*
X0059500Y0108859D01*
X0060450Y0109809D01*
X0060450Y0111591D01*
X0060037Y0112003D02*
X0067599Y0112003D01*
X0067001Y0112602D02*
X0059439Y0112602D01*
X0057161Y0112602D02*
X0019137Y0112602D01*
X0018670Y0112409D02*
X0021319Y0113506D01*
X0023346Y0115533D01*
X0024443Y0118181D01*
X0024443Y0121047D01*
X0023346Y0123696D01*
X0021653Y0125388D01*
X0074228Y0125388D01*
X0072038Y0123198D01*
X0072038Y0119967D01*
X0074322Y0117683D01*
X0077553Y0117683D01*
X0079838Y0119967D01*
X0079838Y0123198D01*
X0077648Y0125388D01*
X0084228Y0125388D01*
X0082038Y0123198D01*
X0082038Y0119967D01*
X0084322Y0117683D01*
X0087553Y0117683D01*
X0089838Y0119967D01*
X0089838Y0123198D01*
X0087648Y0125388D01*
X0094228Y0125388D01*
X0092038Y0123198D01*
X0092038Y0119967D01*
X0093100Y0118905D01*
X0093100Y0113721D01*
X0090379Y0111000D01*
X0080179Y0111000D01*
X0079300Y0110121D01*
X0074400Y0105221D01*
X0074400Y0101879D01*
X0075279Y0101000D01*
X0077450Y0098829D01*
X0077450Y0097509D01*
X0078709Y0096250D01*
X0080491Y0096250D01*
X0081750Y0097509D01*
X0081750Y0099291D01*
X0080491Y0100550D01*
X0079971Y0100550D01*
X0077400Y0103121D01*
X0077400Y0103979D01*
X0081421Y0108000D01*
X0091621Y0108000D01*
X0095221Y0111600D01*
X0096100Y0112479D01*
X0096100Y0117683D01*
X0097553Y0117683D01*
X0099838Y0119967D01*
X0099838Y0123198D01*
X0097648Y0125388D01*
X0103662Y0125388D01*
X0101638Y0123364D01*
X0101638Y0121883D01*
X0105638Y0121883D01*
X0105638Y0121283D01*
X0101638Y0121283D01*
X0101638Y0119802D01*
X0104157Y0117283D01*
X0105638Y0117283D01*
X0105638Y0121283D01*
X0106238Y0121283D01*
X0106238Y0121883D01*
X0110238Y0121883D01*
X0110238Y0123364D01*
X0108213Y0125388D01*
X0113662Y0125388D01*
X0111638Y0123364D01*
X0111638Y0121883D01*
X0115638Y0121883D01*
X0115638Y0121283D01*
X0111638Y0121283D01*
X0111638Y0119802D01*
X0114157Y0117283D01*
X0115638Y0117283D01*
X0115638Y0121283D01*
X0116238Y0121283D01*
X0116238Y0121883D01*
X0120238Y0121883D01*
X0120238Y0123364D01*
X0118213Y0125388D01*
X0123662Y0125388D01*
X0121638Y0123364D01*
X0121638Y0121883D01*
X0125638Y0121883D01*
X0125638Y0121283D01*
X0121638Y0121283D01*
X0121638Y0119802D01*
X0124157Y0117283D01*
X0125638Y0117283D01*
X0125638Y0121283D01*
X0126238Y0121283D01*
X0126238Y0121883D01*
X0130238Y0121883D01*
X0130238Y0123364D01*
X0128213Y0125388D01*
X0133662Y0125388D01*
X0131638Y0123364D01*
X0131638Y0121883D01*
X0135638Y0121883D01*
X0135638Y0121283D01*
X0131638Y0121283D01*
X0131638Y0119802D01*
X0134157Y0117283D01*
X0135638Y0117283D01*
X0135638Y0121283D01*
X0136238Y0121283D01*
X0136238Y0121883D01*
X0140238Y0121883D01*
X0140238Y0123364D01*
X0138213Y0125388D01*
X0143662Y0125388D01*
X0141638Y0123364D01*
X0141638Y0121883D01*
X0145638Y0121883D01*
X0145638Y0121283D01*
X0141638Y0121283D01*
X0141638Y0119802D01*
X0144157Y0117283D01*
X0145638Y0117283D01*
X0145638Y0121283D01*
X0146238Y0121283D01*
X0146238Y0121883D01*
X0150238Y0121883D01*
X0150238Y0123364D01*
X0148213Y0125388D01*
X0153662Y0125388D01*
X0151638Y0123364D01*
X0151638Y0121883D01*
X0155638Y0121883D01*
X0155638Y0121283D01*
X0151638Y0121283D01*
X0151638Y0119802D01*
X0154157Y0117283D01*
X0155638Y0117283D01*
X0155638Y0121283D01*
X0156238Y0121283D01*
X0156238Y0121883D01*
X0160238Y0121883D01*
X0160238Y0123364D01*
X0158213Y0125388D01*
X0163662Y0125388D01*
X0161638Y0123364D01*
X0161638Y0121883D01*
X0165638Y0121883D01*
X0165638Y0121283D01*
X0161638Y0121283D01*
X0161638Y0119802D01*
X0164157Y0117283D01*
X0165638Y0117283D01*
X0165638Y0121283D01*
X0166238Y0121283D01*
X0166238Y0121883D01*
X0170238Y0121883D01*
X0170238Y0123364D01*
X0168213Y0125388D01*
X0173662Y0125388D01*
X0171638Y0123364D01*
X0171638Y0121883D01*
X0175638Y0121883D01*
X0175638Y0121283D01*
X0171638Y0121283D01*
X0171638Y0119802D01*
X0174157Y0117283D01*
X0175638Y0117283D01*
X0175638Y0121283D01*
X0176238Y0121283D01*
X0176238Y0121883D01*
X0180238Y0121883D01*
X0180238Y0123364D01*
X0178213Y0125388D01*
X0183662Y0125388D01*
X0181638Y0123364D01*
X0181638Y0121883D01*
X0185638Y0121883D01*
X0185638Y0121283D01*
X0181638Y0121283D01*
X0181638Y0119802D01*
X0184157Y0117283D01*
X0185638Y0117283D01*
X0185638Y0121283D01*
X0186238Y0121283D01*
X0186238Y0121883D01*
X0190238Y0121883D01*
X0190238Y0123364D01*
X0188213Y0125388D01*
X0193923Y0125388D01*
X0192231Y0123696D01*
X0191134Y0121047D01*
X0191134Y0118181D01*
X0192231Y0115533D01*
X0194258Y0113506D01*
X0196906Y0112409D01*
X0199773Y0112409D01*
X0202421Y0113506D01*
X0204113Y0115198D01*
X0204113Y0041353D01*
X0202421Y0043046D01*
X0199773Y0044143D01*
X0196906Y0044143D01*
X0194258Y0043046D01*
X0192231Y0041019D01*
X0191134Y0038370D01*
X0191134Y0035504D01*
X0192231Y0032855D01*
X0193923Y0031163D01*
X0188213Y0031163D01*
X0190238Y0033187D01*
X0190238Y0034669D01*
X0186238Y0034669D01*
X0186238Y0035268D01*
X0190238Y0035268D01*
X0190238Y0036750D01*
X0187719Y0039268D01*
X0186238Y0039268D01*
X0186238Y0035269D01*
X0185638Y0035269D01*
X0185638Y0039268D01*
X0184157Y0039268D01*
X0181638Y0036750D01*
X0181638Y0035268D01*
X0185638Y0035268D01*
X0185638Y0034669D01*
X0181638Y0034669D01*
X0181638Y0033187D01*
X0183662Y0031163D01*
X0178213Y0031163D01*
X0180238Y0033187D01*
X0180238Y0034669D01*
X0176238Y0034669D01*
X0176238Y0035268D01*
X0180238Y0035268D01*
X0180238Y0036750D01*
X0177719Y0039268D01*
X0176238Y0039268D01*
X0176238Y0035269D01*
X0175638Y0035269D01*
X0175638Y0039268D01*
X0174157Y0039268D01*
X0171638Y0036750D01*
X0171638Y0035268D01*
X0175638Y0035268D01*
X0175638Y0034669D01*
X0171638Y0034669D01*
X0171638Y0033187D01*
X0173662Y0031163D01*
X0168213Y0031163D01*
X0170238Y0033187D01*
X0170238Y0034669D01*
X0166238Y0034669D01*
X0166238Y0035268D01*
X0170238Y0035268D01*
X0170238Y0036750D01*
X0167719Y0039268D01*
X0166238Y0039268D01*
X0166238Y0035269D01*
X0165638Y0035269D01*
X0165638Y0039268D01*
X0164157Y0039268D01*
X0161638Y0036750D01*
X0161638Y0035268D01*
X0165638Y0035268D01*
X0165638Y0034669D01*
X0161638Y0034669D01*
X0161638Y0033187D01*
X0163662Y0031163D01*
X0158213Y0031163D01*
X0160238Y0033187D01*
X0160238Y0034669D01*
X0156238Y0034669D01*
X0156238Y0035268D01*
X0160238Y0035268D01*
X0160238Y0036750D01*
X0157719Y0039268D01*
X0156238Y0039268D01*
X0156238Y0035269D01*
X0155638Y0035269D01*
X0155638Y0039268D01*
X0154157Y0039268D01*
X0151638Y0036750D01*
X0151638Y0035268D01*
X0155638Y0035268D01*
X0155638Y0034669D01*
X0151638Y0034669D01*
X0151638Y0033187D01*
X0153662Y0031163D01*
X0148213Y0031163D01*
X0150238Y0033187D01*
X0150238Y0034669D01*
X0146238Y0034669D01*
X0146238Y0035268D01*
X0150238Y0035268D01*
X0150238Y0036750D01*
X0147719Y0039268D01*
X0146238Y0039268D01*
X0146238Y0035269D01*
X0145638Y0035269D01*
X0145638Y0039268D01*
X0144157Y0039268D01*
X0141638Y0036750D01*
X0141638Y0035268D01*
X0145638Y0035268D01*
X0145638Y0034669D01*
X0141638Y0034669D01*
X0141638Y0033187D01*
X0143662Y0031163D01*
X0138213Y0031163D01*
X0140238Y0033187D01*
X0140238Y0034669D01*
X0136238Y0034669D01*
X0136238Y0035268D01*
X0140238Y0035268D01*
X0140238Y0036750D01*
X0137719Y0039268D01*
X0136238Y0039268D01*
X0136238Y0035269D01*
X0135638Y0035269D01*
X0135638Y0039268D01*
X0134157Y0039268D01*
X0131638Y0036750D01*
X0131638Y0035268D01*
X0135638Y0035268D01*
X0135638Y0034669D01*
X0131638Y0034669D01*
X0131638Y0033187D01*
X0133662Y0031163D01*
X0124000Y0031163D01*
X0125200Y0032363D01*
X0125900Y0034053D01*
X0125900Y0035884D01*
X0125200Y0037574D01*
X0123906Y0038868D01*
X0122215Y0039568D01*
X0120385Y0039568D01*
X0118694Y0038868D01*
X0117400Y0037574D01*
X0116700Y0035884D01*
X0116700Y0034053D01*
X0117400Y0032363D01*
X0118600Y0031163D01*
X0114000Y0031163D01*
X0115200Y0032363D01*
X0115900Y0034053D01*
X0115900Y0035884D01*
X0115200Y0037574D01*
X0113906Y0038868D01*
X0112215Y0039568D01*
X0110385Y0039568D01*
X0108694Y0038868D01*
X0107400Y0037574D01*
X0106700Y0035884D01*
X0106700Y0034053D01*
X0107400Y0032363D01*
X0108600Y0031163D01*
X0104000Y0031163D01*
X0105200Y0032363D01*
X0105900Y0034053D01*
X0105900Y0035884D01*
X0105200Y0037574D01*
X0103906Y0038868D01*
X0102215Y0039568D01*
X0100385Y0039568D01*
X0098694Y0038868D01*
X0097400Y0037574D01*
X0096700Y0035884D01*
X0096700Y0034053D01*
X0097400Y0032363D01*
X0098600Y0031163D01*
X0094000Y0031163D01*
X0095200Y0032363D01*
X0095900Y0034053D01*
X0095900Y0035884D01*
X0095200Y0037574D01*
X0093906Y0038868D01*
X0092215Y0039568D01*
X0090385Y0039568D01*
X0088694Y0038868D01*
X0087400Y0037574D01*
X0086700Y0035884D01*
X0086700Y0034053D01*
X0087400Y0032363D01*
X0088600Y0031163D01*
X0084000Y0031163D01*
X0085200Y0032363D01*
X0085900Y0034053D01*
X0085900Y0035884D01*
X0085200Y0037574D01*
X0083906Y0038868D01*
X0082215Y0039568D01*
X0080385Y0039568D01*
X0078694Y0038868D01*
X0077400Y0037574D01*
X0076700Y0035884D01*
X0076700Y0034053D01*
X0077400Y0032363D01*
X0078600Y0031163D01*
X0074566Y0031163D01*
X0075114Y0031711D01*
X0075576Y0032348D01*
X0075934Y0033049D01*
X0076177Y0033798D01*
X0076300Y0034575D01*
X0076300Y0034669D01*
X0071600Y0034669D01*
X0071600Y0035268D01*
X0076300Y0035268D01*
X0076300Y0035362D01*
X0076177Y0036139D01*
X0075934Y0036888D01*
X0075576Y0037589D01*
X0075114Y0038226D01*
X0074557Y0038782D01*
X0073921Y0039245D01*
X0073219Y0039602D01*
X0072471Y0039845D01*
X0071694Y0039968D01*
X0071600Y0039968D01*
X0071600Y0035269D01*
X0071000Y0035269D01*
X0071000Y0039968D01*
X0070906Y0039968D01*
X0070129Y0039845D01*
X0069381Y0039602D01*
X0068679Y0039245D01*
X0068043Y0038782D01*
X0067486Y0038226D01*
X0067024Y0037589D01*
X0066666Y0036888D01*
X0066423Y0036139D01*
X0066300Y0035362D01*
X0066300Y0035268D01*
X0071000Y0035268D01*
X0071000Y0034669D01*
X0066300Y0034669D01*
X0066300Y0034575D01*
X0066423Y0033798D01*
X0066666Y0033049D01*
X0067024Y0032348D01*
X0067486Y0031711D01*
X0068034Y0031163D01*
X0064000Y0031163D01*
X0065200Y0032363D01*
X0065900Y0034053D01*
X0065900Y0035884D01*
X0065200Y0037574D01*
X0063906Y0038868D01*
X0062215Y0039568D01*
X0060385Y0039568D01*
X0058694Y0038868D01*
X0057400Y0037574D01*
X0056700Y0035884D01*
X0056700Y0034053D01*
X0057400Y0032363D01*
X0058600Y0031163D01*
X0054000Y0031163D01*
X0055200Y0032363D01*
X0055900Y0034053D01*
X0055900Y0035884D01*
X0055200Y0037574D01*
X0053906Y0038868D01*
X0052215Y0039568D01*
X0050385Y0039568D01*
X0048694Y0038868D01*
X0047400Y0037574D01*
X0046700Y0035884D01*
X0046700Y0034053D01*
X0047400Y0032363D01*
X0048600Y0031163D01*
X0044000Y0031163D01*
X0045200Y0032363D01*
X0045900Y0034053D01*
X0045900Y0035884D01*
X0045200Y0037574D01*
X0043906Y0038868D01*
X0042215Y0039568D01*
X0040385Y0039568D01*
X0038694Y0038868D01*
X0037400Y0037574D01*
X0036700Y0035884D01*
X0036700Y0034053D01*
X0037400Y0032363D01*
X0038600Y0031163D01*
X0034566Y0031163D01*
X0035114Y0031711D01*
X0035576Y0032348D01*
X0035934Y0033049D01*
X0036177Y0033798D01*
X0036300Y0034575D01*
X0036300Y0034669D01*
X0031600Y0034669D01*
X0031600Y0035268D01*
X0036300Y0035268D01*
X0036300Y0035362D01*
X0036177Y0036139D01*
X0035934Y0036888D01*
X0035576Y0037589D01*
X0035114Y0038226D01*
X0034557Y0038782D01*
X0033921Y0039245D01*
X0033219Y0039602D01*
X0032471Y0039845D01*
X0031694Y0039968D01*
X0031600Y0039968D01*
X0031600Y0035269D01*
X0031000Y0035269D01*
X0031000Y0039968D01*
X0030906Y0039968D01*
X0030129Y0039845D01*
X0029381Y0039602D01*
X0028679Y0039245D01*
X0028043Y0038782D01*
X0027486Y0038226D01*
X0027024Y0037589D01*
X0026666Y0036888D01*
X0026423Y0036139D01*
X0026300Y0035362D01*
X0026300Y0035268D01*
X0031000Y0035268D01*
X0031000Y0034669D01*
X0026300Y0034669D01*
X0026300Y0034575D01*
X0026423Y0033798D01*
X0026666Y0033049D01*
X0027024Y0032348D01*
X0027486Y0031711D01*
X0028034Y0031163D01*
X0021653Y0031163D01*
X0023346Y0032855D01*
X0024443Y0035504D01*
X0024443Y0038370D01*
X0023346Y0041019D01*
X0021400Y0042964D01*
X0021400Y0108424D01*
X0021224Y0108600D01*
X0011463Y0108600D01*
X0011463Y0115198D01*
X0013155Y0113506D01*
X0015804Y0112409D01*
X0018670Y0112409D01*
X0020582Y0113201D02*
X0066402Y0113201D01*
X0065804Y0113799D02*
X0021612Y0113799D01*
X0022210Y0114398D02*
X0065205Y0114398D01*
X0064607Y0114996D02*
X0022809Y0114996D01*
X0023371Y0115595D02*
X0064008Y0115595D01*
X0063553Y0116050D02*
X0069700Y0109903D01*
X0069700Y0098203D01*
X0074200Y0093703D01*
X0074903Y0093000D01*
X0082797Y0093000D01*
X0085197Y0095400D01*
X0087503Y0095400D01*
X0088850Y0094053D01*
X0088850Y0092709D01*
X0090109Y0091450D01*
X0091891Y0091450D01*
X0093150Y0092709D01*
X0093150Y0094491D01*
X0091891Y0095750D01*
X0090547Y0095750D01*
X0088497Y0097800D01*
X0084203Y0097800D01*
X0083500Y0097097D01*
X0081803Y0095400D01*
X0075897Y0095400D01*
X0072100Y0099197D01*
X0072100Y0110897D01*
X0071397Y0111600D01*
X0065250Y0117747D01*
X0065250Y0119091D01*
X0063991Y0120350D01*
X0062209Y0120350D01*
X0060950Y0119091D01*
X0060950Y0117309D01*
X0062209Y0116050D01*
X0063553Y0116050D01*
X0062066Y0116193D02*
X0023619Y0116193D01*
X0023867Y0116792D02*
X0061468Y0116792D01*
X0060950Y0117390D02*
X0024115Y0117390D01*
X0024363Y0117989D02*
X0060950Y0117989D01*
X0060950Y0118587D02*
X0024443Y0118587D01*
X0024443Y0119186D02*
X0061045Y0119186D01*
X0061644Y0119784D02*
X0024443Y0119784D01*
X0024443Y0120383D02*
X0072038Y0120383D01*
X0072038Y0120981D02*
X0024443Y0120981D01*
X0024222Y0121580D02*
X0072038Y0121580D01*
X0072038Y0122178D02*
X0023974Y0122178D01*
X0023726Y0122777D02*
X0072038Y0122777D01*
X0072215Y0123375D02*
X0023478Y0123375D01*
X0023068Y0123974D02*
X0072813Y0123974D01*
X0073412Y0124572D02*
X0022469Y0124572D01*
X0021871Y0125171D02*
X0074010Y0125171D01*
X0077865Y0125171D02*
X0084010Y0125171D01*
X0083412Y0124572D02*
X0078464Y0124572D01*
X0079062Y0123974D02*
X0082813Y0123974D01*
X0082215Y0123375D02*
X0079661Y0123375D01*
X0079838Y0122777D02*
X0082038Y0122777D01*
X0082038Y0122178D02*
X0079838Y0122178D01*
X0079838Y0121580D02*
X0082038Y0121580D01*
X0082038Y0120981D02*
X0079838Y0120981D01*
X0079838Y0120383D02*
X0082038Y0120383D01*
X0082221Y0119784D02*
X0079655Y0119784D01*
X0079056Y0119186D02*
X0082819Y0119186D01*
X0083418Y0118587D02*
X0078458Y0118587D01*
X0077859Y0117989D02*
X0084016Y0117989D01*
X0087859Y0117989D02*
X0093100Y0117989D01*
X0093100Y0118587D02*
X0088458Y0118587D01*
X0089056Y0119186D02*
X0092819Y0119186D01*
X0092221Y0119784D02*
X0089655Y0119784D01*
X0089838Y0120383D02*
X0092038Y0120383D01*
X0092038Y0120981D02*
X0089838Y0120981D01*
X0089838Y0121580D02*
X0092038Y0121580D01*
X0092038Y0122178D02*
X0089838Y0122178D01*
X0089838Y0122777D02*
X0092038Y0122777D01*
X0092215Y0123375D02*
X0089661Y0123375D01*
X0089062Y0123974D02*
X0092813Y0123974D01*
X0093412Y0124572D02*
X0088464Y0124572D01*
X0087865Y0125171D02*
X0094010Y0125171D01*
X0097865Y0125171D02*
X0103445Y0125171D01*
X0102846Y0124572D02*
X0098464Y0124572D01*
X0099062Y0123974D02*
X0102248Y0123974D01*
X0101649Y0123375D02*
X0099661Y0123375D01*
X0099838Y0122777D02*
X0101638Y0122777D01*
X0101638Y0122178D02*
X0099838Y0122178D01*
X0099838Y0121580D02*
X0105638Y0121580D01*
X0105638Y0120981D02*
X0106238Y0120981D01*
X0106238Y0121283D02*
X0106238Y0117283D01*
X0107719Y0117283D01*
X0110238Y0119802D01*
X0110238Y0121283D01*
X0106238Y0121283D01*
X0106238Y0121580D02*
X0115638Y0121580D01*
X0115638Y0120981D02*
X0116238Y0120981D01*
X0116238Y0121283D02*
X0116238Y0117283D01*
X0117719Y0117283D01*
X0120238Y0119802D01*
X0120238Y0121283D01*
X0116238Y0121283D01*
X0116238Y0121580D02*
X0125638Y0121580D01*
X0125638Y0120981D02*
X0126238Y0120981D01*
X0126238Y0121283D02*
X0126238Y0117283D01*
X0127719Y0117283D01*
X0130238Y0119802D01*
X0130238Y0121283D01*
X0126238Y0121283D01*
X0126238Y0121580D02*
X0135638Y0121580D01*
X0135638Y0120981D02*
X0136238Y0120981D01*
X0136238Y0121283D02*
X0136238Y0117283D01*
X0137719Y0117283D01*
X0140238Y0119802D01*
X0140238Y0121283D01*
X0136238Y0121283D01*
X0136238Y0121580D02*
X0145638Y0121580D01*
X0145638Y0120981D02*
X0146238Y0120981D01*
X0146238Y0121283D02*
X0146238Y0117283D01*
X0147719Y0117283D01*
X0150238Y0119802D01*
X0150238Y0121283D01*
X0146238Y0121283D01*
X0146238Y0121580D02*
X0155638Y0121580D01*
X0155638Y0120981D02*
X0156238Y0120981D01*
X0156238Y0121283D02*
X0156238Y0117283D01*
X0157719Y0117283D01*
X0160238Y0119802D01*
X0160238Y0121283D01*
X0156238Y0121283D01*
X0156238Y0121580D02*
X0165638Y0121580D01*
X0165638Y0120981D02*
X0166238Y0120981D01*
X0166238Y0121283D02*
X0166238Y0117283D01*
X0167719Y0117283D01*
X0170238Y0119802D01*
X0170238Y0121283D01*
X0166238Y0121283D01*
X0166238Y0121580D02*
X0175638Y0121580D01*
X0175638Y0120981D02*
X0176238Y0120981D01*
X0176238Y0121283D02*
X0176238Y0117283D01*
X0177719Y0117283D01*
X0180238Y0119802D01*
X0180238Y0121283D01*
X0176238Y0121283D01*
X0176238Y0121580D02*
X0185638Y0121580D01*
X0185638Y0120981D02*
X0186238Y0120981D01*
X0186238Y0121283D02*
X0186238Y0117283D01*
X0187719Y0117283D01*
X0190238Y0119802D01*
X0190238Y0121283D01*
X0186238Y0121283D01*
X0186238Y0121580D02*
X0191354Y0121580D01*
X0191134Y0120981D02*
X0190238Y0120981D01*
X0190238Y0120383D02*
X0191134Y0120383D01*
X0191134Y0119784D02*
X0190220Y0119784D01*
X0189622Y0119186D02*
X0191134Y0119186D01*
X0191134Y0118587D02*
X0189023Y0118587D01*
X0188425Y0117989D02*
X0191213Y0117989D01*
X0191461Y0117390D02*
X0187826Y0117390D01*
X0186238Y0117390D02*
X0185638Y0117390D01*
X0185638Y0117989D02*
X0186238Y0117989D01*
X0186238Y0118587D02*
X0185638Y0118587D01*
X0185638Y0119186D02*
X0186238Y0119186D01*
X0186238Y0119784D02*
X0185638Y0119784D01*
X0185638Y0120383D02*
X0186238Y0120383D01*
X0182852Y0118587D02*
X0179023Y0118587D01*
X0178425Y0117989D02*
X0183451Y0117989D01*
X0184049Y0117390D02*
X0177826Y0117390D01*
X0176238Y0117390D02*
X0175638Y0117390D01*
X0175638Y0117989D02*
X0176238Y0117989D01*
X0176238Y0118587D02*
X0175638Y0118587D01*
X0175638Y0119186D02*
X0176238Y0119186D01*
X0176238Y0119784D02*
X0175638Y0119784D01*
X0175638Y0120383D02*
X0176238Y0120383D01*
X0172852Y0118587D02*
X0169023Y0118587D01*
X0168425Y0117989D02*
X0173451Y0117989D01*
X0174049Y0117390D02*
X0167826Y0117390D01*
X0166238Y0117390D02*
X0165638Y0117390D01*
X0165638Y0117989D02*
X0166238Y0117989D01*
X0166238Y0118587D02*
X0165638Y0118587D01*
X0165638Y0119186D02*
X0166238Y0119186D01*
X0166238Y0119784D02*
X0165638Y0119784D01*
X0165638Y0120383D02*
X0166238Y0120383D01*
X0169622Y0119186D02*
X0172254Y0119186D01*
X0171655Y0119784D02*
X0170220Y0119784D01*
X0170238Y0120383D02*
X0171638Y0120383D01*
X0171638Y0120981D02*
X0170238Y0120981D01*
X0170238Y0122178D02*
X0171638Y0122178D01*
X0171638Y0122777D02*
X0170238Y0122777D01*
X0170226Y0123375D02*
X0171649Y0123375D01*
X0172248Y0123974D02*
X0169628Y0123974D01*
X0169029Y0124572D02*
X0172846Y0124572D01*
X0173445Y0125171D02*
X0168431Y0125171D01*
X0163445Y0125171D02*
X0158431Y0125171D01*
X0159029Y0124572D02*
X0162846Y0124572D01*
X0162248Y0123974D02*
X0159628Y0123974D01*
X0160226Y0123375D02*
X0161649Y0123375D01*
X0161638Y0122777D02*
X0160238Y0122777D01*
X0160238Y0122178D02*
X0161638Y0122178D01*
X0161638Y0120981D02*
X0160238Y0120981D01*
X0160238Y0120383D02*
X0161638Y0120383D01*
X0161655Y0119784D02*
X0160220Y0119784D01*
X0159622Y0119186D02*
X0162254Y0119186D01*
X0162852Y0118587D02*
X0159023Y0118587D01*
X0158425Y0117989D02*
X0163451Y0117989D01*
X0164049Y0117390D02*
X0157826Y0117390D01*
X0156238Y0117390D02*
X0155638Y0117390D01*
X0155638Y0117989D02*
X0156238Y0117989D01*
X0156238Y0118587D02*
X0155638Y0118587D01*
X0155638Y0119186D02*
X0156238Y0119186D01*
X0156238Y0119784D02*
X0155638Y0119784D01*
X0155638Y0120383D02*
X0156238Y0120383D01*
X0152852Y0118587D02*
X0149023Y0118587D01*
X0148425Y0117989D02*
X0153451Y0117989D01*
X0154049Y0117390D02*
X0147826Y0117390D01*
X0146238Y0117390D02*
X0145638Y0117390D01*
X0145638Y0117989D02*
X0146238Y0117989D01*
X0146238Y0118587D02*
X0145638Y0118587D01*
X0145638Y0119186D02*
X0146238Y0119186D01*
X0146238Y0119784D02*
X0145638Y0119784D01*
X0145638Y0120383D02*
X0146238Y0120383D01*
X0149622Y0119186D02*
X0152254Y0119186D01*
X0151655Y0119784D02*
X0150220Y0119784D01*
X0150238Y0120383D02*
X0151638Y0120383D01*
X0151638Y0120981D02*
X0150238Y0120981D01*
X0150238Y0122178D02*
X0151638Y0122178D01*
X0151638Y0122777D02*
X0150238Y0122777D01*
X0150226Y0123375D02*
X0151649Y0123375D01*
X0152248Y0123974D02*
X0149628Y0123974D01*
X0149029Y0124572D02*
X0152846Y0124572D01*
X0153445Y0125171D02*
X0148431Y0125171D01*
X0143445Y0125171D02*
X0138431Y0125171D01*
X0139029Y0124572D02*
X0142846Y0124572D01*
X0142248Y0123974D02*
X0139628Y0123974D01*
X0140226Y0123375D02*
X0141649Y0123375D01*
X0141638Y0122777D02*
X0140238Y0122777D01*
X0140238Y0122178D02*
X0141638Y0122178D01*
X0141638Y0120981D02*
X0140238Y0120981D01*
X0140238Y0120383D02*
X0141638Y0120383D01*
X0141655Y0119784D02*
X0140220Y0119784D01*
X0139622Y0119186D02*
X0142254Y0119186D01*
X0142852Y0118587D02*
X0139023Y0118587D01*
X0138425Y0117989D02*
X0143451Y0117989D01*
X0144049Y0117390D02*
X0137826Y0117390D01*
X0136238Y0117390D02*
X0135638Y0117390D01*
X0135638Y0117989D02*
X0136238Y0117989D01*
X0136238Y0118587D02*
X0135638Y0118587D01*
X0135638Y0119186D02*
X0136238Y0119186D01*
X0136238Y0119784D02*
X0135638Y0119784D01*
X0135638Y0120383D02*
X0136238Y0120383D01*
X0132852Y0118587D02*
X0129023Y0118587D01*
X0128425Y0117989D02*
X0133451Y0117989D01*
X0134049Y0117390D02*
X0127826Y0117390D01*
X0126238Y0117390D02*
X0125638Y0117390D01*
X0125638Y0117989D02*
X0126238Y0117989D01*
X0126238Y0118587D02*
X0125638Y0118587D01*
X0125638Y0119186D02*
X0126238Y0119186D01*
X0126238Y0119784D02*
X0125638Y0119784D01*
X0125638Y0120383D02*
X0126238Y0120383D01*
X0122852Y0118587D02*
X0119023Y0118587D01*
X0118425Y0117989D02*
X0123451Y0117989D01*
X0124049Y0117390D02*
X0117826Y0117390D01*
X0116238Y0117390D02*
X0115638Y0117390D01*
X0115638Y0117989D02*
X0116238Y0117989D01*
X0116238Y0118587D02*
X0115638Y0118587D01*
X0115638Y0119186D02*
X0116238Y0119186D01*
X0116238Y0119784D02*
X0115638Y0119784D01*
X0115638Y0120383D02*
X0116238Y0120383D01*
X0119622Y0119186D02*
X0122254Y0119186D01*
X0121655Y0119784D02*
X0120220Y0119784D01*
X0120238Y0120383D02*
X0121638Y0120383D01*
X0121638Y0120981D02*
X0120238Y0120981D01*
X0120238Y0122178D02*
X0121638Y0122178D01*
X0121638Y0122777D02*
X0120238Y0122777D01*
X0120226Y0123375D02*
X0121649Y0123375D01*
X0122248Y0123974D02*
X0119628Y0123974D01*
X0119029Y0124572D02*
X0122846Y0124572D01*
X0123445Y0125171D02*
X0118431Y0125171D01*
X0113445Y0125171D02*
X0108431Y0125171D01*
X0109029Y0124572D02*
X0112846Y0124572D01*
X0112248Y0123974D02*
X0109628Y0123974D01*
X0110226Y0123375D02*
X0111649Y0123375D01*
X0111638Y0122777D02*
X0110238Y0122777D01*
X0110238Y0122178D02*
X0111638Y0122178D01*
X0111638Y0120981D02*
X0110238Y0120981D01*
X0110238Y0120383D02*
X0111638Y0120383D01*
X0111655Y0119784D02*
X0110220Y0119784D01*
X0109622Y0119186D02*
X0112254Y0119186D01*
X0112852Y0118587D02*
X0109023Y0118587D01*
X0108425Y0117989D02*
X0113451Y0117989D01*
X0114049Y0117390D02*
X0107826Y0117390D01*
X0106238Y0117390D02*
X0105638Y0117390D01*
X0105638Y0117989D02*
X0106238Y0117989D01*
X0106238Y0118587D02*
X0105638Y0118587D01*
X0105638Y0119186D02*
X0106238Y0119186D01*
X0106238Y0119784D02*
X0105638Y0119784D01*
X0105638Y0120383D02*
X0106238Y0120383D01*
X0102852Y0118587D02*
X0098458Y0118587D01*
X0099056Y0119186D02*
X0102254Y0119186D01*
X0101655Y0119784D02*
X0099655Y0119784D01*
X0099838Y0120383D02*
X0101638Y0120383D01*
X0101638Y0120981D02*
X0099838Y0120981D01*
X0097859Y0117989D02*
X0103451Y0117989D01*
X0104049Y0117390D02*
X0096100Y0117390D01*
X0096100Y0116792D02*
X0191709Y0116792D01*
X0191957Y0116193D02*
X0096100Y0116193D01*
X0096100Y0115595D02*
X0192205Y0115595D01*
X0192767Y0114996D02*
X0188040Y0114996D01*
X0187553Y0115483D02*
X0184322Y0115483D01*
X0182038Y0113198D01*
X0182038Y0109967D01*
X0184322Y0107683D01*
X0187553Y0107683D01*
X0189838Y0109967D01*
X0189838Y0113198D01*
X0187553Y0115483D01*
X0188638Y0114398D02*
X0193366Y0114398D01*
X0193964Y0113799D02*
X0189237Y0113799D01*
X0189835Y0113201D02*
X0194994Y0113201D01*
X0196439Y0112602D02*
X0189838Y0112602D01*
X0189838Y0112003D02*
X0204113Y0112003D01*
X0204113Y0111405D02*
X0189838Y0111405D01*
X0189838Y0110806D02*
X0204113Y0110806D01*
X0204113Y0110208D02*
X0189838Y0110208D01*
X0189480Y0109609D02*
X0204113Y0109609D01*
X0204113Y0109011D02*
X0188881Y0109011D01*
X0188283Y0108412D02*
X0204113Y0108412D01*
X0204113Y0107814D02*
X0187684Y0107814D01*
X0184191Y0107814D02*
X0177684Y0107814D01*
X0177553Y0107683D02*
X0179838Y0109967D01*
X0179838Y0113198D01*
X0177553Y0115483D01*
X0174322Y0115483D01*
X0172038Y0113198D01*
X0172038Y0109967D01*
X0174322Y0107683D01*
X0177553Y0107683D01*
X0178283Y0108412D02*
X0183593Y0108412D01*
X0182994Y0109011D02*
X0178881Y0109011D01*
X0179480Y0109609D02*
X0182396Y0109609D01*
X0182038Y0110208D02*
X0179838Y0110208D01*
X0179838Y0110806D02*
X0182038Y0110806D01*
X0182038Y0111405D02*
X0179838Y0111405D01*
X0179838Y0112003D02*
X0182038Y0112003D01*
X0182038Y0112602D02*
X0179838Y0112602D01*
X0179835Y0113201D02*
X0182040Y0113201D01*
X0182639Y0113799D02*
X0179237Y0113799D01*
X0178638Y0114398D02*
X0183237Y0114398D01*
X0183836Y0114996D02*
X0178040Y0114996D01*
X0173836Y0114996D02*
X0168040Y0114996D01*
X0167553Y0115483D02*
X0164322Y0115483D01*
X0162038Y0113198D01*
X0162038Y0109967D01*
X0164322Y0107683D01*
X0167553Y0107683D01*
X0169838Y0109967D01*
X0169838Y0113198D01*
X0167553Y0115483D01*
X0168638Y0114398D02*
X0173237Y0114398D01*
X0172639Y0113799D02*
X0169237Y0113799D01*
X0169835Y0113201D02*
X0172040Y0113201D01*
X0172038Y0112602D02*
X0169838Y0112602D01*
X0169838Y0112003D02*
X0172038Y0112003D01*
X0172038Y0111405D02*
X0169838Y0111405D01*
X0169838Y0110806D02*
X0172038Y0110806D01*
X0172038Y0110208D02*
X0169838Y0110208D01*
X0169480Y0109609D02*
X0172396Y0109609D01*
X0172994Y0109011D02*
X0168881Y0109011D01*
X0168283Y0108412D02*
X0173593Y0108412D01*
X0174191Y0107814D02*
X0167684Y0107814D01*
X0164191Y0107814D02*
X0157684Y0107814D01*
X0157553Y0107683D02*
X0159838Y0109967D01*
X0159838Y0113198D01*
X0157553Y0115483D01*
X0154322Y0115483D01*
X0152038Y0113198D01*
X0152038Y0109967D01*
X0154322Y0107683D01*
X0157553Y0107683D01*
X0158283Y0108412D02*
X0163593Y0108412D01*
X0162994Y0109011D02*
X0158881Y0109011D01*
X0159480Y0109609D02*
X0162396Y0109609D01*
X0162038Y0110208D02*
X0159838Y0110208D01*
X0159838Y0110806D02*
X0162038Y0110806D01*
X0162038Y0111405D02*
X0159838Y0111405D01*
X0159838Y0112003D02*
X0162038Y0112003D01*
X0162038Y0112602D02*
X0159838Y0112602D01*
X0159835Y0113201D02*
X0162040Y0113201D01*
X0162639Y0113799D02*
X0159237Y0113799D01*
X0158638Y0114398D02*
X0163237Y0114398D01*
X0163836Y0114996D02*
X0158040Y0114996D01*
X0153836Y0114996D02*
X0148040Y0114996D01*
X0147553Y0115483D02*
X0144322Y0115483D01*
X0142038Y0113198D01*
X0142038Y0109967D01*
X0144322Y0107683D01*
X0147553Y0107683D01*
X0149838Y0109967D01*
X0149838Y0113198D01*
X0147553Y0115483D01*
X0148638Y0114398D02*
X0153237Y0114398D01*
X0152639Y0113799D02*
X0149237Y0113799D01*
X0149835Y0113201D02*
X0152040Y0113201D01*
X0152038Y0112602D02*
X0149838Y0112602D01*
X0149838Y0112003D02*
X0152038Y0112003D01*
X0152038Y0111405D02*
X0149838Y0111405D01*
X0149838Y0110806D02*
X0152038Y0110806D01*
X0152038Y0110208D02*
X0149838Y0110208D01*
X0149480Y0109609D02*
X0152396Y0109609D01*
X0152994Y0109011D02*
X0148881Y0109011D01*
X0148283Y0108412D02*
X0153593Y0108412D01*
X0154191Y0107814D02*
X0147684Y0107814D01*
X0144191Y0107814D02*
X0137684Y0107814D01*
X0137553Y0107683D02*
X0139838Y0109967D01*
X0139838Y0113198D01*
X0137553Y0115483D01*
X0134322Y0115483D01*
X0132038Y0113198D01*
X0132038Y0109967D01*
X0134322Y0107683D01*
X0137553Y0107683D01*
X0138283Y0108412D02*
X0143593Y0108412D01*
X0142994Y0109011D02*
X0138881Y0109011D01*
X0139480Y0109609D02*
X0142396Y0109609D01*
X0142038Y0110208D02*
X0139838Y0110208D01*
X0139838Y0110806D02*
X0142038Y0110806D01*
X0142038Y0111405D02*
X0139838Y0111405D01*
X0139838Y0112003D02*
X0142038Y0112003D01*
X0142038Y0112602D02*
X0139838Y0112602D01*
X0139835Y0113201D02*
X0142040Y0113201D01*
X0142639Y0113799D02*
X0139237Y0113799D01*
X0138638Y0114398D02*
X0143237Y0114398D01*
X0143836Y0114996D02*
X0138040Y0114996D01*
X0133836Y0114996D02*
X0128040Y0114996D01*
X0127553Y0115483D02*
X0124322Y0115483D01*
X0122038Y0113198D01*
X0122038Y0109967D01*
X0124322Y0107683D01*
X0127553Y0107683D01*
X0129838Y0109967D01*
X0129838Y0113198D01*
X0127553Y0115483D01*
X0128638Y0114398D02*
X0133237Y0114398D01*
X0132639Y0113799D02*
X0129237Y0113799D01*
X0129835Y0113201D02*
X0132040Y0113201D01*
X0132038Y0112602D02*
X0129838Y0112602D01*
X0129838Y0112003D02*
X0132038Y0112003D01*
X0132038Y0111405D02*
X0129838Y0111405D01*
X0129838Y0110806D02*
X0132038Y0110806D01*
X0132038Y0110208D02*
X0129838Y0110208D01*
X0129480Y0109609D02*
X0132396Y0109609D01*
X0132994Y0109011D02*
X0128881Y0109011D01*
X0128283Y0108412D02*
X0133593Y0108412D01*
X0134191Y0107814D02*
X0127684Y0107814D01*
X0127553Y0105483D02*
X0124322Y0105483D01*
X0122038Y0103198D01*
X0122038Y0099967D01*
X0124322Y0097683D01*
X0127553Y0097683D01*
X0129838Y0099967D01*
X0129838Y0103198D01*
X0127553Y0105483D01*
X0127616Y0105420D02*
X0134260Y0105420D01*
X0134322Y0105483D02*
X0132038Y0103198D01*
X0132038Y0099967D01*
X0134322Y0097683D01*
X0137553Y0097683D01*
X0139838Y0099967D01*
X0139838Y0103198D01*
X0137553Y0105483D01*
X0134322Y0105483D01*
X0133661Y0104821D02*
X0128215Y0104821D01*
X0128813Y0104223D02*
X0133063Y0104223D01*
X0132464Y0103624D02*
X0129412Y0103624D01*
X0129838Y0103026D02*
X0132038Y0103026D01*
X0132038Y0102427D02*
X0129838Y0102427D01*
X0129838Y0101829D02*
X0132038Y0101829D01*
X0132038Y0101230D02*
X0129838Y0101230D01*
X0129838Y0100632D02*
X0132038Y0100632D01*
X0132038Y0100033D02*
X0129838Y0100033D01*
X0129305Y0099435D02*
X0132570Y0099435D01*
X0133169Y0098836D02*
X0128707Y0098836D01*
X0128108Y0098238D02*
X0133767Y0098238D01*
X0138108Y0098238D02*
X0143767Y0098238D01*
X0144322Y0097683D02*
X0147553Y0097683D01*
X0149838Y0099967D01*
X0149838Y0103198D01*
X0147553Y0105483D01*
X0144322Y0105483D01*
X0142038Y0103198D01*
X0142038Y0099967D01*
X0144322Y0097683D01*
X0143169Y0098836D02*
X0138707Y0098836D01*
X0139305Y0099435D02*
X0142570Y0099435D01*
X0142038Y0100033D02*
X0139838Y0100033D01*
X0139838Y0100632D02*
X0142038Y0100632D01*
X0142038Y0101230D02*
X0139838Y0101230D01*
X0139838Y0101829D02*
X0142038Y0101829D01*
X0142038Y0102427D02*
X0139838Y0102427D01*
X0139838Y0103026D02*
X0142038Y0103026D01*
X0142464Y0103624D02*
X0139412Y0103624D01*
X0138813Y0104223D02*
X0143063Y0104223D01*
X0143661Y0104821D02*
X0138215Y0104821D01*
X0137616Y0105420D02*
X0144260Y0105420D01*
X0147616Y0105420D02*
X0154260Y0105420D01*
X0154322Y0105483D02*
X0152038Y0103198D01*
X0152038Y0099967D01*
X0154322Y0097683D01*
X0154738Y0097683D01*
X0154738Y0091765D01*
X0161450Y0085053D01*
X0161450Y0083709D01*
X0162709Y0082450D01*
X0164491Y0082450D01*
X0165750Y0083709D01*
X0165750Y0085491D01*
X0164491Y0086750D01*
X0163147Y0086750D01*
X0157138Y0092759D01*
X0157138Y0097683D01*
X0157553Y0097683D01*
X0159838Y0099967D01*
X0159838Y0103198D01*
X0157553Y0105483D01*
X0154322Y0105483D01*
X0153661Y0104821D02*
X0148215Y0104821D01*
X0148813Y0104223D02*
X0153063Y0104223D01*
X0152464Y0103624D02*
X0149412Y0103624D01*
X0149838Y0103026D02*
X0152038Y0103026D01*
X0152038Y0102427D02*
X0149838Y0102427D01*
X0149838Y0101829D02*
X0152038Y0101829D01*
X0152038Y0101230D02*
X0149838Y0101230D01*
X0149838Y0100632D02*
X0152038Y0100632D01*
X0152038Y0100033D02*
X0149838Y0100033D01*
X0149305Y0099435D02*
X0152570Y0099435D01*
X0153169Y0098836D02*
X0148707Y0098836D01*
X0148108Y0098238D02*
X0153767Y0098238D01*
X0154738Y0097639D02*
X0088658Y0097639D01*
X0089256Y0097041D02*
X0111044Y0097041D01*
X0110800Y0096797D02*
X0110800Y0096797D01*
X0109872Y0095869D01*
X0108991Y0096750D01*
X0107209Y0096750D01*
X0105950Y0095491D01*
X0105950Y0093709D01*
X0107209Y0092450D01*
X0108991Y0092450D01*
X0109941Y0093400D01*
X0110797Y0093400D01*
X0111500Y0094103D01*
X0112497Y0095100D01*
X0117503Y0095100D01*
X0120950Y0091653D01*
X0120950Y0090309D01*
X0122209Y0089050D01*
X0123991Y0089050D01*
X0125250Y0090309D01*
X0125250Y0092091D01*
X0123991Y0093350D01*
X0122647Y0093350D01*
X0118497Y0097500D01*
X0111503Y0097500D01*
X0110800Y0096797D01*
X0110445Y0096442D02*
X0109298Y0096442D01*
X0110300Y0094600D02*
X0108100Y0094600D01*
X0105950Y0094647D02*
X0103050Y0094647D01*
X0103050Y0095245D02*
X0105950Y0095245D01*
X0106303Y0095844D02*
X0102897Y0095844D01*
X0103050Y0095691D02*
X0101791Y0096950D01*
X0100009Y0096950D01*
X0098750Y0095691D01*
X0098750Y0093909D01*
X0099400Y0093259D01*
X0099400Y0084921D01*
X0077529Y0063050D01*
X0076609Y0063050D01*
X0075350Y0061791D01*
X0075350Y0060009D01*
X0076609Y0058750D01*
X0078391Y0058750D01*
X0079650Y0060009D01*
X0079650Y0060929D01*
X0101521Y0082800D01*
X0102400Y0083679D01*
X0102400Y0093259D01*
X0103050Y0093909D01*
X0103050Y0095691D01*
X0102298Y0096442D02*
X0106902Y0096442D01*
X0106714Y0097683D02*
X0108147Y0098276D01*
X0109244Y0099373D01*
X0109838Y0100807D01*
X0109838Y0102358D01*
X0109244Y0103792D01*
X0108147Y0104889D01*
X0106714Y0105483D01*
X0105714Y0105483D01*
X0104250Y0106947D01*
X0104250Y0107755D01*
X0104322Y0107683D01*
X0107553Y0107683D01*
X0109838Y0109967D01*
X0109838Y0113198D01*
X0107553Y0115483D01*
X0104322Y0115483D01*
X0102038Y0113198D01*
X0102038Y0109967D01*
X0102455Y0109550D01*
X0101209Y0109550D01*
X0099950Y0108291D01*
X0099950Y0106509D01*
X0101209Y0105250D01*
X0102553Y0105250D01*
X0103321Y0104482D01*
X0102632Y0103792D01*
X0102038Y0102358D01*
X0102038Y0100807D01*
X0102632Y0099373D01*
X0103729Y0098276D01*
X0105162Y0097683D01*
X0106714Y0097683D01*
X0108054Y0098238D02*
X0113767Y0098238D01*
X0114322Y0097683D02*
X0117553Y0097683D01*
X0119838Y0099967D01*
X0119838Y0103198D01*
X0117553Y0105483D01*
X0114322Y0105483D01*
X0112038Y0103198D01*
X0112038Y0099967D01*
X0114322Y0097683D01*
X0113169Y0098836D02*
X0108707Y0098836D01*
X0109269Y0099435D02*
X0112570Y0099435D01*
X0112038Y0100033D02*
X0109517Y0100033D01*
X0109765Y0100632D02*
X0112038Y0100632D01*
X0112038Y0101230D02*
X0109838Y0101230D01*
X0109838Y0101829D02*
X0112038Y0101829D01*
X0112038Y0102427D02*
X0109809Y0102427D01*
X0109561Y0103026D02*
X0112038Y0103026D01*
X0112464Y0103624D02*
X0109313Y0103624D01*
X0108813Y0104223D02*
X0113063Y0104223D01*
X0113661Y0104821D02*
X0108215Y0104821D01*
X0106865Y0105420D02*
X0114260Y0105420D01*
X0117616Y0105420D02*
X0124260Y0105420D01*
X0123661Y0104821D02*
X0118215Y0104821D01*
X0118813Y0104223D02*
X0123063Y0104223D01*
X0122464Y0103624D02*
X0119412Y0103624D01*
X0119838Y0103026D02*
X0122038Y0103026D01*
X0122038Y0102427D02*
X0119838Y0102427D01*
X0119838Y0101829D02*
X0122038Y0101829D01*
X0122038Y0101230D02*
X0119838Y0101230D01*
X0119838Y0100632D02*
X0122038Y0100632D01*
X0122038Y0100033D02*
X0119838Y0100033D01*
X0119305Y0099435D02*
X0122570Y0099435D01*
X0123169Y0098836D02*
X0118707Y0098836D01*
X0118108Y0098238D02*
X0123767Y0098238D01*
X0120752Y0095245D02*
X0154738Y0095245D01*
X0154738Y0094647D02*
X0121350Y0094647D01*
X0121949Y0094048D02*
X0154738Y0094048D01*
X0154738Y0093450D02*
X0122547Y0093450D01*
X0124489Y0092851D02*
X0154738Y0092851D01*
X0154738Y0092253D02*
X0125088Y0092253D01*
X0125250Y0091654D02*
X0154849Y0091654D01*
X0155447Y0091056D02*
X0125250Y0091056D01*
X0125250Y0090457D02*
X0156046Y0090457D01*
X0156644Y0089859D02*
X0124799Y0089859D01*
X0124201Y0089260D02*
X0157243Y0089260D01*
X0157841Y0088662D02*
X0116702Y0088662D01*
X0116191Y0088150D02*
X0117450Y0089409D01*
X0117450Y0091191D01*
X0116191Y0092450D01*
X0114409Y0092450D01*
X0113150Y0091191D01*
X0113150Y0089847D01*
X0110053Y0086750D01*
X0109909Y0086750D01*
X0108650Y0085491D01*
X0108650Y0083709D01*
X0109909Y0082450D01*
X0111691Y0082450D01*
X0112950Y0083709D01*
X0112950Y0085491D01*
X0112569Y0085872D01*
X0114847Y0088150D01*
X0116191Y0088150D01*
X0114760Y0088063D02*
X0158440Y0088063D01*
X0159038Y0087465D02*
X0114162Y0087465D01*
X0113563Y0086866D02*
X0159637Y0086866D01*
X0160235Y0086268D02*
X0112965Y0086268D01*
X0112772Y0085669D02*
X0160834Y0085669D01*
X0161432Y0085070D02*
X0112950Y0085070D01*
X0112950Y0084472D02*
X0161450Y0084472D01*
X0161450Y0083873D02*
X0112950Y0083873D01*
X0112516Y0083275D02*
X0161884Y0083275D01*
X0162483Y0082676D02*
X0111917Y0082676D01*
X0109683Y0082676D02*
X0101398Y0082676D01*
X0100799Y0082078D02*
X0204113Y0082078D01*
X0204113Y0082676D02*
X0164717Y0082676D01*
X0165316Y0083275D02*
X0204113Y0083275D01*
X0204113Y0083873D02*
X0165750Y0083873D01*
X0165750Y0084472D02*
X0204113Y0084472D01*
X0204113Y0085070D02*
X0165750Y0085070D01*
X0165572Y0085669D02*
X0204113Y0085669D01*
X0204113Y0086268D02*
X0164973Y0086268D01*
X0163031Y0086866D02*
X0204113Y0086866D01*
X0204113Y0087465D02*
X0162433Y0087465D01*
X0161834Y0088063D02*
X0204113Y0088063D01*
X0204113Y0088662D02*
X0161235Y0088662D01*
X0160637Y0089260D02*
X0204113Y0089260D01*
X0204113Y0089859D02*
X0160038Y0089859D01*
X0159440Y0090457D02*
X0204113Y0090457D01*
X0204113Y0091056D02*
X0158841Y0091056D01*
X0158243Y0091654D02*
X0204113Y0091654D01*
X0204113Y0092253D02*
X0157644Y0092253D01*
X0157138Y0092851D02*
X0204113Y0092851D01*
X0204113Y0093450D02*
X0157138Y0093450D01*
X0157138Y0094048D02*
X0204113Y0094048D01*
X0204113Y0094647D02*
X0157138Y0094647D01*
X0157138Y0095245D02*
X0204113Y0095245D01*
X0204113Y0095844D02*
X0157138Y0095844D01*
X0157138Y0096442D02*
X0204113Y0096442D01*
X0204113Y0097041D02*
X0157138Y0097041D01*
X0157138Y0097639D02*
X0204113Y0097639D01*
X0204113Y0098238D02*
X0188108Y0098238D01*
X0187553Y0097683D02*
X0189838Y0099967D01*
X0189838Y0103198D01*
X0187553Y0105483D01*
X0184322Y0105483D01*
X0182038Y0103198D01*
X0182038Y0099967D01*
X0184322Y0097683D01*
X0187553Y0097683D01*
X0188707Y0098836D02*
X0204113Y0098836D01*
X0204113Y0099435D02*
X0189305Y0099435D01*
X0189838Y0100033D02*
X0204113Y0100033D01*
X0204113Y0100632D02*
X0189838Y0100632D01*
X0189838Y0101230D02*
X0204113Y0101230D01*
X0204113Y0101829D02*
X0189838Y0101829D01*
X0189838Y0102427D02*
X0204113Y0102427D01*
X0204113Y0103026D02*
X0189838Y0103026D01*
X0189412Y0103624D02*
X0204113Y0103624D01*
X0204113Y0104223D02*
X0188813Y0104223D01*
X0188215Y0104821D02*
X0204113Y0104821D01*
X0204113Y0105420D02*
X0187616Y0105420D01*
X0184260Y0105420D02*
X0177616Y0105420D01*
X0177553Y0105483D02*
X0174322Y0105483D01*
X0172038Y0103198D01*
X0172038Y0099967D01*
X0174322Y0097683D01*
X0177553Y0097683D01*
X0179838Y0099967D01*
X0179838Y0103198D01*
X0177553Y0105483D01*
X0178215Y0104821D02*
X0183661Y0104821D01*
X0183063Y0104223D02*
X0178813Y0104223D01*
X0179412Y0103624D02*
X0182464Y0103624D01*
X0182038Y0103026D02*
X0179838Y0103026D01*
X0179838Y0102427D02*
X0182038Y0102427D01*
X0182038Y0101829D02*
X0179838Y0101829D01*
X0179838Y0101230D02*
X0182038Y0101230D01*
X0182038Y0100632D02*
X0179838Y0100632D01*
X0179838Y0100033D02*
X0182038Y0100033D01*
X0182570Y0099435D02*
X0179305Y0099435D01*
X0178707Y0098836D02*
X0183169Y0098836D01*
X0183767Y0098238D02*
X0178108Y0098238D01*
X0173767Y0098238D02*
X0168108Y0098238D01*
X0167553Y0097683D02*
X0169838Y0099967D01*
X0169838Y0103198D01*
X0167553Y0105483D01*
X0164322Y0105483D01*
X0162038Y0103198D01*
X0162038Y0099967D01*
X0164322Y0097683D01*
X0167553Y0097683D01*
X0168707Y0098836D02*
X0173169Y0098836D01*
X0172570Y0099435D02*
X0169305Y0099435D01*
X0169838Y0100033D02*
X0172038Y0100033D01*
X0172038Y0100632D02*
X0169838Y0100632D01*
X0169838Y0101230D02*
X0172038Y0101230D01*
X0172038Y0101829D02*
X0169838Y0101829D01*
X0169838Y0102427D02*
X0172038Y0102427D01*
X0172038Y0103026D02*
X0169838Y0103026D01*
X0169412Y0103624D02*
X0172464Y0103624D01*
X0173063Y0104223D02*
X0168813Y0104223D01*
X0168215Y0104821D02*
X0173661Y0104821D01*
X0174260Y0105420D02*
X0167616Y0105420D01*
X0164260Y0105420D02*
X0157616Y0105420D01*
X0158215Y0104821D02*
X0163661Y0104821D01*
X0163063Y0104223D02*
X0158813Y0104223D01*
X0159412Y0103624D02*
X0162464Y0103624D01*
X0162038Y0103026D02*
X0159838Y0103026D01*
X0159838Y0102427D02*
X0162038Y0102427D01*
X0162038Y0101829D02*
X0159838Y0101829D01*
X0159838Y0101230D02*
X0162038Y0101230D01*
X0162038Y0100632D02*
X0159838Y0100632D01*
X0159838Y0100033D02*
X0162038Y0100033D01*
X0162570Y0099435D02*
X0159305Y0099435D01*
X0158707Y0098836D02*
X0163169Y0098836D01*
X0163767Y0098238D02*
X0158108Y0098238D01*
X0154738Y0097041D02*
X0118956Y0097041D01*
X0119555Y0096442D02*
X0154738Y0096442D01*
X0154738Y0095844D02*
X0120153Y0095844D01*
X0118000Y0096300D02*
X0123100Y0091200D01*
X0120950Y0091056D02*
X0117450Y0091056D01*
X0117450Y0090457D02*
X0120950Y0090457D01*
X0121401Y0089859D02*
X0117450Y0089859D01*
X0117301Y0089260D02*
X0121999Y0089260D01*
X0120949Y0091654D02*
X0116986Y0091654D01*
X0116388Y0092253D02*
X0120350Y0092253D01*
X0119752Y0092851D02*
X0109392Y0092851D01*
X0110847Y0093450D02*
X0119153Y0093450D01*
X0118555Y0094048D02*
X0111445Y0094048D01*
X0111500Y0094103D02*
X0111500Y0094103D01*
X0112044Y0094647D02*
X0117956Y0094647D01*
X0118000Y0096300D02*
X0112000Y0096300D01*
X0110300Y0094600D01*
X0106808Y0092851D02*
X0102400Y0092851D01*
X0102400Y0092253D02*
X0114212Y0092253D01*
X0113614Y0091654D02*
X0102400Y0091654D01*
X0102400Y0091056D02*
X0113150Y0091056D01*
X0113150Y0090457D02*
X0102400Y0090457D01*
X0102400Y0089859D02*
X0113150Y0089859D01*
X0112563Y0089260D02*
X0102400Y0089260D01*
X0102400Y0088662D02*
X0111965Y0088662D01*
X0111366Y0088063D02*
X0102400Y0088063D01*
X0102400Y0087465D02*
X0110767Y0087465D01*
X0110169Y0086866D02*
X0102400Y0086866D01*
X0102400Y0086268D02*
X0109427Y0086268D01*
X0108828Y0085669D02*
X0102400Y0085669D01*
X0102400Y0085070D02*
X0108650Y0085070D01*
X0108650Y0084472D02*
X0102400Y0084472D01*
X0102400Y0083873D02*
X0108650Y0083873D01*
X0109084Y0083275D02*
X0101996Y0083275D01*
X0100201Y0081479D02*
X0204113Y0081479D01*
X0204113Y0080881D02*
X0099602Y0080881D01*
X0099004Y0080282D02*
X0204113Y0080282D01*
X0204113Y0079684D02*
X0098405Y0079684D01*
X0097807Y0079085D02*
X0204113Y0079085D01*
X0204113Y0078487D02*
X0097208Y0078487D01*
X0096610Y0077888D02*
X0204113Y0077888D01*
X0204113Y0077290D02*
X0096011Y0077290D01*
X0095413Y0076691D02*
X0204113Y0076691D01*
X0204113Y0076093D02*
X0094814Y0076093D01*
X0094216Y0075494D02*
X0204113Y0075494D01*
X0204113Y0074896D02*
X0167645Y0074896D01*
X0167191Y0075350D02*
X0165409Y0075350D01*
X0164150Y0074091D01*
X0164150Y0072747D01*
X0162400Y0070997D01*
X0162400Y0071359D01*
X0163350Y0072309D01*
X0163350Y0074091D01*
X0162091Y0075350D01*
X0160309Y0075350D01*
X0159050Y0074091D01*
X0159050Y0072309D01*
X0160000Y0071359D01*
X0160000Y0070397D01*
X0156503Y0066900D01*
X0155800Y0066197D01*
X0155800Y0059897D01*
X0155441Y0059538D01*
X0154771Y0058868D01*
X0154322Y0058868D01*
X0152038Y0056584D01*
X0152038Y0053353D01*
X0154322Y0051069D01*
X0157553Y0051069D01*
X0159838Y0053353D01*
X0159838Y0055765D01*
X0161131Y0054471D01*
X0161834Y0053769D01*
X0162038Y0053769D01*
X0162038Y0053353D01*
X0164322Y0051069D01*
X0167553Y0051069D01*
X0169838Y0053353D01*
X0169838Y0056584D01*
X0167553Y0058868D01*
X0164322Y0058868D01*
X0162225Y0056772D01*
X0159400Y0059597D01*
X0159400Y0064603D01*
X0165847Y0071050D01*
X0167191Y0071050D01*
X0168450Y0072309D01*
X0168450Y0074091D01*
X0167191Y0075350D01*
X0168243Y0074297D02*
X0204113Y0074297D01*
X0204113Y0073699D02*
X0168450Y0073699D01*
X0168450Y0073100D02*
X0204113Y0073100D01*
X0204113Y0072502D02*
X0168450Y0072502D01*
X0168044Y0071903D02*
X0204113Y0071903D01*
X0204113Y0071305D02*
X0167445Y0071305D01*
X0165503Y0070706D02*
X0204113Y0070706D01*
X0204113Y0070108D02*
X0164905Y0070108D01*
X0164306Y0069509D02*
X0204113Y0069509D01*
X0204113Y0068911D02*
X0163708Y0068911D01*
X0163109Y0068312D02*
X0204113Y0068312D01*
X0204113Y0067714D02*
X0162511Y0067714D01*
X0161912Y0067115D02*
X0204113Y0067115D01*
X0204113Y0066517D02*
X0161314Y0066517D01*
X0160715Y0065918D02*
X0204113Y0065918D01*
X0204113Y0065320D02*
X0160117Y0065320D01*
X0159518Y0064721D02*
X0204113Y0064721D01*
X0204113Y0064123D02*
X0159400Y0064123D01*
X0159400Y0063524D02*
X0204113Y0063524D01*
X0204113Y0062926D02*
X0159400Y0062926D01*
X0159400Y0062327D02*
X0204113Y0062327D01*
X0204113Y0061729D02*
X0159400Y0061729D01*
X0159400Y0061130D02*
X0204113Y0061130D01*
X0204113Y0060532D02*
X0159400Y0060532D01*
X0159400Y0059933D02*
X0204113Y0059933D01*
X0204113Y0059334D02*
X0159663Y0059334D01*
X0160261Y0058736D02*
X0164190Y0058736D01*
X0163591Y0058137D02*
X0160860Y0058137D01*
X0161458Y0057539D02*
X0162993Y0057539D01*
X0162394Y0056940D02*
X0162057Y0056940D01*
X0159860Y0055743D02*
X0159838Y0055743D01*
X0159838Y0055145D02*
X0160458Y0055145D01*
X0161057Y0054546D02*
X0159838Y0054546D01*
X0159838Y0053948D02*
X0161655Y0053948D01*
X0162041Y0053349D02*
X0159834Y0053349D01*
X0159236Y0052751D02*
X0162640Y0052751D01*
X0163239Y0052152D02*
X0158637Y0052152D01*
X0158039Y0051554D02*
X0163837Y0051554D01*
X0164322Y0048868D02*
X0162038Y0046584D01*
X0162038Y0043353D01*
X0164322Y0041069D01*
X0167553Y0041069D01*
X0169838Y0043353D01*
X0169838Y0046584D01*
X0167553Y0048868D01*
X0164322Y0048868D01*
X0164015Y0048561D02*
X0157860Y0048561D01*
X0157553Y0048868D02*
X0154322Y0048868D01*
X0152038Y0046584D01*
X0152038Y0043353D01*
X0154322Y0041069D01*
X0157553Y0041069D01*
X0159838Y0043353D01*
X0159838Y0046584D01*
X0157553Y0048868D01*
X0158459Y0047963D02*
X0163417Y0047963D01*
X0162818Y0047364D02*
X0159057Y0047364D01*
X0159656Y0046766D02*
X0162220Y0046766D01*
X0162038Y0046167D02*
X0159838Y0046167D01*
X0159838Y0045569D02*
X0162038Y0045569D01*
X0162038Y0044970D02*
X0159838Y0044970D01*
X0159838Y0044372D02*
X0162038Y0044372D01*
X0162038Y0043773D02*
X0159838Y0043773D01*
X0159659Y0043175D02*
X0162216Y0043175D01*
X0162815Y0042576D02*
X0159061Y0042576D01*
X0158462Y0041978D02*
X0163413Y0041978D01*
X0164012Y0041379D02*
X0157864Y0041379D01*
X0158002Y0038985D02*
X0163873Y0038985D01*
X0163275Y0038387D02*
X0158601Y0038387D01*
X0159199Y0037788D02*
X0162676Y0037788D01*
X0162078Y0037190D02*
X0159798Y0037190D01*
X0160238Y0036591D02*
X0161638Y0036591D01*
X0161638Y0035993D02*
X0160238Y0035993D01*
X0160238Y0035394D02*
X0161638Y0035394D01*
X0161638Y0034197D02*
X0160238Y0034197D01*
X0160238Y0033599D02*
X0161638Y0033599D01*
X0161825Y0033000D02*
X0160050Y0033000D01*
X0159452Y0032401D02*
X0162424Y0032401D01*
X0163022Y0031803D02*
X0158853Y0031803D01*
X0158255Y0031204D02*
X0163621Y0031204D01*
X0165638Y0034796D02*
X0156238Y0034796D01*
X0156238Y0035394D02*
X0155638Y0035394D01*
X0155638Y0034796D02*
X0146238Y0034796D01*
X0146238Y0035394D02*
X0145638Y0035394D01*
X0145638Y0034796D02*
X0136238Y0034796D01*
X0136238Y0035394D02*
X0135638Y0035394D01*
X0135638Y0034796D02*
X0125900Y0034796D01*
X0125900Y0035394D02*
X0131638Y0035394D01*
X0131638Y0035993D02*
X0125855Y0035993D01*
X0125607Y0036591D02*
X0131638Y0036591D01*
X0132078Y0037190D02*
X0125359Y0037190D01*
X0124986Y0037788D02*
X0132676Y0037788D01*
X0133275Y0038387D02*
X0124387Y0038387D01*
X0123623Y0038985D02*
X0133873Y0038985D01*
X0135638Y0038985D02*
X0136238Y0038985D01*
X0136238Y0038387D02*
X0135638Y0038387D01*
X0135638Y0037788D02*
X0136238Y0037788D01*
X0136238Y0037190D02*
X0135638Y0037190D01*
X0135638Y0036591D02*
X0136238Y0036591D01*
X0136238Y0035993D02*
X0135638Y0035993D01*
X0138601Y0038387D02*
X0143275Y0038387D01*
X0143873Y0038985D02*
X0138002Y0038985D01*
X0139199Y0037788D02*
X0142676Y0037788D01*
X0142078Y0037190D02*
X0139798Y0037190D01*
X0140238Y0036591D02*
X0141638Y0036591D01*
X0141638Y0035993D02*
X0140238Y0035993D01*
X0140238Y0035394D02*
X0141638Y0035394D01*
X0141638Y0034197D02*
X0140238Y0034197D01*
X0140238Y0033599D02*
X0141638Y0033599D01*
X0141825Y0033000D02*
X0140050Y0033000D01*
X0139452Y0032401D02*
X0142424Y0032401D01*
X0143022Y0031803D02*
X0138853Y0031803D01*
X0138255Y0031204D02*
X0143621Y0031204D01*
X0148255Y0031204D02*
X0153621Y0031204D01*
X0153022Y0031803D02*
X0148853Y0031803D01*
X0149452Y0032401D02*
X0152424Y0032401D01*
X0151825Y0033000D02*
X0150050Y0033000D01*
X0150238Y0033599D02*
X0151638Y0033599D01*
X0151638Y0034197D02*
X0150238Y0034197D01*
X0150238Y0035394D02*
X0151638Y0035394D01*
X0151638Y0035993D02*
X0150238Y0035993D01*
X0150238Y0036591D02*
X0151638Y0036591D01*
X0152078Y0037190D02*
X0149798Y0037190D01*
X0149199Y0037788D02*
X0152676Y0037788D01*
X0153275Y0038387D02*
X0148601Y0038387D01*
X0148002Y0038985D02*
X0153873Y0038985D01*
X0155638Y0038985D02*
X0156238Y0038985D01*
X0156238Y0038387D02*
X0155638Y0038387D01*
X0155638Y0037788D02*
X0156238Y0037788D01*
X0156238Y0037190D02*
X0155638Y0037190D01*
X0155638Y0036591D02*
X0156238Y0036591D01*
X0156238Y0035993D02*
X0155638Y0035993D01*
X0154012Y0041379D02*
X0147864Y0041379D01*
X0147553Y0041069D02*
X0149838Y0043353D01*
X0149838Y0046584D01*
X0147553Y0048868D01*
X0144322Y0048868D01*
X0142038Y0046584D01*
X0142038Y0043353D01*
X0144322Y0041069D01*
X0147553Y0041069D01*
X0148462Y0041978D02*
X0153413Y0041978D01*
X0152815Y0042576D02*
X0149061Y0042576D01*
X0149659Y0043175D02*
X0152216Y0043175D01*
X0152038Y0043773D02*
X0149838Y0043773D01*
X0149838Y0044372D02*
X0152038Y0044372D01*
X0152038Y0044970D02*
X0149838Y0044970D01*
X0149838Y0045569D02*
X0152038Y0045569D01*
X0152038Y0046167D02*
X0149838Y0046167D01*
X0149656Y0046766D02*
X0152220Y0046766D01*
X0152818Y0047364D02*
X0149057Y0047364D01*
X0148459Y0047963D02*
X0153417Y0047963D01*
X0154015Y0048561D02*
X0147860Y0048561D01*
X0147553Y0051069D02*
X0144322Y0051069D01*
X0142038Y0053353D01*
X0142038Y0056584D01*
X0143654Y0058200D01*
X0140866Y0058200D01*
X0139544Y0056878D01*
X0139838Y0056584D01*
X0139838Y0053353D01*
X0137553Y0051069D01*
X0134322Y0051069D01*
X0132038Y0053353D01*
X0132038Y0056584D01*
X0134322Y0058868D01*
X0137553Y0058868D01*
X0137847Y0058575D01*
X0139872Y0060600D01*
X0144803Y0060600D01*
X0146200Y0061997D01*
X0146200Y0064997D01*
X0150100Y0068897D01*
X0150100Y0071059D01*
X0149150Y0072009D01*
X0149150Y0073791D01*
X0150409Y0075050D01*
X0152191Y0075050D01*
X0153450Y0073791D01*
X0153450Y0072009D01*
X0152500Y0071059D01*
X0152500Y0069497D01*
X0154631Y0071628D01*
X0153950Y0072309D01*
X0153950Y0074091D01*
X0155209Y0075350D01*
X0156991Y0075350D01*
X0158250Y0074091D01*
X0158250Y0072309D01*
X0157300Y0071359D01*
X0157300Y0070903D01*
X0156597Y0070200D01*
X0150100Y0063703D01*
X0150100Y0057434D01*
X0149544Y0056878D01*
X0149838Y0056584D01*
X0149838Y0053353D01*
X0147553Y0051069D01*
X0148039Y0051554D02*
X0153837Y0051554D01*
X0153239Y0052152D02*
X0148637Y0052152D01*
X0149236Y0052751D02*
X0152640Y0052751D01*
X0152041Y0053349D02*
X0149834Y0053349D01*
X0149838Y0053948D02*
X0152038Y0053948D01*
X0152038Y0054546D02*
X0149838Y0054546D01*
X0149838Y0055145D02*
X0152038Y0055145D01*
X0152038Y0055743D02*
X0149838Y0055743D01*
X0149838Y0056342D02*
X0152038Y0056342D01*
X0152394Y0056940D02*
X0149607Y0056940D01*
X0150100Y0057539D02*
X0152993Y0057539D01*
X0153591Y0058137D02*
X0150100Y0058137D01*
X0150100Y0058736D02*
X0154190Y0058736D01*
X0155237Y0059334D02*
X0150100Y0059334D01*
X0150100Y0059933D02*
X0155800Y0059933D01*
X0155800Y0060532D02*
X0150100Y0060532D01*
X0150100Y0061130D02*
X0155800Y0061130D01*
X0155800Y0061729D02*
X0150100Y0061729D01*
X0150100Y0062327D02*
X0155800Y0062327D01*
X0155800Y0062926D02*
X0150100Y0062926D01*
X0150100Y0063524D02*
X0155800Y0063524D01*
X0155800Y0064123D02*
X0150520Y0064123D01*
X0151118Y0064721D02*
X0155800Y0064721D01*
X0155800Y0065320D02*
X0151717Y0065320D01*
X0152315Y0065918D02*
X0155800Y0065918D01*
X0156120Y0066517D02*
X0152914Y0066517D01*
X0153512Y0067115D02*
X0156718Y0067115D01*
X0157317Y0067714D02*
X0154111Y0067714D01*
X0154709Y0068312D02*
X0157915Y0068312D01*
X0158514Y0068911D02*
X0155308Y0068911D01*
X0155906Y0069509D02*
X0159112Y0069509D01*
X0159711Y0070108D02*
X0156505Y0070108D01*
X0157103Y0070706D02*
X0160000Y0070706D01*
X0160000Y0071305D02*
X0157300Y0071305D01*
X0157844Y0071903D02*
X0159456Y0071903D01*
X0159050Y0072502D02*
X0158250Y0072502D01*
X0158250Y0073100D02*
X0159050Y0073100D01*
X0159050Y0073699D02*
X0158250Y0073699D01*
X0158043Y0074297D02*
X0159257Y0074297D01*
X0159855Y0074896D02*
X0157445Y0074896D01*
X0156100Y0073500D02*
X0156100Y0073200D01*
X0156100Y0071400D01*
X0148900Y0064200D01*
X0148900Y0057931D01*
X0145938Y0054969D01*
X0143239Y0052152D02*
X0138637Y0052152D01*
X0138039Y0051554D02*
X0143837Y0051554D01*
X0142640Y0052751D02*
X0139236Y0052751D01*
X0139834Y0053349D02*
X0142041Y0053349D01*
X0142038Y0053948D02*
X0139838Y0053948D01*
X0139838Y0054546D02*
X0142038Y0054546D01*
X0142038Y0055145D02*
X0139838Y0055145D01*
X0139838Y0055743D02*
X0142038Y0055743D01*
X0142038Y0056342D02*
X0139838Y0056342D01*
X0139607Y0056940D02*
X0142394Y0056940D01*
X0142993Y0057539D02*
X0140205Y0057539D01*
X0140804Y0058137D02*
X0143591Y0058137D01*
X0145300Y0059400D02*
X0140369Y0059400D01*
X0135938Y0054969D01*
X0133239Y0052152D02*
X0057249Y0052152D01*
X0057700Y0052603D02*
X0057700Y0055603D01*
X0062697Y0060600D01*
X0063400Y0061303D01*
X0063400Y0066797D01*
X0062697Y0067500D01*
X0061497Y0068700D01*
X0054297Y0068700D01*
X0053100Y0069897D01*
X0053100Y0072759D01*
X0054050Y0073709D01*
X0054050Y0075491D01*
X0052791Y0076750D01*
X0051009Y0076750D01*
X0049750Y0075491D01*
X0049750Y0073709D01*
X0050700Y0072759D01*
X0050700Y0070297D01*
X0050500Y0070097D01*
X0050500Y0069103D01*
X0051203Y0068400D01*
X0052600Y0067003D01*
X0053303Y0066300D01*
X0057959Y0066300D01*
X0057650Y0065991D01*
X0057650Y0065700D01*
X0047097Y0065700D01*
X0046300Y0066497D01*
X0046300Y0067659D01*
X0046609Y0067350D01*
X0048391Y0067350D01*
X0049650Y0068609D01*
X0049650Y0070391D01*
X0049000Y0071041D01*
X0049000Y0074897D01*
X0048297Y0075600D01*
X0047847Y0076050D01*
X0049591Y0076050D01*
X0050541Y0077000D01*
X0061997Y0077000D01*
X0062347Y0077350D01*
X0063691Y0077350D01*
X0064950Y0078609D01*
X0064950Y0079350D01*
X0066391Y0079350D01*
X0067650Y0080609D01*
X0067650Y0082391D01*
X0066391Y0083650D01*
X0064609Y0083650D01*
X0063859Y0082900D01*
X0060903Y0082900D01*
X0060200Y0082197D01*
X0058703Y0080700D01*
X0051597Y0080700D01*
X0050697Y0081600D01*
X0046703Y0081600D01*
X0044903Y0079800D01*
X0044653Y0079550D01*
X0044509Y0079550D01*
X0043250Y0078291D01*
X0043250Y0076509D01*
X0044509Y0075250D01*
X0045253Y0075250D01*
X0045453Y0075050D01*
X0044609Y0075050D01*
X0043350Y0073791D01*
X0043350Y0072009D01*
X0043900Y0071459D01*
X0043900Y0065503D01*
X0045400Y0064003D01*
X0046103Y0063300D01*
X0058559Y0063300D01*
X0058600Y0063259D01*
X0058600Y0061697D01*
X0054100Y0057197D01*
X0054100Y0054497D01*
X0052822Y0053219D01*
X0051991Y0054050D01*
X0050250Y0054050D01*
X0050250Y0054291D01*
X0048991Y0055550D01*
X0047209Y0055550D01*
X0045950Y0054291D01*
X0045950Y0052509D01*
X0046900Y0051559D01*
X0046900Y0050203D01*
X0048700Y0048403D01*
X0049403Y0047700D01*
X0052797Y0047700D01*
X0057700Y0052603D01*
X0057700Y0052751D02*
X0132640Y0052751D01*
X0132041Y0053349D02*
X0057700Y0053349D01*
X0057700Y0053948D02*
X0132038Y0053948D01*
X0132038Y0054546D02*
X0057700Y0054546D01*
X0057700Y0055145D02*
X0132038Y0055145D01*
X0132038Y0055743D02*
X0057840Y0055743D01*
X0058439Y0056342D02*
X0132038Y0056342D01*
X0132394Y0056940D02*
X0059037Y0056940D01*
X0059636Y0057539D02*
X0132993Y0057539D01*
X0133591Y0058137D02*
X0060235Y0058137D01*
X0060833Y0058736D02*
X0134190Y0058736D01*
X0137686Y0058736D02*
X0138008Y0058736D01*
X0138607Y0059334D02*
X0078975Y0059334D01*
X0079574Y0059933D02*
X0139205Y0059933D01*
X0139804Y0060532D02*
X0079650Y0060532D01*
X0079851Y0061130D02*
X0145333Y0061130D01*
X0145932Y0061729D02*
X0080450Y0061729D01*
X0081048Y0062327D02*
X0146200Y0062327D01*
X0146200Y0062926D02*
X0081647Y0062926D01*
X0082245Y0063524D02*
X0146200Y0063524D01*
X0146200Y0064123D02*
X0082844Y0064123D01*
X0083442Y0064721D02*
X0146200Y0064721D01*
X0146523Y0065320D02*
X0084041Y0065320D01*
X0084639Y0065918D02*
X0147121Y0065918D01*
X0147720Y0066517D02*
X0085238Y0066517D01*
X0085836Y0067115D02*
X0148318Y0067115D01*
X0148917Y0067714D02*
X0086435Y0067714D01*
X0087033Y0068312D02*
X0149515Y0068312D01*
X0150100Y0068911D02*
X0087632Y0068911D01*
X0088231Y0069509D02*
X0150100Y0069509D01*
X0150100Y0070108D02*
X0088829Y0070108D01*
X0089428Y0070706D02*
X0150100Y0070706D01*
X0149855Y0071305D02*
X0090026Y0071305D01*
X0090625Y0071903D02*
X0149256Y0071903D01*
X0149150Y0072502D02*
X0091223Y0072502D01*
X0091822Y0073100D02*
X0149150Y0073100D01*
X0149150Y0073699D02*
X0092420Y0073699D01*
X0093019Y0074297D02*
X0149657Y0074297D01*
X0150255Y0074896D02*
X0093617Y0074896D01*
X0091769Y0077290D02*
X0062287Y0077290D01*
X0061500Y0078200D02*
X0062800Y0079500D01*
X0061600Y0078300D01*
X0061500Y0078200D02*
X0048700Y0078200D01*
X0050232Y0076691D02*
X0050951Y0076691D01*
X0050352Y0076093D02*
X0049633Y0076093D01*
X0049754Y0075494D02*
X0048403Y0075494D01*
X0049000Y0074896D02*
X0049750Y0074896D01*
X0049750Y0074297D02*
X0049000Y0074297D01*
X0049000Y0073699D02*
X0049761Y0073699D01*
X0050359Y0073100D02*
X0049000Y0073100D01*
X0049000Y0072502D02*
X0050700Y0072502D01*
X0050700Y0071903D02*
X0049000Y0071903D01*
X0049000Y0071305D02*
X0050700Y0071305D01*
X0050700Y0070706D02*
X0049334Y0070706D01*
X0049650Y0070108D02*
X0050511Y0070108D01*
X0050500Y0069509D02*
X0049650Y0069509D01*
X0049650Y0068911D02*
X0050692Y0068911D01*
X0051203Y0068400D02*
X0051203Y0068400D01*
X0051291Y0068312D02*
X0049353Y0068312D01*
X0048754Y0067714D02*
X0051889Y0067714D01*
X0052488Y0067115D02*
X0046300Y0067115D01*
X0046300Y0066517D02*
X0053086Y0066517D01*
X0053200Y0065700D02*
X0051200Y0066700D01*
X0053800Y0067500D02*
X0051700Y0069600D01*
X0051900Y0069800D01*
X0051900Y0074600D01*
X0053441Y0073100D02*
X0087579Y0073100D01*
X0086980Y0072502D02*
X0053100Y0072502D01*
X0053100Y0071903D02*
X0086382Y0071903D01*
X0085783Y0071305D02*
X0053100Y0071305D01*
X0053100Y0070706D02*
X0085185Y0070706D01*
X0084586Y0070108D02*
X0053100Y0070108D01*
X0053488Y0069509D02*
X0083988Y0069509D01*
X0083389Y0068911D02*
X0054086Y0068911D01*
X0053800Y0067500D02*
X0061000Y0067500D01*
X0062200Y0066300D01*
X0062200Y0061800D01*
X0056500Y0056100D01*
X0056500Y0053100D01*
X0052300Y0048900D01*
X0049900Y0048900D01*
X0048100Y0050700D01*
X0048100Y0053400D01*
X0045950Y0053349D02*
X0033648Y0053349D01*
X0034246Y0052751D02*
X0045950Y0052751D01*
X0046307Y0052152D02*
X0034845Y0052152D01*
X0035443Y0051554D02*
X0046900Y0051554D01*
X0046900Y0050955D02*
X0036042Y0050955D01*
X0036640Y0050357D02*
X0046900Y0050357D01*
X0047345Y0049758D02*
X0038282Y0049758D01*
X0038191Y0049850D02*
X0037147Y0049850D01*
X0030700Y0056297D01*
X0030700Y0064703D01*
X0031697Y0065700D01*
X0031697Y0065700D01*
X0032400Y0066403D01*
X0032400Y0071997D01*
X0029250Y0075147D01*
X0029250Y0076491D01*
X0027991Y0077750D01*
X0026209Y0077750D01*
X0024950Y0076491D01*
X0024950Y0074709D01*
X0025709Y0073950D01*
X0024950Y0073191D01*
X0024950Y0071409D01*
X0026209Y0070150D01*
X0027553Y0070150D01*
X0028700Y0069003D01*
X0028700Y0067897D01*
X0027100Y0066297D01*
X0027100Y0054703D01*
X0027803Y0054000D01*
X0031900Y0049903D01*
X0031900Y0049541D01*
X0030950Y0048591D01*
X0030950Y0046809D01*
X0032209Y0045550D01*
X0033991Y0045550D01*
X0035200Y0046759D01*
X0036409Y0045550D01*
X0038191Y0045550D01*
X0039450Y0046809D01*
X0039450Y0048591D01*
X0038191Y0049850D01*
X0038881Y0049160D02*
X0047943Y0049160D01*
X0048542Y0048561D02*
X0039450Y0048561D01*
X0039450Y0047963D02*
X0049140Y0047963D01*
X0053060Y0047963D02*
X0133417Y0047963D01*
X0134015Y0048561D02*
X0053658Y0048561D01*
X0054257Y0049160D02*
X0204113Y0049160D01*
X0204113Y0049758D02*
X0054855Y0049758D01*
X0055454Y0050357D02*
X0204113Y0050357D01*
X0204113Y0050955D02*
X0056052Y0050955D01*
X0056651Y0051554D02*
X0133837Y0051554D01*
X0134322Y0048868D02*
X0132038Y0046584D01*
X0132038Y0043353D01*
X0134322Y0041069D01*
X0137553Y0041069D01*
X0139838Y0043353D01*
X0139838Y0046584D01*
X0137553Y0048868D01*
X0134322Y0048868D01*
X0132818Y0047364D02*
X0039450Y0047364D01*
X0039406Y0046766D02*
X0132220Y0046766D01*
X0132038Y0046167D02*
X0038808Y0046167D01*
X0038209Y0045569D02*
X0132038Y0045569D01*
X0132038Y0044970D02*
X0021400Y0044970D01*
X0021400Y0044372D02*
X0132038Y0044372D01*
X0132038Y0043773D02*
X0021400Y0043773D01*
X0021400Y0043175D02*
X0132216Y0043175D01*
X0132815Y0042576D02*
X0021788Y0042576D01*
X0022386Y0041978D02*
X0133413Y0041978D01*
X0134012Y0041379D02*
X0022985Y0041379D01*
X0023444Y0040781D02*
X0192132Y0040781D01*
X0191884Y0040182D02*
X0023692Y0040182D01*
X0023940Y0039584D02*
X0029344Y0039584D01*
X0028322Y0038985D02*
X0024188Y0038985D01*
X0024436Y0038387D02*
X0027647Y0038387D01*
X0027168Y0037788D02*
X0024443Y0037788D01*
X0024443Y0037190D02*
X0026820Y0037190D01*
X0026570Y0036591D02*
X0024443Y0036591D01*
X0024443Y0035993D02*
X0026400Y0035993D01*
X0026305Y0035394D02*
X0024397Y0035394D01*
X0024149Y0034796D02*
X0031000Y0034796D01*
X0031000Y0035394D02*
X0031600Y0035394D01*
X0031600Y0034796D02*
X0036700Y0034796D01*
X0036700Y0035394D02*
X0036295Y0035394D01*
X0036200Y0035993D02*
X0036745Y0035993D01*
X0036993Y0036591D02*
X0036030Y0036591D01*
X0035780Y0037190D02*
X0037241Y0037190D01*
X0037614Y0037788D02*
X0035432Y0037788D01*
X0034953Y0038387D02*
X0038213Y0038387D01*
X0038977Y0038985D02*
X0034278Y0038985D01*
X0033256Y0039584D02*
X0069344Y0039584D01*
X0068322Y0038985D02*
X0063623Y0038985D01*
X0064387Y0038387D02*
X0067647Y0038387D01*
X0067168Y0037788D02*
X0064986Y0037788D01*
X0065359Y0037190D02*
X0066820Y0037190D01*
X0066570Y0036591D02*
X0065607Y0036591D01*
X0065855Y0035993D02*
X0066400Y0035993D01*
X0066305Y0035394D02*
X0065900Y0035394D01*
X0065900Y0034796D02*
X0071000Y0034796D01*
X0071000Y0035394D02*
X0071600Y0035394D01*
X0071600Y0034796D02*
X0076700Y0034796D01*
X0076700Y0035394D02*
X0076295Y0035394D01*
X0076200Y0035993D02*
X0076745Y0035993D01*
X0076993Y0036591D02*
X0076030Y0036591D01*
X0075780Y0037190D02*
X0077241Y0037190D01*
X0077614Y0037788D02*
X0075432Y0037788D01*
X0074953Y0038387D02*
X0078213Y0038387D01*
X0078977Y0038985D02*
X0074278Y0038985D01*
X0073256Y0039584D02*
X0191636Y0039584D01*
X0191389Y0038985D02*
X0188002Y0038985D01*
X0188601Y0038387D02*
X0191141Y0038387D01*
X0191134Y0037788D02*
X0189199Y0037788D01*
X0189798Y0037190D02*
X0191134Y0037190D01*
X0191134Y0036591D02*
X0190238Y0036591D01*
X0190238Y0035993D02*
X0191134Y0035993D01*
X0191179Y0035394D02*
X0190238Y0035394D01*
X0190238Y0034197D02*
X0191675Y0034197D01*
X0191427Y0034796D02*
X0186238Y0034796D01*
X0186238Y0035394D02*
X0185638Y0035394D01*
X0185638Y0034796D02*
X0176238Y0034796D01*
X0176238Y0035394D02*
X0175638Y0035394D01*
X0175638Y0034796D02*
X0166238Y0034796D01*
X0166238Y0035394D02*
X0165638Y0035394D01*
X0165638Y0035993D02*
X0166238Y0035993D01*
X0166238Y0036591D02*
X0165638Y0036591D01*
X0165638Y0037190D02*
X0166238Y0037190D01*
X0166238Y0037788D02*
X0165638Y0037788D01*
X0165638Y0038387D02*
X0166238Y0038387D01*
X0166238Y0038985D02*
X0165638Y0038985D01*
X0168002Y0038985D02*
X0173873Y0038985D01*
X0173275Y0038387D02*
X0168601Y0038387D01*
X0169199Y0037788D02*
X0172676Y0037788D01*
X0172078Y0037190D02*
X0169798Y0037190D01*
X0170238Y0036591D02*
X0171638Y0036591D01*
X0171638Y0035993D02*
X0170238Y0035993D01*
X0170238Y0035394D02*
X0171638Y0035394D01*
X0171638Y0034197D02*
X0170238Y0034197D01*
X0170238Y0033599D02*
X0171638Y0033599D01*
X0171825Y0033000D02*
X0170050Y0033000D01*
X0169452Y0032401D02*
X0172424Y0032401D01*
X0173022Y0031803D02*
X0168853Y0031803D01*
X0168255Y0031204D02*
X0173621Y0031204D01*
X0178255Y0031204D02*
X0183621Y0031204D01*
X0183022Y0031803D02*
X0178853Y0031803D01*
X0179452Y0032401D02*
X0182424Y0032401D01*
X0181825Y0033000D02*
X0180050Y0033000D01*
X0180238Y0033599D02*
X0181638Y0033599D01*
X0181638Y0034197D02*
X0180238Y0034197D01*
X0180238Y0035394D02*
X0181638Y0035394D01*
X0181638Y0035993D02*
X0180238Y0035993D01*
X0180238Y0036591D02*
X0181638Y0036591D01*
X0182078Y0037190D02*
X0179798Y0037190D01*
X0179199Y0037788D02*
X0182676Y0037788D01*
X0183275Y0038387D02*
X0178601Y0038387D01*
X0178002Y0038985D02*
X0183873Y0038985D01*
X0185638Y0038985D02*
X0186238Y0038985D01*
X0186238Y0038387D02*
X0185638Y0038387D01*
X0185638Y0037788D02*
X0186238Y0037788D01*
X0186238Y0037190D02*
X0185638Y0037190D01*
X0185638Y0036591D02*
X0186238Y0036591D01*
X0186238Y0035993D02*
X0185638Y0035993D01*
X0190238Y0033599D02*
X0191923Y0033599D01*
X0192171Y0033000D02*
X0190050Y0033000D01*
X0189452Y0032401D02*
X0192685Y0032401D01*
X0193283Y0031803D02*
X0188853Y0031803D01*
X0188255Y0031204D02*
X0193882Y0031204D01*
X0192591Y0041379D02*
X0187864Y0041379D01*
X0187553Y0041069D02*
X0189838Y0043353D01*
X0189838Y0046584D01*
X0187553Y0048868D01*
X0184322Y0048868D01*
X0182038Y0046584D01*
X0182038Y0043353D01*
X0184322Y0041069D01*
X0187553Y0041069D01*
X0188462Y0041978D02*
X0193190Y0041978D01*
X0193788Y0042576D02*
X0189061Y0042576D01*
X0189659Y0043175D02*
X0194570Y0043175D01*
X0196015Y0043773D02*
X0189838Y0043773D01*
X0189838Y0044372D02*
X0204113Y0044372D01*
X0204113Y0044970D02*
X0189838Y0044970D01*
X0189838Y0045569D02*
X0204113Y0045569D01*
X0204113Y0046167D02*
X0189838Y0046167D01*
X0189656Y0046766D02*
X0204113Y0046766D01*
X0204113Y0047364D02*
X0189057Y0047364D01*
X0188459Y0047963D02*
X0204113Y0047963D01*
X0204113Y0048561D02*
X0187860Y0048561D01*
X0187553Y0051069D02*
X0184322Y0051069D01*
X0182038Y0053353D01*
X0182038Y0056584D01*
X0184322Y0058868D01*
X0187553Y0058868D01*
X0189838Y0056584D01*
X0189838Y0053353D01*
X0187553Y0051069D01*
X0188039Y0051554D02*
X0204113Y0051554D01*
X0204113Y0052152D02*
X0188637Y0052152D01*
X0189236Y0052751D02*
X0204113Y0052751D01*
X0204113Y0053349D02*
X0189834Y0053349D01*
X0189838Y0053948D02*
X0204113Y0053948D01*
X0204113Y0054546D02*
X0189838Y0054546D01*
X0189838Y0055145D02*
X0204113Y0055145D01*
X0204113Y0055743D02*
X0189838Y0055743D01*
X0189838Y0056342D02*
X0204113Y0056342D01*
X0204113Y0056940D02*
X0189481Y0056940D01*
X0188883Y0057539D02*
X0204113Y0057539D01*
X0204113Y0058137D02*
X0188284Y0058137D01*
X0187686Y0058736D02*
X0204113Y0058736D01*
X0184190Y0058736D02*
X0177686Y0058736D01*
X0177553Y0058868D02*
X0174322Y0058868D01*
X0172038Y0056584D01*
X0172038Y0053353D01*
X0174322Y0051069D01*
X0177553Y0051069D01*
X0179838Y0053353D01*
X0179838Y0056584D01*
X0177553Y0058868D01*
X0178284Y0058137D02*
X0183591Y0058137D01*
X0182993Y0057539D02*
X0178883Y0057539D01*
X0179481Y0056940D02*
X0182394Y0056940D01*
X0182038Y0056342D02*
X0179838Y0056342D01*
X0179838Y0055743D02*
X0182038Y0055743D01*
X0182038Y0055145D02*
X0179838Y0055145D01*
X0179838Y0054546D02*
X0182038Y0054546D01*
X0182038Y0053948D02*
X0179838Y0053948D01*
X0179834Y0053349D02*
X0182041Y0053349D01*
X0182640Y0052751D02*
X0179236Y0052751D01*
X0178637Y0052152D02*
X0183239Y0052152D01*
X0183837Y0051554D02*
X0178039Y0051554D01*
X0177553Y0048868D02*
X0174322Y0048868D01*
X0172038Y0046584D01*
X0172038Y0043353D01*
X0174322Y0041069D01*
X0177553Y0041069D01*
X0179838Y0043353D01*
X0179838Y0046584D01*
X0177553Y0048868D01*
X0177860Y0048561D02*
X0184015Y0048561D01*
X0183417Y0047963D02*
X0178459Y0047963D01*
X0179057Y0047364D02*
X0182818Y0047364D01*
X0182220Y0046766D02*
X0179656Y0046766D01*
X0179838Y0046167D02*
X0182038Y0046167D01*
X0182038Y0045569D02*
X0179838Y0045569D01*
X0179838Y0044970D02*
X0182038Y0044970D01*
X0182038Y0044372D02*
X0179838Y0044372D01*
X0179838Y0043773D02*
X0182038Y0043773D01*
X0182216Y0043175D02*
X0179659Y0043175D01*
X0179061Y0042576D02*
X0182815Y0042576D01*
X0183413Y0041978D02*
X0178462Y0041978D01*
X0177864Y0041379D02*
X0184012Y0041379D01*
X0176238Y0038985D02*
X0175638Y0038985D01*
X0175638Y0038387D02*
X0176238Y0038387D01*
X0176238Y0037788D02*
X0175638Y0037788D01*
X0175638Y0037190D02*
X0176238Y0037190D01*
X0176238Y0036591D02*
X0175638Y0036591D01*
X0175638Y0035993D02*
X0176238Y0035993D01*
X0174012Y0041379D02*
X0167864Y0041379D01*
X0168462Y0041978D02*
X0173413Y0041978D01*
X0172815Y0042576D02*
X0169061Y0042576D01*
X0169659Y0043175D02*
X0172216Y0043175D01*
X0172038Y0043773D02*
X0169838Y0043773D01*
X0169838Y0044372D02*
X0172038Y0044372D01*
X0172038Y0044970D02*
X0169838Y0044970D01*
X0169838Y0045569D02*
X0172038Y0045569D01*
X0172038Y0046167D02*
X0169838Y0046167D01*
X0169656Y0046766D02*
X0172220Y0046766D01*
X0172818Y0047364D02*
X0169057Y0047364D01*
X0168459Y0047963D02*
X0173417Y0047963D01*
X0174015Y0048561D02*
X0167860Y0048561D01*
X0168039Y0051554D02*
X0173837Y0051554D01*
X0173239Y0052152D02*
X0168637Y0052152D01*
X0169236Y0052751D02*
X0172640Y0052751D01*
X0172041Y0053349D02*
X0169834Y0053349D01*
X0169838Y0053948D02*
X0172038Y0053948D01*
X0172038Y0054546D02*
X0169838Y0054546D01*
X0169838Y0055145D02*
X0172038Y0055145D01*
X0172038Y0055743D02*
X0169838Y0055743D01*
X0169838Y0056342D02*
X0172038Y0056342D01*
X0172394Y0056940D02*
X0169481Y0056940D01*
X0168883Y0057539D02*
X0172993Y0057539D01*
X0173591Y0058137D02*
X0168284Y0058137D01*
X0167686Y0058736D02*
X0174190Y0058736D01*
X0165938Y0054969D02*
X0162331Y0054969D01*
X0158200Y0059100D01*
X0158200Y0065100D01*
X0166300Y0073200D01*
X0164150Y0073100D02*
X0163350Y0073100D01*
X0163350Y0072502D02*
X0163905Y0072502D01*
X0163306Y0071903D02*
X0162944Y0071903D01*
X0162708Y0071305D02*
X0162400Y0071305D01*
X0161200Y0069900D02*
X0157000Y0065700D01*
X0157000Y0059400D01*
X0155938Y0058338D01*
X0155938Y0054969D01*
X0147400Y0061500D02*
X0145300Y0059400D01*
X0147400Y0061500D02*
X0147400Y0064500D01*
X0151300Y0068400D01*
X0151300Y0072900D01*
X0152745Y0071305D02*
X0154308Y0071305D01*
X0154356Y0071903D02*
X0153344Y0071903D01*
X0153450Y0072502D02*
X0153950Y0072502D01*
X0153950Y0073100D02*
X0153450Y0073100D01*
X0153450Y0073699D02*
X0153950Y0073699D01*
X0154157Y0074297D02*
X0152943Y0074297D01*
X0152345Y0074896D02*
X0154755Y0074896D01*
X0161200Y0073500D02*
X0161200Y0073200D01*
X0161200Y0069900D01*
X0163350Y0073699D02*
X0164150Y0073699D01*
X0164357Y0074297D02*
X0163143Y0074297D01*
X0162545Y0074896D02*
X0164955Y0074896D01*
X0153709Y0070706D02*
X0152500Y0070706D01*
X0152500Y0070108D02*
X0153111Y0070108D01*
X0152512Y0069509D02*
X0152500Y0069509D01*
X0163600Y0084600D02*
X0155938Y0092262D01*
X0155938Y0101583D01*
X0179622Y0119186D02*
X0182254Y0119186D01*
X0181655Y0119784D02*
X0180220Y0119784D01*
X0180238Y0120383D02*
X0181638Y0120383D01*
X0181638Y0120981D02*
X0180238Y0120981D01*
X0180238Y0122178D02*
X0181638Y0122178D01*
X0181638Y0122777D02*
X0180238Y0122777D01*
X0180226Y0123375D02*
X0181649Y0123375D01*
X0182248Y0123974D02*
X0179628Y0123974D01*
X0179029Y0124572D02*
X0182846Y0124572D01*
X0183445Y0125171D02*
X0178431Y0125171D01*
X0188431Y0125171D02*
X0193706Y0125171D01*
X0193107Y0124572D02*
X0189029Y0124572D01*
X0189628Y0123974D02*
X0192509Y0123974D01*
X0192098Y0123375D02*
X0190226Y0123375D01*
X0190238Y0122777D02*
X0191850Y0122777D01*
X0191602Y0122178D02*
X0190238Y0122178D01*
X0200239Y0112602D02*
X0204113Y0112602D01*
X0204113Y0113201D02*
X0201684Y0113201D01*
X0202714Y0113799D02*
X0204113Y0113799D01*
X0204113Y0114398D02*
X0203313Y0114398D01*
X0203911Y0114996D02*
X0204113Y0114996D01*
X0204113Y0107215D02*
X0104250Y0107215D01*
X0104580Y0106617D02*
X0204113Y0106617D01*
X0204113Y0106018D02*
X0105179Y0106018D01*
X0102982Y0104821D02*
X0078243Y0104821D01*
X0077644Y0104223D02*
X0103063Y0104223D01*
X0102562Y0103624D02*
X0077400Y0103624D01*
X0077495Y0103026D02*
X0081785Y0103026D01*
X0082309Y0103550D02*
X0081050Y0102291D01*
X0081050Y0100509D01*
X0082309Y0099250D01*
X0084091Y0099250D01*
X0085041Y0100200D01*
X0085859Y0100200D01*
X0086809Y0099250D01*
X0088591Y0099250D01*
X0089850Y0100509D01*
X0089850Y0102291D01*
X0088591Y0103550D01*
X0086809Y0103550D01*
X0085859Y0102600D01*
X0085041Y0102600D01*
X0084091Y0103550D01*
X0082309Y0103550D01*
X0081187Y0102427D02*
X0078094Y0102427D01*
X0078693Y0101829D02*
X0081050Y0101829D01*
X0081050Y0101230D02*
X0079291Y0101230D01*
X0079890Y0100632D02*
X0081050Y0100632D01*
X0081007Y0100033D02*
X0081526Y0100033D01*
X0081606Y0099435D02*
X0082125Y0099435D01*
X0081750Y0098836D02*
X0103169Y0098836D01*
X0102606Y0099435D02*
X0088775Y0099435D01*
X0089374Y0100033D02*
X0102358Y0100033D01*
X0102110Y0100632D02*
X0089850Y0100632D01*
X0089850Y0101230D02*
X0102038Y0101230D01*
X0102038Y0101829D02*
X0089850Y0101829D01*
X0089713Y0102427D02*
X0102066Y0102427D01*
X0102314Y0103026D02*
X0089115Y0103026D01*
X0087700Y0101400D02*
X0083200Y0101400D01*
X0084615Y0103026D02*
X0086285Y0103026D01*
X0086026Y0100033D02*
X0084874Y0100033D01*
X0084275Y0099435D02*
X0086625Y0099435D01*
X0084042Y0097639D02*
X0081750Y0097639D01*
X0081750Y0098238D02*
X0103822Y0098238D01*
X0106000Y0101400D02*
X0106000Y0101520D01*
X0105938Y0101583D01*
X0106000Y0101520D02*
X0106000Y0103500D01*
X0102100Y0107400D01*
X0100670Y0109011D02*
X0092632Y0109011D01*
X0092034Y0108412D02*
X0100072Y0108412D01*
X0099950Y0107814D02*
X0081235Y0107814D01*
X0080637Y0107215D02*
X0099950Y0107215D01*
X0099950Y0106617D02*
X0080038Y0106617D01*
X0079440Y0106018D02*
X0100441Y0106018D01*
X0101040Y0105420D02*
X0078841Y0105420D01*
X0075796Y0106617D02*
X0072100Y0106617D01*
X0072100Y0107215D02*
X0076394Y0107215D01*
X0076993Y0107814D02*
X0072100Y0107814D01*
X0072100Y0108412D02*
X0077591Y0108412D01*
X0078190Y0109011D02*
X0072100Y0109011D01*
X0072100Y0109609D02*
X0078788Y0109609D01*
X0079387Y0110208D02*
X0072100Y0110208D01*
X0072100Y0110806D02*
X0079985Y0110806D01*
X0075197Y0106018D02*
X0072100Y0106018D01*
X0072100Y0105420D02*
X0074599Y0105420D01*
X0074400Y0104821D02*
X0072100Y0104821D01*
X0072100Y0104223D02*
X0074400Y0104223D01*
X0074400Y0103624D02*
X0072100Y0103624D01*
X0072100Y0103026D02*
X0074400Y0103026D01*
X0074400Y0102427D02*
X0072100Y0102427D01*
X0072100Y0101829D02*
X0074450Y0101829D01*
X0075048Y0101230D02*
X0072100Y0101230D01*
X0072100Y0100632D02*
X0075647Y0100632D01*
X0076245Y0100033D02*
X0072100Y0100033D01*
X0072100Y0099435D02*
X0076844Y0099435D01*
X0077442Y0098836D02*
X0072461Y0098836D01*
X0073059Y0098238D02*
X0077450Y0098238D01*
X0077450Y0097639D02*
X0073658Y0097639D01*
X0074256Y0097041D02*
X0077919Y0097041D01*
X0078517Y0096442D02*
X0074855Y0096442D01*
X0075453Y0095844D02*
X0082247Y0095844D01*
X0082845Y0096442D02*
X0080683Y0096442D01*
X0081281Y0097041D02*
X0083444Y0097041D01*
X0084700Y0096600D02*
X0082300Y0094200D01*
X0075400Y0094200D01*
X0070900Y0098700D01*
X0070900Y0110400D01*
X0063100Y0118200D01*
X0064556Y0119784D02*
X0072221Y0119784D01*
X0072819Y0119186D02*
X0065155Y0119186D01*
X0065250Y0118587D02*
X0073418Y0118587D01*
X0074016Y0117989D02*
X0065250Y0117989D01*
X0065607Y0117390D02*
X0093100Y0117390D01*
X0093100Y0116792D02*
X0066205Y0116792D01*
X0066804Y0116193D02*
X0093100Y0116193D01*
X0093100Y0115595D02*
X0067402Y0115595D01*
X0068001Y0114996D02*
X0093100Y0114996D01*
X0093100Y0114398D02*
X0068599Y0114398D01*
X0069198Y0113799D02*
X0093100Y0113799D01*
X0092579Y0113201D02*
X0069797Y0113201D01*
X0070395Y0112602D02*
X0091981Y0112602D01*
X0091382Y0112003D02*
X0070994Y0112003D01*
X0071592Y0111405D02*
X0090784Y0111405D01*
X0093231Y0109609D02*
X0102396Y0109609D01*
X0102038Y0110208D02*
X0093829Y0110208D01*
X0094428Y0110806D02*
X0102038Y0110806D01*
X0102038Y0111405D02*
X0095026Y0111405D01*
X0095625Y0112003D02*
X0102038Y0112003D01*
X0102038Y0112602D02*
X0096100Y0112602D01*
X0096100Y0113201D02*
X0102040Y0113201D01*
X0102639Y0113799D02*
X0096100Y0113799D01*
X0096100Y0114398D02*
X0103237Y0114398D01*
X0103836Y0114996D02*
X0096100Y0114996D01*
X0108040Y0114996D02*
X0113836Y0114996D01*
X0114322Y0115483D02*
X0112038Y0113198D01*
X0112038Y0109967D01*
X0114322Y0107683D01*
X0117553Y0107683D01*
X0119838Y0109967D01*
X0119838Y0113198D01*
X0117553Y0115483D01*
X0114322Y0115483D01*
X0113237Y0114398D02*
X0108638Y0114398D01*
X0109237Y0113799D02*
X0112639Y0113799D01*
X0112040Y0113201D02*
X0109835Y0113201D01*
X0109838Y0112602D02*
X0112038Y0112602D01*
X0112038Y0112003D02*
X0109838Y0112003D01*
X0109838Y0111405D02*
X0112038Y0111405D01*
X0112038Y0110806D02*
X0109838Y0110806D01*
X0109838Y0110208D02*
X0112038Y0110208D01*
X0112396Y0109609D02*
X0109480Y0109609D01*
X0108881Y0109011D02*
X0112994Y0109011D01*
X0113593Y0108412D02*
X0108283Y0108412D01*
X0107684Y0107814D02*
X0114191Y0107814D01*
X0117684Y0107814D02*
X0124191Y0107814D01*
X0123593Y0108412D02*
X0118283Y0108412D01*
X0118881Y0109011D02*
X0122994Y0109011D01*
X0122396Y0109609D02*
X0119480Y0109609D01*
X0119838Y0110208D02*
X0122038Y0110208D01*
X0122038Y0110806D02*
X0119838Y0110806D01*
X0119838Y0111405D02*
X0122038Y0111405D01*
X0122038Y0112003D02*
X0119838Y0112003D01*
X0119838Y0112602D02*
X0122038Y0112602D01*
X0122040Y0113201D02*
X0119835Y0113201D01*
X0119237Y0113799D02*
X0122639Y0113799D01*
X0123237Y0114398D02*
X0118638Y0114398D01*
X0118040Y0114996D02*
X0123836Y0114996D01*
X0129622Y0119186D02*
X0132254Y0119186D01*
X0131655Y0119784D02*
X0130220Y0119784D01*
X0130238Y0120383D02*
X0131638Y0120383D01*
X0131638Y0120981D02*
X0130238Y0120981D01*
X0130238Y0122178D02*
X0131638Y0122178D01*
X0131638Y0122777D02*
X0130238Y0122777D01*
X0130226Y0123375D02*
X0131649Y0123375D01*
X0132248Y0123974D02*
X0129628Y0123974D01*
X0129029Y0124572D02*
X0132846Y0124572D01*
X0133445Y0125171D02*
X0128431Y0125171D01*
X0099502Y0096442D02*
X0089855Y0096442D01*
X0090453Y0095844D02*
X0098903Y0095844D01*
X0098750Y0095245D02*
X0092395Y0095245D01*
X0092994Y0094647D02*
X0098750Y0094647D01*
X0098750Y0094048D02*
X0093150Y0094048D01*
X0093150Y0093450D02*
X0099210Y0093450D01*
X0099400Y0092851D02*
X0093150Y0092851D01*
X0092693Y0092253D02*
X0099400Y0092253D01*
X0099400Y0091654D02*
X0092095Y0091654D01*
X0089905Y0091654D02*
X0088350Y0091654D01*
X0088350Y0091056D02*
X0099400Y0091056D01*
X0099400Y0090457D02*
X0087898Y0090457D01*
X0087400Y0089859D02*
X0099400Y0089859D01*
X0099400Y0089260D02*
X0087400Y0089260D01*
X0087400Y0088662D02*
X0099400Y0088662D01*
X0099400Y0088063D02*
X0087400Y0088063D01*
X0086862Y0087465D02*
X0099400Y0087465D01*
X0099400Y0086866D02*
X0086263Y0086866D01*
X0085665Y0086268D02*
X0099400Y0086268D01*
X0099400Y0085669D02*
X0077450Y0085669D01*
X0077450Y0085070D02*
X0099400Y0085070D01*
X0098951Y0084472D02*
X0077013Y0084472D01*
X0077450Y0084909D02*
X0076191Y0083650D01*
X0074409Y0083650D01*
X0073459Y0084600D01*
X0048097Y0084600D01*
X0046750Y0083253D01*
X0046750Y0081909D01*
X0045491Y0080650D01*
X0043709Y0080650D01*
X0042450Y0081909D01*
X0042450Y0083691D01*
X0043709Y0084950D01*
X0045053Y0084950D01*
X0047103Y0087000D01*
X0073459Y0087000D01*
X0074409Y0087950D01*
X0076191Y0087950D01*
X0077450Y0086691D01*
X0077450Y0084909D01*
X0077450Y0086268D02*
X0078635Y0086268D01*
X0078037Y0086866D02*
X0077275Y0086866D01*
X0077438Y0087465D02*
X0076676Y0087465D01*
X0076840Y0088063D02*
X0074260Y0088063D01*
X0073924Y0087465D02*
X0073662Y0087465D01*
X0072700Y0088200D02*
X0073900Y0089400D01*
X0077200Y0089400D01*
X0079600Y0087000D01*
X0084700Y0087000D01*
X0086200Y0088500D01*
X0086200Y0091800D01*
X0084050Y0091654D02*
X0069750Y0091654D01*
X0069750Y0091056D02*
X0084050Y0091056D01*
X0084502Y0090457D02*
X0077840Y0090457D01*
X0078438Y0089859D02*
X0085000Y0089859D01*
X0085000Y0089260D02*
X0079037Y0089260D01*
X0079635Y0088662D02*
X0084665Y0088662D01*
X0084050Y0092253D02*
X0069288Y0092253D01*
X0068800Y0092851D02*
X0084211Y0092851D01*
X0084809Y0093450D02*
X0083247Y0093450D01*
X0083845Y0094048D02*
X0088850Y0094048D01*
X0088850Y0093450D02*
X0087591Y0093450D01*
X0088189Y0092851D02*
X0088850Y0092851D01*
X0089307Y0092253D02*
X0088350Y0092253D01*
X0088256Y0094647D02*
X0084444Y0094647D01*
X0085042Y0095245D02*
X0087658Y0095245D01*
X0088000Y0096600D02*
X0084700Y0096600D01*
X0088000Y0096600D02*
X0091000Y0093600D01*
X0102590Y0093450D02*
X0106210Y0093450D01*
X0105950Y0094048D02*
X0103050Y0094048D01*
X0110800Y0085800D02*
X0115300Y0090300D01*
X0110800Y0085800D02*
X0110800Y0084600D01*
X0098352Y0083873D02*
X0076414Y0083873D01*
X0075300Y0085800D02*
X0047600Y0085800D01*
X0044600Y0082800D01*
X0046750Y0082676D02*
X0060679Y0082676D01*
X0060081Y0082078D02*
X0046750Y0082078D01*
X0046582Y0081479D02*
X0046320Y0081479D01*
X0045984Y0080881D02*
X0045721Y0080881D01*
X0045385Y0080282D02*
X0032358Y0080282D01*
X0032191Y0080450D02*
X0030409Y0080450D01*
X0029150Y0079191D01*
X0029150Y0077409D01*
X0030409Y0076150D01*
X0032191Y0076150D01*
X0032722Y0076681D01*
X0033203Y0076200D01*
X0038603Y0076200D01*
X0039100Y0075703D01*
X0039100Y0060403D01*
X0043000Y0056503D01*
X0043703Y0055800D01*
X0048759Y0055800D01*
X0049709Y0054850D01*
X0051491Y0054850D01*
X0052750Y0056109D01*
X0052750Y0057891D01*
X0051491Y0059150D01*
X0049709Y0059150D01*
X0048759Y0058200D01*
X0044697Y0058200D01*
X0041500Y0061397D01*
X0041500Y0076697D01*
X0040797Y0077400D01*
X0039597Y0078600D01*
X0038603Y0078600D01*
X0034197Y0078600D01*
X0034000Y0078797D01*
X0033297Y0079500D01*
X0033141Y0079500D01*
X0032191Y0080450D01*
X0032957Y0079684D02*
X0044787Y0079684D01*
X0044045Y0079085D02*
X0033712Y0079085D01*
X0032800Y0078300D02*
X0031300Y0078300D01*
X0032800Y0078300D02*
X0033700Y0077400D01*
X0039100Y0077400D01*
X0040300Y0076200D01*
X0040300Y0060900D01*
X0044200Y0057000D01*
X0050600Y0057000D01*
X0050600Y0057200D01*
X0049295Y0058736D02*
X0044161Y0058736D01*
X0043563Y0059334D02*
X0056237Y0059334D01*
X0055639Y0058736D02*
X0051905Y0058736D01*
X0052503Y0058137D02*
X0055040Y0058137D01*
X0054442Y0057539D02*
X0052750Y0057539D01*
X0052750Y0056940D02*
X0054100Y0056940D01*
X0054100Y0056342D02*
X0052750Y0056342D01*
X0052384Y0055743D02*
X0054100Y0055743D01*
X0054100Y0055145D02*
X0051785Y0055145D01*
X0052093Y0053948D02*
X0053551Y0053948D01*
X0054100Y0054546D02*
X0049994Y0054546D01*
X0049415Y0055145D02*
X0049396Y0055145D01*
X0048816Y0055743D02*
X0031254Y0055743D01*
X0030700Y0056342D02*
X0043161Y0056342D01*
X0042562Y0056940D02*
X0030700Y0056940D01*
X0030700Y0057539D02*
X0041964Y0057539D01*
X0041365Y0058137D02*
X0030700Y0058137D01*
X0030700Y0058736D02*
X0040767Y0058736D01*
X0040168Y0059334D02*
X0030700Y0059334D01*
X0030700Y0059933D02*
X0039570Y0059933D01*
X0039100Y0060532D02*
X0030700Y0060532D01*
X0030700Y0061130D02*
X0039100Y0061130D01*
X0039100Y0061729D02*
X0030700Y0061729D01*
X0030700Y0062327D02*
X0039100Y0062327D01*
X0039100Y0062926D02*
X0030700Y0062926D01*
X0030700Y0063524D02*
X0039100Y0063524D01*
X0039100Y0064123D02*
X0030700Y0064123D01*
X0030718Y0064721D02*
X0039100Y0064721D01*
X0039100Y0065320D02*
X0031317Y0065320D01*
X0031915Y0065918D02*
X0039100Y0065918D01*
X0039100Y0066517D02*
X0032400Y0066517D01*
X0032400Y0067115D02*
X0039100Y0067115D01*
X0039100Y0067714D02*
X0032400Y0067714D01*
X0032400Y0068312D02*
X0039100Y0068312D01*
X0039100Y0068911D02*
X0032400Y0068911D01*
X0032400Y0069509D02*
X0039100Y0069509D01*
X0039100Y0070108D02*
X0032400Y0070108D01*
X0032400Y0070706D02*
X0039100Y0070706D01*
X0039100Y0071305D02*
X0032400Y0071305D01*
X0032400Y0071903D02*
X0039100Y0071903D01*
X0039100Y0072502D02*
X0031895Y0072502D01*
X0031297Y0073100D02*
X0039100Y0073100D01*
X0039100Y0073699D02*
X0030698Y0073699D01*
X0030100Y0074297D02*
X0039100Y0074297D01*
X0039100Y0074896D02*
X0029501Y0074896D01*
X0029250Y0075494D02*
X0039100Y0075494D01*
X0038710Y0076093D02*
X0029250Y0076093D01*
X0029049Y0076691D02*
X0029868Y0076691D01*
X0029270Y0077290D02*
X0028451Y0077290D01*
X0029150Y0077888D02*
X0021400Y0077888D01*
X0021400Y0077290D02*
X0025749Y0077290D01*
X0025151Y0076691D02*
X0021400Y0076691D01*
X0021400Y0076093D02*
X0024950Y0076093D01*
X0024950Y0075494D02*
X0021400Y0075494D01*
X0021400Y0074896D02*
X0024950Y0074896D01*
X0025362Y0074297D02*
X0021400Y0074297D01*
X0021400Y0073699D02*
X0025458Y0073699D01*
X0024950Y0073100D02*
X0021400Y0073100D01*
X0021400Y0072502D02*
X0024950Y0072502D01*
X0024950Y0071903D02*
X0021400Y0071903D01*
X0021400Y0071305D02*
X0025055Y0071305D01*
X0025653Y0070706D02*
X0021400Y0070706D01*
X0021400Y0070108D02*
X0027595Y0070108D01*
X0028194Y0069509D02*
X0021400Y0069509D01*
X0021400Y0068911D02*
X0028700Y0068911D01*
X0028700Y0068312D02*
X0021400Y0068312D01*
X0021400Y0067714D02*
X0028517Y0067714D01*
X0027918Y0067115D02*
X0021400Y0067115D01*
X0021400Y0066517D02*
X0027320Y0066517D01*
X0027100Y0065918D02*
X0021400Y0065918D01*
X0021400Y0065320D02*
X0027100Y0065320D01*
X0027100Y0064721D02*
X0021400Y0064721D01*
X0021400Y0064123D02*
X0027100Y0064123D01*
X0027100Y0063524D02*
X0021400Y0063524D01*
X0021400Y0062926D02*
X0027100Y0062926D01*
X0027100Y0062327D02*
X0021400Y0062327D01*
X0021400Y0061729D02*
X0027100Y0061729D01*
X0027100Y0061130D02*
X0021400Y0061130D01*
X0021400Y0060532D02*
X0027100Y0060532D01*
X0027100Y0059933D02*
X0021400Y0059933D01*
X0021400Y0059334D02*
X0027100Y0059334D01*
X0027100Y0058736D02*
X0021400Y0058736D01*
X0021400Y0058137D02*
X0027100Y0058137D01*
X0027100Y0057539D02*
X0021400Y0057539D01*
X0021400Y0056940D02*
X0027100Y0056940D01*
X0027100Y0056342D02*
X0021400Y0056342D01*
X0021400Y0055743D02*
X0027100Y0055743D01*
X0027100Y0055145D02*
X0021400Y0055145D01*
X0021400Y0054546D02*
X0027257Y0054546D01*
X0027855Y0053948D02*
X0021400Y0053948D01*
X0021400Y0053349D02*
X0028454Y0053349D01*
X0029052Y0052751D02*
X0021400Y0052751D01*
X0021400Y0052152D02*
X0029651Y0052152D01*
X0030249Y0051554D02*
X0021400Y0051554D01*
X0021400Y0050955D02*
X0030848Y0050955D01*
X0031446Y0050357D02*
X0021400Y0050357D01*
X0021400Y0049758D02*
X0031900Y0049758D01*
X0031519Y0049160D02*
X0021400Y0049160D01*
X0021400Y0048561D02*
X0030950Y0048561D01*
X0030950Y0047963D02*
X0021400Y0047963D01*
X0021400Y0047364D02*
X0030950Y0047364D01*
X0030994Y0046766D02*
X0021400Y0046766D01*
X0021400Y0046167D02*
X0031592Y0046167D01*
X0032191Y0045569D02*
X0021400Y0045569D01*
X0031000Y0039584D02*
X0031600Y0039584D01*
X0031600Y0038985D02*
X0031000Y0038985D01*
X0031000Y0038387D02*
X0031600Y0038387D01*
X0031600Y0037788D02*
X0031000Y0037788D01*
X0031000Y0037190D02*
X0031600Y0037190D01*
X0031600Y0036591D02*
X0031000Y0036591D01*
X0031000Y0035993D02*
X0031600Y0035993D01*
X0036240Y0034197D02*
X0036700Y0034197D01*
X0036888Y0033599D02*
X0036112Y0033599D01*
X0035909Y0033000D02*
X0037136Y0033000D01*
X0037384Y0032401D02*
X0035604Y0032401D01*
X0035180Y0031803D02*
X0037960Y0031803D01*
X0038559Y0031204D02*
X0034607Y0031204D01*
X0027993Y0031204D02*
X0021695Y0031204D01*
X0022293Y0031803D02*
X0027420Y0031803D01*
X0026996Y0032401D02*
X0022892Y0032401D01*
X0023405Y0033000D02*
X0026691Y0033000D01*
X0026488Y0033599D02*
X0023653Y0033599D01*
X0023901Y0034197D02*
X0026360Y0034197D01*
X0034009Y0045569D02*
X0036391Y0045569D01*
X0035792Y0046167D02*
X0034608Y0046167D01*
X0033100Y0047700D02*
X0033100Y0050400D01*
X0028300Y0055200D01*
X0028300Y0065800D01*
X0029900Y0067400D01*
X0029900Y0069500D01*
X0027100Y0072300D01*
X0028300Y0071100D01*
X0031200Y0071500D02*
X0031200Y0066900D01*
X0029500Y0065200D01*
X0029500Y0055800D01*
X0037300Y0048000D01*
X0037300Y0047700D01*
X0033049Y0053948D02*
X0045950Y0053948D01*
X0046206Y0054546D02*
X0032451Y0054546D01*
X0031852Y0055145D02*
X0046804Y0055145D01*
X0051100Y0051900D02*
X0053200Y0051900D01*
X0055300Y0054000D01*
X0055300Y0056700D01*
X0059800Y0061200D01*
X0059800Y0065100D01*
X0059200Y0064500D01*
X0046600Y0064500D01*
X0045100Y0066000D01*
X0045100Y0071400D01*
X0045400Y0071700D01*
X0045500Y0072900D01*
X0043857Y0074297D02*
X0041500Y0074297D01*
X0041500Y0073699D02*
X0043350Y0073699D01*
X0043350Y0073100D02*
X0041500Y0073100D01*
X0041500Y0072502D02*
X0043350Y0072502D01*
X0043456Y0071903D02*
X0041500Y0071903D01*
X0041500Y0071305D02*
X0043900Y0071305D01*
X0043900Y0070706D02*
X0041500Y0070706D01*
X0041500Y0070108D02*
X0043900Y0070108D01*
X0043900Y0069509D02*
X0041500Y0069509D01*
X0041500Y0068911D02*
X0043900Y0068911D01*
X0043900Y0068312D02*
X0041500Y0068312D01*
X0041500Y0067714D02*
X0043900Y0067714D01*
X0043900Y0067115D02*
X0041500Y0067115D01*
X0041500Y0066517D02*
X0043900Y0066517D01*
X0043900Y0065918D02*
X0041500Y0065918D01*
X0041500Y0065320D02*
X0044083Y0065320D01*
X0044682Y0064721D02*
X0041500Y0064721D01*
X0041500Y0064123D02*
X0045280Y0064123D01*
X0045879Y0063524D02*
X0041500Y0063524D01*
X0041500Y0062926D02*
X0058600Y0062926D01*
X0058600Y0062327D02*
X0041500Y0062327D01*
X0041500Y0061729D02*
X0058600Y0061729D01*
X0058033Y0061130D02*
X0041767Y0061130D01*
X0042366Y0060532D02*
X0057434Y0060532D01*
X0056836Y0059933D02*
X0042964Y0059933D01*
X0046879Y0065918D02*
X0057650Y0065918D01*
X0061885Y0068312D02*
X0082791Y0068312D01*
X0082192Y0067714D02*
X0062483Y0067714D01*
X0063082Y0067115D02*
X0081594Y0067115D01*
X0080995Y0066517D02*
X0063400Y0066517D01*
X0063400Y0065918D02*
X0080397Y0065918D01*
X0079798Y0065320D02*
X0063400Y0065320D01*
X0063400Y0064721D02*
X0079200Y0064721D01*
X0078601Y0064123D02*
X0063400Y0064123D01*
X0063400Y0063524D02*
X0078003Y0063524D01*
X0076485Y0062926D02*
X0063400Y0062926D01*
X0063400Y0062327D02*
X0075887Y0062327D01*
X0075350Y0061729D02*
X0063400Y0061729D01*
X0063227Y0061130D02*
X0075350Y0061130D01*
X0075350Y0060532D02*
X0062629Y0060532D01*
X0062030Y0059933D02*
X0075426Y0059933D01*
X0076025Y0059334D02*
X0061432Y0059334D01*
X0063100Y0058200D02*
X0063100Y0057000D01*
X0055600Y0061200D02*
X0051900Y0060700D01*
X0052691Y0053349D02*
X0052952Y0053349D01*
X0053623Y0038985D02*
X0058977Y0038985D01*
X0058213Y0038387D02*
X0054387Y0038387D01*
X0054986Y0037788D02*
X0057614Y0037788D01*
X0057241Y0037190D02*
X0055359Y0037190D01*
X0055607Y0036591D02*
X0056993Y0036591D01*
X0056745Y0035993D02*
X0055855Y0035993D01*
X0055900Y0035394D02*
X0056700Y0035394D01*
X0056700Y0034796D02*
X0055900Y0034796D01*
X0055900Y0034197D02*
X0056700Y0034197D01*
X0056888Y0033599D02*
X0055712Y0033599D01*
X0055464Y0033000D02*
X0057136Y0033000D01*
X0057384Y0032401D02*
X0055216Y0032401D01*
X0054640Y0031803D02*
X0057960Y0031803D01*
X0058559Y0031204D02*
X0054041Y0031204D01*
X0048559Y0031204D02*
X0044041Y0031204D01*
X0044640Y0031803D02*
X0047960Y0031803D01*
X0047384Y0032401D02*
X0045216Y0032401D01*
X0045464Y0033000D02*
X0047136Y0033000D01*
X0046888Y0033599D02*
X0045712Y0033599D01*
X0045900Y0034197D02*
X0046700Y0034197D01*
X0046700Y0034796D02*
X0045900Y0034796D01*
X0045900Y0035394D02*
X0046700Y0035394D01*
X0046745Y0035993D02*
X0045855Y0035993D01*
X0045607Y0036591D02*
X0046993Y0036591D01*
X0047241Y0037190D02*
X0045359Y0037190D01*
X0044986Y0037788D02*
X0047614Y0037788D01*
X0048213Y0038387D02*
X0044387Y0038387D01*
X0043623Y0038985D02*
X0048977Y0038985D01*
X0064041Y0031204D02*
X0067993Y0031204D01*
X0067420Y0031803D02*
X0064640Y0031803D01*
X0065216Y0032401D02*
X0066996Y0032401D01*
X0066691Y0033000D02*
X0065464Y0033000D01*
X0065712Y0033599D02*
X0066488Y0033599D01*
X0066360Y0034197D02*
X0065900Y0034197D01*
X0071000Y0035993D02*
X0071600Y0035993D01*
X0071600Y0036591D02*
X0071000Y0036591D01*
X0071000Y0037190D02*
X0071600Y0037190D01*
X0071600Y0037788D02*
X0071000Y0037788D01*
X0071000Y0038387D02*
X0071600Y0038387D01*
X0071600Y0038985D02*
X0071000Y0038985D01*
X0071000Y0039584D02*
X0071600Y0039584D01*
X0076240Y0034197D02*
X0076700Y0034197D01*
X0076888Y0033599D02*
X0076112Y0033599D01*
X0075909Y0033000D02*
X0077136Y0033000D01*
X0077384Y0032401D02*
X0075604Y0032401D01*
X0075180Y0031803D02*
X0077960Y0031803D01*
X0078559Y0031204D02*
X0074607Y0031204D01*
X0084041Y0031204D02*
X0088559Y0031204D01*
X0087960Y0031803D02*
X0084640Y0031803D01*
X0085216Y0032401D02*
X0087384Y0032401D01*
X0087136Y0033000D02*
X0085464Y0033000D01*
X0085712Y0033599D02*
X0086888Y0033599D01*
X0086700Y0034197D02*
X0085900Y0034197D01*
X0085900Y0034796D02*
X0086700Y0034796D01*
X0086700Y0035394D02*
X0085900Y0035394D01*
X0085855Y0035993D02*
X0086745Y0035993D01*
X0086993Y0036591D02*
X0085607Y0036591D01*
X0085359Y0037190D02*
X0087241Y0037190D01*
X0087614Y0037788D02*
X0084986Y0037788D01*
X0084387Y0038387D02*
X0088213Y0038387D01*
X0088977Y0038985D02*
X0083623Y0038985D01*
X0093623Y0038985D02*
X0098977Y0038985D01*
X0098213Y0038387D02*
X0094387Y0038387D01*
X0094986Y0037788D02*
X0097614Y0037788D01*
X0097241Y0037190D02*
X0095359Y0037190D01*
X0095607Y0036591D02*
X0096993Y0036591D01*
X0096745Y0035993D02*
X0095855Y0035993D01*
X0095900Y0035394D02*
X0096700Y0035394D01*
X0096700Y0034796D02*
X0095900Y0034796D01*
X0095900Y0034197D02*
X0096700Y0034197D01*
X0096888Y0033599D02*
X0095712Y0033599D01*
X0095464Y0033000D02*
X0097136Y0033000D01*
X0097384Y0032401D02*
X0095216Y0032401D01*
X0094640Y0031803D02*
X0097960Y0031803D01*
X0098559Y0031204D02*
X0094041Y0031204D01*
X0104041Y0031204D02*
X0108559Y0031204D01*
X0107960Y0031803D02*
X0104640Y0031803D01*
X0105216Y0032401D02*
X0107384Y0032401D01*
X0107136Y0033000D02*
X0105464Y0033000D01*
X0105712Y0033599D02*
X0106888Y0033599D01*
X0106700Y0034197D02*
X0105900Y0034197D01*
X0105900Y0034796D02*
X0106700Y0034796D01*
X0106700Y0035394D02*
X0105900Y0035394D01*
X0105855Y0035993D02*
X0106745Y0035993D01*
X0106993Y0036591D02*
X0105607Y0036591D01*
X0105359Y0037190D02*
X0107241Y0037190D01*
X0107614Y0037788D02*
X0104986Y0037788D01*
X0104387Y0038387D02*
X0108213Y0038387D01*
X0108977Y0038985D02*
X0103623Y0038985D01*
X0113623Y0038985D02*
X0118977Y0038985D01*
X0118213Y0038387D02*
X0114387Y0038387D01*
X0114986Y0037788D02*
X0117614Y0037788D01*
X0117241Y0037190D02*
X0115359Y0037190D01*
X0115607Y0036591D02*
X0116993Y0036591D01*
X0116745Y0035993D02*
X0115855Y0035993D01*
X0115900Y0035394D02*
X0116700Y0035394D01*
X0116700Y0034796D02*
X0115900Y0034796D01*
X0115900Y0034197D02*
X0116700Y0034197D01*
X0116888Y0033599D02*
X0115712Y0033599D01*
X0115464Y0033000D02*
X0117136Y0033000D01*
X0117384Y0032401D02*
X0115216Y0032401D01*
X0114640Y0031803D02*
X0117960Y0031803D01*
X0118559Y0031204D02*
X0114041Y0031204D01*
X0124041Y0031204D02*
X0133621Y0031204D01*
X0133022Y0031803D02*
X0124640Y0031803D01*
X0125216Y0032401D02*
X0132424Y0032401D01*
X0131825Y0033000D02*
X0125464Y0033000D01*
X0125712Y0033599D02*
X0131638Y0033599D01*
X0131638Y0034197D02*
X0125900Y0034197D01*
X0137864Y0041379D02*
X0144012Y0041379D01*
X0143413Y0041978D02*
X0138462Y0041978D01*
X0139061Y0042576D02*
X0142815Y0042576D01*
X0142216Y0043175D02*
X0139659Y0043175D01*
X0139838Y0043773D02*
X0142038Y0043773D01*
X0142038Y0044372D02*
X0139838Y0044372D01*
X0139838Y0044970D02*
X0142038Y0044970D01*
X0142038Y0045569D02*
X0139838Y0045569D01*
X0139838Y0046167D02*
X0142038Y0046167D01*
X0142220Y0046766D02*
X0139656Y0046766D01*
X0139057Y0047364D02*
X0142818Y0047364D01*
X0143417Y0047963D02*
X0138459Y0047963D01*
X0137860Y0048561D02*
X0144015Y0048561D01*
X0145638Y0038985D02*
X0146238Y0038985D01*
X0146238Y0038387D02*
X0145638Y0038387D01*
X0145638Y0037788D02*
X0146238Y0037788D01*
X0146238Y0037190D02*
X0145638Y0037190D01*
X0145638Y0036591D02*
X0146238Y0036591D01*
X0146238Y0035993D02*
X0145638Y0035993D01*
X0200664Y0043773D02*
X0204113Y0043773D01*
X0204113Y0043175D02*
X0202109Y0043175D01*
X0202890Y0042576D02*
X0204113Y0042576D01*
X0204113Y0041978D02*
X0203489Y0041978D01*
X0204087Y0041379D02*
X0204113Y0041379D01*
X0097754Y0083275D02*
X0066766Y0083275D01*
X0067364Y0082676D02*
X0097155Y0082676D01*
X0096557Y0082078D02*
X0067650Y0082078D01*
X0067650Y0081479D02*
X0095958Y0081479D01*
X0095360Y0080881D02*
X0067650Y0080881D01*
X0067323Y0080282D02*
X0094761Y0080282D01*
X0094163Y0079684D02*
X0066724Y0079684D01*
X0064950Y0079085D02*
X0093564Y0079085D01*
X0092966Y0078487D02*
X0064827Y0078487D01*
X0064229Y0077888D02*
X0092367Y0077888D01*
X0091170Y0076691D02*
X0052849Y0076691D01*
X0053448Y0076093D02*
X0090571Y0076093D01*
X0089973Y0075494D02*
X0054046Y0075494D01*
X0054050Y0074896D02*
X0089374Y0074896D01*
X0088776Y0074297D02*
X0054050Y0074297D01*
X0054039Y0073699D02*
X0088177Y0073699D01*
X0074186Y0083873D02*
X0047371Y0083873D01*
X0047969Y0084472D02*
X0073587Y0084472D01*
X0072700Y0088200D02*
X0041200Y0088200D01*
X0036700Y0083700D01*
X0031600Y0083700D01*
X0033018Y0082078D02*
X0042450Y0082078D01*
X0042450Y0082676D02*
X0037373Y0082676D01*
X0037972Y0083275D02*
X0042450Y0083275D01*
X0042633Y0083873D02*
X0038571Y0083873D01*
X0039169Y0084472D02*
X0043231Y0084472D01*
X0045173Y0085070D02*
X0039768Y0085070D01*
X0040366Y0085669D02*
X0045772Y0085669D01*
X0046370Y0086268D02*
X0040965Y0086268D01*
X0041563Y0086866D02*
X0046969Y0086866D01*
X0046772Y0083275D02*
X0064234Y0083275D01*
X0065500Y0081700D02*
X0061400Y0081700D01*
X0059200Y0079500D01*
X0051100Y0079500D01*
X0050200Y0080400D01*
X0047200Y0080400D01*
X0045400Y0078600D01*
X0045400Y0077400D01*
X0045400Y0076800D01*
X0047800Y0074400D01*
X0047800Y0069800D01*
X0047500Y0069500D01*
X0047800Y0069300D01*
X0044455Y0074896D02*
X0041500Y0074896D01*
X0041500Y0075494D02*
X0044265Y0075494D01*
X0043667Y0076093D02*
X0041500Y0076093D01*
X0041500Y0076691D02*
X0043250Y0076691D01*
X0043250Y0077290D02*
X0040907Y0077290D01*
X0040309Y0077888D02*
X0043250Y0077888D01*
X0043446Y0078487D02*
X0039710Y0078487D01*
X0042880Y0081479D02*
X0021400Y0081479D01*
X0021400Y0080881D02*
X0043479Y0080881D01*
X0050818Y0081479D02*
X0059482Y0081479D01*
X0058884Y0080881D02*
X0051416Y0080881D01*
X0038763Y0089260D02*
X0036100Y0089260D01*
X0036100Y0089859D02*
X0039362Y0089859D01*
X0039960Y0090457D02*
X0036100Y0090457D01*
X0036100Y0091056D02*
X0040559Y0091056D01*
X0041157Y0091654D02*
X0036100Y0091654D01*
X0036100Y0092253D02*
X0041756Y0092253D01*
X0042354Y0092851D02*
X0036100Y0092851D01*
X0036100Y0093450D02*
X0042953Y0093450D01*
X0043551Y0094048D02*
X0036100Y0094048D01*
X0036100Y0094647D02*
X0044150Y0094647D01*
X0046548Y0095245D02*
X0036100Y0095245D01*
X0036100Y0095844D02*
X0047147Y0095844D01*
X0047745Y0096442D02*
X0036100Y0096442D01*
X0036100Y0097041D02*
X0048344Y0097041D01*
X0048942Y0097639D02*
X0036100Y0097639D01*
X0036100Y0098238D02*
X0049541Y0098238D01*
X0050139Y0098836D02*
X0036100Y0098836D01*
X0036100Y0099435D02*
X0050738Y0099435D01*
X0051336Y0100033D02*
X0036100Y0100033D01*
X0036100Y0100632D02*
X0051935Y0100632D01*
X0052533Y0101230D02*
X0036100Y0101230D01*
X0036100Y0101829D02*
X0053132Y0101829D01*
X0053730Y0102427D02*
X0036100Y0102427D01*
X0036100Y0103026D02*
X0054329Y0103026D01*
X0054927Y0103624D02*
X0036100Y0103624D01*
X0036100Y0104223D02*
X0055526Y0104223D01*
X0056124Y0104821D02*
X0037162Y0104821D01*
X0037760Y0105420D02*
X0056723Y0105420D01*
X0057100Y0106018D02*
X0038250Y0106018D01*
X0038250Y0106617D02*
X0057100Y0106617D01*
X0057100Y0107215D02*
X0038250Y0107215D01*
X0038127Y0107814D02*
X0057100Y0107814D01*
X0057100Y0108412D02*
X0037528Y0108412D01*
X0036100Y0106800D02*
X0034900Y0105600D01*
X0034900Y0087300D01*
X0032750Y0087465D02*
X0021400Y0087465D01*
X0021400Y0088063D02*
X0032750Y0088063D01*
X0033221Y0088662D02*
X0021400Y0088662D01*
X0021400Y0089260D02*
X0033700Y0089260D01*
X0033700Y0089859D02*
X0021400Y0089859D01*
X0021400Y0090457D02*
X0033700Y0090457D01*
X0033700Y0091056D02*
X0021400Y0091056D01*
X0021400Y0091654D02*
X0033700Y0091654D01*
X0033700Y0092253D02*
X0021400Y0092253D01*
X0021400Y0092851D02*
X0033700Y0092851D01*
X0033700Y0093450D02*
X0021400Y0093450D01*
X0021400Y0094048D02*
X0033700Y0094048D01*
X0033700Y0094647D02*
X0021400Y0094647D01*
X0021400Y0095245D02*
X0033700Y0095245D01*
X0033700Y0095844D02*
X0021400Y0095844D01*
X0021400Y0096442D02*
X0033700Y0096442D01*
X0033700Y0097041D02*
X0021400Y0097041D01*
X0021400Y0097639D02*
X0033700Y0097639D01*
X0033700Y0098238D02*
X0021400Y0098238D01*
X0021400Y0098836D02*
X0033700Y0098836D01*
X0033700Y0099435D02*
X0021400Y0099435D01*
X0021400Y0100033D02*
X0033700Y0100033D01*
X0033700Y0100632D02*
X0021400Y0100632D01*
X0021400Y0101230D02*
X0033700Y0101230D01*
X0033700Y0101829D02*
X0021400Y0101829D01*
X0021400Y0102427D02*
X0033700Y0102427D01*
X0033700Y0103026D02*
X0021400Y0103026D01*
X0021400Y0103624D02*
X0033700Y0103624D01*
X0033700Y0104223D02*
X0021400Y0104223D01*
X0021400Y0104821D02*
X0033700Y0104821D01*
X0033700Y0105420D02*
X0021400Y0105420D01*
X0021400Y0106018D02*
X0033700Y0106018D01*
X0033950Y0106617D02*
X0021400Y0106617D01*
X0021400Y0107215D02*
X0033950Y0107215D01*
X0034073Y0107814D02*
X0021400Y0107814D01*
X0021400Y0108412D02*
X0034672Y0108412D01*
X0023716Y0096900D02*
X0023416Y0096900D01*
X0021400Y0086866D02*
X0026025Y0086866D01*
X0025427Y0086268D02*
X0021400Y0086268D01*
X0021400Y0085669D02*
X0025250Y0085669D01*
X0025250Y0085070D02*
X0021400Y0085070D01*
X0021400Y0084472D02*
X0025250Y0084472D01*
X0025686Y0083873D02*
X0021400Y0083873D01*
X0021400Y0083275D02*
X0026284Y0083275D01*
X0028516Y0083275D02*
X0029450Y0083275D01*
X0029450Y0083873D02*
X0029114Y0083873D01*
X0029583Y0082676D02*
X0021400Y0082676D01*
X0021400Y0082078D02*
X0030182Y0082078D01*
X0030242Y0080282D02*
X0021400Y0080282D01*
X0021400Y0079684D02*
X0029643Y0079684D01*
X0029150Y0079085D02*
X0021400Y0079085D01*
X0021400Y0078487D02*
X0029150Y0078487D01*
X0027100Y0075600D02*
X0031200Y0071500D01*
X0025300Y0059700D02*
X0025600Y0059400D01*
X0028775Y0086866D02*
X0029769Y0086866D01*
X0036579Y0088662D02*
X0038165Y0088662D01*
X0037566Y0088063D02*
X0037050Y0088063D01*
X0042756Y0089859D02*
X0065601Y0089859D01*
X0065450Y0090457D02*
X0043354Y0090457D01*
X0043953Y0091056D02*
X0065450Y0091056D01*
X0065450Y0091654D02*
X0044551Y0091654D01*
X0045150Y0092253D02*
X0065912Y0092253D01*
X0066400Y0092851D02*
X0047548Y0092851D01*
X0048100Y0093403D02*
X0048100Y0093403D01*
X0048147Y0093450D02*
X0066400Y0093450D01*
X0066400Y0094048D02*
X0048745Y0094048D01*
X0049344Y0094647D02*
X0066400Y0094647D01*
X0066400Y0095245D02*
X0049942Y0095245D01*
X0050541Y0095844D02*
X0066400Y0095844D01*
X0066400Y0096442D02*
X0051139Y0096442D01*
X0051738Y0097041D02*
X0066400Y0097041D01*
X0066400Y0097639D02*
X0052336Y0097639D01*
X0052935Y0098238D02*
X0066400Y0098238D01*
X0066400Y0098836D02*
X0053533Y0098836D01*
X0054132Y0099435D02*
X0066400Y0099435D01*
X0066400Y0100033D02*
X0054730Y0100033D01*
X0055329Y0100632D02*
X0066400Y0100632D01*
X0066400Y0101230D02*
X0055927Y0101230D01*
X0056526Y0101829D02*
X0066400Y0101829D01*
X0066400Y0102427D02*
X0057124Y0102427D01*
X0057723Y0103026D02*
X0066400Y0103026D01*
X0065635Y0103624D02*
X0058321Y0103624D01*
X0058920Y0104223D02*
X0065037Y0104223D01*
X0064850Y0104821D02*
X0059500Y0104821D01*
X0059500Y0105420D02*
X0064850Y0105420D01*
X0064850Y0106018D02*
X0059500Y0106018D01*
X0059500Y0106617D02*
X0065276Y0106617D01*
X0065875Y0107215D02*
X0059500Y0107215D01*
X0059500Y0107814D02*
X0069700Y0107814D01*
X0069700Y0108412D02*
X0059500Y0108412D01*
X0059651Y0109011D02*
X0069700Y0109011D01*
X0069700Y0109609D02*
X0060250Y0109609D01*
X0060450Y0110208D02*
X0069395Y0110208D01*
X0069700Y0107215D02*
X0068125Y0107215D01*
X0068724Y0106617D02*
X0069700Y0106617D01*
X0069700Y0106018D02*
X0069150Y0106018D01*
X0069150Y0105420D02*
X0069700Y0105420D01*
X0069700Y0104821D02*
X0069150Y0104821D01*
X0068963Y0104223D02*
X0069700Y0104223D01*
X0069700Y0103624D02*
X0068800Y0103624D01*
X0068800Y0103026D02*
X0069700Y0103026D01*
X0069700Y0102427D02*
X0068800Y0102427D01*
X0068800Y0101829D02*
X0069700Y0101829D01*
X0069700Y0101230D02*
X0068800Y0101230D01*
X0068800Y0100632D02*
X0069700Y0100632D01*
X0069700Y0100033D02*
X0068800Y0100033D01*
X0068800Y0099435D02*
X0069700Y0099435D01*
X0069700Y0098836D02*
X0068800Y0098836D01*
X0068800Y0098238D02*
X0069700Y0098238D01*
X0070264Y0097639D02*
X0068800Y0097639D01*
X0068800Y0097041D02*
X0070862Y0097041D01*
X0071461Y0096442D02*
X0068800Y0096442D01*
X0068800Y0095844D02*
X0072059Y0095844D01*
X0072658Y0095245D02*
X0068800Y0095245D01*
X0068800Y0094647D02*
X0073256Y0094647D01*
X0073855Y0094048D02*
X0068800Y0094048D01*
X0068800Y0093450D02*
X0074453Y0093450D01*
X0073260Y0090457D02*
X0069750Y0090457D01*
X0069599Y0089859D02*
X0072662Y0089859D01*
X0067600Y0090900D02*
X0067600Y0104700D01*
X0067000Y0105300D01*
X0056948Y0109011D02*
X0011463Y0109011D01*
X0011463Y0109609D02*
X0056350Y0109609D01*
X0056150Y0110208D02*
X0011463Y0110208D01*
X0011463Y0110806D02*
X0056150Y0110806D01*
X0056150Y0111405D02*
X0011463Y0111405D01*
X0011463Y0112003D02*
X0056563Y0112003D01*
X0065500Y0081700D02*
X0065500Y0081500D01*
X0015337Y0112602D02*
X0011463Y0112602D01*
X0011463Y0113201D02*
X0013892Y0113201D01*
X0012862Y0113799D02*
X0011463Y0113799D01*
X0011463Y0114398D02*
X0012264Y0114398D01*
X0011665Y0114996D02*
X0011463Y0114996D01*
D17*
X0075900Y0104600D02*
X0075900Y0102500D01*
X0079600Y0098800D01*
X0079600Y0098400D01*
X0075900Y0104600D02*
X0080800Y0109500D01*
X0091000Y0109500D01*
X0094600Y0113100D01*
X0094600Y0120245D01*
X0094600Y0120300D01*
X0095900Y0121600D01*
X0095938Y0121583D02*
X0094600Y0120245D01*
X0100900Y0094800D02*
X0100900Y0084300D01*
X0077500Y0060900D01*
M02*
