G75*
%MOIN*%
%OFA0B0*%
%FSLAX25Y25*%
%IPPOS*%
%LPD*%
%AMOC8*
5,1,8,0,0,1.08239X$1,22.5*
%
%ADD10C,0.01600*%
%ADD11C,0.00000*%
%ADD12C,0.12211*%
%ADD13R,0.02762X0.06699*%
%ADD14R,0.06306X0.05518*%
%ADD15R,0.03943X0.03156*%
%ADD16R,0.02565X0.05124*%
%ADD17R,0.10400X0.10400*%
%ADD18R,0.05518X0.06306*%
%ADD19OC8,0.06400*%
%ADD20R,0.04337X0.04337*%
%ADD21R,0.01181X0.03346*%
%ADD22R,0.03346X0.01181*%
%ADD23R,0.08858X0.08858*%
%ADD24R,0.03156X0.03943*%
%ADD25R,0.03550X0.01520*%
%ADD26R,0.01520X0.03550*%
%ADD27R,0.12802X0.12802*%
%ADD28R,0.05124X0.04731*%
%ADD29R,0.09100X0.02800*%
%ADD30C,0.01301*%
%ADD31R,0.03000X0.08400*%
%ADD32R,0.08274X0.05912*%
%ADD33C,0.06400*%
%ADD34C,0.07800*%
D10*
X0017237Y0029063D02*
X0198339Y0029063D01*
X0198529Y0029065D01*
X0198719Y0029072D01*
X0198909Y0029084D01*
X0199099Y0029100D01*
X0199288Y0029120D01*
X0199477Y0029146D01*
X0199665Y0029175D01*
X0199852Y0029210D01*
X0200038Y0029249D01*
X0200223Y0029292D01*
X0200408Y0029340D01*
X0200591Y0029392D01*
X0200772Y0029448D01*
X0200952Y0029509D01*
X0201131Y0029575D01*
X0201308Y0029644D01*
X0201484Y0029718D01*
X0201657Y0029796D01*
X0201829Y0029879D01*
X0201998Y0029965D01*
X0202166Y0030055D01*
X0202331Y0030150D01*
X0202494Y0030248D01*
X0202654Y0030351D01*
X0202812Y0030457D01*
X0202967Y0030567D01*
X0203120Y0030680D01*
X0203270Y0030798D01*
X0203416Y0030919D01*
X0203560Y0031043D01*
X0203701Y0031171D01*
X0203839Y0031302D01*
X0203974Y0031437D01*
X0204105Y0031575D01*
X0204233Y0031716D01*
X0204357Y0031860D01*
X0204478Y0032006D01*
X0204596Y0032156D01*
X0204709Y0032309D01*
X0204819Y0032464D01*
X0204925Y0032622D01*
X0205028Y0032782D01*
X0205126Y0032945D01*
X0205221Y0033110D01*
X0205311Y0033278D01*
X0205397Y0033447D01*
X0205480Y0033619D01*
X0205558Y0033792D01*
X0205632Y0033968D01*
X0205701Y0034145D01*
X0205767Y0034324D01*
X0205828Y0034504D01*
X0205884Y0034685D01*
X0205936Y0034868D01*
X0205984Y0035053D01*
X0206027Y0035238D01*
X0206066Y0035424D01*
X0206101Y0035611D01*
X0206130Y0035799D01*
X0206156Y0035988D01*
X0206176Y0036177D01*
X0206192Y0036367D01*
X0206204Y0036557D01*
X0206211Y0036747D01*
X0206213Y0036937D01*
X0206213Y0119614D01*
X0206211Y0119804D01*
X0206204Y0119994D01*
X0206192Y0120184D01*
X0206176Y0120374D01*
X0206156Y0120563D01*
X0206130Y0120752D01*
X0206101Y0120940D01*
X0206066Y0121127D01*
X0206027Y0121313D01*
X0205984Y0121498D01*
X0205936Y0121683D01*
X0205884Y0121866D01*
X0205828Y0122047D01*
X0205767Y0122227D01*
X0205701Y0122406D01*
X0205632Y0122583D01*
X0205558Y0122759D01*
X0205480Y0122932D01*
X0205397Y0123104D01*
X0205311Y0123273D01*
X0205221Y0123441D01*
X0205126Y0123606D01*
X0205028Y0123769D01*
X0204925Y0123929D01*
X0204819Y0124087D01*
X0204709Y0124242D01*
X0204596Y0124395D01*
X0204478Y0124545D01*
X0204357Y0124691D01*
X0204233Y0124835D01*
X0204105Y0124976D01*
X0203974Y0125114D01*
X0203839Y0125249D01*
X0203701Y0125380D01*
X0203560Y0125508D01*
X0203416Y0125632D01*
X0203270Y0125753D01*
X0203120Y0125871D01*
X0202967Y0125984D01*
X0202812Y0126094D01*
X0202654Y0126200D01*
X0202494Y0126303D01*
X0202331Y0126401D01*
X0202166Y0126496D01*
X0201998Y0126586D01*
X0201829Y0126672D01*
X0201657Y0126755D01*
X0201484Y0126833D01*
X0201308Y0126907D01*
X0201131Y0126976D01*
X0200952Y0127042D01*
X0200772Y0127103D01*
X0200591Y0127159D01*
X0200408Y0127211D01*
X0200223Y0127259D01*
X0200038Y0127302D01*
X0199852Y0127341D01*
X0199665Y0127376D01*
X0199477Y0127405D01*
X0199288Y0127431D01*
X0199099Y0127451D01*
X0198909Y0127467D01*
X0198719Y0127479D01*
X0198529Y0127486D01*
X0198339Y0127488D01*
X0017237Y0127488D01*
X0017047Y0127486D01*
X0016857Y0127479D01*
X0016667Y0127467D01*
X0016477Y0127451D01*
X0016288Y0127431D01*
X0016099Y0127405D01*
X0015911Y0127376D01*
X0015724Y0127341D01*
X0015538Y0127302D01*
X0015353Y0127259D01*
X0015168Y0127211D01*
X0014985Y0127159D01*
X0014804Y0127103D01*
X0014624Y0127042D01*
X0014445Y0126976D01*
X0014268Y0126907D01*
X0014092Y0126833D01*
X0013919Y0126755D01*
X0013747Y0126672D01*
X0013578Y0126586D01*
X0013410Y0126496D01*
X0013245Y0126401D01*
X0013082Y0126303D01*
X0012922Y0126200D01*
X0012764Y0126094D01*
X0012609Y0125984D01*
X0012456Y0125871D01*
X0012306Y0125753D01*
X0012160Y0125632D01*
X0012016Y0125508D01*
X0011875Y0125380D01*
X0011737Y0125249D01*
X0011602Y0125114D01*
X0011471Y0124976D01*
X0011343Y0124835D01*
X0011219Y0124691D01*
X0011098Y0124545D01*
X0010980Y0124395D01*
X0010867Y0124242D01*
X0010757Y0124087D01*
X0010651Y0123929D01*
X0010548Y0123769D01*
X0010450Y0123606D01*
X0010355Y0123441D01*
X0010265Y0123273D01*
X0010179Y0123104D01*
X0010096Y0122932D01*
X0010018Y0122759D01*
X0009944Y0122583D01*
X0009875Y0122406D01*
X0009809Y0122227D01*
X0009748Y0122047D01*
X0009692Y0121866D01*
X0009640Y0121683D01*
X0009592Y0121498D01*
X0009549Y0121313D01*
X0009510Y0121127D01*
X0009475Y0120940D01*
X0009446Y0120752D01*
X0009420Y0120563D01*
X0009400Y0120374D01*
X0009384Y0120184D01*
X0009372Y0119994D01*
X0009365Y0119804D01*
X0009363Y0119614D01*
X0009363Y0036937D01*
X0009365Y0036747D01*
X0009372Y0036557D01*
X0009384Y0036367D01*
X0009400Y0036177D01*
X0009420Y0035988D01*
X0009446Y0035799D01*
X0009475Y0035611D01*
X0009510Y0035424D01*
X0009549Y0035238D01*
X0009592Y0035053D01*
X0009640Y0034868D01*
X0009692Y0034685D01*
X0009748Y0034504D01*
X0009809Y0034324D01*
X0009875Y0034145D01*
X0009944Y0033968D01*
X0010018Y0033792D01*
X0010096Y0033619D01*
X0010179Y0033447D01*
X0010265Y0033278D01*
X0010355Y0033110D01*
X0010450Y0032945D01*
X0010548Y0032782D01*
X0010651Y0032622D01*
X0010757Y0032464D01*
X0010867Y0032309D01*
X0010980Y0032156D01*
X0011098Y0032006D01*
X0011219Y0031860D01*
X0011343Y0031716D01*
X0011471Y0031575D01*
X0011602Y0031437D01*
X0011737Y0031302D01*
X0011875Y0031171D01*
X0012016Y0031043D01*
X0012160Y0030919D01*
X0012306Y0030798D01*
X0012456Y0030680D01*
X0012609Y0030567D01*
X0012764Y0030457D01*
X0012922Y0030351D01*
X0013082Y0030248D01*
X0013245Y0030150D01*
X0013410Y0030055D01*
X0013578Y0029965D01*
X0013747Y0029879D01*
X0013919Y0029796D01*
X0014092Y0029718D01*
X0014268Y0029644D01*
X0014445Y0029575D01*
X0014624Y0029509D01*
X0014804Y0029448D01*
X0014985Y0029392D01*
X0015168Y0029340D01*
X0015353Y0029292D01*
X0015538Y0029249D01*
X0015724Y0029210D01*
X0015911Y0029175D01*
X0016099Y0029146D01*
X0016288Y0029120D01*
X0016477Y0029100D01*
X0016667Y0029084D01*
X0016857Y0029072D01*
X0017047Y0029065D01*
X0017237Y0029063D01*
D11*
X0011331Y0036937D02*
X0011333Y0037090D01*
X0011339Y0037244D01*
X0011349Y0037397D01*
X0011363Y0037549D01*
X0011381Y0037702D01*
X0011403Y0037853D01*
X0011428Y0038004D01*
X0011458Y0038155D01*
X0011492Y0038305D01*
X0011529Y0038453D01*
X0011570Y0038601D01*
X0011615Y0038747D01*
X0011664Y0038893D01*
X0011717Y0039037D01*
X0011773Y0039179D01*
X0011833Y0039320D01*
X0011897Y0039460D01*
X0011964Y0039598D01*
X0012035Y0039734D01*
X0012110Y0039868D01*
X0012187Y0040000D01*
X0012269Y0040130D01*
X0012353Y0040258D01*
X0012441Y0040384D01*
X0012532Y0040507D01*
X0012626Y0040628D01*
X0012724Y0040746D01*
X0012824Y0040862D01*
X0012928Y0040975D01*
X0013034Y0041086D01*
X0013143Y0041194D01*
X0013255Y0041299D01*
X0013369Y0041400D01*
X0013487Y0041499D01*
X0013606Y0041595D01*
X0013728Y0041688D01*
X0013853Y0041777D01*
X0013980Y0041864D01*
X0014109Y0041946D01*
X0014240Y0042026D01*
X0014373Y0042102D01*
X0014508Y0042175D01*
X0014645Y0042244D01*
X0014784Y0042309D01*
X0014924Y0042371D01*
X0015066Y0042429D01*
X0015209Y0042484D01*
X0015354Y0042535D01*
X0015500Y0042582D01*
X0015647Y0042625D01*
X0015795Y0042664D01*
X0015944Y0042700D01*
X0016094Y0042731D01*
X0016245Y0042759D01*
X0016396Y0042783D01*
X0016549Y0042803D01*
X0016701Y0042819D01*
X0016854Y0042831D01*
X0017007Y0042839D01*
X0017160Y0042843D01*
X0017314Y0042843D01*
X0017467Y0042839D01*
X0017620Y0042831D01*
X0017773Y0042819D01*
X0017925Y0042803D01*
X0018078Y0042783D01*
X0018229Y0042759D01*
X0018380Y0042731D01*
X0018530Y0042700D01*
X0018679Y0042664D01*
X0018827Y0042625D01*
X0018974Y0042582D01*
X0019120Y0042535D01*
X0019265Y0042484D01*
X0019408Y0042429D01*
X0019550Y0042371D01*
X0019690Y0042309D01*
X0019829Y0042244D01*
X0019966Y0042175D01*
X0020101Y0042102D01*
X0020234Y0042026D01*
X0020365Y0041946D01*
X0020494Y0041864D01*
X0020621Y0041777D01*
X0020746Y0041688D01*
X0020868Y0041595D01*
X0020987Y0041499D01*
X0021105Y0041400D01*
X0021219Y0041299D01*
X0021331Y0041194D01*
X0021440Y0041086D01*
X0021546Y0040975D01*
X0021650Y0040862D01*
X0021750Y0040746D01*
X0021848Y0040628D01*
X0021942Y0040507D01*
X0022033Y0040384D01*
X0022121Y0040258D01*
X0022205Y0040130D01*
X0022287Y0040000D01*
X0022364Y0039868D01*
X0022439Y0039734D01*
X0022510Y0039598D01*
X0022577Y0039460D01*
X0022641Y0039320D01*
X0022701Y0039179D01*
X0022757Y0039037D01*
X0022810Y0038893D01*
X0022859Y0038747D01*
X0022904Y0038601D01*
X0022945Y0038453D01*
X0022982Y0038305D01*
X0023016Y0038155D01*
X0023046Y0038004D01*
X0023071Y0037853D01*
X0023093Y0037702D01*
X0023111Y0037549D01*
X0023125Y0037397D01*
X0023135Y0037244D01*
X0023141Y0037090D01*
X0023143Y0036937D01*
X0023141Y0036784D01*
X0023135Y0036630D01*
X0023125Y0036477D01*
X0023111Y0036325D01*
X0023093Y0036172D01*
X0023071Y0036021D01*
X0023046Y0035870D01*
X0023016Y0035719D01*
X0022982Y0035569D01*
X0022945Y0035421D01*
X0022904Y0035273D01*
X0022859Y0035127D01*
X0022810Y0034981D01*
X0022757Y0034837D01*
X0022701Y0034695D01*
X0022641Y0034554D01*
X0022577Y0034414D01*
X0022510Y0034276D01*
X0022439Y0034140D01*
X0022364Y0034006D01*
X0022287Y0033874D01*
X0022205Y0033744D01*
X0022121Y0033616D01*
X0022033Y0033490D01*
X0021942Y0033367D01*
X0021848Y0033246D01*
X0021750Y0033128D01*
X0021650Y0033012D01*
X0021546Y0032899D01*
X0021440Y0032788D01*
X0021331Y0032680D01*
X0021219Y0032575D01*
X0021105Y0032474D01*
X0020987Y0032375D01*
X0020868Y0032279D01*
X0020746Y0032186D01*
X0020621Y0032097D01*
X0020494Y0032010D01*
X0020365Y0031928D01*
X0020234Y0031848D01*
X0020101Y0031772D01*
X0019966Y0031699D01*
X0019829Y0031630D01*
X0019690Y0031565D01*
X0019550Y0031503D01*
X0019408Y0031445D01*
X0019265Y0031390D01*
X0019120Y0031339D01*
X0018974Y0031292D01*
X0018827Y0031249D01*
X0018679Y0031210D01*
X0018530Y0031174D01*
X0018380Y0031143D01*
X0018229Y0031115D01*
X0018078Y0031091D01*
X0017925Y0031071D01*
X0017773Y0031055D01*
X0017620Y0031043D01*
X0017467Y0031035D01*
X0017314Y0031031D01*
X0017160Y0031031D01*
X0017007Y0031035D01*
X0016854Y0031043D01*
X0016701Y0031055D01*
X0016549Y0031071D01*
X0016396Y0031091D01*
X0016245Y0031115D01*
X0016094Y0031143D01*
X0015944Y0031174D01*
X0015795Y0031210D01*
X0015647Y0031249D01*
X0015500Y0031292D01*
X0015354Y0031339D01*
X0015209Y0031390D01*
X0015066Y0031445D01*
X0014924Y0031503D01*
X0014784Y0031565D01*
X0014645Y0031630D01*
X0014508Y0031699D01*
X0014373Y0031772D01*
X0014240Y0031848D01*
X0014109Y0031928D01*
X0013980Y0032010D01*
X0013853Y0032097D01*
X0013728Y0032186D01*
X0013606Y0032279D01*
X0013487Y0032375D01*
X0013369Y0032474D01*
X0013255Y0032575D01*
X0013143Y0032680D01*
X0013034Y0032788D01*
X0012928Y0032899D01*
X0012824Y0033012D01*
X0012724Y0033128D01*
X0012626Y0033246D01*
X0012532Y0033367D01*
X0012441Y0033490D01*
X0012353Y0033616D01*
X0012269Y0033744D01*
X0012187Y0033874D01*
X0012110Y0034006D01*
X0012035Y0034140D01*
X0011964Y0034276D01*
X0011897Y0034414D01*
X0011833Y0034554D01*
X0011773Y0034695D01*
X0011717Y0034837D01*
X0011664Y0034981D01*
X0011615Y0035127D01*
X0011570Y0035273D01*
X0011529Y0035421D01*
X0011492Y0035569D01*
X0011458Y0035719D01*
X0011428Y0035870D01*
X0011403Y0036021D01*
X0011381Y0036172D01*
X0011363Y0036325D01*
X0011349Y0036477D01*
X0011339Y0036630D01*
X0011333Y0036784D01*
X0011331Y0036937D01*
X0011331Y0119614D02*
X0011333Y0119767D01*
X0011339Y0119921D01*
X0011349Y0120074D01*
X0011363Y0120226D01*
X0011381Y0120379D01*
X0011403Y0120530D01*
X0011428Y0120681D01*
X0011458Y0120832D01*
X0011492Y0120982D01*
X0011529Y0121130D01*
X0011570Y0121278D01*
X0011615Y0121424D01*
X0011664Y0121570D01*
X0011717Y0121714D01*
X0011773Y0121856D01*
X0011833Y0121997D01*
X0011897Y0122137D01*
X0011964Y0122275D01*
X0012035Y0122411D01*
X0012110Y0122545D01*
X0012187Y0122677D01*
X0012269Y0122807D01*
X0012353Y0122935D01*
X0012441Y0123061D01*
X0012532Y0123184D01*
X0012626Y0123305D01*
X0012724Y0123423D01*
X0012824Y0123539D01*
X0012928Y0123652D01*
X0013034Y0123763D01*
X0013143Y0123871D01*
X0013255Y0123976D01*
X0013369Y0124077D01*
X0013487Y0124176D01*
X0013606Y0124272D01*
X0013728Y0124365D01*
X0013853Y0124454D01*
X0013980Y0124541D01*
X0014109Y0124623D01*
X0014240Y0124703D01*
X0014373Y0124779D01*
X0014508Y0124852D01*
X0014645Y0124921D01*
X0014784Y0124986D01*
X0014924Y0125048D01*
X0015066Y0125106D01*
X0015209Y0125161D01*
X0015354Y0125212D01*
X0015500Y0125259D01*
X0015647Y0125302D01*
X0015795Y0125341D01*
X0015944Y0125377D01*
X0016094Y0125408D01*
X0016245Y0125436D01*
X0016396Y0125460D01*
X0016549Y0125480D01*
X0016701Y0125496D01*
X0016854Y0125508D01*
X0017007Y0125516D01*
X0017160Y0125520D01*
X0017314Y0125520D01*
X0017467Y0125516D01*
X0017620Y0125508D01*
X0017773Y0125496D01*
X0017925Y0125480D01*
X0018078Y0125460D01*
X0018229Y0125436D01*
X0018380Y0125408D01*
X0018530Y0125377D01*
X0018679Y0125341D01*
X0018827Y0125302D01*
X0018974Y0125259D01*
X0019120Y0125212D01*
X0019265Y0125161D01*
X0019408Y0125106D01*
X0019550Y0125048D01*
X0019690Y0124986D01*
X0019829Y0124921D01*
X0019966Y0124852D01*
X0020101Y0124779D01*
X0020234Y0124703D01*
X0020365Y0124623D01*
X0020494Y0124541D01*
X0020621Y0124454D01*
X0020746Y0124365D01*
X0020868Y0124272D01*
X0020987Y0124176D01*
X0021105Y0124077D01*
X0021219Y0123976D01*
X0021331Y0123871D01*
X0021440Y0123763D01*
X0021546Y0123652D01*
X0021650Y0123539D01*
X0021750Y0123423D01*
X0021848Y0123305D01*
X0021942Y0123184D01*
X0022033Y0123061D01*
X0022121Y0122935D01*
X0022205Y0122807D01*
X0022287Y0122677D01*
X0022364Y0122545D01*
X0022439Y0122411D01*
X0022510Y0122275D01*
X0022577Y0122137D01*
X0022641Y0121997D01*
X0022701Y0121856D01*
X0022757Y0121714D01*
X0022810Y0121570D01*
X0022859Y0121424D01*
X0022904Y0121278D01*
X0022945Y0121130D01*
X0022982Y0120982D01*
X0023016Y0120832D01*
X0023046Y0120681D01*
X0023071Y0120530D01*
X0023093Y0120379D01*
X0023111Y0120226D01*
X0023125Y0120074D01*
X0023135Y0119921D01*
X0023141Y0119767D01*
X0023143Y0119614D01*
X0023141Y0119461D01*
X0023135Y0119307D01*
X0023125Y0119154D01*
X0023111Y0119002D01*
X0023093Y0118849D01*
X0023071Y0118698D01*
X0023046Y0118547D01*
X0023016Y0118396D01*
X0022982Y0118246D01*
X0022945Y0118098D01*
X0022904Y0117950D01*
X0022859Y0117804D01*
X0022810Y0117658D01*
X0022757Y0117514D01*
X0022701Y0117372D01*
X0022641Y0117231D01*
X0022577Y0117091D01*
X0022510Y0116953D01*
X0022439Y0116817D01*
X0022364Y0116683D01*
X0022287Y0116551D01*
X0022205Y0116421D01*
X0022121Y0116293D01*
X0022033Y0116167D01*
X0021942Y0116044D01*
X0021848Y0115923D01*
X0021750Y0115805D01*
X0021650Y0115689D01*
X0021546Y0115576D01*
X0021440Y0115465D01*
X0021331Y0115357D01*
X0021219Y0115252D01*
X0021105Y0115151D01*
X0020987Y0115052D01*
X0020868Y0114956D01*
X0020746Y0114863D01*
X0020621Y0114774D01*
X0020494Y0114687D01*
X0020365Y0114605D01*
X0020234Y0114525D01*
X0020101Y0114449D01*
X0019966Y0114376D01*
X0019829Y0114307D01*
X0019690Y0114242D01*
X0019550Y0114180D01*
X0019408Y0114122D01*
X0019265Y0114067D01*
X0019120Y0114016D01*
X0018974Y0113969D01*
X0018827Y0113926D01*
X0018679Y0113887D01*
X0018530Y0113851D01*
X0018380Y0113820D01*
X0018229Y0113792D01*
X0018078Y0113768D01*
X0017925Y0113748D01*
X0017773Y0113732D01*
X0017620Y0113720D01*
X0017467Y0113712D01*
X0017314Y0113708D01*
X0017160Y0113708D01*
X0017007Y0113712D01*
X0016854Y0113720D01*
X0016701Y0113732D01*
X0016549Y0113748D01*
X0016396Y0113768D01*
X0016245Y0113792D01*
X0016094Y0113820D01*
X0015944Y0113851D01*
X0015795Y0113887D01*
X0015647Y0113926D01*
X0015500Y0113969D01*
X0015354Y0114016D01*
X0015209Y0114067D01*
X0015066Y0114122D01*
X0014924Y0114180D01*
X0014784Y0114242D01*
X0014645Y0114307D01*
X0014508Y0114376D01*
X0014373Y0114449D01*
X0014240Y0114525D01*
X0014109Y0114605D01*
X0013980Y0114687D01*
X0013853Y0114774D01*
X0013728Y0114863D01*
X0013606Y0114956D01*
X0013487Y0115052D01*
X0013369Y0115151D01*
X0013255Y0115252D01*
X0013143Y0115357D01*
X0013034Y0115465D01*
X0012928Y0115576D01*
X0012824Y0115689D01*
X0012724Y0115805D01*
X0012626Y0115923D01*
X0012532Y0116044D01*
X0012441Y0116167D01*
X0012353Y0116293D01*
X0012269Y0116421D01*
X0012187Y0116551D01*
X0012110Y0116683D01*
X0012035Y0116817D01*
X0011964Y0116953D01*
X0011897Y0117091D01*
X0011833Y0117231D01*
X0011773Y0117372D01*
X0011717Y0117514D01*
X0011664Y0117658D01*
X0011615Y0117804D01*
X0011570Y0117950D01*
X0011529Y0118098D01*
X0011492Y0118246D01*
X0011458Y0118396D01*
X0011428Y0118547D01*
X0011403Y0118698D01*
X0011381Y0118849D01*
X0011363Y0119002D01*
X0011349Y0119154D01*
X0011339Y0119307D01*
X0011333Y0119461D01*
X0011331Y0119614D01*
X0192433Y0119614D02*
X0192435Y0119767D01*
X0192441Y0119921D01*
X0192451Y0120074D01*
X0192465Y0120226D01*
X0192483Y0120379D01*
X0192505Y0120530D01*
X0192530Y0120681D01*
X0192560Y0120832D01*
X0192594Y0120982D01*
X0192631Y0121130D01*
X0192672Y0121278D01*
X0192717Y0121424D01*
X0192766Y0121570D01*
X0192819Y0121714D01*
X0192875Y0121856D01*
X0192935Y0121997D01*
X0192999Y0122137D01*
X0193066Y0122275D01*
X0193137Y0122411D01*
X0193212Y0122545D01*
X0193289Y0122677D01*
X0193371Y0122807D01*
X0193455Y0122935D01*
X0193543Y0123061D01*
X0193634Y0123184D01*
X0193728Y0123305D01*
X0193826Y0123423D01*
X0193926Y0123539D01*
X0194030Y0123652D01*
X0194136Y0123763D01*
X0194245Y0123871D01*
X0194357Y0123976D01*
X0194471Y0124077D01*
X0194589Y0124176D01*
X0194708Y0124272D01*
X0194830Y0124365D01*
X0194955Y0124454D01*
X0195082Y0124541D01*
X0195211Y0124623D01*
X0195342Y0124703D01*
X0195475Y0124779D01*
X0195610Y0124852D01*
X0195747Y0124921D01*
X0195886Y0124986D01*
X0196026Y0125048D01*
X0196168Y0125106D01*
X0196311Y0125161D01*
X0196456Y0125212D01*
X0196602Y0125259D01*
X0196749Y0125302D01*
X0196897Y0125341D01*
X0197046Y0125377D01*
X0197196Y0125408D01*
X0197347Y0125436D01*
X0197498Y0125460D01*
X0197651Y0125480D01*
X0197803Y0125496D01*
X0197956Y0125508D01*
X0198109Y0125516D01*
X0198262Y0125520D01*
X0198416Y0125520D01*
X0198569Y0125516D01*
X0198722Y0125508D01*
X0198875Y0125496D01*
X0199027Y0125480D01*
X0199180Y0125460D01*
X0199331Y0125436D01*
X0199482Y0125408D01*
X0199632Y0125377D01*
X0199781Y0125341D01*
X0199929Y0125302D01*
X0200076Y0125259D01*
X0200222Y0125212D01*
X0200367Y0125161D01*
X0200510Y0125106D01*
X0200652Y0125048D01*
X0200792Y0124986D01*
X0200931Y0124921D01*
X0201068Y0124852D01*
X0201203Y0124779D01*
X0201336Y0124703D01*
X0201467Y0124623D01*
X0201596Y0124541D01*
X0201723Y0124454D01*
X0201848Y0124365D01*
X0201970Y0124272D01*
X0202089Y0124176D01*
X0202207Y0124077D01*
X0202321Y0123976D01*
X0202433Y0123871D01*
X0202542Y0123763D01*
X0202648Y0123652D01*
X0202752Y0123539D01*
X0202852Y0123423D01*
X0202950Y0123305D01*
X0203044Y0123184D01*
X0203135Y0123061D01*
X0203223Y0122935D01*
X0203307Y0122807D01*
X0203389Y0122677D01*
X0203466Y0122545D01*
X0203541Y0122411D01*
X0203612Y0122275D01*
X0203679Y0122137D01*
X0203743Y0121997D01*
X0203803Y0121856D01*
X0203859Y0121714D01*
X0203912Y0121570D01*
X0203961Y0121424D01*
X0204006Y0121278D01*
X0204047Y0121130D01*
X0204084Y0120982D01*
X0204118Y0120832D01*
X0204148Y0120681D01*
X0204173Y0120530D01*
X0204195Y0120379D01*
X0204213Y0120226D01*
X0204227Y0120074D01*
X0204237Y0119921D01*
X0204243Y0119767D01*
X0204245Y0119614D01*
X0204243Y0119461D01*
X0204237Y0119307D01*
X0204227Y0119154D01*
X0204213Y0119002D01*
X0204195Y0118849D01*
X0204173Y0118698D01*
X0204148Y0118547D01*
X0204118Y0118396D01*
X0204084Y0118246D01*
X0204047Y0118098D01*
X0204006Y0117950D01*
X0203961Y0117804D01*
X0203912Y0117658D01*
X0203859Y0117514D01*
X0203803Y0117372D01*
X0203743Y0117231D01*
X0203679Y0117091D01*
X0203612Y0116953D01*
X0203541Y0116817D01*
X0203466Y0116683D01*
X0203389Y0116551D01*
X0203307Y0116421D01*
X0203223Y0116293D01*
X0203135Y0116167D01*
X0203044Y0116044D01*
X0202950Y0115923D01*
X0202852Y0115805D01*
X0202752Y0115689D01*
X0202648Y0115576D01*
X0202542Y0115465D01*
X0202433Y0115357D01*
X0202321Y0115252D01*
X0202207Y0115151D01*
X0202089Y0115052D01*
X0201970Y0114956D01*
X0201848Y0114863D01*
X0201723Y0114774D01*
X0201596Y0114687D01*
X0201467Y0114605D01*
X0201336Y0114525D01*
X0201203Y0114449D01*
X0201068Y0114376D01*
X0200931Y0114307D01*
X0200792Y0114242D01*
X0200652Y0114180D01*
X0200510Y0114122D01*
X0200367Y0114067D01*
X0200222Y0114016D01*
X0200076Y0113969D01*
X0199929Y0113926D01*
X0199781Y0113887D01*
X0199632Y0113851D01*
X0199482Y0113820D01*
X0199331Y0113792D01*
X0199180Y0113768D01*
X0199027Y0113748D01*
X0198875Y0113732D01*
X0198722Y0113720D01*
X0198569Y0113712D01*
X0198416Y0113708D01*
X0198262Y0113708D01*
X0198109Y0113712D01*
X0197956Y0113720D01*
X0197803Y0113732D01*
X0197651Y0113748D01*
X0197498Y0113768D01*
X0197347Y0113792D01*
X0197196Y0113820D01*
X0197046Y0113851D01*
X0196897Y0113887D01*
X0196749Y0113926D01*
X0196602Y0113969D01*
X0196456Y0114016D01*
X0196311Y0114067D01*
X0196168Y0114122D01*
X0196026Y0114180D01*
X0195886Y0114242D01*
X0195747Y0114307D01*
X0195610Y0114376D01*
X0195475Y0114449D01*
X0195342Y0114525D01*
X0195211Y0114605D01*
X0195082Y0114687D01*
X0194955Y0114774D01*
X0194830Y0114863D01*
X0194708Y0114956D01*
X0194589Y0115052D01*
X0194471Y0115151D01*
X0194357Y0115252D01*
X0194245Y0115357D01*
X0194136Y0115465D01*
X0194030Y0115576D01*
X0193926Y0115689D01*
X0193826Y0115805D01*
X0193728Y0115923D01*
X0193634Y0116044D01*
X0193543Y0116167D01*
X0193455Y0116293D01*
X0193371Y0116421D01*
X0193289Y0116551D01*
X0193212Y0116683D01*
X0193137Y0116817D01*
X0193066Y0116953D01*
X0192999Y0117091D01*
X0192935Y0117231D01*
X0192875Y0117372D01*
X0192819Y0117514D01*
X0192766Y0117658D01*
X0192717Y0117804D01*
X0192672Y0117950D01*
X0192631Y0118098D01*
X0192594Y0118246D01*
X0192560Y0118396D01*
X0192530Y0118547D01*
X0192505Y0118698D01*
X0192483Y0118849D01*
X0192465Y0119002D01*
X0192451Y0119154D01*
X0192441Y0119307D01*
X0192435Y0119461D01*
X0192433Y0119614D01*
X0192433Y0036937D02*
X0192435Y0037090D01*
X0192441Y0037244D01*
X0192451Y0037397D01*
X0192465Y0037549D01*
X0192483Y0037702D01*
X0192505Y0037853D01*
X0192530Y0038004D01*
X0192560Y0038155D01*
X0192594Y0038305D01*
X0192631Y0038453D01*
X0192672Y0038601D01*
X0192717Y0038747D01*
X0192766Y0038893D01*
X0192819Y0039037D01*
X0192875Y0039179D01*
X0192935Y0039320D01*
X0192999Y0039460D01*
X0193066Y0039598D01*
X0193137Y0039734D01*
X0193212Y0039868D01*
X0193289Y0040000D01*
X0193371Y0040130D01*
X0193455Y0040258D01*
X0193543Y0040384D01*
X0193634Y0040507D01*
X0193728Y0040628D01*
X0193826Y0040746D01*
X0193926Y0040862D01*
X0194030Y0040975D01*
X0194136Y0041086D01*
X0194245Y0041194D01*
X0194357Y0041299D01*
X0194471Y0041400D01*
X0194589Y0041499D01*
X0194708Y0041595D01*
X0194830Y0041688D01*
X0194955Y0041777D01*
X0195082Y0041864D01*
X0195211Y0041946D01*
X0195342Y0042026D01*
X0195475Y0042102D01*
X0195610Y0042175D01*
X0195747Y0042244D01*
X0195886Y0042309D01*
X0196026Y0042371D01*
X0196168Y0042429D01*
X0196311Y0042484D01*
X0196456Y0042535D01*
X0196602Y0042582D01*
X0196749Y0042625D01*
X0196897Y0042664D01*
X0197046Y0042700D01*
X0197196Y0042731D01*
X0197347Y0042759D01*
X0197498Y0042783D01*
X0197651Y0042803D01*
X0197803Y0042819D01*
X0197956Y0042831D01*
X0198109Y0042839D01*
X0198262Y0042843D01*
X0198416Y0042843D01*
X0198569Y0042839D01*
X0198722Y0042831D01*
X0198875Y0042819D01*
X0199027Y0042803D01*
X0199180Y0042783D01*
X0199331Y0042759D01*
X0199482Y0042731D01*
X0199632Y0042700D01*
X0199781Y0042664D01*
X0199929Y0042625D01*
X0200076Y0042582D01*
X0200222Y0042535D01*
X0200367Y0042484D01*
X0200510Y0042429D01*
X0200652Y0042371D01*
X0200792Y0042309D01*
X0200931Y0042244D01*
X0201068Y0042175D01*
X0201203Y0042102D01*
X0201336Y0042026D01*
X0201467Y0041946D01*
X0201596Y0041864D01*
X0201723Y0041777D01*
X0201848Y0041688D01*
X0201970Y0041595D01*
X0202089Y0041499D01*
X0202207Y0041400D01*
X0202321Y0041299D01*
X0202433Y0041194D01*
X0202542Y0041086D01*
X0202648Y0040975D01*
X0202752Y0040862D01*
X0202852Y0040746D01*
X0202950Y0040628D01*
X0203044Y0040507D01*
X0203135Y0040384D01*
X0203223Y0040258D01*
X0203307Y0040130D01*
X0203389Y0040000D01*
X0203466Y0039868D01*
X0203541Y0039734D01*
X0203612Y0039598D01*
X0203679Y0039460D01*
X0203743Y0039320D01*
X0203803Y0039179D01*
X0203859Y0039037D01*
X0203912Y0038893D01*
X0203961Y0038747D01*
X0204006Y0038601D01*
X0204047Y0038453D01*
X0204084Y0038305D01*
X0204118Y0038155D01*
X0204148Y0038004D01*
X0204173Y0037853D01*
X0204195Y0037702D01*
X0204213Y0037549D01*
X0204227Y0037397D01*
X0204237Y0037244D01*
X0204243Y0037090D01*
X0204245Y0036937D01*
X0204243Y0036784D01*
X0204237Y0036630D01*
X0204227Y0036477D01*
X0204213Y0036325D01*
X0204195Y0036172D01*
X0204173Y0036021D01*
X0204148Y0035870D01*
X0204118Y0035719D01*
X0204084Y0035569D01*
X0204047Y0035421D01*
X0204006Y0035273D01*
X0203961Y0035127D01*
X0203912Y0034981D01*
X0203859Y0034837D01*
X0203803Y0034695D01*
X0203743Y0034554D01*
X0203679Y0034414D01*
X0203612Y0034276D01*
X0203541Y0034140D01*
X0203466Y0034006D01*
X0203389Y0033874D01*
X0203307Y0033744D01*
X0203223Y0033616D01*
X0203135Y0033490D01*
X0203044Y0033367D01*
X0202950Y0033246D01*
X0202852Y0033128D01*
X0202752Y0033012D01*
X0202648Y0032899D01*
X0202542Y0032788D01*
X0202433Y0032680D01*
X0202321Y0032575D01*
X0202207Y0032474D01*
X0202089Y0032375D01*
X0201970Y0032279D01*
X0201848Y0032186D01*
X0201723Y0032097D01*
X0201596Y0032010D01*
X0201467Y0031928D01*
X0201336Y0031848D01*
X0201203Y0031772D01*
X0201068Y0031699D01*
X0200931Y0031630D01*
X0200792Y0031565D01*
X0200652Y0031503D01*
X0200510Y0031445D01*
X0200367Y0031390D01*
X0200222Y0031339D01*
X0200076Y0031292D01*
X0199929Y0031249D01*
X0199781Y0031210D01*
X0199632Y0031174D01*
X0199482Y0031143D01*
X0199331Y0031115D01*
X0199180Y0031091D01*
X0199027Y0031071D01*
X0198875Y0031055D01*
X0198722Y0031043D01*
X0198569Y0031035D01*
X0198416Y0031031D01*
X0198262Y0031031D01*
X0198109Y0031035D01*
X0197956Y0031043D01*
X0197803Y0031055D01*
X0197651Y0031071D01*
X0197498Y0031091D01*
X0197347Y0031115D01*
X0197196Y0031143D01*
X0197046Y0031174D01*
X0196897Y0031210D01*
X0196749Y0031249D01*
X0196602Y0031292D01*
X0196456Y0031339D01*
X0196311Y0031390D01*
X0196168Y0031445D01*
X0196026Y0031503D01*
X0195886Y0031565D01*
X0195747Y0031630D01*
X0195610Y0031699D01*
X0195475Y0031772D01*
X0195342Y0031848D01*
X0195211Y0031928D01*
X0195082Y0032010D01*
X0194955Y0032097D01*
X0194830Y0032186D01*
X0194708Y0032279D01*
X0194589Y0032375D01*
X0194471Y0032474D01*
X0194357Y0032575D01*
X0194245Y0032680D01*
X0194136Y0032788D01*
X0194030Y0032899D01*
X0193926Y0033012D01*
X0193826Y0033128D01*
X0193728Y0033246D01*
X0193634Y0033367D01*
X0193543Y0033490D01*
X0193455Y0033616D01*
X0193371Y0033744D01*
X0193289Y0033874D01*
X0193212Y0034006D01*
X0193137Y0034140D01*
X0193066Y0034276D01*
X0192999Y0034414D01*
X0192935Y0034554D01*
X0192875Y0034695D01*
X0192819Y0034837D01*
X0192766Y0034981D01*
X0192717Y0035127D01*
X0192672Y0035273D01*
X0192631Y0035421D01*
X0192594Y0035569D01*
X0192560Y0035719D01*
X0192530Y0035870D01*
X0192505Y0036021D01*
X0192483Y0036172D01*
X0192465Y0036325D01*
X0192451Y0036477D01*
X0192441Y0036630D01*
X0192435Y0036784D01*
X0192433Y0036937D01*
D12*
X0198339Y0036937D03*
X0198339Y0119614D03*
X0017237Y0119614D03*
X0017237Y0036937D03*
D13*
X0092611Y0056016D03*
X0097572Y0056016D03*
X0102572Y0056016D03*
X0107572Y0056016D03*
X0113871Y0056016D03*
X0118831Y0056016D03*
X0123831Y0056016D03*
X0128831Y0056016D03*
X0128871Y0076913D03*
X0123871Y0076913D03*
X0118871Y0076913D03*
X0113871Y0076913D03*
X0107611Y0076913D03*
X0102611Y0076913D03*
X0097611Y0076913D03*
X0092611Y0076913D03*
D14*
X0195955Y0101526D03*
X0195955Y0108219D03*
D15*
X0064207Y0101824D03*
X0064207Y0096706D03*
X0041843Y0079850D03*
X0036922Y0079850D03*
X0036922Y0074732D03*
X0041843Y0074732D03*
X0051762Y0074619D03*
X0056683Y0074619D03*
X0061605Y0074619D03*
X0061605Y0069501D03*
X0056683Y0069501D03*
X0051762Y0069501D03*
D16*
X0066646Y0065630D03*
X0070387Y0065630D03*
X0074127Y0065630D03*
X0074127Y0055393D03*
X0066646Y0055393D03*
D17*
X0083482Y0050992D03*
X0083482Y0069492D03*
D18*
X0075060Y0071677D03*
X0068367Y0071677D03*
X0067040Y0049001D03*
X0073733Y0049001D03*
D19*
X0135938Y0044969D03*
X0145938Y0044969D03*
X0155938Y0044969D03*
X0165938Y0044969D03*
X0175938Y0044969D03*
X0185938Y0044969D03*
X0185938Y0054969D03*
X0175938Y0054969D03*
X0165938Y0054969D03*
X0155938Y0054969D03*
X0145938Y0054969D03*
X0135938Y0054969D03*
X0135938Y0034969D03*
X0145938Y0034969D03*
X0155938Y0034969D03*
X0165938Y0034969D03*
X0175938Y0034969D03*
X0185938Y0034969D03*
X0185938Y0101583D03*
X0175938Y0101583D03*
X0165938Y0101583D03*
X0155938Y0101583D03*
X0145938Y0101583D03*
X0135938Y0101583D03*
X0125938Y0101583D03*
X0115938Y0101583D03*
X0115938Y0111583D03*
X0125938Y0111583D03*
X0135938Y0111583D03*
X0145938Y0111583D03*
X0155938Y0111583D03*
X0165938Y0111583D03*
X0175938Y0111583D03*
X0185938Y0111583D03*
X0185938Y0121583D03*
X0175938Y0121583D03*
X0165938Y0121583D03*
X0155938Y0121583D03*
X0145938Y0121583D03*
X0135938Y0121583D03*
X0125938Y0121583D03*
X0115938Y0121583D03*
X0105938Y0121583D03*
X0095938Y0121583D03*
X0085938Y0121583D03*
X0075938Y0121583D03*
X0105938Y0111583D03*
D20*
X0135612Y0090711D03*
X0141911Y0090711D03*
X0141911Y0074963D03*
X0135612Y0074963D03*
D21*
X0043615Y0069713D03*
X0041646Y0069713D03*
X0039678Y0069713D03*
X0037709Y0069713D03*
X0035741Y0069713D03*
X0033772Y0069713D03*
X0033772Y0054161D03*
X0035741Y0054161D03*
X0037709Y0054161D03*
X0039678Y0054161D03*
X0041646Y0054161D03*
X0043615Y0054161D03*
D22*
X0046469Y0057016D03*
X0046469Y0058984D03*
X0046469Y0060953D03*
X0046469Y0062921D03*
X0046469Y0064890D03*
X0046469Y0066858D03*
X0030918Y0066858D03*
X0030918Y0064890D03*
X0030918Y0062921D03*
X0030918Y0060953D03*
X0030918Y0058984D03*
X0030918Y0057016D03*
D23*
X0038694Y0061937D03*
D24*
X0055258Y0057530D03*
X0060376Y0057530D03*
X0060376Y0052761D03*
X0055258Y0052761D03*
X0031607Y0090087D03*
X0026489Y0090087D03*
X0026489Y0096976D03*
X0031607Y0096976D03*
X0031607Y0101898D03*
X0026489Y0101898D03*
X0026489Y0106819D03*
X0031607Y0106819D03*
X0030426Y0111740D03*
X0035544Y0111740D03*
X0035544Y0116661D03*
X0030426Y0116661D03*
X0030426Y0121583D03*
X0035544Y0121583D03*
X0063573Y0122187D03*
X0068691Y0122187D03*
D25*
X0058576Y0102882D03*
X0058576Y0100913D03*
X0058576Y0098945D03*
X0058576Y0096976D03*
X0058576Y0095008D03*
X0058576Y0093039D03*
X0058576Y0091071D03*
X0058576Y0089102D03*
X0038891Y0089102D03*
X0038891Y0091071D03*
X0038891Y0093039D03*
X0038891Y0095008D03*
X0038891Y0096976D03*
X0038891Y0098945D03*
X0038891Y0100913D03*
X0038891Y0102882D03*
D26*
X0041843Y0105835D03*
X0043812Y0105835D03*
X0045780Y0105835D03*
X0047749Y0105835D03*
X0049717Y0105835D03*
X0051686Y0105835D03*
X0053654Y0105835D03*
X0055623Y0105835D03*
X0055623Y0086150D03*
X0053654Y0086150D03*
X0051686Y0086150D03*
X0049717Y0086150D03*
X0047749Y0086150D03*
X0045780Y0086150D03*
X0043812Y0086150D03*
X0041843Y0086150D03*
D27*
X0048733Y0095992D03*
D28*
X0044107Y0112232D03*
X0044107Y0119122D03*
X0053359Y0119122D03*
X0053359Y0112232D03*
D29*
X0073866Y0113335D03*
X0073866Y0108335D03*
X0073866Y0103335D03*
X0073866Y0098335D03*
X0094466Y0098335D03*
X0094466Y0103335D03*
X0094466Y0108335D03*
X0094466Y0113335D03*
D30*
X0060316Y0116805D02*
X0057280Y0116805D01*
X0060316Y0116805D02*
X0060316Y0113769D01*
X0057280Y0113769D01*
X0057280Y0116805D01*
X0057280Y0115069D02*
X0060316Y0115069D01*
X0060316Y0116369D02*
X0057280Y0116369D01*
X0057280Y0123711D02*
X0060316Y0123711D01*
X0060316Y0120675D01*
X0057280Y0120675D01*
X0057280Y0123711D01*
X0057280Y0121975D02*
X0060316Y0121975D01*
X0060316Y0123275D02*
X0057280Y0123275D01*
D31*
X0151312Y0090376D03*
X0156312Y0090376D03*
X0161312Y0090376D03*
X0166312Y0090376D03*
X0171312Y0090376D03*
X0176312Y0090376D03*
X0181312Y0090376D03*
X0186312Y0090376D03*
X0186312Y0066176D03*
X0181312Y0066176D03*
X0176312Y0066176D03*
X0171312Y0066176D03*
X0166312Y0066176D03*
X0161312Y0066176D03*
X0156312Y0066176D03*
X0151312Y0066176D03*
D32*
X0015269Y0064496D03*
X0015269Y0101898D03*
D33*
X0105938Y0101583D03*
D34*
X0101300Y0034969D03*
X0091300Y0034969D03*
X0081300Y0034969D03*
X0071300Y0034969D03*
X0061300Y0034969D03*
X0051300Y0034969D03*
X0041300Y0034969D03*
X0031300Y0034969D03*
X0111300Y0034969D03*
X0121300Y0034969D03*
M02*
